%TF.GenerationSoftware,KiCad,Pcbnew,8.0.5*%
%TF.CreationDate,2024-11-03T22:21:08+08:00*%
%TF.ProjectId,LEDshield,4c454473-6869-4656-9c64-2e6b69636164,rev?*%
%TF.SameCoordinates,Original*%
%TF.FileFunction,Copper,L2,Bot*%
%TF.FilePolarity,Positive*%
%FSLAX46Y46*%
G04 Gerber Fmt 4.6, Leading zero omitted, Abs format (unit mm)*
G04 Created by KiCad (PCBNEW 8.0.5) date 2024-11-03 22:21:08*
%MOMM*%
%LPD*%
G01*
G04 APERTURE LIST*
%ADD10C,0.100000*%
%ADD11C,0.150000*%
%ADD12C,0.300000*%
%ADD13C,0.400000*%
%TA.AperFunction,ViaPad*%
%ADD14C,0.600000*%
%TD*%
G04 APERTURE END LIST*
D10*
D11*
X177002200Y-166007200D02*
X285002200Y-166007200D01*
X285002200Y-198007200D01*
X177002200Y-198007200D01*
X177002200Y-166007200D01*
D10*
D11*
X10000000Y-10000000D02*
X287002200Y-10000000D01*
X287002200Y-200007200D01*
X10000000Y-200007200D01*
X10000000Y-10000000D01*
D10*
D11*
X12000000Y-12000000D02*
X285002200Y-12000000D01*
X285002200Y-198007200D01*
X12000000Y-198007200D01*
X12000000Y-12000000D01*
D10*
D11*
X60000000Y-12000000D02*
X60000000Y-10000000D01*
D10*
D11*
X110000000Y-12000000D02*
X110000000Y-10000000D01*
D10*
D11*
X160000000Y-12000000D02*
X160000000Y-10000000D01*
D10*
D11*
X210000000Y-12000000D02*
X210000000Y-10000000D01*
D10*
D11*
X260000000Y-12000000D02*
X260000000Y-10000000D01*
D10*
D11*
X36089160Y-11593604D02*
X35346303Y-11593604D01*
X35717731Y-11593604D02*
X35717731Y-10293604D01*
X35717731Y-10293604D02*
X35593922Y-10479319D01*
X35593922Y-10479319D02*
X35470112Y-10603128D01*
X35470112Y-10603128D02*
X35346303Y-10665033D01*
D10*
D11*
X85346303Y-10417414D02*
X85408207Y-10355509D01*
X85408207Y-10355509D02*
X85532017Y-10293604D01*
X85532017Y-10293604D02*
X85841541Y-10293604D01*
X85841541Y-10293604D02*
X85965350Y-10355509D01*
X85965350Y-10355509D02*
X86027255Y-10417414D01*
X86027255Y-10417414D02*
X86089160Y-10541223D01*
X86089160Y-10541223D02*
X86089160Y-10665033D01*
X86089160Y-10665033D02*
X86027255Y-10850747D01*
X86027255Y-10850747D02*
X85284398Y-11593604D01*
X85284398Y-11593604D02*
X86089160Y-11593604D01*
D10*
D11*
X135284398Y-10293604D02*
X136089160Y-10293604D01*
X136089160Y-10293604D02*
X135655826Y-10788842D01*
X135655826Y-10788842D02*
X135841541Y-10788842D01*
X135841541Y-10788842D02*
X135965350Y-10850747D01*
X135965350Y-10850747D02*
X136027255Y-10912652D01*
X136027255Y-10912652D02*
X136089160Y-11036461D01*
X136089160Y-11036461D02*
X136089160Y-11345985D01*
X136089160Y-11345985D02*
X136027255Y-11469795D01*
X136027255Y-11469795D02*
X135965350Y-11531700D01*
X135965350Y-11531700D02*
X135841541Y-11593604D01*
X135841541Y-11593604D02*
X135470112Y-11593604D01*
X135470112Y-11593604D02*
X135346303Y-11531700D01*
X135346303Y-11531700D02*
X135284398Y-11469795D01*
D10*
D11*
X185965350Y-10726938D02*
X185965350Y-11593604D01*
X185655826Y-10231700D02*
X185346303Y-11160271D01*
X185346303Y-11160271D02*
X186151064Y-11160271D01*
D10*
D11*
X236027255Y-10293604D02*
X235408207Y-10293604D01*
X235408207Y-10293604D02*
X235346303Y-10912652D01*
X235346303Y-10912652D02*
X235408207Y-10850747D01*
X235408207Y-10850747D02*
X235532017Y-10788842D01*
X235532017Y-10788842D02*
X235841541Y-10788842D01*
X235841541Y-10788842D02*
X235965350Y-10850747D01*
X235965350Y-10850747D02*
X236027255Y-10912652D01*
X236027255Y-10912652D02*
X236089160Y-11036461D01*
X236089160Y-11036461D02*
X236089160Y-11345985D01*
X236089160Y-11345985D02*
X236027255Y-11469795D01*
X236027255Y-11469795D02*
X235965350Y-11531700D01*
X235965350Y-11531700D02*
X235841541Y-11593604D01*
X235841541Y-11593604D02*
X235532017Y-11593604D01*
X235532017Y-11593604D02*
X235408207Y-11531700D01*
X235408207Y-11531700D02*
X235346303Y-11469795D01*
D10*
D11*
X285965350Y-10293604D02*
X285717731Y-10293604D01*
X285717731Y-10293604D02*
X285593922Y-10355509D01*
X285593922Y-10355509D02*
X285532017Y-10417414D01*
X285532017Y-10417414D02*
X285408207Y-10603128D01*
X285408207Y-10603128D02*
X285346303Y-10850747D01*
X285346303Y-10850747D02*
X285346303Y-11345985D01*
X285346303Y-11345985D02*
X285408207Y-11469795D01*
X285408207Y-11469795D02*
X285470112Y-11531700D01*
X285470112Y-11531700D02*
X285593922Y-11593604D01*
X285593922Y-11593604D02*
X285841541Y-11593604D01*
X285841541Y-11593604D02*
X285965350Y-11531700D01*
X285965350Y-11531700D02*
X286027255Y-11469795D01*
X286027255Y-11469795D02*
X286089160Y-11345985D01*
X286089160Y-11345985D02*
X286089160Y-11036461D01*
X286089160Y-11036461D02*
X286027255Y-10912652D01*
X286027255Y-10912652D02*
X285965350Y-10850747D01*
X285965350Y-10850747D02*
X285841541Y-10788842D01*
X285841541Y-10788842D02*
X285593922Y-10788842D01*
X285593922Y-10788842D02*
X285470112Y-10850747D01*
X285470112Y-10850747D02*
X285408207Y-10912652D01*
X285408207Y-10912652D02*
X285346303Y-11036461D01*
D10*
D11*
X60000000Y-198007200D02*
X60000000Y-200007200D01*
D10*
D11*
X110000000Y-198007200D02*
X110000000Y-200007200D01*
D10*
D11*
X160000000Y-198007200D02*
X160000000Y-200007200D01*
D10*
D11*
X210000000Y-198007200D02*
X210000000Y-200007200D01*
D10*
D11*
X260000000Y-198007200D02*
X260000000Y-200007200D01*
D10*
D11*
X36089160Y-199600804D02*
X35346303Y-199600804D01*
X35717731Y-199600804D02*
X35717731Y-198300804D01*
X35717731Y-198300804D02*
X35593922Y-198486519D01*
X35593922Y-198486519D02*
X35470112Y-198610328D01*
X35470112Y-198610328D02*
X35346303Y-198672233D01*
D10*
D11*
X85346303Y-198424614D02*
X85408207Y-198362709D01*
X85408207Y-198362709D02*
X85532017Y-198300804D01*
X85532017Y-198300804D02*
X85841541Y-198300804D01*
X85841541Y-198300804D02*
X85965350Y-198362709D01*
X85965350Y-198362709D02*
X86027255Y-198424614D01*
X86027255Y-198424614D02*
X86089160Y-198548423D01*
X86089160Y-198548423D02*
X86089160Y-198672233D01*
X86089160Y-198672233D02*
X86027255Y-198857947D01*
X86027255Y-198857947D02*
X85284398Y-199600804D01*
X85284398Y-199600804D02*
X86089160Y-199600804D01*
D10*
D11*
X135284398Y-198300804D02*
X136089160Y-198300804D01*
X136089160Y-198300804D02*
X135655826Y-198796042D01*
X135655826Y-198796042D02*
X135841541Y-198796042D01*
X135841541Y-198796042D02*
X135965350Y-198857947D01*
X135965350Y-198857947D02*
X136027255Y-198919852D01*
X136027255Y-198919852D02*
X136089160Y-199043661D01*
X136089160Y-199043661D02*
X136089160Y-199353185D01*
X136089160Y-199353185D02*
X136027255Y-199476995D01*
X136027255Y-199476995D02*
X135965350Y-199538900D01*
X135965350Y-199538900D02*
X135841541Y-199600804D01*
X135841541Y-199600804D02*
X135470112Y-199600804D01*
X135470112Y-199600804D02*
X135346303Y-199538900D01*
X135346303Y-199538900D02*
X135284398Y-199476995D01*
D10*
D11*
X185965350Y-198734138D02*
X185965350Y-199600804D01*
X185655826Y-198238900D02*
X185346303Y-199167471D01*
X185346303Y-199167471D02*
X186151064Y-199167471D01*
D10*
D11*
X236027255Y-198300804D02*
X235408207Y-198300804D01*
X235408207Y-198300804D02*
X235346303Y-198919852D01*
X235346303Y-198919852D02*
X235408207Y-198857947D01*
X235408207Y-198857947D02*
X235532017Y-198796042D01*
X235532017Y-198796042D02*
X235841541Y-198796042D01*
X235841541Y-198796042D02*
X235965350Y-198857947D01*
X235965350Y-198857947D02*
X236027255Y-198919852D01*
X236027255Y-198919852D02*
X236089160Y-199043661D01*
X236089160Y-199043661D02*
X236089160Y-199353185D01*
X236089160Y-199353185D02*
X236027255Y-199476995D01*
X236027255Y-199476995D02*
X235965350Y-199538900D01*
X235965350Y-199538900D02*
X235841541Y-199600804D01*
X235841541Y-199600804D02*
X235532017Y-199600804D01*
X235532017Y-199600804D02*
X235408207Y-199538900D01*
X235408207Y-199538900D02*
X235346303Y-199476995D01*
D10*
D11*
X285965350Y-198300804D02*
X285717731Y-198300804D01*
X285717731Y-198300804D02*
X285593922Y-198362709D01*
X285593922Y-198362709D02*
X285532017Y-198424614D01*
X285532017Y-198424614D02*
X285408207Y-198610328D01*
X285408207Y-198610328D02*
X285346303Y-198857947D01*
X285346303Y-198857947D02*
X285346303Y-199353185D01*
X285346303Y-199353185D02*
X285408207Y-199476995D01*
X285408207Y-199476995D02*
X285470112Y-199538900D01*
X285470112Y-199538900D02*
X285593922Y-199600804D01*
X285593922Y-199600804D02*
X285841541Y-199600804D01*
X285841541Y-199600804D02*
X285965350Y-199538900D01*
X285965350Y-199538900D02*
X286027255Y-199476995D01*
X286027255Y-199476995D02*
X286089160Y-199353185D01*
X286089160Y-199353185D02*
X286089160Y-199043661D01*
X286089160Y-199043661D02*
X286027255Y-198919852D01*
X286027255Y-198919852D02*
X285965350Y-198857947D01*
X285965350Y-198857947D02*
X285841541Y-198796042D01*
X285841541Y-198796042D02*
X285593922Y-198796042D01*
X285593922Y-198796042D02*
X285470112Y-198857947D01*
X285470112Y-198857947D02*
X285408207Y-198919852D01*
X285408207Y-198919852D02*
X285346303Y-199043661D01*
D10*
D11*
X10000000Y-60000000D02*
X12000000Y-60000000D01*
D10*
D11*
X10000000Y-110000000D02*
X12000000Y-110000000D01*
D10*
D11*
X10000000Y-160000000D02*
X12000000Y-160000000D01*
D10*
D11*
X10690476Y-35222176D02*
X11309523Y-35222176D01*
X10566666Y-35593604D02*
X10999999Y-34293604D01*
X10999999Y-34293604D02*
X11433333Y-35593604D01*
D10*
D11*
X11092857Y-84912652D02*
X11278571Y-84974557D01*
X11278571Y-84974557D02*
X11340476Y-85036461D01*
X11340476Y-85036461D02*
X11402380Y-85160271D01*
X11402380Y-85160271D02*
X11402380Y-85345985D01*
X11402380Y-85345985D02*
X11340476Y-85469795D01*
X11340476Y-85469795D02*
X11278571Y-85531700D01*
X11278571Y-85531700D02*
X11154761Y-85593604D01*
X11154761Y-85593604D02*
X10659523Y-85593604D01*
X10659523Y-85593604D02*
X10659523Y-84293604D01*
X10659523Y-84293604D02*
X11092857Y-84293604D01*
X11092857Y-84293604D02*
X11216666Y-84355509D01*
X11216666Y-84355509D02*
X11278571Y-84417414D01*
X11278571Y-84417414D02*
X11340476Y-84541223D01*
X11340476Y-84541223D02*
X11340476Y-84665033D01*
X11340476Y-84665033D02*
X11278571Y-84788842D01*
X11278571Y-84788842D02*
X11216666Y-84850747D01*
X11216666Y-84850747D02*
X11092857Y-84912652D01*
X11092857Y-84912652D02*
X10659523Y-84912652D01*
D10*
D11*
X11402380Y-135469795D02*
X11340476Y-135531700D01*
X11340476Y-135531700D02*
X11154761Y-135593604D01*
X11154761Y-135593604D02*
X11030952Y-135593604D01*
X11030952Y-135593604D02*
X10845238Y-135531700D01*
X10845238Y-135531700D02*
X10721428Y-135407890D01*
X10721428Y-135407890D02*
X10659523Y-135284080D01*
X10659523Y-135284080D02*
X10597619Y-135036461D01*
X10597619Y-135036461D02*
X10597619Y-134850747D01*
X10597619Y-134850747D02*
X10659523Y-134603128D01*
X10659523Y-134603128D02*
X10721428Y-134479319D01*
X10721428Y-134479319D02*
X10845238Y-134355509D01*
X10845238Y-134355509D02*
X11030952Y-134293604D01*
X11030952Y-134293604D02*
X11154761Y-134293604D01*
X11154761Y-134293604D02*
X11340476Y-134355509D01*
X11340476Y-134355509D02*
X11402380Y-134417414D01*
D10*
D11*
X10659523Y-185593604D02*
X10659523Y-184293604D01*
X10659523Y-184293604D02*
X10969047Y-184293604D01*
X10969047Y-184293604D02*
X11154761Y-184355509D01*
X11154761Y-184355509D02*
X11278571Y-184479319D01*
X11278571Y-184479319D02*
X11340476Y-184603128D01*
X11340476Y-184603128D02*
X11402380Y-184850747D01*
X11402380Y-184850747D02*
X11402380Y-185036461D01*
X11402380Y-185036461D02*
X11340476Y-185284080D01*
X11340476Y-185284080D02*
X11278571Y-185407890D01*
X11278571Y-185407890D02*
X11154761Y-185531700D01*
X11154761Y-185531700D02*
X10969047Y-185593604D01*
X10969047Y-185593604D02*
X10659523Y-185593604D01*
D10*
D11*
X287002200Y-60000000D02*
X285002200Y-60000000D01*
D10*
D11*
X287002200Y-110000000D02*
X285002200Y-110000000D01*
D10*
D11*
X287002200Y-160000000D02*
X285002200Y-160000000D01*
D10*
D11*
X285692676Y-35222176D02*
X286311723Y-35222176D01*
X285568866Y-35593604D02*
X286002199Y-34293604D01*
X286002199Y-34293604D02*
X286435533Y-35593604D01*
D10*
D11*
X286095057Y-84912652D02*
X286280771Y-84974557D01*
X286280771Y-84974557D02*
X286342676Y-85036461D01*
X286342676Y-85036461D02*
X286404580Y-85160271D01*
X286404580Y-85160271D02*
X286404580Y-85345985D01*
X286404580Y-85345985D02*
X286342676Y-85469795D01*
X286342676Y-85469795D02*
X286280771Y-85531700D01*
X286280771Y-85531700D02*
X286156961Y-85593604D01*
X286156961Y-85593604D02*
X285661723Y-85593604D01*
X285661723Y-85593604D02*
X285661723Y-84293604D01*
X285661723Y-84293604D02*
X286095057Y-84293604D01*
X286095057Y-84293604D02*
X286218866Y-84355509D01*
X286218866Y-84355509D02*
X286280771Y-84417414D01*
X286280771Y-84417414D02*
X286342676Y-84541223D01*
X286342676Y-84541223D02*
X286342676Y-84665033D01*
X286342676Y-84665033D02*
X286280771Y-84788842D01*
X286280771Y-84788842D02*
X286218866Y-84850747D01*
X286218866Y-84850747D02*
X286095057Y-84912652D01*
X286095057Y-84912652D02*
X285661723Y-84912652D01*
D10*
D11*
X286404580Y-135469795D02*
X286342676Y-135531700D01*
X286342676Y-135531700D02*
X286156961Y-135593604D01*
X286156961Y-135593604D02*
X286033152Y-135593604D01*
X286033152Y-135593604D02*
X285847438Y-135531700D01*
X285847438Y-135531700D02*
X285723628Y-135407890D01*
X285723628Y-135407890D02*
X285661723Y-135284080D01*
X285661723Y-135284080D02*
X285599819Y-135036461D01*
X285599819Y-135036461D02*
X285599819Y-134850747D01*
X285599819Y-134850747D02*
X285661723Y-134603128D01*
X285661723Y-134603128D02*
X285723628Y-134479319D01*
X285723628Y-134479319D02*
X285847438Y-134355509D01*
X285847438Y-134355509D02*
X286033152Y-134293604D01*
X286033152Y-134293604D02*
X286156961Y-134293604D01*
X286156961Y-134293604D02*
X286342676Y-134355509D01*
X286342676Y-134355509D02*
X286404580Y-134417414D01*
D10*
D11*
X285661723Y-185593604D02*
X285661723Y-184293604D01*
X285661723Y-184293604D02*
X285971247Y-184293604D01*
X285971247Y-184293604D02*
X286156961Y-184355509D01*
X286156961Y-184355509D02*
X286280771Y-184479319D01*
X286280771Y-184479319D02*
X286342676Y-184603128D01*
X286342676Y-184603128D02*
X286404580Y-184850747D01*
X286404580Y-184850747D02*
X286404580Y-185036461D01*
X286404580Y-185036461D02*
X286342676Y-185284080D01*
X286342676Y-185284080D02*
X286280771Y-185407890D01*
X286280771Y-185407890D02*
X286156961Y-185531700D01*
X286156961Y-185531700D02*
X285971247Y-185593604D01*
X285971247Y-185593604D02*
X285661723Y-185593604D01*
D10*
D11*
X200458026Y-193793328D02*
X200458026Y-192293328D01*
X200458026Y-192293328D02*
X200815169Y-192293328D01*
X200815169Y-192293328D02*
X201029455Y-192364757D01*
X201029455Y-192364757D02*
X201172312Y-192507614D01*
X201172312Y-192507614D02*
X201243741Y-192650471D01*
X201243741Y-192650471D02*
X201315169Y-192936185D01*
X201315169Y-192936185D02*
X201315169Y-193150471D01*
X201315169Y-193150471D02*
X201243741Y-193436185D01*
X201243741Y-193436185D02*
X201172312Y-193579042D01*
X201172312Y-193579042D02*
X201029455Y-193721900D01*
X201029455Y-193721900D02*
X200815169Y-193793328D01*
X200815169Y-193793328D02*
X200458026Y-193793328D01*
X202600884Y-193793328D02*
X202600884Y-193007614D01*
X202600884Y-193007614D02*
X202529455Y-192864757D01*
X202529455Y-192864757D02*
X202386598Y-192793328D01*
X202386598Y-192793328D02*
X202100884Y-192793328D01*
X202100884Y-192793328D02*
X201958026Y-192864757D01*
X202600884Y-193721900D02*
X202458026Y-193793328D01*
X202458026Y-193793328D02*
X202100884Y-193793328D01*
X202100884Y-193793328D02*
X201958026Y-193721900D01*
X201958026Y-193721900D02*
X201886598Y-193579042D01*
X201886598Y-193579042D02*
X201886598Y-193436185D01*
X201886598Y-193436185D02*
X201958026Y-193293328D01*
X201958026Y-193293328D02*
X202100884Y-193221900D01*
X202100884Y-193221900D02*
X202458026Y-193221900D01*
X202458026Y-193221900D02*
X202600884Y-193150471D01*
X203100884Y-192793328D02*
X203672312Y-192793328D01*
X203315169Y-192293328D02*
X203315169Y-193579042D01*
X203315169Y-193579042D02*
X203386598Y-193721900D01*
X203386598Y-193721900D02*
X203529455Y-193793328D01*
X203529455Y-193793328D02*
X203672312Y-193793328D01*
X204743741Y-193721900D02*
X204600884Y-193793328D01*
X204600884Y-193793328D02*
X204315170Y-193793328D01*
X204315170Y-193793328D02*
X204172312Y-193721900D01*
X204172312Y-193721900D02*
X204100884Y-193579042D01*
X204100884Y-193579042D02*
X204100884Y-193007614D01*
X204100884Y-193007614D02*
X204172312Y-192864757D01*
X204172312Y-192864757D02*
X204315170Y-192793328D01*
X204315170Y-192793328D02*
X204600884Y-192793328D01*
X204600884Y-192793328D02*
X204743741Y-192864757D01*
X204743741Y-192864757D02*
X204815170Y-193007614D01*
X204815170Y-193007614D02*
X204815170Y-193150471D01*
X204815170Y-193150471D02*
X204100884Y-193293328D01*
X205458026Y-193650471D02*
X205529455Y-193721900D01*
X205529455Y-193721900D02*
X205458026Y-193793328D01*
X205458026Y-193793328D02*
X205386598Y-193721900D01*
X205386598Y-193721900D02*
X205458026Y-193650471D01*
X205458026Y-193650471D02*
X205458026Y-193793328D01*
X205458026Y-192864757D02*
X205529455Y-192936185D01*
X205529455Y-192936185D02*
X205458026Y-193007614D01*
X205458026Y-193007614D02*
X205386598Y-192936185D01*
X205386598Y-192936185D02*
X205458026Y-192864757D01*
X205458026Y-192864757D02*
X205458026Y-193007614D01*
D10*
D11*
X177002200Y-194507200D02*
X285002200Y-194507200D01*
D10*
D11*
X178458026Y-196593328D02*
X178458026Y-195093328D01*
X179315169Y-196593328D02*
X178672312Y-195736185D01*
X179315169Y-195093328D02*
X178458026Y-195950471D01*
X179958026Y-196593328D02*
X179958026Y-195593328D01*
X179958026Y-195093328D02*
X179886598Y-195164757D01*
X179886598Y-195164757D02*
X179958026Y-195236185D01*
X179958026Y-195236185D02*
X180029455Y-195164757D01*
X180029455Y-195164757D02*
X179958026Y-195093328D01*
X179958026Y-195093328D02*
X179958026Y-195236185D01*
X181529455Y-196450471D02*
X181458027Y-196521900D01*
X181458027Y-196521900D02*
X181243741Y-196593328D01*
X181243741Y-196593328D02*
X181100884Y-196593328D01*
X181100884Y-196593328D02*
X180886598Y-196521900D01*
X180886598Y-196521900D02*
X180743741Y-196379042D01*
X180743741Y-196379042D02*
X180672312Y-196236185D01*
X180672312Y-196236185D02*
X180600884Y-195950471D01*
X180600884Y-195950471D02*
X180600884Y-195736185D01*
X180600884Y-195736185D02*
X180672312Y-195450471D01*
X180672312Y-195450471D02*
X180743741Y-195307614D01*
X180743741Y-195307614D02*
X180886598Y-195164757D01*
X180886598Y-195164757D02*
X181100884Y-195093328D01*
X181100884Y-195093328D02*
X181243741Y-195093328D01*
X181243741Y-195093328D02*
X181458027Y-195164757D01*
X181458027Y-195164757D02*
X181529455Y-195236185D01*
X182815170Y-196593328D02*
X182815170Y-195807614D01*
X182815170Y-195807614D02*
X182743741Y-195664757D01*
X182743741Y-195664757D02*
X182600884Y-195593328D01*
X182600884Y-195593328D02*
X182315170Y-195593328D01*
X182315170Y-195593328D02*
X182172312Y-195664757D01*
X182815170Y-196521900D02*
X182672312Y-196593328D01*
X182672312Y-196593328D02*
X182315170Y-196593328D01*
X182315170Y-196593328D02*
X182172312Y-196521900D01*
X182172312Y-196521900D02*
X182100884Y-196379042D01*
X182100884Y-196379042D02*
X182100884Y-196236185D01*
X182100884Y-196236185D02*
X182172312Y-196093328D01*
X182172312Y-196093328D02*
X182315170Y-196021900D01*
X182315170Y-196021900D02*
X182672312Y-196021900D01*
X182672312Y-196021900D02*
X182815170Y-195950471D01*
X184172313Y-196593328D02*
X184172313Y-195093328D01*
X184172313Y-196521900D02*
X184029455Y-196593328D01*
X184029455Y-196593328D02*
X183743741Y-196593328D01*
X183743741Y-196593328D02*
X183600884Y-196521900D01*
X183600884Y-196521900D02*
X183529455Y-196450471D01*
X183529455Y-196450471D02*
X183458027Y-196307614D01*
X183458027Y-196307614D02*
X183458027Y-195879042D01*
X183458027Y-195879042D02*
X183529455Y-195736185D01*
X183529455Y-195736185D02*
X183600884Y-195664757D01*
X183600884Y-195664757D02*
X183743741Y-195593328D01*
X183743741Y-195593328D02*
X184029455Y-195593328D01*
X184029455Y-195593328D02*
X184172313Y-195664757D01*
X186029455Y-195807614D02*
X186529455Y-195807614D01*
X186743741Y-196593328D02*
X186029455Y-196593328D01*
X186029455Y-196593328D02*
X186029455Y-195093328D01*
X186029455Y-195093328D02*
X186743741Y-195093328D01*
X187386598Y-196450471D02*
X187458027Y-196521900D01*
X187458027Y-196521900D02*
X187386598Y-196593328D01*
X187386598Y-196593328D02*
X187315170Y-196521900D01*
X187315170Y-196521900D02*
X187386598Y-196450471D01*
X187386598Y-196450471D02*
X187386598Y-196593328D01*
X188100884Y-196593328D02*
X188100884Y-195093328D01*
X188100884Y-195093328D02*
X188458027Y-195093328D01*
X188458027Y-195093328D02*
X188672313Y-195164757D01*
X188672313Y-195164757D02*
X188815170Y-195307614D01*
X188815170Y-195307614D02*
X188886599Y-195450471D01*
X188886599Y-195450471D02*
X188958027Y-195736185D01*
X188958027Y-195736185D02*
X188958027Y-195950471D01*
X188958027Y-195950471D02*
X188886599Y-196236185D01*
X188886599Y-196236185D02*
X188815170Y-196379042D01*
X188815170Y-196379042D02*
X188672313Y-196521900D01*
X188672313Y-196521900D02*
X188458027Y-196593328D01*
X188458027Y-196593328D02*
X188100884Y-196593328D01*
X189600884Y-196450471D02*
X189672313Y-196521900D01*
X189672313Y-196521900D02*
X189600884Y-196593328D01*
X189600884Y-196593328D02*
X189529456Y-196521900D01*
X189529456Y-196521900D02*
X189600884Y-196450471D01*
X189600884Y-196450471D02*
X189600884Y-196593328D01*
X190243742Y-196164757D02*
X190958028Y-196164757D01*
X190100885Y-196593328D02*
X190600885Y-195093328D01*
X190600885Y-195093328D02*
X191100885Y-196593328D01*
X191600884Y-196450471D02*
X191672313Y-196521900D01*
X191672313Y-196521900D02*
X191600884Y-196593328D01*
X191600884Y-196593328D02*
X191529456Y-196521900D01*
X191529456Y-196521900D02*
X191600884Y-196450471D01*
X191600884Y-196450471D02*
X191600884Y-196593328D01*
X193672313Y-195736185D02*
X193529456Y-195664757D01*
X193529456Y-195664757D02*
X193458027Y-195593328D01*
X193458027Y-195593328D02*
X193386599Y-195450471D01*
X193386599Y-195450471D02*
X193386599Y-195379042D01*
X193386599Y-195379042D02*
X193458027Y-195236185D01*
X193458027Y-195236185D02*
X193529456Y-195164757D01*
X193529456Y-195164757D02*
X193672313Y-195093328D01*
X193672313Y-195093328D02*
X193958027Y-195093328D01*
X193958027Y-195093328D02*
X194100885Y-195164757D01*
X194100885Y-195164757D02*
X194172313Y-195236185D01*
X194172313Y-195236185D02*
X194243742Y-195379042D01*
X194243742Y-195379042D02*
X194243742Y-195450471D01*
X194243742Y-195450471D02*
X194172313Y-195593328D01*
X194172313Y-195593328D02*
X194100885Y-195664757D01*
X194100885Y-195664757D02*
X193958027Y-195736185D01*
X193958027Y-195736185D02*
X193672313Y-195736185D01*
X193672313Y-195736185D02*
X193529456Y-195807614D01*
X193529456Y-195807614D02*
X193458027Y-195879042D01*
X193458027Y-195879042D02*
X193386599Y-196021900D01*
X193386599Y-196021900D02*
X193386599Y-196307614D01*
X193386599Y-196307614D02*
X193458027Y-196450471D01*
X193458027Y-196450471D02*
X193529456Y-196521900D01*
X193529456Y-196521900D02*
X193672313Y-196593328D01*
X193672313Y-196593328D02*
X193958027Y-196593328D01*
X193958027Y-196593328D02*
X194100885Y-196521900D01*
X194100885Y-196521900D02*
X194172313Y-196450471D01*
X194172313Y-196450471D02*
X194243742Y-196307614D01*
X194243742Y-196307614D02*
X194243742Y-196021900D01*
X194243742Y-196021900D02*
X194172313Y-195879042D01*
X194172313Y-195879042D02*
X194100885Y-195807614D01*
X194100885Y-195807614D02*
X193958027Y-195736185D01*
X194886598Y-196450471D02*
X194958027Y-196521900D01*
X194958027Y-196521900D02*
X194886598Y-196593328D01*
X194886598Y-196593328D02*
X194815170Y-196521900D01*
X194815170Y-196521900D02*
X194886598Y-196450471D01*
X194886598Y-196450471D02*
X194886598Y-196593328D01*
X195886599Y-195093328D02*
X196029456Y-195093328D01*
X196029456Y-195093328D02*
X196172313Y-195164757D01*
X196172313Y-195164757D02*
X196243742Y-195236185D01*
X196243742Y-195236185D02*
X196315170Y-195379042D01*
X196315170Y-195379042D02*
X196386599Y-195664757D01*
X196386599Y-195664757D02*
X196386599Y-196021900D01*
X196386599Y-196021900D02*
X196315170Y-196307614D01*
X196315170Y-196307614D02*
X196243742Y-196450471D01*
X196243742Y-196450471D02*
X196172313Y-196521900D01*
X196172313Y-196521900D02*
X196029456Y-196593328D01*
X196029456Y-196593328D02*
X195886599Y-196593328D01*
X195886599Y-196593328D02*
X195743742Y-196521900D01*
X195743742Y-196521900D02*
X195672313Y-196450471D01*
X195672313Y-196450471D02*
X195600884Y-196307614D01*
X195600884Y-196307614D02*
X195529456Y-196021900D01*
X195529456Y-196021900D02*
X195529456Y-195664757D01*
X195529456Y-195664757D02*
X195600884Y-195379042D01*
X195600884Y-195379042D02*
X195672313Y-195236185D01*
X195672313Y-195236185D02*
X195743742Y-195164757D01*
X195743742Y-195164757D02*
X195886599Y-195093328D01*
X197029455Y-196450471D02*
X197100884Y-196521900D01*
X197100884Y-196521900D02*
X197029455Y-196593328D01*
X197029455Y-196593328D02*
X196958027Y-196521900D01*
X196958027Y-196521900D02*
X197029455Y-196450471D01*
X197029455Y-196450471D02*
X197029455Y-196593328D01*
X198458027Y-195093328D02*
X197743741Y-195093328D01*
X197743741Y-195093328D02*
X197672313Y-195807614D01*
X197672313Y-195807614D02*
X197743741Y-195736185D01*
X197743741Y-195736185D02*
X197886599Y-195664757D01*
X197886599Y-195664757D02*
X198243741Y-195664757D01*
X198243741Y-195664757D02*
X198386599Y-195736185D01*
X198386599Y-195736185D02*
X198458027Y-195807614D01*
X198458027Y-195807614D02*
X198529456Y-195950471D01*
X198529456Y-195950471D02*
X198529456Y-196307614D01*
X198529456Y-196307614D02*
X198458027Y-196450471D01*
X198458027Y-196450471D02*
X198386599Y-196521900D01*
X198386599Y-196521900D02*
X198243741Y-196593328D01*
X198243741Y-196593328D02*
X197886599Y-196593328D01*
X197886599Y-196593328D02*
X197743741Y-196521900D01*
X197743741Y-196521900D02*
X197672313Y-196450471D01*
D10*
D11*
X177002200Y-191507200D02*
X285002200Y-191507200D01*
D10*
D12*
X264413853Y-193785528D02*
X263913853Y-193071242D01*
X263556710Y-193785528D02*
X263556710Y-192285528D01*
X263556710Y-192285528D02*
X264128139Y-192285528D01*
X264128139Y-192285528D02*
X264270996Y-192356957D01*
X264270996Y-192356957D02*
X264342425Y-192428385D01*
X264342425Y-192428385D02*
X264413853Y-192571242D01*
X264413853Y-192571242D02*
X264413853Y-192785528D01*
X264413853Y-192785528D02*
X264342425Y-192928385D01*
X264342425Y-192928385D02*
X264270996Y-192999814D01*
X264270996Y-192999814D02*
X264128139Y-193071242D01*
X264128139Y-193071242D02*
X263556710Y-193071242D01*
X265628139Y-193714100D02*
X265485282Y-193785528D01*
X265485282Y-193785528D02*
X265199568Y-193785528D01*
X265199568Y-193785528D02*
X265056710Y-193714100D01*
X265056710Y-193714100D02*
X264985282Y-193571242D01*
X264985282Y-193571242D02*
X264985282Y-192999814D01*
X264985282Y-192999814D02*
X265056710Y-192856957D01*
X265056710Y-192856957D02*
X265199568Y-192785528D01*
X265199568Y-192785528D02*
X265485282Y-192785528D01*
X265485282Y-192785528D02*
X265628139Y-192856957D01*
X265628139Y-192856957D02*
X265699568Y-192999814D01*
X265699568Y-192999814D02*
X265699568Y-193142671D01*
X265699568Y-193142671D02*
X264985282Y-193285528D01*
X266199567Y-192785528D02*
X266556710Y-193785528D01*
X266556710Y-193785528D02*
X266913853Y-192785528D01*
X267485281Y-193642671D02*
X267556710Y-193714100D01*
X267556710Y-193714100D02*
X267485281Y-193785528D01*
X267485281Y-193785528D02*
X267413853Y-193714100D01*
X267413853Y-193714100D02*
X267485281Y-193642671D01*
X267485281Y-193642671D02*
X267485281Y-193785528D01*
X267485281Y-192856957D02*
X267556710Y-192928385D01*
X267556710Y-192928385D02*
X267485281Y-192999814D01*
X267485281Y-192999814D02*
X267413853Y-192928385D01*
X267413853Y-192928385D02*
X267485281Y-192856957D01*
X267485281Y-192856957D02*
X267485281Y-192999814D01*
D10*
D11*
X178386598Y-193721900D02*
X178600884Y-193793328D01*
X178600884Y-193793328D02*
X178958026Y-193793328D01*
X178958026Y-193793328D02*
X179100884Y-193721900D01*
X179100884Y-193721900D02*
X179172312Y-193650471D01*
X179172312Y-193650471D02*
X179243741Y-193507614D01*
X179243741Y-193507614D02*
X179243741Y-193364757D01*
X179243741Y-193364757D02*
X179172312Y-193221900D01*
X179172312Y-193221900D02*
X179100884Y-193150471D01*
X179100884Y-193150471D02*
X178958026Y-193079042D01*
X178958026Y-193079042D02*
X178672312Y-193007614D01*
X178672312Y-193007614D02*
X178529455Y-192936185D01*
X178529455Y-192936185D02*
X178458026Y-192864757D01*
X178458026Y-192864757D02*
X178386598Y-192721900D01*
X178386598Y-192721900D02*
X178386598Y-192579042D01*
X178386598Y-192579042D02*
X178458026Y-192436185D01*
X178458026Y-192436185D02*
X178529455Y-192364757D01*
X178529455Y-192364757D02*
X178672312Y-192293328D01*
X178672312Y-192293328D02*
X179029455Y-192293328D01*
X179029455Y-192293328D02*
X179243741Y-192364757D01*
X179886597Y-193793328D02*
X179886597Y-192793328D01*
X179886597Y-192293328D02*
X179815169Y-192364757D01*
X179815169Y-192364757D02*
X179886597Y-192436185D01*
X179886597Y-192436185D02*
X179958026Y-192364757D01*
X179958026Y-192364757D02*
X179886597Y-192293328D01*
X179886597Y-192293328D02*
X179886597Y-192436185D01*
X180458026Y-192793328D02*
X181243741Y-192793328D01*
X181243741Y-192793328D02*
X180458026Y-193793328D01*
X180458026Y-193793328D02*
X181243741Y-193793328D01*
X182386598Y-193721900D02*
X182243741Y-193793328D01*
X182243741Y-193793328D02*
X181958027Y-193793328D01*
X181958027Y-193793328D02*
X181815169Y-193721900D01*
X181815169Y-193721900D02*
X181743741Y-193579042D01*
X181743741Y-193579042D02*
X181743741Y-193007614D01*
X181743741Y-193007614D02*
X181815169Y-192864757D01*
X181815169Y-192864757D02*
X181958027Y-192793328D01*
X181958027Y-192793328D02*
X182243741Y-192793328D01*
X182243741Y-192793328D02*
X182386598Y-192864757D01*
X182386598Y-192864757D02*
X182458027Y-193007614D01*
X182458027Y-193007614D02*
X182458027Y-193150471D01*
X182458027Y-193150471D02*
X181743741Y-193293328D01*
X183100883Y-193650471D02*
X183172312Y-193721900D01*
X183172312Y-193721900D02*
X183100883Y-193793328D01*
X183100883Y-193793328D02*
X183029455Y-193721900D01*
X183029455Y-193721900D02*
X183100883Y-193650471D01*
X183100883Y-193650471D02*
X183100883Y-193793328D01*
X183100883Y-192864757D02*
X183172312Y-192936185D01*
X183172312Y-192936185D02*
X183100883Y-193007614D01*
X183100883Y-193007614D02*
X183029455Y-192936185D01*
X183029455Y-192936185D02*
X183100883Y-192864757D01*
X183100883Y-192864757D02*
X183100883Y-193007614D01*
X184886598Y-193364757D02*
X185600884Y-193364757D01*
X184743741Y-193793328D02*
X185243741Y-192293328D01*
X185243741Y-192293328D02*
X185743741Y-193793328D01*
X186886598Y-192793328D02*
X186886598Y-193793328D01*
X186529455Y-192221900D02*
X186172312Y-193293328D01*
X186172312Y-193293328D02*
X187100883Y-193293328D01*
D10*
D11*
X263458026Y-196593328D02*
X263458026Y-195093328D01*
X264815170Y-196593328D02*
X264815170Y-195093328D01*
X264815170Y-196521900D02*
X264672312Y-196593328D01*
X264672312Y-196593328D02*
X264386598Y-196593328D01*
X264386598Y-196593328D02*
X264243741Y-196521900D01*
X264243741Y-196521900D02*
X264172312Y-196450471D01*
X264172312Y-196450471D02*
X264100884Y-196307614D01*
X264100884Y-196307614D02*
X264100884Y-195879042D01*
X264100884Y-195879042D02*
X264172312Y-195736185D01*
X264172312Y-195736185D02*
X264243741Y-195664757D01*
X264243741Y-195664757D02*
X264386598Y-195593328D01*
X264386598Y-195593328D02*
X264672312Y-195593328D01*
X264672312Y-195593328D02*
X264815170Y-195664757D01*
X265529455Y-196450471D02*
X265600884Y-196521900D01*
X265600884Y-196521900D02*
X265529455Y-196593328D01*
X265529455Y-196593328D02*
X265458027Y-196521900D01*
X265458027Y-196521900D02*
X265529455Y-196450471D01*
X265529455Y-196450471D02*
X265529455Y-196593328D01*
X265529455Y-195664757D02*
X265600884Y-195736185D01*
X265600884Y-195736185D02*
X265529455Y-195807614D01*
X265529455Y-195807614D02*
X265458027Y-195736185D01*
X265458027Y-195736185D02*
X265529455Y-195664757D01*
X265529455Y-195664757D02*
X265529455Y-195807614D01*
X268172313Y-196593328D02*
X267315170Y-196593328D01*
X267743741Y-196593328D02*
X267743741Y-195093328D01*
X267743741Y-195093328D02*
X267600884Y-195307614D01*
X267600884Y-195307614D02*
X267458027Y-195450471D01*
X267458027Y-195450471D02*
X267315170Y-195521900D01*
X269886598Y-195021900D02*
X268600884Y-196950471D01*
X271172313Y-196593328D02*
X270315170Y-196593328D01*
X270743741Y-196593328D02*
X270743741Y-195093328D01*
X270743741Y-195093328D02*
X270600884Y-195307614D01*
X270600884Y-195307614D02*
X270458027Y-195450471D01*
X270458027Y-195450471D02*
X270315170Y-195521900D01*
D10*
D11*
X177002200Y-187507200D02*
X285002200Y-187507200D01*
D10*
D13*
X178693928Y-188211638D02*
X179836785Y-188211638D01*
X179015357Y-190211638D02*
X179265357Y-188211638D01*
X180253452Y-190211638D02*
X180420119Y-188878304D01*
X180503452Y-188211638D02*
X180396309Y-188306876D01*
X180396309Y-188306876D02*
X180479643Y-188402114D01*
X180479643Y-188402114D02*
X180586786Y-188306876D01*
X180586786Y-188306876D02*
X180503452Y-188211638D01*
X180503452Y-188211638D02*
X180479643Y-188402114D01*
X181086786Y-188878304D02*
X181848690Y-188878304D01*
X181455833Y-188211638D02*
X181241548Y-189925923D01*
X181241548Y-189925923D02*
X181312976Y-190116400D01*
X181312976Y-190116400D02*
X181491548Y-190211638D01*
X181491548Y-190211638D02*
X181682024Y-190211638D01*
X182634405Y-190211638D02*
X182455833Y-190116400D01*
X182455833Y-190116400D02*
X182384405Y-189925923D01*
X182384405Y-189925923D02*
X182598690Y-188211638D01*
X184170119Y-190116400D02*
X183967738Y-190211638D01*
X183967738Y-190211638D02*
X183586785Y-190211638D01*
X183586785Y-190211638D02*
X183408214Y-190116400D01*
X183408214Y-190116400D02*
X183336785Y-189925923D01*
X183336785Y-189925923D02*
X183432024Y-189164019D01*
X183432024Y-189164019D02*
X183551071Y-188973542D01*
X183551071Y-188973542D02*
X183753452Y-188878304D01*
X183753452Y-188878304D02*
X184134404Y-188878304D01*
X184134404Y-188878304D02*
X184312976Y-188973542D01*
X184312976Y-188973542D02*
X184384404Y-189164019D01*
X184384404Y-189164019D02*
X184360595Y-189354495D01*
X184360595Y-189354495D02*
X183384404Y-189544971D01*
X185134405Y-190021161D02*
X185217738Y-190116400D01*
X185217738Y-190116400D02*
X185110595Y-190211638D01*
X185110595Y-190211638D02*
X185027262Y-190116400D01*
X185027262Y-190116400D02*
X185134405Y-190021161D01*
X185134405Y-190021161D02*
X185110595Y-190211638D01*
X185265357Y-188973542D02*
X185348690Y-189068780D01*
X185348690Y-189068780D02*
X185241548Y-189164019D01*
X185241548Y-189164019D02*
X185158214Y-189068780D01*
X185158214Y-189068780D02*
X185265357Y-188973542D01*
X185265357Y-188973542D02*
X185241548Y-189164019D01*
D10*
D11*
X178958026Y-185607614D02*
X178458026Y-185607614D01*
X178458026Y-186393328D02*
X178458026Y-184893328D01*
X178458026Y-184893328D02*
X179172312Y-184893328D01*
X179743740Y-186393328D02*
X179743740Y-185393328D01*
X179743740Y-184893328D02*
X179672312Y-184964757D01*
X179672312Y-184964757D02*
X179743740Y-185036185D01*
X179743740Y-185036185D02*
X179815169Y-184964757D01*
X179815169Y-184964757D02*
X179743740Y-184893328D01*
X179743740Y-184893328D02*
X179743740Y-185036185D01*
X180672312Y-186393328D02*
X180529455Y-186321900D01*
X180529455Y-186321900D02*
X180458026Y-186179042D01*
X180458026Y-186179042D02*
X180458026Y-184893328D01*
X181815169Y-186321900D02*
X181672312Y-186393328D01*
X181672312Y-186393328D02*
X181386598Y-186393328D01*
X181386598Y-186393328D02*
X181243740Y-186321900D01*
X181243740Y-186321900D02*
X181172312Y-186179042D01*
X181172312Y-186179042D02*
X181172312Y-185607614D01*
X181172312Y-185607614D02*
X181243740Y-185464757D01*
X181243740Y-185464757D02*
X181386598Y-185393328D01*
X181386598Y-185393328D02*
X181672312Y-185393328D01*
X181672312Y-185393328D02*
X181815169Y-185464757D01*
X181815169Y-185464757D02*
X181886598Y-185607614D01*
X181886598Y-185607614D02*
X181886598Y-185750471D01*
X181886598Y-185750471D02*
X181172312Y-185893328D01*
X182529454Y-186250471D02*
X182600883Y-186321900D01*
X182600883Y-186321900D02*
X182529454Y-186393328D01*
X182529454Y-186393328D02*
X182458026Y-186321900D01*
X182458026Y-186321900D02*
X182529454Y-186250471D01*
X182529454Y-186250471D02*
X182529454Y-186393328D01*
X182529454Y-185464757D02*
X182600883Y-185536185D01*
X182600883Y-185536185D02*
X182529454Y-185607614D01*
X182529454Y-185607614D02*
X182458026Y-185536185D01*
X182458026Y-185536185D02*
X182529454Y-185464757D01*
X182529454Y-185464757D02*
X182529454Y-185607614D01*
X185100883Y-186393328D02*
X184386597Y-186393328D01*
X184386597Y-186393328D02*
X184386597Y-184893328D01*
X185600883Y-185607614D02*
X186100883Y-185607614D01*
X186315169Y-186393328D02*
X185600883Y-186393328D01*
X185600883Y-186393328D02*
X185600883Y-184893328D01*
X185600883Y-184893328D02*
X186315169Y-184893328D01*
X186958026Y-186393328D02*
X186958026Y-184893328D01*
X186958026Y-184893328D02*
X187315169Y-184893328D01*
X187315169Y-184893328D02*
X187529455Y-184964757D01*
X187529455Y-184964757D02*
X187672312Y-185107614D01*
X187672312Y-185107614D02*
X187743741Y-185250471D01*
X187743741Y-185250471D02*
X187815169Y-185536185D01*
X187815169Y-185536185D02*
X187815169Y-185750471D01*
X187815169Y-185750471D02*
X187743741Y-186036185D01*
X187743741Y-186036185D02*
X187672312Y-186179042D01*
X187672312Y-186179042D02*
X187529455Y-186321900D01*
X187529455Y-186321900D02*
X187315169Y-186393328D01*
X187315169Y-186393328D02*
X186958026Y-186393328D01*
X188386598Y-186321900D02*
X188529455Y-186393328D01*
X188529455Y-186393328D02*
X188815169Y-186393328D01*
X188815169Y-186393328D02*
X188958026Y-186321900D01*
X188958026Y-186321900D02*
X189029455Y-186179042D01*
X189029455Y-186179042D02*
X189029455Y-186107614D01*
X189029455Y-186107614D02*
X188958026Y-185964757D01*
X188958026Y-185964757D02*
X188815169Y-185893328D01*
X188815169Y-185893328D02*
X188600884Y-185893328D01*
X188600884Y-185893328D02*
X188458026Y-185821900D01*
X188458026Y-185821900D02*
X188386598Y-185679042D01*
X188386598Y-185679042D02*
X188386598Y-185607614D01*
X188386598Y-185607614D02*
X188458026Y-185464757D01*
X188458026Y-185464757D02*
X188600884Y-185393328D01*
X188600884Y-185393328D02*
X188815169Y-185393328D01*
X188815169Y-185393328D02*
X188958026Y-185464757D01*
X189672312Y-186393328D02*
X189672312Y-184893328D01*
X190315170Y-186393328D02*
X190315170Y-185607614D01*
X190315170Y-185607614D02*
X190243741Y-185464757D01*
X190243741Y-185464757D02*
X190100884Y-185393328D01*
X190100884Y-185393328D02*
X189886598Y-185393328D01*
X189886598Y-185393328D02*
X189743741Y-185464757D01*
X189743741Y-185464757D02*
X189672312Y-185536185D01*
X191029455Y-186393328D02*
X191029455Y-185393328D01*
X191029455Y-184893328D02*
X190958027Y-184964757D01*
X190958027Y-184964757D02*
X191029455Y-185036185D01*
X191029455Y-185036185D02*
X191100884Y-184964757D01*
X191100884Y-184964757D02*
X191029455Y-184893328D01*
X191029455Y-184893328D02*
X191029455Y-185036185D01*
X192315170Y-186321900D02*
X192172313Y-186393328D01*
X192172313Y-186393328D02*
X191886599Y-186393328D01*
X191886599Y-186393328D02*
X191743741Y-186321900D01*
X191743741Y-186321900D02*
X191672313Y-186179042D01*
X191672313Y-186179042D02*
X191672313Y-185607614D01*
X191672313Y-185607614D02*
X191743741Y-185464757D01*
X191743741Y-185464757D02*
X191886599Y-185393328D01*
X191886599Y-185393328D02*
X192172313Y-185393328D01*
X192172313Y-185393328D02*
X192315170Y-185464757D01*
X192315170Y-185464757D02*
X192386599Y-185607614D01*
X192386599Y-185607614D02*
X192386599Y-185750471D01*
X192386599Y-185750471D02*
X191672313Y-185893328D01*
X193243741Y-186393328D02*
X193100884Y-186321900D01*
X193100884Y-186321900D02*
X193029455Y-186179042D01*
X193029455Y-186179042D02*
X193029455Y-184893328D01*
X194458027Y-186393328D02*
X194458027Y-184893328D01*
X194458027Y-186321900D02*
X194315169Y-186393328D01*
X194315169Y-186393328D02*
X194029455Y-186393328D01*
X194029455Y-186393328D02*
X193886598Y-186321900D01*
X193886598Y-186321900D02*
X193815169Y-186250471D01*
X193815169Y-186250471D02*
X193743741Y-186107614D01*
X193743741Y-186107614D02*
X193743741Y-185679042D01*
X193743741Y-185679042D02*
X193815169Y-185536185D01*
X193815169Y-185536185D02*
X193886598Y-185464757D01*
X193886598Y-185464757D02*
X194029455Y-185393328D01*
X194029455Y-185393328D02*
X194315169Y-185393328D01*
X194315169Y-185393328D02*
X194458027Y-185464757D01*
X195172312Y-186250471D02*
X195243741Y-186321900D01*
X195243741Y-186321900D02*
X195172312Y-186393328D01*
X195172312Y-186393328D02*
X195100884Y-186321900D01*
X195100884Y-186321900D02*
X195172312Y-186250471D01*
X195172312Y-186250471D02*
X195172312Y-186393328D01*
X195886598Y-186393328D02*
X195886598Y-184893328D01*
X196029456Y-185821900D02*
X196458027Y-186393328D01*
X196458027Y-185393328D02*
X195886598Y-185964757D01*
X197100884Y-186393328D02*
X197100884Y-185393328D01*
X197100884Y-184893328D02*
X197029456Y-184964757D01*
X197029456Y-184964757D02*
X197100884Y-185036185D01*
X197100884Y-185036185D02*
X197172313Y-184964757D01*
X197172313Y-184964757D02*
X197100884Y-184893328D01*
X197100884Y-184893328D02*
X197100884Y-185036185D01*
X198458028Y-186321900D02*
X198315170Y-186393328D01*
X198315170Y-186393328D02*
X198029456Y-186393328D01*
X198029456Y-186393328D02*
X197886599Y-186321900D01*
X197886599Y-186321900D02*
X197815170Y-186250471D01*
X197815170Y-186250471D02*
X197743742Y-186107614D01*
X197743742Y-186107614D02*
X197743742Y-185679042D01*
X197743742Y-185679042D02*
X197815170Y-185536185D01*
X197815170Y-185536185D02*
X197886599Y-185464757D01*
X197886599Y-185464757D02*
X198029456Y-185393328D01*
X198029456Y-185393328D02*
X198315170Y-185393328D01*
X198315170Y-185393328D02*
X198458028Y-185464757D01*
X199743742Y-186393328D02*
X199743742Y-185607614D01*
X199743742Y-185607614D02*
X199672313Y-185464757D01*
X199672313Y-185464757D02*
X199529456Y-185393328D01*
X199529456Y-185393328D02*
X199243742Y-185393328D01*
X199243742Y-185393328D02*
X199100884Y-185464757D01*
X199743742Y-186321900D02*
X199600884Y-186393328D01*
X199600884Y-186393328D02*
X199243742Y-186393328D01*
X199243742Y-186393328D02*
X199100884Y-186321900D01*
X199100884Y-186321900D02*
X199029456Y-186179042D01*
X199029456Y-186179042D02*
X199029456Y-186036185D01*
X199029456Y-186036185D02*
X199100884Y-185893328D01*
X199100884Y-185893328D02*
X199243742Y-185821900D01*
X199243742Y-185821900D02*
X199600884Y-185821900D01*
X199600884Y-185821900D02*
X199743742Y-185750471D01*
X201100885Y-186393328D02*
X201100885Y-184893328D01*
X201100885Y-186321900D02*
X200958027Y-186393328D01*
X200958027Y-186393328D02*
X200672313Y-186393328D01*
X200672313Y-186393328D02*
X200529456Y-186321900D01*
X200529456Y-186321900D02*
X200458027Y-186250471D01*
X200458027Y-186250471D02*
X200386599Y-186107614D01*
X200386599Y-186107614D02*
X200386599Y-185679042D01*
X200386599Y-185679042D02*
X200458027Y-185536185D01*
X200458027Y-185536185D02*
X200529456Y-185464757D01*
X200529456Y-185464757D02*
X200672313Y-185393328D01*
X200672313Y-185393328D02*
X200958027Y-185393328D01*
X200958027Y-185393328D02*
X201100885Y-185464757D01*
X201458028Y-186536185D02*
X202600885Y-186536185D01*
X202958027Y-185393328D02*
X202958027Y-186893328D01*
X202958027Y-185464757D02*
X203100885Y-185393328D01*
X203100885Y-185393328D02*
X203386599Y-185393328D01*
X203386599Y-185393328D02*
X203529456Y-185464757D01*
X203529456Y-185464757D02*
X203600885Y-185536185D01*
X203600885Y-185536185D02*
X203672313Y-185679042D01*
X203672313Y-185679042D02*
X203672313Y-186107614D01*
X203672313Y-186107614D02*
X203600885Y-186250471D01*
X203600885Y-186250471D02*
X203529456Y-186321900D01*
X203529456Y-186321900D02*
X203386599Y-186393328D01*
X203386599Y-186393328D02*
X203100885Y-186393328D01*
X203100885Y-186393328D02*
X202958027Y-186321900D01*
X204958028Y-186321900D02*
X204815170Y-186393328D01*
X204815170Y-186393328D02*
X204529456Y-186393328D01*
X204529456Y-186393328D02*
X204386599Y-186321900D01*
X204386599Y-186321900D02*
X204315170Y-186250471D01*
X204315170Y-186250471D02*
X204243742Y-186107614D01*
X204243742Y-186107614D02*
X204243742Y-185679042D01*
X204243742Y-185679042D02*
X204315170Y-185536185D01*
X204315170Y-185536185D02*
X204386599Y-185464757D01*
X204386599Y-185464757D02*
X204529456Y-185393328D01*
X204529456Y-185393328D02*
X204815170Y-185393328D01*
X204815170Y-185393328D02*
X204958028Y-185464757D01*
X205600884Y-186393328D02*
X205600884Y-184893328D01*
X205600884Y-185464757D02*
X205743742Y-185393328D01*
X205743742Y-185393328D02*
X206029456Y-185393328D01*
X206029456Y-185393328D02*
X206172313Y-185464757D01*
X206172313Y-185464757D02*
X206243742Y-185536185D01*
X206243742Y-185536185D02*
X206315170Y-185679042D01*
X206315170Y-185679042D02*
X206315170Y-186107614D01*
X206315170Y-186107614D02*
X206243742Y-186250471D01*
X206243742Y-186250471D02*
X206172313Y-186321900D01*
X206172313Y-186321900D02*
X206029456Y-186393328D01*
X206029456Y-186393328D02*
X205743742Y-186393328D01*
X205743742Y-186393328D02*
X205600884Y-186321900D01*
D10*
D11*
X177002200Y-181507200D02*
X285002200Y-181507200D01*
D10*
D11*
X178386598Y-183621900D02*
X178600884Y-183693328D01*
X178600884Y-183693328D02*
X178958026Y-183693328D01*
X178958026Y-183693328D02*
X179100884Y-183621900D01*
X179100884Y-183621900D02*
X179172312Y-183550471D01*
X179172312Y-183550471D02*
X179243741Y-183407614D01*
X179243741Y-183407614D02*
X179243741Y-183264757D01*
X179243741Y-183264757D02*
X179172312Y-183121900D01*
X179172312Y-183121900D02*
X179100884Y-183050471D01*
X179100884Y-183050471D02*
X178958026Y-182979042D01*
X178958026Y-182979042D02*
X178672312Y-182907614D01*
X178672312Y-182907614D02*
X178529455Y-182836185D01*
X178529455Y-182836185D02*
X178458026Y-182764757D01*
X178458026Y-182764757D02*
X178386598Y-182621900D01*
X178386598Y-182621900D02*
X178386598Y-182479042D01*
X178386598Y-182479042D02*
X178458026Y-182336185D01*
X178458026Y-182336185D02*
X178529455Y-182264757D01*
X178529455Y-182264757D02*
X178672312Y-182193328D01*
X178672312Y-182193328D02*
X179029455Y-182193328D01*
X179029455Y-182193328D02*
X179243741Y-182264757D01*
X179886597Y-183693328D02*
X179886597Y-182193328D01*
X180529455Y-183693328D02*
X180529455Y-182907614D01*
X180529455Y-182907614D02*
X180458026Y-182764757D01*
X180458026Y-182764757D02*
X180315169Y-182693328D01*
X180315169Y-182693328D02*
X180100883Y-182693328D01*
X180100883Y-182693328D02*
X179958026Y-182764757D01*
X179958026Y-182764757D02*
X179886597Y-182836185D01*
X181815169Y-183621900D02*
X181672312Y-183693328D01*
X181672312Y-183693328D02*
X181386598Y-183693328D01*
X181386598Y-183693328D02*
X181243740Y-183621900D01*
X181243740Y-183621900D02*
X181172312Y-183479042D01*
X181172312Y-183479042D02*
X181172312Y-182907614D01*
X181172312Y-182907614D02*
X181243740Y-182764757D01*
X181243740Y-182764757D02*
X181386598Y-182693328D01*
X181386598Y-182693328D02*
X181672312Y-182693328D01*
X181672312Y-182693328D02*
X181815169Y-182764757D01*
X181815169Y-182764757D02*
X181886598Y-182907614D01*
X181886598Y-182907614D02*
X181886598Y-183050471D01*
X181886598Y-183050471D02*
X181172312Y-183193328D01*
X183100883Y-183621900D02*
X182958026Y-183693328D01*
X182958026Y-183693328D02*
X182672312Y-183693328D01*
X182672312Y-183693328D02*
X182529454Y-183621900D01*
X182529454Y-183621900D02*
X182458026Y-183479042D01*
X182458026Y-183479042D02*
X182458026Y-182907614D01*
X182458026Y-182907614D02*
X182529454Y-182764757D01*
X182529454Y-182764757D02*
X182672312Y-182693328D01*
X182672312Y-182693328D02*
X182958026Y-182693328D01*
X182958026Y-182693328D02*
X183100883Y-182764757D01*
X183100883Y-182764757D02*
X183172312Y-182907614D01*
X183172312Y-182907614D02*
X183172312Y-183050471D01*
X183172312Y-183050471D02*
X182458026Y-183193328D01*
X183600883Y-182693328D02*
X184172311Y-182693328D01*
X183815168Y-182193328D02*
X183815168Y-183479042D01*
X183815168Y-183479042D02*
X183886597Y-183621900D01*
X183886597Y-183621900D02*
X184029454Y-183693328D01*
X184029454Y-183693328D02*
X184172311Y-183693328D01*
X184672311Y-183550471D02*
X184743740Y-183621900D01*
X184743740Y-183621900D02*
X184672311Y-183693328D01*
X184672311Y-183693328D02*
X184600883Y-183621900D01*
X184600883Y-183621900D02*
X184672311Y-183550471D01*
X184672311Y-183550471D02*
X184672311Y-183693328D01*
X184672311Y-182764757D02*
X184743740Y-182836185D01*
X184743740Y-182836185D02*
X184672311Y-182907614D01*
X184672311Y-182907614D02*
X184600883Y-182836185D01*
X184600883Y-182836185D02*
X184672311Y-182764757D01*
X184672311Y-182764757D02*
X184672311Y-182907614D01*
D10*
D11*
X197002200Y-191507200D02*
X197002200Y-194507200D01*
D10*
D11*
X261002200Y-191507200D02*
X261002200Y-198007200D01*
D14*
%TO.N,GND*%
X119380000Y-71120000D03*
X137160000Y-71120000D03*
X129540000Y-71120000D03*
X142240000Y-71120000D03*
X111760000Y-71120000D03*
X109220000Y-53340000D03*
X111760000Y-58420000D03*
X142240000Y-53340000D03*
X106680000Y-71120000D03*
%TD*%
%TA.AperFunction,Conductor*%
%TO.N,GND*%
G36*
X143950314Y-50539108D02*
G01*
X144187063Y-50556041D01*
X144204564Y-50558558D01*
X144436170Y-50608940D01*
X144453135Y-50613921D01*
X144675220Y-50696754D01*
X144691303Y-50704099D01*
X144700261Y-50708991D01*
X144899331Y-50817692D01*
X144914214Y-50827257D01*
X145103954Y-50969294D01*
X145117325Y-50980880D01*
X145284919Y-51148474D01*
X145296505Y-51161845D01*
X145438542Y-51351585D01*
X145448107Y-51366468D01*
X145561697Y-51574491D01*
X145569047Y-51590585D01*
X145651876Y-51812659D01*
X145656860Y-51829634D01*
X145707240Y-52061229D01*
X145709758Y-52078741D01*
X145726984Y-52319581D01*
X145727300Y-52328427D01*
X145727300Y-73401572D01*
X145726984Y-73410418D01*
X145709758Y-73651258D01*
X145707240Y-73668770D01*
X145656860Y-73900365D01*
X145651876Y-73917340D01*
X145569047Y-74139414D01*
X145561697Y-74155508D01*
X145448107Y-74363531D01*
X145438542Y-74378414D01*
X145296505Y-74568154D01*
X145284919Y-74581525D01*
X145117325Y-74749119D01*
X145103954Y-74760705D01*
X144914214Y-74902742D01*
X144899331Y-74912307D01*
X144691308Y-75025897D01*
X144675214Y-75033247D01*
X144453140Y-75116076D01*
X144436165Y-75121060D01*
X144204570Y-75171440D01*
X144187058Y-75173958D01*
X143946218Y-75191184D01*
X143937372Y-75191500D01*
X106506628Y-75191500D01*
X106497782Y-75191184D01*
X106256941Y-75173958D01*
X106239429Y-75171440D01*
X106007834Y-75121060D01*
X105990859Y-75116076D01*
X105768785Y-75033247D01*
X105752691Y-75025897D01*
X105544668Y-74912307D01*
X105529785Y-74902742D01*
X105340045Y-74760705D01*
X105326674Y-74749119D01*
X105159080Y-74581525D01*
X105147494Y-74568154D01*
X105005457Y-74378414D01*
X104995892Y-74363531D01*
X104935657Y-74253219D01*
X104882299Y-74155503D01*
X104874954Y-74139420D01*
X104792121Y-73917335D01*
X104787139Y-73900365D01*
X104781293Y-73873492D01*
X104736758Y-73668764D01*
X104734241Y-73651258D01*
X104717016Y-73410418D01*
X104716700Y-73401572D01*
X104716700Y-73303648D01*
X105201700Y-73303648D01*
X105201700Y-73508351D01*
X105233722Y-73710534D01*
X105296981Y-73905223D01*
X105389915Y-74087613D01*
X105510228Y-74253213D01*
X105654986Y-74397971D01*
X105759672Y-74474028D01*
X105820590Y-74518287D01*
X105932394Y-74575254D01*
X106002976Y-74611218D01*
X106002978Y-74611218D01*
X106002981Y-74611220D01*
X106107337Y-74645127D01*
X106197665Y-74674477D01*
X106298757Y-74690488D01*
X106399848Y-74706500D01*
X106399849Y-74706500D01*
X106604551Y-74706500D01*
X106604552Y-74706500D01*
X106806734Y-74674477D01*
X107001419Y-74611220D01*
X107183810Y-74518287D01*
X107276790Y-74450732D01*
X107349413Y-74397971D01*
X107349415Y-74397968D01*
X107349419Y-74397966D01*
X107494166Y-74253219D01*
X107494168Y-74253215D01*
X107494171Y-74253213D01*
X107548366Y-74178618D01*
X107614487Y-74087610D01*
X107707420Y-73905219D01*
X107770677Y-73710534D01*
X107802700Y-73508352D01*
X107802700Y-73303648D01*
X142641300Y-73303648D01*
X142641300Y-73508351D01*
X142673322Y-73710534D01*
X142736581Y-73905223D01*
X142829515Y-74087613D01*
X142949828Y-74253213D01*
X143094586Y-74397971D01*
X143199272Y-74474028D01*
X143260190Y-74518287D01*
X143371994Y-74575254D01*
X143442576Y-74611218D01*
X143442578Y-74611218D01*
X143442581Y-74611220D01*
X143546937Y-74645127D01*
X143637265Y-74674477D01*
X143738357Y-74690488D01*
X143839448Y-74706500D01*
X143839449Y-74706500D01*
X144044151Y-74706500D01*
X144044152Y-74706500D01*
X144246334Y-74674477D01*
X144441019Y-74611220D01*
X144623410Y-74518287D01*
X144716390Y-74450732D01*
X144789013Y-74397971D01*
X144789015Y-74397968D01*
X144789019Y-74397966D01*
X144933766Y-74253219D01*
X144933768Y-74253215D01*
X144933771Y-74253213D01*
X144987966Y-74178618D01*
X145054087Y-74087610D01*
X145147020Y-73905219D01*
X145210277Y-73710534D01*
X145242300Y-73508352D01*
X145242300Y-73303648D01*
X145210277Y-73101466D01*
X145147020Y-72906781D01*
X145147018Y-72906778D01*
X145147018Y-72906776D01*
X145113303Y-72840607D01*
X145054087Y-72724390D01*
X145046356Y-72713749D01*
X144933771Y-72558786D01*
X144789013Y-72414028D01*
X144623413Y-72293715D01*
X144623412Y-72293714D01*
X144623410Y-72293713D01*
X144566453Y-72264691D01*
X144441023Y-72200781D01*
X144246334Y-72137522D01*
X144071795Y-72109878D01*
X144044152Y-72105500D01*
X143839448Y-72105500D01*
X143815129Y-72109351D01*
X143637265Y-72137522D01*
X143442576Y-72200781D01*
X143260186Y-72293715D01*
X143094586Y-72414028D01*
X142949828Y-72558786D01*
X142829515Y-72724386D01*
X142736581Y-72906776D01*
X142673322Y-73101465D01*
X142641300Y-73303648D01*
X107802700Y-73303648D01*
X107770677Y-73101466D01*
X107707420Y-72906781D01*
X107707418Y-72906778D01*
X107707418Y-72906776D01*
X107673703Y-72840607D01*
X107614487Y-72724390D01*
X107606756Y-72713749D01*
X107494171Y-72558786D01*
X107349413Y-72414028D01*
X107183813Y-72293715D01*
X107183812Y-72293714D01*
X107183810Y-72293713D01*
X107126853Y-72264691D01*
X107001423Y-72200781D01*
X106806734Y-72137522D01*
X106632195Y-72109878D01*
X106604552Y-72105500D01*
X106399848Y-72105500D01*
X106375529Y-72109351D01*
X106197665Y-72137522D01*
X106002976Y-72200781D01*
X105820586Y-72293715D01*
X105654986Y-72414028D01*
X105510228Y-72558786D01*
X105389915Y-72724386D01*
X105296981Y-72906776D01*
X105233722Y-73101465D01*
X105201700Y-73303648D01*
X104716700Y-73303648D01*
X104716700Y-52328427D01*
X104717016Y-52319581D01*
X104724020Y-52221648D01*
X105201700Y-52221648D01*
X105201700Y-52426351D01*
X105233722Y-52628534D01*
X105296981Y-52823223D01*
X105389915Y-53005613D01*
X105510228Y-53171213D01*
X105654986Y-53315971D01*
X105809949Y-53428556D01*
X105820590Y-53436287D01*
X105936807Y-53495503D01*
X106002976Y-53529218D01*
X106002978Y-53529218D01*
X106002981Y-53529220D01*
X106107337Y-53563127D01*
X106197665Y-53592477D01*
X106298757Y-53608488D01*
X106399848Y-53624500D01*
X106399849Y-53624500D01*
X106604551Y-53624500D01*
X106604552Y-53624500D01*
X106806734Y-53592477D01*
X107001419Y-53529220D01*
X107183810Y-53436287D01*
X107276790Y-53368732D01*
X107349413Y-53315971D01*
X107349415Y-53315968D01*
X107349419Y-53315966D01*
X107494166Y-53171219D01*
X107494168Y-53171215D01*
X107494171Y-53171213D01*
X107546932Y-53098590D01*
X107614487Y-53005610D01*
X107707420Y-52823219D01*
X107770677Y-52628534D01*
X107802700Y-52426352D01*
X107802700Y-52221648D01*
X107794126Y-52167513D01*
X107770677Y-52019465D01*
X107741327Y-51929137D01*
X107707420Y-51824781D01*
X107707418Y-51824778D01*
X107707418Y-51824776D01*
X107673703Y-51758607D01*
X107614487Y-51642390D01*
X107565156Y-51574491D01*
X107494171Y-51476786D01*
X107349413Y-51332028D01*
X107183813Y-51211715D01*
X107183812Y-51211714D01*
X107183810Y-51211713D01*
X107085939Y-51161845D01*
X107001423Y-51118781D01*
X106806734Y-51055522D01*
X106632195Y-51027878D01*
X106604552Y-51023500D01*
X106399848Y-51023500D01*
X106375529Y-51027351D01*
X106197665Y-51055522D01*
X106002976Y-51118781D01*
X105820586Y-51211715D01*
X105654986Y-51332028D01*
X105510228Y-51476786D01*
X105389915Y-51642386D01*
X105296981Y-51824776D01*
X105233722Y-52019465D01*
X105201700Y-52221648D01*
X104724020Y-52221648D01*
X104734241Y-52078741D01*
X104736757Y-52061237D01*
X104787141Y-51829625D01*
X104792120Y-51812668D01*
X104874956Y-51590574D01*
X104882297Y-51574501D01*
X104995896Y-51366460D01*
X105005452Y-51351591D01*
X105147499Y-51161838D01*
X105159073Y-51148481D01*
X105326681Y-50980873D01*
X105340038Y-50969299D01*
X105529791Y-50827252D01*
X105544660Y-50817696D01*
X105752701Y-50704097D01*
X105768774Y-50696756D01*
X105990868Y-50613920D01*
X106007825Y-50608941D01*
X106239437Y-50558557D01*
X106256934Y-50556041D01*
X106493685Y-50539108D01*
X106510717Y-50539065D01*
X106729838Y-50553600D01*
X106746089Y-50555765D01*
X106961683Y-50599178D01*
X106977500Y-50603469D01*
X107185483Y-50674982D01*
X107200599Y-50681327D01*
X107397295Y-50779674D01*
X107411453Y-50787968D01*
X107593430Y-50911432D01*
X107606373Y-50921526D01*
X107770450Y-51067945D01*
X107781947Y-51079661D01*
X107898534Y-51215375D01*
X107906841Y-51227883D01*
X107907575Y-51227390D01*
X107912108Y-51234130D01*
X107939270Y-51264913D01*
X107945491Y-51272555D01*
X107970133Y-51305412D01*
X107970134Y-51305413D01*
X107970135Y-51305414D01*
X107974985Y-51309221D01*
X107977065Y-51310854D01*
X107993478Y-51326350D01*
X112105378Y-55986503D01*
X112119780Y-56006536D01*
X112121500Y-56009514D01*
X112121501Y-56009515D01*
X112121502Y-56009516D01*
X112154305Y-56042319D01*
X112159604Y-56047958D01*
X112190302Y-56082750D01*
X112193158Y-56084646D01*
X112212260Y-56100274D01*
X112214686Y-56102700D01*
X112254869Y-56125899D01*
X112261445Y-56129975D01*
X112300098Y-56155633D01*
X112302125Y-56156314D01*
X112303344Y-56156724D01*
X112325846Y-56166878D01*
X112328814Y-56168592D01*
X112373633Y-56180601D01*
X112381026Y-56182831D01*
X112425015Y-56197615D01*
X112428433Y-56197828D01*
X112452801Y-56201813D01*
X112456108Y-56202700D01*
X112502507Y-56202700D01*
X112510241Y-56202941D01*
X112521142Y-56203623D01*
X112556540Y-56205836D01*
X112556541Y-56205836D01*
X112556541Y-56205835D01*
X112556544Y-56205836D01*
X112559905Y-56205156D01*
X112584465Y-56202700D01*
X137859535Y-56202700D01*
X137884094Y-56205156D01*
X137887456Y-56205836D01*
X137887458Y-56205835D01*
X137887459Y-56205836D01*
X137920282Y-56203784D01*
X137933758Y-56202941D01*
X137941493Y-56202700D01*
X137987892Y-56202700D01*
X137991192Y-56201815D01*
X138015565Y-56197828D01*
X138018984Y-56197615D01*
X138062974Y-56182829D01*
X138070360Y-56180601D01*
X138115186Y-56168592D01*
X138118156Y-56166876D01*
X138140659Y-56156722D01*
X138143902Y-56155633D01*
X138182582Y-56129955D01*
X138189088Y-56125923D01*
X138229314Y-56102700D01*
X138231740Y-56100274D01*
X138250844Y-56084644D01*
X138253698Y-56082750D01*
X138284396Y-56047957D01*
X138289679Y-56042333D01*
X138322500Y-56009514D01*
X138324212Y-56006547D01*
X138338621Y-55986503D01*
X141660552Y-52221648D01*
X142641300Y-52221648D01*
X142641300Y-52426351D01*
X142673322Y-52628534D01*
X142736581Y-52823223D01*
X142829515Y-53005613D01*
X142949828Y-53171213D01*
X143094586Y-53315971D01*
X143249549Y-53428556D01*
X143260190Y-53436287D01*
X143376407Y-53495503D01*
X143442576Y-53529218D01*
X143442578Y-53529218D01*
X143442581Y-53529220D01*
X143546937Y-53563127D01*
X143637265Y-53592477D01*
X143738357Y-53608488D01*
X143839448Y-53624500D01*
X143839449Y-53624500D01*
X144044151Y-53624500D01*
X144044152Y-53624500D01*
X144246334Y-53592477D01*
X144441019Y-53529220D01*
X144623410Y-53436287D01*
X144716390Y-53368732D01*
X144789013Y-53315971D01*
X144789015Y-53315968D01*
X144789019Y-53315966D01*
X144933766Y-53171219D01*
X144933768Y-53171215D01*
X144933771Y-53171213D01*
X144986532Y-53098590D01*
X145054087Y-53005610D01*
X145147020Y-52823219D01*
X145210277Y-52628534D01*
X145242300Y-52426352D01*
X145242300Y-52221648D01*
X145233726Y-52167513D01*
X145210277Y-52019465D01*
X145180927Y-51929137D01*
X145147020Y-51824781D01*
X145147018Y-51824778D01*
X145147018Y-51824776D01*
X145113303Y-51758607D01*
X145054087Y-51642390D01*
X145004756Y-51574491D01*
X144933771Y-51476786D01*
X144789013Y-51332028D01*
X144623413Y-51211715D01*
X144623412Y-51211714D01*
X144623410Y-51211713D01*
X144525539Y-51161845D01*
X144441023Y-51118781D01*
X144246334Y-51055522D01*
X144071795Y-51027878D01*
X144044152Y-51023500D01*
X143839448Y-51023500D01*
X143815129Y-51027351D01*
X143637265Y-51055522D01*
X143442576Y-51118781D01*
X143260186Y-51211715D01*
X143094586Y-51332028D01*
X142949828Y-51476786D01*
X142829515Y-51642386D01*
X142736581Y-51824776D01*
X142673322Y-52019465D01*
X142641300Y-52221648D01*
X141660552Y-52221648D01*
X142450523Y-51326347D01*
X142466938Y-51310851D01*
X142473865Y-51305414D01*
X142498517Y-51272542D01*
X142504709Y-51264934D01*
X142531889Y-51234133D01*
X142531889Y-51234131D01*
X142531892Y-51234129D01*
X142536426Y-51227388D01*
X142537177Y-51227893D01*
X142545465Y-51215373D01*
X142662064Y-51079646D01*
X142673552Y-51067942D01*
X142837626Y-50921526D01*
X142850569Y-50911432D01*
X143032546Y-50787968D01*
X143046697Y-50779678D01*
X143243406Y-50681324D01*
X143258511Y-50674984D01*
X143466503Y-50603467D01*
X143482312Y-50599178D01*
X143697912Y-50555765D01*
X143714159Y-50553600D01*
X143933282Y-50539065D01*
X143950314Y-50539108D01*
G37*
%TD.AperFunction*%
%TD*%
M02*
