%TF.GenerationSoftware,KiCad,Pcbnew,8.0.5*%
%TF.CreationDate,2024-11-03T20:33:15+08:00*%
%TF.ProjectId,ptr,7074722e-6b69-4636-9164-5f7063625858,rev?*%
%TF.SameCoordinates,Original*%
%TF.FileFunction,Copper,L1,Top*%
%TF.FilePolarity,Positive*%
%FSLAX46Y46*%
G04 Gerber Fmt 4.6, Leading zero omitted, Abs format (unit mm)*
G04 Created by KiCad (PCBNEW 8.0.5) date 2024-11-03 20:33:15*
%MOMM*%
%LPD*%
G01*
G04 APERTURE LIST*
G04 Aperture macros list*
%AMRoundRect*
0 Rectangle with rounded corners*
0 $1 Rounding radius*
0 $2 $3 $4 $5 $6 $7 $8 $9 X,Y pos of 4 corners*
0 Add a 4 corners polygon primitive as box body*
4,1,4,$2,$3,$4,$5,$6,$7,$8,$9,$2,$3,0*
0 Add four circle primitives for the rounded corners*
1,1,$1+$1,$2,$3*
1,1,$1+$1,$4,$5*
1,1,$1+$1,$6,$7*
1,1,$1+$1,$8,$9*
0 Add four rect primitives between the rounded corners*
20,1,$1+$1,$2,$3,$4,$5,0*
20,1,$1+$1,$4,$5,$6,$7,0*
20,1,$1+$1,$6,$7,$8,$9,0*
20,1,$1+$1,$8,$9,$2,$3,0*%
G04 Aperture macros list end*
%ADD10C,0.100000*%
%ADD11C,0.150000*%
%ADD12C,0.300000*%
%ADD13C,0.400000*%
%TA.AperFunction,SMDPad,CuDef*%
%ADD14R,4.500000X3.750000*%
%TD*%
%TA.AperFunction,SMDPad,CuDef*%
%ADD15RoundRect,0.218750X-0.256250X0.218750X-0.256250X-0.218750X0.256250X-0.218750X0.256250X0.218750X0*%
%TD*%
%TA.AperFunction,SMDPad,CuDef*%
%ADD16R,0.380000X1.000000*%
%TD*%
%TA.AperFunction,SMDPad,CuDef*%
%ADD17R,0.700000X1.150000*%
%TD*%
%TA.AperFunction,SMDPad,CuDef*%
%ADD18C,1.800000*%
%TD*%
%TA.AperFunction,ViaPad*%
%ADD19C,0.600000*%
%TD*%
%TA.AperFunction,Conductor*%
%ADD20C,0.220000*%
%TD*%
%TA.AperFunction,Conductor*%
%ADD21C,0.600000*%
%TD*%
G04 APERTURE END LIST*
D10*
D11*
X177002200Y-166007200D02*
X285002200Y-166007200D01*
X285002200Y-198007200D01*
X177002200Y-198007200D01*
X177002200Y-166007200D01*
D10*
D11*
X10000000Y-10000000D02*
X287002200Y-10000000D01*
X287002200Y-200007200D01*
X10000000Y-200007200D01*
X10000000Y-10000000D01*
D10*
D11*
X12000000Y-12000000D02*
X285002200Y-12000000D01*
X285002200Y-198007200D01*
X12000000Y-198007200D01*
X12000000Y-12000000D01*
D10*
D11*
X60000000Y-12000000D02*
X60000000Y-10000000D01*
D10*
D11*
X110000000Y-12000000D02*
X110000000Y-10000000D01*
D10*
D11*
X160000000Y-12000000D02*
X160000000Y-10000000D01*
D10*
D11*
X210000000Y-12000000D02*
X210000000Y-10000000D01*
D10*
D11*
X260000000Y-12000000D02*
X260000000Y-10000000D01*
D10*
D11*
X36089160Y-11593604D02*
X35346303Y-11593604D01*
X35717731Y-11593604D02*
X35717731Y-10293604D01*
X35717731Y-10293604D02*
X35593922Y-10479319D01*
X35593922Y-10479319D02*
X35470112Y-10603128D01*
X35470112Y-10603128D02*
X35346303Y-10665033D01*
D10*
D11*
X85346303Y-10417414D02*
X85408207Y-10355509D01*
X85408207Y-10355509D02*
X85532017Y-10293604D01*
X85532017Y-10293604D02*
X85841541Y-10293604D01*
X85841541Y-10293604D02*
X85965350Y-10355509D01*
X85965350Y-10355509D02*
X86027255Y-10417414D01*
X86027255Y-10417414D02*
X86089160Y-10541223D01*
X86089160Y-10541223D02*
X86089160Y-10665033D01*
X86089160Y-10665033D02*
X86027255Y-10850747D01*
X86027255Y-10850747D02*
X85284398Y-11593604D01*
X85284398Y-11593604D02*
X86089160Y-11593604D01*
D10*
D11*
X135284398Y-10293604D02*
X136089160Y-10293604D01*
X136089160Y-10293604D02*
X135655826Y-10788842D01*
X135655826Y-10788842D02*
X135841541Y-10788842D01*
X135841541Y-10788842D02*
X135965350Y-10850747D01*
X135965350Y-10850747D02*
X136027255Y-10912652D01*
X136027255Y-10912652D02*
X136089160Y-11036461D01*
X136089160Y-11036461D02*
X136089160Y-11345985D01*
X136089160Y-11345985D02*
X136027255Y-11469795D01*
X136027255Y-11469795D02*
X135965350Y-11531700D01*
X135965350Y-11531700D02*
X135841541Y-11593604D01*
X135841541Y-11593604D02*
X135470112Y-11593604D01*
X135470112Y-11593604D02*
X135346303Y-11531700D01*
X135346303Y-11531700D02*
X135284398Y-11469795D01*
D10*
D11*
X185965350Y-10726938D02*
X185965350Y-11593604D01*
X185655826Y-10231700D02*
X185346303Y-11160271D01*
X185346303Y-11160271D02*
X186151064Y-11160271D01*
D10*
D11*
X236027255Y-10293604D02*
X235408207Y-10293604D01*
X235408207Y-10293604D02*
X235346303Y-10912652D01*
X235346303Y-10912652D02*
X235408207Y-10850747D01*
X235408207Y-10850747D02*
X235532017Y-10788842D01*
X235532017Y-10788842D02*
X235841541Y-10788842D01*
X235841541Y-10788842D02*
X235965350Y-10850747D01*
X235965350Y-10850747D02*
X236027255Y-10912652D01*
X236027255Y-10912652D02*
X236089160Y-11036461D01*
X236089160Y-11036461D02*
X236089160Y-11345985D01*
X236089160Y-11345985D02*
X236027255Y-11469795D01*
X236027255Y-11469795D02*
X235965350Y-11531700D01*
X235965350Y-11531700D02*
X235841541Y-11593604D01*
X235841541Y-11593604D02*
X235532017Y-11593604D01*
X235532017Y-11593604D02*
X235408207Y-11531700D01*
X235408207Y-11531700D02*
X235346303Y-11469795D01*
D10*
D11*
X285965350Y-10293604D02*
X285717731Y-10293604D01*
X285717731Y-10293604D02*
X285593922Y-10355509D01*
X285593922Y-10355509D02*
X285532017Y-10417414D01*
X285532017Y-10417414D02*
X285408207Y-10603128D01*
X285408207Y-10603128D02*
X285346303Y-10850747D01*
X285346303Y-10850747D02*
X285346303Y-11345985D01*
X285346303Y-11345985D02*
X285408207Y-11469795D01*
X285408207Y-11469795D02*
X285470112Y-11531700D01*
X285470112Y-11531700D02*
X285593922Y-11593604D01*
X285593922Y-11593604D02*
X285841541Y-11593604D01*
X285841541Y-11593604D02*
X285965350Y-11531700D01*
X285965350Y-11531700D02*
X286027255Y-11469795D01*
X286027255Y-11469795D02*
X286089160Y-11345985D01*
X286089160Y-11345985D02*
X286089160Y-11036461D01*
X286089160Y-11036461D02*
X286027255Y-10912652D01*
X286027255Y-10912652D02*
X285965350Y-10850747D01*
X285965350Y-10850747D02*
X285841541Y-10788842D01*
X285841541Y-10788842D02*
X285593922Y-10788842D01*
X285593922Y-10788842D02*
X285470112Y-10850747D01*
X285470112Y-10850747D02*
X285408207Y-10912652D01*
X285408207Y-10912652D02*
X285346303Y-11036461D01*
D10*
D11*
X60000000Y-198007200D02*
X60000000Y-200007200D01*
D10*
D11*
X110000000Y-198007200D02*
X110000000Y-200007200D01*
D10*
D11*
X160000000Y-198007200D02*
X160000000Y-200007200D01*
D10*
D11*
X210000000Y-198007200D02*
X210000000Y-200007200D01*
D10*
D11*
X260000000Y-198007200D02*
X260000000Y-200007200D01*
D10*
D11*
X36089160Y-199600804D02*
X35346303Y-199600804D01*
X35717731Y-199600804D02*
X35717731Y-198300804D01*
X35717731Y-198300804D02*
X35593922Y-198486519D01*
X35593922Y-198486519D02*
X35470112Y-198610328D01*
X35470112Y-198610328D02*
X35346303Y-198672233D01*
D10*
D11*
X85346303Y-198424614D02*
X85408207Y-198362709D01*
X85408207Y-198362709D02*
X85532017Y-198300804D01*
X85532017Y-198300804D02*
X85841541Y-198300804D01*
X85841541Y-198300804D02*
X85965350Y-198362709D01*
X85965350Y-198362709D02*
X86027255Y-198424614D01*
X86027255Y-198424614D02*
X86089160Y-198548423D01*
X86089160Y-198548423D02*
X86089160Y-198672233D01*
X86089160Y-198672233D02*
X86027255Y-198857947D01*
X86027255Y-198857947D02*
X85284398Y-199600804D01*
X85284398Y-199600804D02*
X86089160Y-199600804D01*
D10*
D11*
X135284398Y-198300804D02*
X136089160Y-198300804D01*
X136089160Y-198300804D02*
X135655826Y-198796042D01*
X135655826Y-198796042D02*
X135841541Y-198796042D01*
X135841541Y-198796042D02*
X135965350Y-198857947D01*
X135965350Y-198857947D02*
X136027255Y-198919852D01*
X136027255Y-198919852D02*
X136089160Y-199043661D01*
X136089160Y-199043661D02*
X136089160Y-199353185D01*
X136089160Y-199353185D02*
X136027255Y-199476995D01*
X136027255Y-199476995D02*
X135965350Y-199538900D01*
X135965350Y-199538900D02*
X135841541Y-199600804D01*
X135841541Y-199600804D02*
X135470112Y-199600804D01*
X135470112Y-199600804D02*
X135346303Y-199538900D01*
X135346303Y-199538900D02*
X135284398Y-199476995D01*
D10*
D11*
X185965350Y-198734138D02*
X185965350Y-199600804D01*
X185655826Y-198238900D02*
X185346303Y-199167471D01*
X185346303Y-199167471D02*
X186151064Y-199167471D01*
D10*
D11*
X236027255Y-198300804D02*
X235408207Y-198300804D01*
X235408207Y-198300804D02*
X235346303Y-198919852D01*
X235346303Y-198919852D02*
X235408207Y-198857947D01*
X235408207Y-198857947D02*
X235532017Y-198796042D01*
X235532017Y-198796042D02*
X235841541Y-198796042D01*
X235841541Y-198796042D02*
X235965350Y-198857947D01*
X235965350Y-198857947D02*
X236027255Y-198919852D01*
X236027255Y-198919852D02*
X236089160Y-199043661D01*
X236089160Y-199043661D02*
X236089160Y-199353185D01*
X236089160Y-199353185D02*
X236027255Y-199476995D01*
X236027255Y-199476995D02*
X235965350Y-199538900D01*
X235965350Y-199538900D02*
X235841541Y-199600804D01*
X235841541Y-199600804D02*
X235532017Y-199600804D01*
X235532017Y-199600804D02*
X235408207Y-199538900D01*
X235408207Y-199538900D02*
X235346303Y-199476995D01*
D10*
D11*
X285965350Y-198300804D02*
X285717731Y-198300804D01*
X285717731Y-198300804D02*
X285593922Y-198362709D01*
X285593922Y-198362709D02*
X285532017Y-198424614D01*
X285532017Y-198424614D02*
X285408207Y-198610328D01*
X285408207Y-198610328D02*
X285346303Y-198857947D01*
X285346303Y-198857947D02*
X285346303Y-199353185D01*
X285346303Y-199353185D02*
X285408207Y-199476995D01*
X285408207Y-199476995D02*
X285470112Y-199538900D01*
X285470112Y-199538900D02*
X285593922Y-199600804D01*
X285593922Y-199600804D02*
X285841541Y-199600804D01*
X285841541Y-199600804D02*
X285965350Y-199538900D01*
X285965350Y-199538900D02*
X286027255Y-199476995D01*
X286027255Y-199476995D02*
X286089160Y-199353185D01*
X286089160Y-199353185D02*
X286089160Y-199043661D01*
X286089160Y-199043661D02*
X286027255Y-198919852D01*
X286027255Y-198919852D02*
X285965350Y-198857947D01*
X285965350Y-198857947D02*
X285841541Y-198796042D01*
X285841541Y-198796042D02*
X285593922Y-198796042D01*
X285593922Y-198796042D02*
X285470112Y-198857947D01*
X285470112Y-198857947D02*
X285408207Y-198919852D01*
X285408207Y-198919852D02*
X285346303Y-199043661D01*
D10*
D11*
X10000000Y-60000000D02*
X12000000Y-60000000D01*
D10*
D11*
X10000000Y-110000000D02*
X12000000Y-110000000D01*
D10*
D11*
X10000000Y-160000000D02*
X12000000Y-160000000D01*
D10*
D11*
X10690476Y-35222176D02*
X11309523Y-35222176D01*
X10566666Y-35593604D02*
X10999999Y-34293604D01*
X10999999Y-34293604D02*
X11433333Y-35593604D01*
D10*
D11*
X11092857Y-84912652D02*
X11278571Y-84974557D01*
X11278571Y-84974557D02*
X11340476Y-85036461D01*
X11340476Y-85036461D02*
X11402380Y-85160271D01*
X11402380Y-85160271D02*
X11402380Y-85345985D01*
X11402380Y-85345985D02*
X11340476Y-85469795D01*
X11340476Y-85469795D02*
X11278571Y-85531700D01*
X11278571Y-85531700D02*
X11154761Y-85593604D01*
X11154761Y-85593604D02*
X10659523Y-85593604D01*
X10659523Y-85593604D02*
X10659523Y-84293604D01*
X10659523Y-84293604D02*
X11092857Y-84293604D01*
X11092857Y-84293604D02*
X11216666Y-84355509D01*
X11216666Y-84355509D02*
X11278571Y-84417414D01*
X11278571Y-84417414D02*
X11340476Y-84541223D01*
X11340476Y-84541223D02*
X11340476Y-84665033D01*
X11340476Y-84665033D02*
X11278571Y-84788842D01*
X11278571Y-84788842D02*
X11216666Y-84850747D01*
X11216666Y-84850747D02*
X11092857Y-84912652D01*
X11092857Y-84912652D02*
X10659523Y-84912652D01*
D10*
D11*
X11402380Y-135469795D02*
X11340476Y-135531700D01*
X11340476Y-135531700D02*
X11154761Y-135593604D01*
X11154761Y-135593604D02*
X11030952Y-135593604D01*
X11030952Y-135593604D02*
X10845238Y-135531700D01*
X10845238Y-135531700D02*
X10721428Y-135407890D01*
X10721428Y-135407890D02*
X10659523Y-135284080D01*
X10659523Y-135284080D02*
X10597619Y-135036461D01*
X10597619Y-135036461D02*
X10597619Y-134850747D01*
X10597619Y-134850747D02*
X10659523Y-134603128D01*
X10659523Y-134603128D02*
X10721428Y-134479319D01*
X10721428Y-134479319D02*
X10845238Y-134355509D01*
X10845238Y-134355509D02*
X11030952Y-134293604D01*
X11030952Y-134293604D02*
X11154761Y-134293604D01*
X11154761Y-134293604D02*
X11340476Y-134355509D01*
X11340476Y-134355509D02*
X11402380Y-134417414D01*
D10*
D11*
X10659523Y-185593604D02*
X10659523Y-184293604D01*
X10659523Y-184293604D02*
X10969047Y-184293604D01*
X10969047Y-184293604D02*
X11154761Y-184355509D01*
X11154761Y-184355509D02*
X11278571Y-184479319D01*
X11278571Y-184479319D02*
X11340476Y-184603128D01*
X11340476Y-184603128D02*
X11402380Y-184850747D01*
X11402380Y-184850747D02*
X11402380Y-185036461D01*
X11402380Y-185036461D02*
X11340476Y-185284080D01*
X11340476Y-185284080D02*
X11278571Y-185407890D01*
X11278571Y-185407890D02*
X11154761Y-185531700D01*
X11154761Y-185531700D02*
X10969047Y-185593604D01*
X10969047Y-185593604D02*
X10659523Y-185593604D01*
D10*
D11*
X287002200Y-60000000D02*
X285002200Y-60000000D01*
D10*
D11*
X287002200Y-110000000D02*
X285002200Y-110000000D01*
D10*
D11*
X287002200Y-160000000D02*
X285002200Y-160000000D01*
D10*
D11*
X285692676Y-35222176D02*
X286311723Y-35222176D01*
X285568866Y-35593604D02*
X286002199Y-34293604D01*
X286002199Y-34293604D02*
X286435533Y-35593604D01*
D10*
D11*
X286095057Y-84912652D02*
X286280771Y-84974557D01*
X286280771Y-84974557D02*
X286342676Y-85036461D01*
X286342676Y-85036461D02*
X286404580Y-85160271D01*
X286404580Y-85160271D02*
X286404580Y-85345985D01*
X286404580Y-85345985D02*
X286342676Y-85469795D01*
X286342676Y-85469795D02*
X286280771Y-85531700D01*
X286280771Y-85531700D02*
X286156961Y-85593604D01*
X286156961Y-85593604D02*
X285661723Y-85593604D01*
X285661723Y-85593604D02*
X285661723Y-84293604D01*
X285661723Y-84293604D02*
X286095057Y-84293604D01*
X286095057Y-84293604D02*
X286218866Y-84355509D01*
X286218866Y-84355509D02*
X286280771Y-84417414D01*
X286280771Y-84417414D02*
X286342676Y-84541223D01*
X286342676Y-84541223D02*
X286342676Y-84665033D01*
X286342676Y-84665033D02*
X286280771Y-84788842D01*
X286280771Y-84788842D02*
X286218866Y-84850747D01*
X286218866Y-84850747D02*
X286095057Y-84912652D01*
X286095057Y-84912652D02*
X285661723Y-84912652D01*
D10*
D11*
X286404580Y-135469795D02*
X286342676Y-135531700D01*
X286342676Y-135531700D02*
X286156961Y-135593604D01*
X286156961Y-135593604D02*
X286033152Y-135593604D01*
X286033152Y-135593604D02*
X285847438Y-135531700D01*
X285847438Y-135531700D02*
X285723628Y-135407890D01*
X285723628Y-135407890D02*
X285661723Y-135284080D01*
X285661723Y-135284080D02*
X285599819Y-135036461D01*
X285599819Y-135036461D02*
X285599819Y-134850747D01*
X285599819Y-134850747D02*
X285661723Y-134603128D01*
X285661723Y-134603128D02*
X285723628Y-134479319D01*
X285723628Y-134479319D02*
X285847438Y-134355509D01*
X285847438Y-134355509D02*
X286033152Y-134293604D01*
X286033152Y-134293604D02*
X286156961Y-134293604D01*
X286156961Y-134293604D02*
X286342676Y-134355509D01*
X286342676Y-134355509D02*
X286404580Y-134417414D01*
D10*
D11*
X285661723Y-185593604D02*
X285661723Y-184293604D01*
X285661723Y-184293604D02*
X285971247Y-184293604D01*
X285971247Y-184293604D02*
X286156961Y-184355509D01*
X286156961Y-184355509D02*
X286280771Y-184479319D01*
X286280771Y-184479319D02*
X286342676Y-184603128D01*
X286342676Y-184603128D02*
X286404580Y-184850747D01*
X286404580Y-184850747D02*
X286404580Y-185036461D01*
X286404580Y-185036461D02*
X286342676Y-185284080D01*
X286342676Y-185284080D02*
X286280771Y-185407890D01*
X286280771Y-185407890D02*
X286156961Y-185531700D01*
X286156961Y-185531700D02*
X285971247Y-185593604D01*
X285971247Y-185593604D02*
X285661723Y-185593604D01*
D10*
D11*
X200458026Y-193793328D02*
X200458026Y-192293328D01*
X200458026Y-192293328D02*
X200815169Y-192293328D01*
X200815169Y-192293328D02*
X201029455Y-192364757D01*
X201029455Y-192364757D02*
X201172312Y-192507614D01*
X201172312Y-192507614D02*
X201243741Y-192650471D01*
X201243741Y-192650471D02*
X201315169Y-192936185D01*
X201315169Y-192936185D02*
X201315169Y-193150471D01*
X201315169Y-193150471D02*
X201243741Y-193436185D01*
X201243741Y-193436185D02*
X201172312Y-193579042D01*
X201172312Y-193579042D02*
X201029455Y-193721900D01*
X201029455Y-193721900D02*
X200815169Y-193793328D01*
X200815169Y-193793328D02*
X200458026Y-193793328D01*
X202600884Y-193793328D02*
X202600884Y-193007614D01*
X202600884Y-193007614D02*
X202529455Y-192864757D01*
X202529455Y-192864757D02*
X202386598Y-192793328D01*
X202386598Y-192793328D02*
X202100884Y-192793328D01*
X202100884Y-192793328D02*
X201958026Y-192864757D01*
X202600884Y-193721900D02*
X202458026Y-193793328D01*
X202458026Y-193793328D02*
X202100884Y-193793328D01*
X202100884Y-193793328D02*
X201958026Y-193721900D01*
X201958026Y-193721900D02*
X201886598Y-193579042D01*
X201886598Y-193579042D02*
X201886598Y-193436185D01*
X201886598Y-193436185D02*
X201958026Y-193293328D01*
X201958026Y-193293328D02*
X202100884Y-193221900D01*
X202100884Y-193221900D02*
X202458026Y-193221900D01*
X202458026Y-193221900D02*
X202600884Y-193150471D01*
X203100884Y-192793328D02*
X203672312Y-192793328D01*
X203315169Y-192293328D02*
X203315169Y-193579042D01*
X203315169Y-193579042D02*
X203386598Y-193721900D01*
X203386598Y-193721900D02*
X203529455Y-193793328D01*
X203529455Y-193793328D02*
X203672312Y-193793328D01*
X204743741Y-193721900D02*
X204600884Y-193793328D01*
X204600884Y-193793328D02*
X204315170Y-193793328D01*
X204315170Y-193793328D02*
X204172312Y-193721900D01*
X204172312Y-193721900D02*
X204100884Y-193579042D01*
X204100884Y-193579042D02*
X204100884Y-193007614D01*
X204100884Y-193007614D02*
X204172312Y-192864757D01*
X204172312Y-192864757D02*
X204315170Y-192793328D01*
X204315170Y-192793328D02*
X204600884Y-192793328D01*
X204600884Y-192793328D02*
X204743741Y-192864757D01*
X204743741Y-192864757D02*
X204815170Y-193007614D01*
X204815170Y-193007614D02*
X204815170Y-193150471D01*
X204815170Y-193150471D02*
X204100884Y-193293328D01*
X205458026Y-193650471D02*
X205529455Y-193721900D01*
X205529455Y-193721900D02*
X205458026Y-193793328D01*
X205458026Y-193793328D02*
X205386598Y-193721900D01*
X205386598Y-193721900D02*
X205458026Y-193650471D01*
X205458026Y-193650471D02*
X205458026Y-193793328D01*
X205458026Y-192864757D02*
X205529455Y-192936185D01*
X205529455Y-192936185D02*
X205458026Y-193007614D01*
X205458026Y-193007614D02*
X205386598Y-192936185D01*
X205386598Y-192936185D02*
X205458026Y-192864757D01*
X205458026Y-192864757D02*
X205458026Y-193007614D01*
D10*
D11*
X177002200Y-194507200D02*
X285002200Y-194507200D01*
D10*
D11*
X178458026Y-196593328D02*
X178458026Y-195093328D01*
X179315169Y-196593328D02*
X178672312Y-195736185D01*
X179315169Y-195093328D02*
X178458026Y-195950471D01*
X179958026Y-196593328D02*
X179958026Y-195593328D01*
X179958026Y-195093328D02*
X179886598Y-195164757D01*
X179886598Y-195164757D02*
X179958026Y-195236185D01*
X179958026Y-195236185D02*
X180029455Y-195164757D01*
X180029455Y-195164757D02*
X179958026Y-195093328D01*
X179958026Y-195093328D02*
X179958026Y-195236185D01*
X181529455Y-196450471D02*
X181458027Y-196521900D01*
X181458027Y-196521900D02*
X181243741Y-196593328D01*
X181243741Y-196593328D02*
X181100884Y-196593328D01*
X181100884Y-196593328D02*
X180886598Y-196521900D01*
X180886598Y-196521900D02*
X180743741Y-196379042D01*
X180743741Y-196379042D02*
X180672312Y-196236185D01*
X180672312Y-196236185D02*
X180600884Y-195950471D01*
X180600884Y-195950471D02*
X180600884Y-195736185D01*
X180600884Y-195736185D02*
X180672312Y-195450471D01*
X180672312Y-195450471D02*
X180743741Y-195307614D01*
X180743741Y-195307614D02*
X180886598Y-195164757D01*
X180886598Y-195164757D02*
X181100884Y-195093328D01*
X181100884Y-195093328D02*
X181243741Y-195093328D01*
X181243741Y-195093328D02*
X181458027Y-195164757D01*
X181458027Y-195164757D02*
X181529455Y-195236185D01*
X182815170Y-196593328D02*
X182815170Y-195807614D01*
X182815170Y-195807614D02*
X182743741Y-195664757D01*
X182743741Y-195664757D02*
X182600884Y-195593328D01*
X182600884Y-195593328D02*
X182315170Y-195593328D01*
X182315170Y-195593328D02*
X182172312Y-195664757D01*
X182815170Y-196521900D02*
X182672312Y-196593328D01*
X182672312Y-196593328D02*
X182315170Y-196593328D01*
X182315170Y-196593328D02*
X182172312Y-196521900D01*
X182172312Y-196521900D02*
X182100884Y-196379042D01*
X182100884Y-196379042D02*
X182100884Y-196236185D01*
X182100884Y-196236185D02*
X182172312Y-196093328D01*
X182172312Y-196093328D02*
X182315170Y-196021900D01*
X182315170Y-196021900D02*
X182672312Y-196021900D01*
X182672312Y-196021900D02*
X182815170Y-195950471D01*
X184172313Y-196593328D02*
X184172313Y-195093328D01*
X184172313Y-196521900D02*
X184029455Y-196593328D01*
X184029455Y-196593328D02*
X183743741Y-196593328D01*
X183743741Y-196593328D02*
X183600884Y-196521900D01*
X183600884Y-196521900D02*
X183529455Y-196450471D01*
X183529455Y-196450471D02*
X183458027Y-196307614D01*
X183458027Y-196307614D02*
X183458027Y-195879042D01*
X183458027Y-195879042D02*
X183529455Y-195736185D01*
X183529455Y-195736185D02*
X183600884Y-195664757D01*
X183600884Y-195664757D02*
X183743741Y-195593328D01*
X183743741Y-195593328D02*
X184029455Y-195593328D01*
X184029455Y-195593328D02*
X184172313Y-195664757D01*
X186029455Y-195807614D02*
X186529455Y-195807614D01*
X186743741Y-196593328D02*
X186029455Y-196593328D01*
X186029455Y-196593328D02*
X186029455Y-195093328D01*
X186029455Y-195093328D02*
X186743741Y-195093328D01*
X187386598Y-196450471D02*
X187458027Y-196521900D01*
X187458027Y-196521900D02*
X187386598Y-196593328D01*
X187386598Y-196593328D02*
X187315170Y-196521900D01*
X187315170Y-196521900D02*
X187386598Y-196450471D01*
X187386598Y-196450471D02*
X187386598Y-196593328D01*
X188100884Y-196593328D02*
X188100884Y-195093328D01*
X188100884Y-195093328D02*
X188458027Y-195093328D01*
X188458027Y-195093328D02*
X188672313Y-195164757D01*
X188672313Y-195164757D02*
X188815170Y-195307614D01*
X188815170Y-195307614D02*
X188886599Y-195450471D01*
X188886599Y-195450471D02*
X188958027Y-195736185D01*
X188958027Y-195736185D02*
X188958027Y-195950471D01*
X188958027Y-195950471D02*
X188886599Y-196236185D01*
X188886599Y-196236185D02*
X188815170Y-196379042D01*
X188815170Y-196379042D02*
X188672313Y-196521900D01*
X188672313Y-196521900D02*
X188458027Y-196593328D01*
X188458027Y-196593328D02*
X188100884Y-196593328D01*
X189600884Y-196450471D02*
X189672313Y-196521900D01*
X189672313Y-196521900D02*
X189600884Y-196593328D01*
X189600884Y-196593328D02*
X189529456Y-196521900D01*
X189529456Y-196521900D02*
X189600884Y-196450471D01*
X189600884Y-196450471D02*
X189600884Y-196593328D01*
X190243742Y-196164757D02*
X190958028Y-196164757D01*
X190100885Y-196593328D02*
X190600885Y-195093328D01*
X190600885Y-195093328D02*
X191100885Y-196593328D01*
X191600884Y-196450471D02*
X191672313Y-196521900D01*
X191672313Y-196521900D02*
X191600884Y-196593328D01*
X191600884Y-196593328D02*
X191529456Y-196521900D01*
X191529456Y-196521900D02*
X191600884Y-196450471D01*
X191600884Y-196450471D02*
X191600884Y-196593328D01*
X193672313Y-195736185D02*
X193529456Y-195664757D01*
X193529456Y-195664757D02*
X193458027Y-195593328D01*
X193458027Y-195593328D02*
X193386599Y-195450471D01*
X193386599Y-195450471D02*
X193386599Y-195379042D01*
X193386599Y-195379042D02*
X193458027Y-195236185D01*
X193458027Y-195236185D02*
X193529456Y-195164757D01*
X193529456Y-195164757D02*
X193672313Y-195093328D01*
X193672313Y-195093328D02*
X193958027Y-195093328D01*
X193958027Y-195093328D02*
X194100885Y-195164757D01*
X194100885Y-195164757D02*
X194172313Y-195236185D01*
X194172313Y-195236185D02*
X194243742Y-195379042D01*
X194243742Y-195379042D02*
X194243742Y-195450471D01*
X194243742Y-195450471D02*
X194172313Y-195593328D01*
X194172313Y-195593328D02*
X194100885Y-195664757D01*
X194100885Y-195664757D02*
X193958027Y-195736185D01*
X193958027Y-195736185D02*
X193672313Y-195736185D01*
X193672313Y-195736185D02*
X193529456Y-195807614D01*
X193529456Y-195807614D02*
X193458027Y-195879042D01*
X193458027Y-195879042D02*
X193386599Y-196021900D01*
X193386599Y-196021900D02*
X193386599Y-196307614D01*
X193386599Y-196307614D02*
X193458027Y-196450471D01*
X193458027Y-196450471D02*
X193529456Y-196521900D01*
X193529456Y-196521900D02*
X193672313Y-196593328D01*
X193672313Y-196593328D02*
X193958027Y-196593328D01*
X193958027Y-196593328D02*
X194100885Y-196521900D01*
X194100885Y-196521900D02*
X194172313Y-196450471D01*
X194172313Y-196450471D02*
X194243742Y-196307614D01*
X194243742Y-196307614D02*
X194243742Y-196021900D01*
X194243742Y-196021900D02*
X194172313Y-195879042D01*
X194172313Y-195879042D02*
X194100885Y-195807614D01*
X194100885Y-195807614D02*
X193958027Y-195736185D01*
X194886598Y-196450471D02*
X194958027Y-196521900D01*
X194958027Y-196521900D02*
X194886598Y-196593328D01*
X194886598Y-196593328D02*
X194815170Y-196521900D01*
X194815170Y-196521900D02*
X194886598Y-196450471D01*
X194886598Y-196450471D02*
X194886598Y-196593328D01*
X195886599Y-195093328D02*
X196029456Y-195093328D01*
X196029456Y-195093328D02*
X196172313Y-195164757D01*
X196172313Y-195164757D02*
X196243742Y-195236185D01*
X196243742Y-195236185D02*
X196315170Y-195379042D01*
X196315170Y-195379042D02*
X196386599Y-195664757D01*
X196386599Y-195664757D02*
X196386599Y-196021900D01*
X196386599Y-196021900D02*
X196315170Y-196307614D01*
X196315170Y-196307614D02*
X196243742Y-196450471D01*
X196243742Y-196450471D02*
X196172313Y-196521900D01*
X196172313Y-196521900D02*
X196029456Y-196593328D01*
X196029456Y-196593328D02*
X195886599Y-196593328D01*
X195886599Y-196593328D02*
X195743742Y-196521900D01*
X195743742Y-196521900D02*
X195672313Y-196450471D01*
X195672313Y-196450471D02*
X195600884Y-196307614D01*
X195600884Y-196307614D02*
X195529456Y-196021900D01*
X195529456Y-196021900D02*
X195529456Y-195664757D01*
X195529456Y-195664757D02*
X195600884Y-195379042D01*
X195600884Y-195379042D02*
X195672313Y-195236185D01*
X195672313Y-195236185D02*
X195743742Y-195164757D01*
X195743742Y-195164757D02*
X195886599Y-195093328D01*
X197029455Y-196450471D02*
X197100884Y-196521900D01*
X197100884Y-196521900D02*
X197029455Y-196593328D01*
X197029455Y-196593328D02*
X196958027Y-196521900D01*
X196958027Y-196521900D02*
X197029455Y-196450471D01*
X197029455Y-196450471D02*
X197029455Y-196593328D01*
X198458027Y-195093328D02*
X197743741Y-195093328D01*
X197743741Y-195093328D02*
X197672313Y-195807614D01*
X197672313Y-195807614D02*
X197743741Y-195736185D01*
X197743741Y-195736185D02*
X197886599Y-195664757D01*
X197886599Y-195664757D02*
X198243741Y-195664757D01*
X198243741Y-195664757D02*
X198386599Y-195736185D01*
X198386599Y-195736185D02*
X198458027Y-195807614D01*
X198458027Y-195807614D02*
X198529456Y-195950471D01*
X198529456Y-195950471D02*
X198529456Y-196307614D01*
X198529456Y-196307614D02*
X198458027Y-196450471D01*
X198458027Y-196450471D02*
X198386599Y-196521900D01*
X198386599Y-196521900D02*
X198243741Y-196593328D01*
X198243741Y-196593328D02*
X197886599Y-196593328D01*
X197886599Y-196593328D02*
X197743741Y-196521900D01*
X197743741Y-196521900D02*
X197672313Y-196450471D01*
D10*
D11*
X177002200Y-191507200D02*
X285002200Y-191507200D01*
D10*
D12*
X264413853Y-193785528D02*
X263913853Y-193071242D01*
X263556710Y-193785528D02*
X263556710Y-192285528D01*
X263556710Y-192285528D02*
X264128139Y-192285528D01*
X264128139Y-192285528D02*
X264270996Y-192356957D01*
X264270996Y-192356957D02*
X264342425Y-192428385D01*
X264342425Y-192428385D02*
X264413853Y-192571242D01*
X264413853Y-192571242D02*
X264413853Y-192785528D01*
X264413853Y-192785528D02*
X264342425Y-192928385D01*
X264342425Y-192928385D02*
X264270996Y-192999814D01*
X264270996Y-192999814D02*
X264128139Y-193071242D01*
X264128139Y-193071242D02*
X263556710Y-193071242D01*
X265628139Y-193714100D02*
X265485282Y-193785528D01*
X265485282Y-193785528D02*
X265199568Y-193785528D01*
X265199568Y-193785528D02*
X265056710Y-193714100D01*
X265056710Y-193714100D02*
X264985282Y-193571242D01*
X264985282Y-193571242D02*
X264985282Y-192999814D01*
X264985282Y-192999814D02*
X265056710Y-192856957D01*
X265056710Y-192856957D02*
X265199568Y-192785528D01*
X265199568Y-192785528D02*
X265485282Y-192785528D01*
X265485282Y-192785528D02*
X265628139Y-192856957D01*
X265628139Y-192856957D02*
X265699568Y-192999814D01*
X265699568Y-192999814D02*
X265699568Y-193142671D01*
X265699568Y-193142671D02*
X264985282Y-193285528D01*
X266199567Y-192785528D02*
X266556710Y-193785528D01*
X266556710Y-193785528D02*
X266913853Y-192785528D01*
X267485281Y-193642671D02*
X267556710Y-193714100D01*
X267556710Y-193714100D02*
X267485281Y-193785528D01*
X267485281Y-193785528D02*
X267413853Y-193714100D01*
X267413853Y-193714100D02*
X267485281Y-193642671D01*
X267485281Y-193642671D02*
X267485281Y-193785528D01*
X267485281Y-192856957D02*
X267556710Y-192928385D01*
X267556710Y-192928385D02*
X267485281Y-192999814D01*
X267485281Y-192999814D02*
X267413853Y-192928385D01*
X267413853Y-192928385D02*
X267485281Y-192856957D01*
X267485281Y-192856957D02*
X267485281Y-192999814D01*
D10*
D11*
X178386598Y-193721900D02*
X178600884Y-193793328D01*
X178600884Y-193793328D02*
X178958026Y-193793328D01*
X178958026Y-193793328D02*
X179100884Y-193721900D01*
X179100884Y-193721900D02*
X179172312Y-193650471D01*
X179172312Y-193650471D02*
X179243741Y-193507614D01*
X179243741Y-193507614D02*
X179243741Y-193364757D01*
X179243741Y-193364757D02*
X179172312Y-193221900D01*
X179172312Y-193221900D02*
X179100884Y-193150471D01*
X179100884Y-193150471D02*
X178958026Y-193079042D01*
X178958026Y-193079042D02*
X178672312Y-193007614D01*
X178672312Y-193007614D02*
X178529455Y-192936185D01*
X178529455Y-192936185D02*
X178458026Y-192864757D01*
X178458026Y-192864757D02*
X178386598Y-192721900D01*
X178386598Y-192721900D02*
X178386598Y-192579042D01*
X178386598Y-192579042D02*
X178458026Y-192436185D01*
X178458026Y-192436185D02*
X178529455Y-192364757D01*
X178529455Y-192364757D02*
X178672312Y-192293328D01*
X178672312Y-192293328D02*
X179029455Y-192293328D01*
X179029455Y-192293328D02*
X179243741Y-192364757D01*
X179886597Y-193793328D02*
X179886597Y-192793328D01*
X179886597Y-192293328D02*
X179815169Y-192364757D01*
X179815169Y-192364757D02*
X179886597Y-192436185D01*
X179886597Y-192436185D02*
X179958026Y-192364757D01*
X179958026Y-192364757D02*
X179886597Y-192293328D01*
X179886597Y-192293328D02*
X179886597Y-192436185D01*
X180458026Y-192793328D02*
X181243741Y-192793328D01*
X181243741Y-192793328D02*
X180458026Y-193793328D01*
X180458026Y-193793328D02*
X181243741Y-193793328D01*
X182386598Y-193721900D02*
X182243741Y-193793328D01*
X182243741Y-193793328D02*
X181958027Y-193793328D01*
X181958027Y-193793328D02*
X181815169Y-193721900D01*
X181815169Y-193721900D02*
X181743741Y-193579042D01*
X181743741Y-193579042D02*
X181743741Y-193007614D01*
X181743741Y-193007614D02*
X181815169Y-192864757D01*
X181815169Y-192864757D02*
X181958027Y-192793328D01*
X181958027Y-192793328D02*
X182243741Y-192793328D01*
X182243741Y-192793328D02*
X182386598Y-192864757D01*
X182386598Y-192864757D02*
X182458027Y-193007614D01*
X182458027Y-193007614D02*
X182458027Y-193150471D01*
X182458027Y-193150471D02*
X181743741Y-193293328D01*
X183100883Y-193650471D02*
X183172312Y-193721900D01*
X183172312Y-193721900D02*
X183100883Y-193793328D01*
X183100883Y-193793328D02*
X183029455Y-193721900D01*
X183029455Y-193721900D02*
X183100883Y-193650471D01*
X183100883Y-193650471D02*
X183100883Y-193793328D01*
X183100883Y-192864757D02*
X183172312Y-192936185D01*
X183172312Y-192936185D02*
X183100883Y-193007614D01*
X183100883Y-193007614D02*
X183029455Y-192936185D01*
X183029455Y-192936185D02*
X183100883Y-192864757D01*
X183100883Y-192864757D02*
X183100883Y-193007614D01*
X184886598Y-193364757D02*
X185600884Y-193364757D01*
X184743741Y-193793328D02*
X185243741Y-192293328D01*
X185243741Y-192293328D02*
X185743741Y-193793328D01*
X186886598Y-192793328D02*
X186886598Y-193793328D01*
X186529455Y-192221900D02*
X186172312Y-193293328D01*
X186172312Y-193293328D02*
X187100883Y-193293328D01*
D10*
D11*
X263458026Y-196593328D02*
X263458026Y-195093328D01*
X264815170Y-196593328D02*
X264815170Y-195093328D01*
X264815170Y-196521900D02*
X264672312Y-196593328D01*
X264672312Y-196593328D02*
X264386598Y-196593328D01*
X264386598Y-196593328D02*
X264243741Y-196521900D01*
X264243741Y-196521900D02*
X264172312Y-196450471D01*
X264172312Y-196450471D02*
X264100884Y-196307614D01*
X264100884Y-196307614D02*
X264100884Y-195879042D01*
X264100884Y-195879042D02*
X264172312Y-195736185D01*
X264172312Y-195736185D02*
X264243741Y-195664757D01*
X264243741Y-195664757D02*
X264386598Y-195593328D01*
X264386598Y-195593328D02*
X264672312Y-195593328D01*
X264672312Y-195593328D02*
X264815170Y-195664757D01*
X265529455Y-196450471D02*
X265600884Y-196521900D01*
X265600884Y-196521900D02*
X265529455Y-196593328D01*
X265529455Y-196593328D02*
X265458027Y-196521900D01*
X265458027Y-196521900D02*
X265529455Y-196450471D01*
X265529455Y-196450471D02*
X265529455Y-196593328D01*
X265529455Y-195664757D02*
X265600884Y-195736185D01*
X265600884Y-195736185D02*
X265529455Y-195807614D01*
X265529455Y-195807614D02*
X265458027Y-195736185D01*
X265458027Y-195736185D02*
X265529455Y-195664757D01*
X265529455Y-195664757D02*
X265529455Y-195807614D01*
X268172313Y-196593328D02*
X267315170Y-196593328D01*
X267743741Y-196593328D02*
X267743741Y-195093328D01*
X267743741Y-195093328D02*
X267600884Y-195307614D01*
X267600884Y-195307614D02*
X267458027Y-195450471D01*
X267458027Y-195450471D02*
X267315170Y-195521900D01*
X269886598Y-195021900D02*
X268600884Y-196950471D01*
X271172313Y-196593328D02*
X270315170Y-196593328D01*
X270743741Y-196593328D02*
X270743741Y-195093328D01*
X270743741Y-195093328D02*
X270600884Y-195307614D01*
X270600884Y-195307614D02*
X270458027Y-195450471D01*
X270458027Y-195450471D02*
X270315170Y-195521900D01*
D10*
D11*
X177002200Y-187507200D02*
X285002200Y-187507200D01*
D10*
D13*
X178693928Y-188211638D02*
X179836785Y-188211638D01*
X179015357Y-190211638D02*
X179265357Y-188211638D01*
X180253452Y-190211638D02*
X180420119Y-188878304D01*
X180503452Y-188211638D02*
X180396309Y-188306876D01*
X180396309Y-188306876D02*
X180479643Y-188402114D01*
X180479643Y-188402114D02*
X180586786Y-188306876D01*
X180586786Y-188306876D02*
X180503452Y-188211638D01*
X180503452Y-188211638D02*
X180479643Y-188402114D01*
X181086786Y-188878304D02*
X181848690Y-188878304D01*
X181455833Y-188211638D02*
X181241548Y-189925923D01*
X181241548Y-189925923D02*
X181312976Y-190116400D01*
X181312976Y-190116400D02*
X181491548Y-190211638D01*
X181491548Y-190211638D02*
X181682024Y-190211638D01*
X182634405Y-190211638D02*
X182455833Y-190116400D01*
X182455833Y-190116400D02*
X182384405Y-189925923D01*
X182384405Y-189925923D02*
X182598690Y-188211638D01*
X184170119Y-190116400D02*
X183967738Y-190211638D01*
X183967738Y-190211638D02*
X183586785Y-190211638D01*
X183586785Y-190211638D02*
X183408214Y-190116400D01*
X183408214Y-190116400D02*
X183336785Y-189925923D01*
X183336785Y-189925923D02*
X183432024Y-189164019D01*
X183432024Y-189164019D02*
X183551071Y-188973542D01*
X183551071Y-188973542D02*
X183753452Y-188878304D01*
X183753452Y-188878304D02*
X184134404Y-188878304D01*
X184134404Y-188878304D02*
X184312976Y-188973542D01*
X184312976Y-188973542D02*
X184384404Y-189164019D01*
X184384404Y-189164019D02*
X184360595Y-189354495D01*
X184360595Y-189354495D02*
X183384404Y-189544971D01*
X185134405Y-190021161D02*
X185217738Y-190116400D01*
X185217738Y-190116400D02*
X185110595Y-190211638D01*
X185110595Y-190211638D02*
X185027262Y-190116400D01*
X185027262Y-190116400D02*
X185134405Y-190021161D01*
X185134405Y-190021161D02*
X185110595Y-190211638D01*
X185265357Y-188973542D02*
X185348690Y-189068780D01*
X185348690Y-189068780D02*
X185241548Y-189164019D01*
X185241548Y-189164019D02*
X185158214Y-189068780D01*
X185158214Y-189068780D02*
X185265357Y-188973542D01*
X185265357Y-188973542D02*
X185241548Y-189164019D01*
D10*
D11*
X178958026Y-185607614D02*
X178458026Y-185607614D01*
X178458026Y-186393328D02*
X178458026Y-184893328D01*
X178458026Y-184893328D02*
X179172312Y-184893328D01*
X179743740Y-186393328D02*
X179743740Y-185393328D01*
X179743740Y-184893328D02*
X179672312Y-184964757D01*
X179672312Y-184964757D02*
X179743740Y-185036185D01*
X179743740Y-185036185D02*
X179815169Y-184964757D01*
X179815169Y-184964757D02*
X179743740Y-184893328D01*
X179743740Y-184893328D02*
X179743740Y-185036185D01*
X180672312Y-186393328D02*
X180529455Y-186321900D01*
X180529455Y-186321900D02*
X180458026Y-186179042D01*
X180458026Y-186179042D02*
X180458026Y-184893328D01*
X181815169Y-186321900D02*
X181672312Y-186393328D01*
X181672312Y-186393328D02*
X181386598Y-186393328D01*
X181386598Y-186393328D02*
X181243740Y-186321900D01*
X181243740Y-186321900D02*
X181172312Y-186179042D01*
X181172312Y-186179042D02*
X181172312Y-185607614D01*
X181172312Y-185607614D02*
X181243740Y-185464757D01*
X181243740Y-185464757D02*
X181386598Y-185393328D01*
X181386598Y-185393328D02*
X181672312Y-185393328D01*
X181672312Y-185393328D02*
X181815169Y-185464757D01*
X181815169Y-185464757D02*
X181886598Y-185607614D01*
X181886598Y-185607614D02*
X181886598Y-185750471D01*
X181886598Y-185750471D02*
X181172312Y-185893328D01*
X182529454Y-186250471D02*
X182600883Y-186321900D01*
X182600883Y-186321900D02*
X182529454Y-186393328D01*
X182529454Y-186393328D02*
X182458026Y-186321900D01*
X182458026Y-186321900D02*
X182529454Y-186250471D01*
X182529454Y-186250471D02*
X182529454Y-186393328D01*
X182529454Y-185464757D02*
X182600883Y-185536185D01*
X182600883Y-185536185D02*
X182529454Y-185607614D01*
X182529454Y-185607614D02*
X182458026Y-185536185D01*
X182458026Y-185536185D02*
X182529454Y-185464757D01*
X182529454Y-185464757D02*
X182529454Y-185607614D01*
X184386597Y-185393328D02*
X184386597Y-186893328D01*
X184386597Y-185464757D02*
X184529455Y-185393328D01*
X184529455Y-185393328D02*
X184815169Y-185393328D01*
X184815169Y-185393328D02*
X184958026Y-185464757D01*
X184958026Y-185464757D02*
X185029455Y-185536185D01*
X185029455Y-185536185D02*
X185100883Y-185679042D01*
X185100883Y-185679042D02*
X185100883Y-186107614D01*
X185100883Y-186107614D02*
X185029455Y-186250471D01*
X185029455Y-186250471D02*
X184958026Y-186321900D01*
X184958026Y-186321900D02*
X184815169Y-186393328D01*
X184815169Y-186393328D02*
X184529455Y-186393328D01*
X184529455Y-186393328D02*
X184386597Y-186321900D01*
X185529455Y-185393328D02*
X186100883Y-185393328D01*
X185743740Y-184893328D02*
X185743740Y-186179042D01*
X185743740Y-186179042D02*
X185815169Y-186321900D01*
X185815169Y-186321900D02*
X185958026Y-186393328D01*
X185958026Y-186393328D02*
X186100883Y-186393328D01*
X186600883Y-186393328D02*
X186600883Y-185393328D01*
X186600883Y-185679042D02*
X186672312Y-185536185D01*
X186672312Y-185536185D02*
X186743741Y-185464757D01*
X186743741Y-185464757D02*
X186886598Y-185393328D01*
X186886598Y-185393328D02*
X187029455Y-185393328D01*
X187529454Y-186250471D02*
X187600883Y-186321900D01*
X187600883Y-186321900D02*
X187529454Y-186393328D01*
X187529454Y-186393328D02*
X187458026Y-186321900D01*
X187458026Y-186321900D02*
X187529454Y-186250471D01*
X187529454Y-186250471D02*
X187529454Y-186393328D01*
X188243740Y-186393328D02*
X188243740Y-184893328D01*
X188386598Y-185821900D02*
X188815169Y-186393328D01*
X188815169Y-185393328D02*
X188243740Y-185964757D01*
X189458026Y-186393328D02*
X189458026Y-185393328D01*
X189458026Y-184893328D02*
X189386598Y-184964757D01*
X189386598Y-184964757D02*
X189458026Y-185036185D01*
X189458026Y-185036185D02*
X189529455Y-184964757D01*
X189529455Y-184964757D02*
X189458026Y-184893328D01*
X189458026Y-184893328D02*
X189458026Y-185036185D01*
X190815170Y-186321900D02*
X190672312Y-186393328D01*
X190672312Y-186393328D02*
X190386598Y-186393328D01*
X190386598Y-186393328D02*
X190243741Y-186321900D01*
X190243741Y-186321900D02*
X190172312Y-186250471D01*
X190172312Y-186250471D02*
X190100884Y-186107614D01*
X190100884Y-186107614D02*
X190100884Y-185679042D01*
X190100884Y-185679042D02*
X190172312Y-185536185D01*
X190172312Y-185536185D02*
X190243741Y-185464757D01*
X190243741Y-185464757D02*
X190386598Y-185393328D01*
X190386598Y-185393328D02*
X190672312Y-185393328D01*
X190672312Y-185393328D02*
X190815170Y-185464757D01*
X192100884Y-186393328D02*
X192100884Y-185607614D01*
X192100884Y-185607614D02*
X192029455Y-185464757D01*
X192029455Y-185464757D02*
X191886598Y-185393328D01*
X191886598Y-185393328D02*
X191600884Y-185393328D01*
X191600884Y-185393328D02*
X191458026Y-185464757D01*
X192100884Y-186321900D02*
X191958026Y-186393328D01*
X191958026Y-186393328D02*
X191600884Y-186393328D01*
X191600884Y-186393328D02*
X191458026Y-186321900D01*
X191458026Y-186321900D02*
X191386598Y-186179042D01*
X191386598Y-186179042D02*
X191386598Y-186036185D01*
X191386598Y-186036185D02*
X191458026Y-185893328D01*
X191458026Y-185893328D02*
X191600884Y-185821900D01*
X191600884Y-185821900D02*
X191958026Y-185821900D01*
X191958026Y-185821900D02*
X192100884Y-185750471D01*
X193458027Y-186393328D02*
X193458027Y-184893328D01*
X193458027Y-186321900D02*
X193315169Y-186393328D01*
X193315169Y-186393328D02*
X193029455Y-186393328D01*
X193029455Y-186393328D02*
X192886598Y-186321900D01*
X192886598Y-186321900D02*
X192815169Y-186250471D01*
X192815169Y-186250471D02*
X192743741Y-186107614D01*
X192743741Y-186107614D02*
X192743741Y-185679042D01*
X192743741Y-185679042D02*
X192815169Y-185536185D01*
X192815169Y-185536185D02*
X192886598Y-185464757D01*
X192886598Y-185464757D02*
X193029455Y-185393328D01*
X193029455Y-185393328D02*
X193315169Y-185393328D01*
X193315169Y-185393328D02*
X193458027Y-185464757D01*
X193815170Y-186536185D02*
X194958027Y-186536185D01*
X195315169Y-185393328D02*
X195315169Y-186893328D01*
X195315169Y-185464757D02*
X195458027Y-185393328D01*
X195458027Y-185393328D02*
X195743741Y-185393328D01*
X195743741Y-185393328D02*
X195886598Y-185464757D01*
X195886598Y-185464757D02*
X195958027Y-185536185D01*
X195958027Y-185536185D02*
X196029455Y-185679042D01*
X196029455Y-185679042D02*
X196029455Y-186107614D01*
X196029455Y-186107614D02*
X195958027Y-186250471D01*
X195958027Y-186250471D02*
X195886598Y-186321900D01*
X195886598Y-186321900D02*
X195743741Y-186393328D01*
X195743741Y-186393328D02*
X195458027Y-186393328D01*
X195458027Y-186393328D02*
X195315169Y-186321900D01*
X197315170Y-186321900D02*
X197172312Y-186393328D01*
X197172312Y-186393328D02*
X196886598Y-186393328D01*
X196886598Y-186393328D02*
X196743741Y-186321900D01*
X196743741Y-186321900D02*
X196672312Y-186250471D01*
X196672312Y-186250471D02*
X196600884Y-186107614D01*
X196600884Y-186107614D02*
X196600884Y-185679042D01*
X196600884Y-185679042D02*
X196672312Y-185536185D01*
X196672312Y-185536185D02*
X196743741Y-185464757D01*
X196743741Y-185464757D02*
X196886598Y-185393328D01*
X196886598Y-185393328D02*
X197172312Y-185393328D01*
X197172312Y-185393328D02*
X197315170Y-185464757D01*
X197958026Y-186393328D02*
X197958026Y-184893328D01*
X197958026Y-185464757D02*
X198100884Y-185393328D01*
X198100884Y-185393328D02*
X198386598Y-185393328D01*
X198386598Y-185393328D02*
X198529455Y-185464757D01*
X198529455Y-185464757D02*
X198600884Y-185536185D01*
X198600884Y-185536185D02*
X198672312Y-185679042D01*
X198672312Y-185679042D02*
X198672312Y-186107614D01*
X198672312Y-186107614D02*
X198600884Y-186250471D01*
X198600884Y-186250471D02*
X198529455Y-186321900D01*
X198529455Y-186321900D02*
X198386598Y-186393328D01*
X198386598Y-186393328D02*
X198100884Y-186393328D01*
X198100884Y-186393328D02*
X197958026Y-186321900D01*
D10*
D11*
X177002200Y-181507200D02*
X285002200Y-181507200D01*
D10*
D11*
X178386598Y-183621900D02*
X178600884Y-183693328D01*
X178600884Y-183693328D02*
X178958026Y-183693328D01*
X178958026Y-183693328D02*
X179100884Y-183621900D01*
X179100884Y-183621900D02*
X179172312Y-183550471D01*
X179172312Y-183550471D02*
X179243741Y-183407614D01*
X179243741Y-183407614D02*
X179243741Y-183264757D01*
X179243741Y-183264757D02*
X179172312Y-183121900D01*
X179172312Y-183121900D02*
X179100884Y-183050471D01*
X179100884Y-183050471D02*
X178958026Y-182979042D01*
X178958026Y-182979042D02*
X178672312Y-182907614D01*
X178672312Y-182907614D02*
X178529455Y-182836185D01*
X178529455Y-182836185D02*
X178458026Y-182764757D01*
X178458026Y-182764757D02*
X178386598Y-182621900D01*
X178386598Y-182621900D02*
X178386598Y-182479042D01*
X178386598Y-182479042D02*
X178458026Y-182336185D01*
X178458026Y-182336185D02*
X178529455Y-182264757D01*
X178529455Y-182264757D02*
X178672312Y-182193328D01*
X178672312Y-182193328D02*
X179029455Y-182193328D01*
X179029455Y-182193328D02*
X179243741Y-182264757D01*
X179886597Y-183693328D02*
X179886597Y-182193328D01*
X180529455Y-183693328D02*
X180529455Y-182907614D01*
X180529455Y-182907614D02*
X180458026Y-182764757D01*
X180458026Y-182764757D02*
X180315169Y-182693328D01*
X180315169Y-182693328D02*
X180100883Y-182693328D01*
X180100883Y-182693328D02*
X179958026Y-182764757D01*
X179958026Y-182764757D02*
X179886597Y-182836185D01*
X181815169Y-183621900D02*
X181672312Y-183693328D01*
X181672312Y-183693328D02*
X181386598Y-183693328D01*
X181386598Y-183693328D02*
X181243740Y-183621900D01*
X181243740Y-183621900D02*
X181172312Y-183479042D01*
X181172312Y-183479042D02*
X181172312Y-182907614D01*
X181172312Y-182907614D02*
X181243740Y-182764757D01*
X181243740Y-182764757D02*
X181386598Y-182693328D01*
X181386598Y-182693328D02*
X181672312Y-182693328D01*
X181672312Y-182693328D02*
X181815169Y-182764757D01*
X181815169Y-182764757D02*
X181886598Y-182907614D01*
X181886598Y-182907614D02*
X181886598Y-183050471D01*
X181886598Y-183050471D02*
X181172312Y-183193328D01*
X183100883Y-183621900D02*
X182958026Y-183693328D01*
X182958026Y-183693328D02*
X182672312Y-183693328D01*
X182672312Y-183693328D02*
X182529454Y-183621900D01*
X182529454Y-183621900D02*
X182458026Y-183479042D01*
X182458026Y-183479042D02*
X182458026Y-182907614D01*
X182458026Y-182907614D02*
X182529454Y-182764757D01*
X182529454Y-182764757D02*
X182672312Y-182693328D01*
X182672312Y-182693328D02*
X182958026Y-182693328D01*
X182958026Y-182693328D02*
X183100883Y-182764757D01*
X183100883Y-182764757D02*
X183172312Y-182907614D01*
X183172312Y-182907614D02*
X183172312Y-183050471D01*
X183172312Y-183050471D02*
X182458026Y-183193328D01*
X183600883Y-182693328D02*
X184172311Y-182693328D01*
X183815168Y-182193328D02*
X183815168Y-183479042D01*
X183815168Y-183479042D02*
X183886597Y-183621900D01*
X183886597Y-183621900D02*
X184029454Y-183693328D01*
X184029454Y-183693328D02*
X184172311Y-183693328D01*
X184672311Y-183550471D02*
X184743740Y-183621900D01*
X184743740Y-183621900D02*
X184672311Y-183693328D01*
X184672311Y-183693328D02*
X184600883Y-183621900D01*
X184600883Y-183621900D02*
X184672311Y-183550471D01*
X184672311Y-183550471D02*
X184672311Y-183693328D01*
X184672311Y-182764757D02*
X184743740Y-182836185D01*
X184743740Y-182836185D02*
X184672311Y-182907614D01*
X184672311Y-182907614D02*
X184600883Y-182836185D01*
X184600883Y-182836185D02*
X184672311Y-182764757D01*
X184672311Y-182764757D02*
X184672311Y-182907614D01*
D10*
D11*
X197002200Y-191507200D02*
X197002200Y-194507200D01*
D10*
D11*
X261002200Y-191507200D02*
X261002200Y-198007200D01*
D14*
%TO.P,J3,1,Pin_1*%
%TO.N,GND*%
X142075000Y-59434000D03*
%TD*%
%TO.P,J2,1,Pin_1*%
%TO.N,VCC*%
X108369000Y-59434000D03*
%TD*%
D15*
%TO.P,Q9,1,C*%
%TO.N,/DATA7*%
X135382000Y-64945000D03*
%TO.P,Q9,2,E*%
%TO.N,GND*%
X135382000Y-66520000D03*
%TD*%
%TO.P,Q1,1,C*%
%TO.N,/DATA0*%
X115062000Y-64945000D03*
%TO.P,Q1,2,E*%
%TO.N,GND*%
X115062000Y-66520000D03*
%TD*%
%TO.P,Q5,1,C*%
%TO.N,/DATA3*%
X125222000Y-64945000D03*
%TO.P,Q5,2,E*%
%TO.N,GND*%
X125222000Y-66520000D03*
%TD*%
%TO.P,Q4,1,C*%
%TO.N,/FEED*%
X122682000Y-64945000D03*
%TO.P,Q4,2,E*%
%TO.N,GND*%
X122682000Y-66520000D03*
%TD*%
%TO.P,Q7,1,C*%
%TO.N,/DATA5*%
X130302000Y-64945000D03*
%TO.P,Q7,2,E*%
%TO.N,GND*%
X130302000Y-66520000D03*
%TD*%
%TO.P,Q8,1,C*%
%TO.N,/DATA6*%
X132842000Y-64945000D03*
%TO.P,Q8,2,E*%
%TO.N,GND*%
X132842000Y-66520000D03*
%TD*%
D16*
%TO.P,P1,A1,GND*%
%TO.N,GND*%
X122500000Y-50038000D03*
%TO.P,P1,A2,TX1+*%
%TO.N,unconnected-(P1-TX1+-PadA2)*%
X123000000Y-50038000D03*
%TO.P,P1,A3,TX1-*%
%TO.N,unconnected-(P1-TX1--PadA3)*%
X123500000Y-50038000D03*
%TO.P,P1,A4,VBUS*%
%TO.N,VBUS*%
X124000000Y-50038000D03*
%TO.P,P1,A5,CC*%
%TO.N,Net-(P1-CC)*%
X124500000Y-50038000D03*
%TO.P,P1,A6,D+*%
%TO.N,/DP*%
X125000000Y-50038000D03*
%TO.P,P1,A7,D-*%
%TO.N,/DN*%
X125500000Y-50038000D03*
%TO.P,P1,A8,SBU1*%
%TO.N,unconnected-(P1-SBU1-PadA8)*%
X126000000Y-50038000D03*
%TO.P,P1,A9,VBUS*%
%TO.N,VBUS*%
X126500000Y-50038000D03*
%TO.P,P1,A10,RX2-*%
%TO.N,unconnected-(P1-RX2--PadA10)*%
X127000000Y-50038000D03*
%TO.P,P1,A11,RX2+*%
%TO.N,unconnected-(P1-RX2+-PadA11)*%
X127500000Y-50038000D03*
%TO.P,P1,A12,GND*%
%TO.N,GND*%
X128000000Y-50038000D03*
D17*
%TO.P,P1,S1,SHIELD*%
X121830000Y-50878000D03*
%TD*%
D15*
%TO.P,Q2,1,C*%
%TO.N,/DATA1*%
X117602000Y-64945000D03*
%TO.P,Q2,2,E*%
%TO.N,GND*%
X117602000Y-66520000D03*
%TD*%
D18*
%TO.P,J1,1,Pin_1*%
%TO.N,/MISO*%
X118872000Y-73533000D03*
%TO.P,J1,2,Pin_2*%
%TO.N,VCC*%
X121412000Y-73533000D03*
%TO.P,J1,3,Pin_3*%
%TO.N,/SCK*%
X123952000Y-73533000D03*
%TO.P,J1,4,Pin_4*%
%TO.N,/MOSI*%
X126492000Y-73533000D03*
%TO.P,J1,5,Pin_5*%
%TO.N,/RESET*%
X129032000Y-73533000D03*
%TO.P,J1,6,Pin_6*%
%TO.N,GND*%
X131572000Y-73533000D03*
%TD*%
D15*
%TO.P,Q3,1,C*%
%TO.N,/DATA2*%
X120142000Y-64945000D03*
%TO.P,Q3,2,E*%
%TO.N,GND*%
X120142000Y-66520000D03*
%TD*%
%TO.P,Q6,1,C*%
%TO.N,/DATA4*%
X127762000Y-64945000D03*
%TO.P,Q6,2,E*%
%TO.N,GND*%
X127762000Y-66520000D03*
%TD*%
D19*
%TO.N,GND*%
X125984000Y-56896000D03*
X120396000Y-61976000D03*
%TO.N,/DATA7*%
X121793000Y-63275300D03*
%TO.N,GND*%
X111506000Y-61468000D03*
X111506000Y-63754000D03*
X106680000Y-55880000D03*
X114300000Y-54610000D03*
X114300000Y-52070000D03*
X138430000Y-55880000D03*
X143510000Y-55880000D03*
X140970000Y-52070000D03*
X140970000Y-69850000D03*
X143510000Y-69850000D03*
X140970000Y-72390000D03*
X135890000Y-72390000D03*
X118110000Y-71120000D03*
X115570000Y-71120000D03*
X113030000Y-71120000D03*
X106680000Y-71120000D03*
X106680000Y-68580000D03*
X106680000Y-66040000D03*
X106680000Y-63500000D03*
X137384800Y-69502600D03*
X118178900Y-53728300D03*
X116072300Y-64585300D03*
X137668000Y-51054000D03*
X125222000Y-60793200D03*
X117791200Y-58224300D03*
X122682000Y-51054000D03*
X127762000Y-51054000D03*
%TO.N,VBUS*%
X126873000Y-51054000D03*
X123482000Y-51054000D03*
X130655100Y-56385800D03*
%TO.N,VCC*%
X109601000Y-55245000D03*
X112217000Y-74574400D03*
%TO.N,Net-(P1-VCONN)*%
X126110000Y-51308000D03*
X135509000Y-51181000D03*
%TO.N,Net-(P1-CC)*%
X135509000Y-52705000D03*
%TO.N,/DP*%
X129667000Y-52324000D03*
%TO.N,/DN*%
X128229000Y-52274000D03*
%TO.N,/MOSI*%
X135119600Y-59557200D03*
%TO.N,Net-(U1-PB0)*%
X119180600Y-72127200D03*
X129821500Y-59122800D03*
%TO.N,/SCK*%
X131963900Y-57695000D03*
%TO.N,/MISO*%
X135397500Y-61379300D03*
%TO.N,/RESET*%
X133034700Y-61672200D03*
X130719600Y-61569600D03*
X139039000Y-64712000D03*
%TO.N,/DATA0*%
X112374700Y-57546100D03*
%TO.N,/DATA1*%
X113954900Y-58930400D03*
%TO.N,/DATA2*%
X114987200Y-59336300D03*
%TO.N,/FEED*%
X116267500Y-60540800D03*
%TO.N,/DATA3*%
X118251900Y-67474700D03*
X120073000Y-67474700D03*
%TO.N,/DATA4*%
X121415400Y-67108300D03*
%TO.N,/DATA5*%
X118996300Y-65900800D03*
%TO.N,/DATA6*%
X113156200Y-68584100D03*
X116709700Y-67319500D03*
%TD*%
D20*
%TO.N,GND*%
X127762000Y-66520000D02*
X130302000Y-66520000D01*
%TO.N,/DATA1*%
X113954900Y-60360900D02*
X117602000Y-64008000D01*
X113954900Y-58930400D02*
X113954900Y-60360900D01*
X117602000Y-64008000D02*
X117602000Y-64945000D01*
%TO.N,/DATA2*%
X119158800Y-63961800D02*
X120142000Y-64945000D01*
X118231830Y-63961800D02*
X119158800Y-63961800D01*
X114987200Y-59336300D02*
X114987200Y-60717170D01*
X114987200Y-60717170D02*
X118231830Y-63961800D01*
%TO.N,/DATA7*%
X133712300Y-63275300D02*
X121793000Y-63275300D01*
X135382000Y-64945000D02*
X133712300Y-63275300D01*
%TO.N,GND*%
X121830000Y-50878000D02*
X121830000Y-51764700D01*
X125222000Y-66520000D02*
X127762000Y-66520000D01*
X116072300Y-64585300D02*
X116072300Y-65383100D01*
X120165400Y-66496600D02*
X122658600Y-66496600D01*
X140268600Y-66618800D02*
X140268600Y-59309000D01*
X136730500Y-57504200D02*
X136730500Y-57060800D01*
X137185000Y-50571000D02*
X137668000Y-51054000D01*
X121830000Y-51764700D02*
X128642300Y-58577000D01*
X132965200Y-60724300D02*
X136202800Y-63961900D01*
X116528400Y-65446400D02*
X116135600Y-65446400D01*
X119866400Y-53728300D02*
X121830000Y-51764700D01*
X136202800Y-65699200D02*
X135382000Y-66520000D01*
X117602000Y-66520000D02*
X116528400Y-65446400D01*
X122500000Y-50872000D02*
X122682000Y-51054000D01*
X136730500Y-57060800D02*
X136730500Y-51991500D01*
X122006000Y-51054000D02*
X121830000Y-50878000D01*
X122500000Y-50038000D02*
X122500000Y-50872000D01*
X133354400Y-73533000D02*
X137384800Y-69502600D01*
X122658600Y-66496600D02*
X122682000Y-66520000D01*
X128642300Y-58577000D02*
X128772000Y-58577000D01*
X136730500Y-57060800D02*
X130288200Y-57060800D01*
X117791200Y-58224300D02*
X113781100Y-58224300D01*
X128772000Y-58990000D02*
X130506300Y-60724300D01*
X136730500Y-51991500D02*
X137668000Y-51054000D01*
X116135600Y-65446400D02*
X115062000Y-66520000D01*
X113781100Y-58224300D02*
X113310900Y-58694500D01*
X141097000Y-59309000D02*
X140268600Y-59309000D01*
X128000000Y-50038000D02*
X128000000Y-50816000D01*
X120142000Y-66520000D02*
X120165400Y-66496600D01*
X118178900Y-57836600D02*
X117791200Y-58224300D01*
X128772000Y-58577000D02*
X128772000Y-58990000D01*
X140268600Y-59309000D02*
X138535300Y-59309000D01*
X118178900Y-53728300D02*
X118178900Y-57836600D01*
X137384800Y-69502600D02*
X140268600Y-66618800D01*
X130288200Y-57060800D02*
X128772000Y-58577000D01*
X128245000Y-50571000D02*
X137185000Y-50571000D01*
X128000000Y-50816000D02*
X128245000Y-50571000D01*
X128000000Y-50816000D02*
X127762000Y-51054000D01*
X113310900Y-58694500D02*
X113310900Y-61823900D01*
X113310900Y-61823900D02*
X116072300Y-64585300D01*
X131572000Y-73533000D02*
X133354400Y-73533000D01*
X138535300Y-59309000D02*
X136730500Y-57504200D01*
X116072300Y-65383100D02*
X116135600Y-65446400D01*
X122682000Y-51054000D02*
X122006000Y-51054000D01*
X118178900Y-53728300D02*
X119866400Y-53728300D01*
X130506300Y-60724300D02*
X132965200Y-60724300D01*
X135382000Y-66520000D02*
X132842000Y-66520000D01*
X120142000Y-66520000D02*
X117602000Y-66520000D01*
X122682000Y-66520000D02*
X125222000Y-66520000D01*
X136202800Y-63961900D02*
X136202800Y-65699200D01*
X127762000Y-51054000D02*
X128000000Y-50816000D01*
%TO.N,VBUS*%
X123794000Y-51054000D02*
X123482000Y-51054000D01*
X126500000Y-50038000D02*
X126500000Y-50681000D01*
X126500000Y-50681000D02*
X126873000Y-51054000D01*
X123794000Y-51667800D02*
X123794000Y-51054000D01*
X124000000Y-50038000D02*
X124000000Y-50848000D01*
X128512000Y-56385800D02*
X123794000Y-51667800D01*
X124000000Y-50848000D02*
X123794000Y-51054000D01*
X130655100Y-56385800D02*
X128512000Y-56385800D01*
D21*
%TO.N,VCC*%
X112576000Y-74933000D02*
X112217000Y-74574400D01*
X109601000Y-55245000D02*
X109601000Y-59055000D01*
X121412000Y-73533000D02*
X120012000Y-74933000D01*
X109601000Y-59055000D02*
X109347000Y-59309000D01*
X120012000Y-74933000D02*
X112576000Y-74933000D01*
D20*
%TO.N,Net-(P1-VCONN)*%
X130669000Y-52285000D02*
X130048000Y-51664000D01*
X135509000Y-51181000D02*
X134405000Y-52285000D01*
X126466000Y-51664000D02*
X126110000Y-51308000D01*
X134405000Y-52285000D02*
X130669000Y-52285000D01*
X130048000Y-51664000D02*
X126466000Y-51664000D01*
%TO.N,Net-(P1-CC)*%
X124500000Y-50038000D02*
X124500000Y-51749000D01*
X129261000Y-52934000D02*
X130581000Y-52934000D01*
X126055000Y-53304000D02*
X128891000Y-53304000D01*
X128891000Y-53304000D02*
X129261000Y-52934000D01*
X124500000Y-51749000D02*
X126055000Y-53304000D01*
X130810000Y-52705000D02*
X135509000Y-52705000D01*
X130581000Y-52934000D02*
X130810000Y-52705000D01*
%TO.N,/DP*%
X128839000Y-52526700D02*
X128482000Y-52884000D01*
X129032000Y-52324000D02*
X128839000Y-52517100D01*
X129667000Y-52324000D02*
X129032000Y-52324000D01*
X126229000Y-52884000D02*
X125000000Y-51654600D01*
X128482000Y-52884000D02*
X126229000Y-52884000D01*
X128839000Y-52517100D02*
X128839000Y-52526700D01*
X125000000Y-51654600D02*
X125000000Y-50038000D01*
%TO.N,/DN*%
X126213000Y-52274000D02*
X125500000Y-51560700D01*
X125500000Y-51560700D02*
X125500000Y-50038000D01*
X128229000Y-52274000D02*
X126213000Y-52274000D01*
%TO.N,/MOSI*%
X129486900Y-70538100D02*
X126492000Y-73533000D01*
X137928000Y-67115700D02*
X134505600Y-70538100D01*
X135119600Y-59557200D02*
X137928000Y-62365600D01*
X137928000Y-62365600D02*
X137928000Y-67115700D01*
X134505600Y-70538100D02*
X129486900Y-70538100D01*
%TO.N,Net-(U1-PB0)*%
X126751860Y-71462000D02*
X129143860Y-69070000D01*
X123952000Y-71903000D02*
X124393000Y-71462000D01*
X129143860Y-69070000D02*
X134112000Y-69070000D01*
X124393000Y-71462000D02*
X126751860Y-71462000D01*
X119180600Y-72127200D02*
X119404800Y-71903000D01*
X136624600Y-63781700D02*
X131965700Y-59122800D01*
X134112000Y-69070000D02*
X136624600Y-66557400D01*
X131965700Y-59122800D02*
X129821500Y-59122800D01*
X136624600Y-66557400D02*
X136624600Y-63781700D01*
X119404800Y-71903000D02*
X123952000Y-71903000D01*
%TO.N,/SCK*%
X125162000Y-72323000D02*
X127078800Y-72323000D01*
X134331300Y-70115800D02*
X129286000Y-70115800D01*
X135052600Y-60168900D02*
X137492200Y-62608500D01*
X127078800Y-72323000D02*
X129286000Y-70115800D01*
X123952000Y-73533000D02*
X125162000Y-72323000D01*
X134437800Y-60168900D02*
X135052600Y-60168900D01*
X131963900Y-57695000D02*
X134437800Y-60168900D01*
X137492200Y-62608500D02*
X137492200Y-66954900D01*
X137492200Y-66954900D02*
X134331300Y-70115800D01*
%TO.N,/MISO*%
X126925830Y-71882000D02*
X129112030Y-69695800D01*
X118872000Y-73533000D02*
X120082000Y-72323000D01*
X137046300Y-66787900D02*
X137046300Y-63028100D01*
X130302000Y-69694000D02*
X134140200Y-69694000D01*
X137046300Y-63028100D02*
X135397500Y-61379300D01*
X130300200Y-69695800D02*
X130302000Y-69694000D01*
X124568030Y-72323000D02*
X125009030Y-71882000D01*
X129112030Y-69695800D02*
X130300200Y-69695800D01*
X125009030Y-71882000D02*
X126925830Y-71882000D01*
X134140200Y-69694000D02*
X137046300Y-66787900D01*
X120082000Y-72323000D02*
X124568030Y-72323000D01*
%TO.N,/RESET*%
X130586600Y-71978400D02*
X133716200Y-71978400D01*
X132932100Y-61569600D02*
X133034700Y-61672200D01*
X139039000Y-66655600D02*
X139039000Y-64712000D01*
X130719600Y-61569600D02*
X132932100Y-61569600D01*
X133716200Y-71978400D02*
X139039000Y-66655600D01*
X129032000Y-73533000D02*
X130586600Y-71978400D01*
%TO.N,/DATA0*%
X112374700Y-62257700D02*
X115062000Y-64945000D01*
X112374700Y-57546100D02*
X112374700Y-62257700D01*
%TO.N,/FEED*%
X121370828Y-64945000D02*
X119671828Y-63246000D01*
X116267500Y-61403500D02*
X116267500Y-60540800D01*
X122682000Y-64945000D02*
X121370828Y-64945000D01*
X118110000Y-63246000D02*
X116267500Y-61403500D01*
X119671828Y-63246000D02*
X118110000Y-63246000D01*
%TO.N,/DATA3*%
X131572000Y-67113400D02*
X131572000Y-64923400D01*
X126471700Y-63695300D02*
X125222000Y-64945000D01*
X130950100Y-67735300D02*
X131572000Y-67113400D01*
X120073000Y-67474700D02*
X118251900Y-67474700D01*
X120073000Y-67474700D02*
X120333600Y-67735300D01*
X130343900Y-63695300D02*
X126471700Y-63695300D01*
X131572000Y-64923400D02*
X130343900Y-63695300D01*
X120333600Y-67735300D02*
X130950100Y-67735300D01*
%TO.N,/DATA4*%
X130804600Y-65732500D02*
X128549500Y-65732500D01*
X131119900Y-66047800D02*
X130804600Y-65732500D01*
X121415400Y-67108300D02*
X121585600Y-67278500D01*
X131119900Y-66947700D02*
X131119900Y-66047800D01*
X128549500Y-65732500D02*
X127762000Y-64945000D01*
X130789100Y-67278500D02*
X131119900Y-66947700D01*
X121585600Y-67278500D02*
X130789100Y-67278500D01*
%TO.N,/DATA5*%
X119202100Y-65695000D02*
X125785600Y-65695000D01*
X129542000Y-64185000D02*
X130302000Y-64945000D01*
X127295600Y-64185000D02*
X129542000Y-64185000D01*
X125785600Y-65695000D02*
X127295600Y-64185000D01*
X118996300Y-65900800D02*
X119202100Y-65695000D01*
%TO.N,/DATA6*%
X132054500Y-65732500D02*
X132842000Y-64945000D01*
X131168800Y-68183100D02*
X132054500Y-67297400D01*
X132054500Y-67297400D02*
X132054500Y-65732500D01*
X116772000Y-68183100D02*
X131168800Y-68183100D01*
X116709700Y-68120800D02*
X116709700Y-67319500D01*
X116709700Y-68120800D02*
X116772000Y-68183100D01*
X113619500Y-68120800D02*
X116709700Y-68120800D01*
X113156200Y-68584100D02*
X113619500Y-68120800D01*
%TD*%
%TA.AperFunction,Conductor*%
%TO.N,GND*%
G36*
X120923039Y-50458185D02*
G01*
X120968794Y-50510989D01*
X120980000Y-50562500D01*
X120980000Y-50628000D01*
X121956000Y-50628000D01*
X122023039Y-50647685D01*
X122068794Y-50700489D01*
X122080000Y-50752000D01*
X122080000Y-51953000D01*
X122227828Y-51953000D01*
X122227844Y-51952999D01*
X122287372Y-51946598D01*
X122287379Y-51946596D01*
X122422086Y-51896354D01*
X122422093Y-51896350D01*
X122537187Y-51810190D01*
X122537190Y-51810187D01*
X122623350Y-51695093D01*
X122623355Y-51695084D01*
X122655801Y-51608091D01*
X122697671Y-51552157D01*
X122763135Y-51527739D01*
X122831408Y-51542590D01*
X122859664Y-51563742D01*
X122979738Y-51683816D01*
X123036504Y-51719484D01*
X123132477Y-51779789D01*
X123135198Y-51780741D01*
X123136717Y-51781830D01*
X123138751Y-51782810D01*
X123138579Y-51783166D01*
X123191975Y-51821462D01*
X123208806Y-51850331D01*
X123252979Y-51956976D01*
X123252980Y-51956978D01*
X123319793Y-52056970D01*
X123319796Y-52056974D01*
X128122823Y-56860002D01*
X128122826Y-56860005D01*
X128197100Y-56909633D01*
X128197099Y-56909633D01*
X128216410Y-56922535D01*
X128222820Y-56926818D01*
X128333924Y-56972839D01*
X128451866Y-56996299D01*
X128451870Y-56996300D01*
X128451871Y-56996300D01*
X130086373Y-56996300D01*
X130152345Y-57015306D01*
X130152837Y-57015615D01*
X130152838Y-57015616D01*
X130305578Y-57111589D01*
X130475845Y-57171168D01*
X130475850Y-57171169D01*
X130655096Y-57191365D01*
X130655100Y-57191365D01*
X130655104Y-57191365D01*
X130834349Y-57171169D01*
X130834352Y-57171168D01*
X130834355Y-57171168D01*
X131004622Y-57111589D01*
X131157362Y-57015616D01*
X131284916Y-56888062D01*
X131380889Y-56735322D01*
X131440468Y-56565055D01*
X131460665Y-56385800D01*
X131440468Y-56206545D01*
X131380889Y-56036278D01*
X131284916Y-55883538D01*
X131157362Y-55755984D01*
X131130302Y-55738981D01*
X131004623Y-55660011D01*
X130834354Y-55600431D01*
X130834349Y-55600430D01*
X130655104Y-55580235D01*
X130655096Y-55580235D01*
X130475850Y-55600430D01*
X130475845Y-55600431D01*
X130305576Y-55660011D01*
X130179898Y-55738981D01*
X130153426Y-55755615D01*
X130152345Y-55756294D01*
X130086373Y-55775300D01*
X128816240Y-55775300D01*
X128749201Y-55755615D01*
X128728559Y-55738981D01*
X127115759Y-54126181D01*
X127082274Y-54064858D01*
X127087258Y-53995166D01*
X127129130Y-53939233D01*
X127194594Y-53914816D01*
X127203440Y-53914500D01*
X128951130Y-53914500D01*
X128951131Y-53914499D01*
X129069076Y-53891039D01*
X129180181Y-53845018D01*
X129280171Y-53778206D01*
X129477558Y-53580819D01*
X129538881Y-53547334D01*
X129565239Y-53544500D01*
X130641130Y-53544500D01*
X130641131Y-53544499D01*
X130759076Y-53521039D01*
X130870181Y-53475018D01*
X130970171Y-53408206D01*
X131026559Y-53351817D01*
X131087880Y-53318334D01*
X131114239Y-53315500D01*
X134940273Y-53315500D01*
X135006245Y-53334506D01*
X135006737Y-53334815D01*
X135006738Y-53334816D01*
X135159478Y-53430789D01*
X135285877Y-53475018D01*
X135329745Y-53490368D01*
X135329750Y-53490369D01*
X135508996Y-53510565D01*
X135509000Y-53510565D01*
X135509004Y-53510565D01*
X135688249Y-53490369D01*
X135688252Y-53490368D01*
X135688255Y-53490368D01*
X135858522Y-53430789D01*
X136011262Y-53334816D01*
X136138816Y-53207262D01*
X136234789Y-53054522D01*
X136294368Y-52884255D01*
X136314565Y-52705000D01*
X136305949Y-52628534D01*
X136294369Y-52525750D01*
X136294368Y-52525745D01*
X136259589Y-52426352D01*
X136234789Y-52355478D01*
X136217555Y-52328051D01*
X136150698Y-52221648D01*
X142641300Y-52221648D01*
X142641300Y-52426351D01*
X142673322Y-52628534D01*
X142736581Y-52823223D01*
X142829515Y-53005613D01*
X142949828Y-53171213D01*
X143094586Y-53315971D01*
X143221541Y-53408207D01*
X143260190Y-53436287D01*
X143336204Y-53475018D01*
X143442576Y-53529218D01*
X143442578Y-53529218D01*
X143442581Y-53529220D01*
X143546937Y-53563127D01*
X143637265Y-53592477D01*
X143738357Y-53608488D01*
X143839448Y-53624500D01*
X143839449Y-53624500D01*
X144044151Y-53624500D01*
X144044152Y-53624500D01*
X144246334Y-53592477D01*
X144441019Y-53529220D01*
X144623410Y-53436287D01*
X144739671Y-53351819D01*
X144789013Y-53315971D01*
X144789015Y-53315968D01*
X144789019Y-53315966D01*
X144933766Y-53171219D01*
X144933768Y-53171215D01*
X144933771Y-53171213D01*
X145018550Y-53054523D01*
X145054087Y-53005610D01*
X145147020Y-52823219D01*
X145210277Y-52628534D01*
X145242300Y-52426352D01*
X145242300Y-52221648D01*
X145216217Y-52056970D01*
X145210277Y-52019465D01*
X145159359Y-51862757D01*
X145147020Y-51824781D01*
X145147018Y-51824778D01*
X145147018Y-51824776D01*
X145113303Y-51758607D01*
X145054087Y-51642390D01*
X145008112Y-51579110D01*
X144933771Y-51476786D01*
X144789013Y-51332028D01*
X144623413Y-51211715D01*
X144623412Y-51211714D01*
X144623410Y-51211713D01*
X144553673Y-51176180D01*
X144441023Y-51118781D01*
X144246334Y-51055522D01*
X144071795Y-51027878D01*
X144044152Y-51023500D01*
X143839448Y-51023500D01*
X143815129Y-51027351D01*
X143637265Y-51055522D01*
X143442576Y-51118781D01*
X143260186Y-51211715D01*
X143094586Y-51332028D01*
X142949828Y-51476786D01*
X142829515Y-51642386D01*
X142736581Y-51824776D01*
X142673322Y-52019465D01*
X142641300Y-52221648D01*
X136150698Y-52221648D01*
X136138815Y-52202737D01*
X136011262Y-52075184D01*
X135982276Y-52056971D01*
X135967988Y-52047993D01*
X135921698Y-51995659D01*
X135911050Y-51926606D01*
X135939425Y-51862757D01*
X135967989Y-51838006D01*
X136011262Y-51810816D01*
X136138816Y-51683262D01*
X136234789Y-51530522D01*
X136294368Y-51360255D01*
X136297548Y-51332034D01*
X136314565Y-51181003D01*
X136314565Y-51180996D01*
X136294369Y-51001750D01*
X136294368Y-51001745D01*
X136234788Y-50831476D01*
X136138815Y-50678737D01*
X136110259Y-50650181D01*
X136076774Y-50588858D01*
X136081758Y-50519166D01*
X136123630Y-50463233D01*
X136189094Y-50438816D01*
X136197940Y-50438500D01*
X141933273Y-50438500D01*
X143884217Y-50438500D01*
X143937748Y-50438500D01*
X143945828Y-50438764D01*
X144179816Y-50454100D01*
X144195872Y-50456215D01*
X144421838Y-50501162D01*
X144437493Y-50505357D01*
X144655658Y-50579414D01*
X144670629Y-50585615D01*
X144859462Y-50678737D01*
X144877260Y-50687514D01*
X144891306Y-50695624D01*
X145082861Y-50823616D01*
X145095730Y-50833490D01*
X145268939Y-50985391D01*
X145280408Y-50996860D01*
X145350653Y-51076959D01*
X145387329Y-51118780D01*
X145432309Y-51170069D01*
X145442183Y-51182938D01*
X145570175Y-51374493D01*
X145578285Y-51388539D01*
X145680181Y-51595162D01*
X145686388Y-51610148D01*
X145760440Y-51828300D01*
X145764638Y-51843967D01*
X145809583Y-52069922D01*
X145811700Y-52086003D01*
X145827034Y-52319941D01*
X145827300Y-52328051D01*
X145827300Y-73401948D01*
X145827034Y-73410058D01*
X145811700Y-73643996D01*
X145809583Y-73660077D01*
X145764638Y-73886032D01*
X145760440Y-73901699D01*
X145686388Y-74119851D01*
X145680181Y-74134837D01*
X145578285Y-74341460D01*
X145570175Y-74355506D01*
X145442183Y-74547061D01*
X145432309Y-74559930D01*
X145280408Y-74733139D01*
X145268939Y-74744608D01*
X145095730Y-74896509D01*
X145082861Y-74906383D01*
X144891306Y-75034375D01*
X144877260Y-75042485D01*
X144670637Y-75144381D01*
X144655651Y-75150588D01*
X144437499Y-75224640D01*
X144421832Y-75228838D01*
X144195877Y-75273783D01*
X144179796Y-75275900D01*
X143945858Y-75291234D01*
X143937748Y-75291500D01*
X121084939Y-75291500D01*
X121017900Y-75271815D01*
X120972145Y-75219011D01*
X120962201Y-75149853D01*
X120991226Y-75086297D01*
X120997237Y-75079839D01*
X121120237Y-74956839D01*
X121181556Y-74923357D01*
X121228320Y-74922214D01*
X121295951Y-74933500D01*
X121295954Y-74933500D01*
X121528048Y-74933500D01*
X121528049Y-74933500D01*
X121756981Y-74895298D01*
X121976503Y-74819936D01*
X122180626Y-74709470D01*
X122181170Y-74709047D01*
X122287224Y-74626502D01*
X122363784Y-74566913D01*
X122520979Y-74396153D01*
X122578191Y-74308582D01*
X122631337Y-74263226D01*
X122700568Y-74253802D01*
X122763904Y-74283304D01*
X122785809Y-74308583D01*
X122843016Y-74396147D01*
X122843019Y-74396151D01*
X122843021Y-74396153D01*
X123000216Y-74566913D01*
X123000219Y-74566915D01*
X123000222Y-74566918D01*
X123183365Y-74709464D01*
X123183371Y-74709468D01*
X123183374Y-74709470D01*
X123324654Y-74785927D01*
X123386652Y-74819479D01*
X123387497Y-74819936D01*
X123495263Y-74856932D01*
X123607015Y-74895297D01*
X123607017Y-74895297D01*
X123607019Y-74895298D01*
X123835951Y-74933500D01*
X123835952Y-74933500D01*
X124068048Y-74933500D01*
X124068049Y-74933500D01*
X124296981Y-74895298D01*
X124516503Y-74819936D01*
X124720626Y-74709470D01*
X124721170Y-74709047D01*
X124827224Y-74626502D01*
X124903784Y-74566913D01*
X125060979Y-74396153D01*
X125118191Y-74308582D01*
X125171337Y-74263226D01*
X125240568Y-74253802D01*
X125303904Y-74283304D01*
X125325809Y-74308583D01*
X125383016Y-74396147D01*
X125383019Y-74396151D01*
X125383021Y-74396153D01*
X125540216Y-74566913D01*
X125540219Y-74566915D01*
X125540222Y-74566918D01*
X125723365Y-74709464D01*
X125723371Y-74709468D01*
X125723374Y-74709470D01*
X125864654Y-74785927D01*
X125926652Y-74819479D01*
X125927497Y-74819936D01*
X126035263Y-74856932D01*
X126147015Y-74895297D01*
X126147017Y-74895297D01*
X126147019Y-74895298D01*
X126375951Y-74933500D01*
X126375952Y-74933500D01*
X126608048Y-74933500D01*
X126608049Y-74933500D01*
X126836981Y-74895298D01*
X127056503Y-74819936D01*
X127260626Y-74709470D01*
X127261170Y-74709047D01*
X127367224Y-74626502D01*
X127443784Y-74566913D01*
X127600979Y-74396153D01*
X127658191Y-74308582D01*
X127711337Y-74263226D01*
X127780568Y-74253802D01*
X127843904Y-74283304D01*
X127865809Y-74308583D01*
X127923016Y-74396147D01*
X127923019Y-74396151D01*
X127923021Y-74396153D01*
X128080216Y-74566913D01*
X128080219Y-74566915D01*
X128080222Y-74566918D01*
X128263365Y-74709464D01*
X128263371Y-74709468D01*
X128263374Y-74709470D01*
X128404654Y-74785927D01*
X128466652Y-74819479D01*
X128467497Y-74819936D01*
X128575263Y-74856932D01*
X128687015Y-74895297D01*
X128687017Y-74895297D01*
X128687019Y-74895298D01*
X128915951Y-74933500D01*
X128915952Y-74933500D01*
X129148048Y-74933500D01*
X129148049Y-74933500D01*
X129376981Y-74895298D01*
X129596503Y-74819936D01*
X129800626Y-74709470D01*
X129801170Y-74709047D01*
X129831615Y-74685351D01*
X130773201Y-74685351D01*
X130803649Y-74709050D01*
X131007697Y-74819476D01*
X131007706Y-74819479D01*
X131227139Y-74894811D01*
X131455993Y-74933000D01*
X131688007Y-74933000D01*
X131916860Y-74894811D01*
X132136293Y-74819479D01*
X132136301Y-74819476D01*
X132340355Y-74709047D01*
X132370797Y-74685351D01*
X132370798Y-74685350D01*
X131572001Y-73886553D01*
X131572000Y-73886553D01*
X130773201Y-74685351D01*
X129831615Y-74685351D01*
X129907224Y-74626502D01*
X129983784Y-74566913D01*
X130140979Y-74396153D01*
X130198490Y-74308124D01*
X130251635Y-74262769D01*
X130320866Y-74253345D01*
X130384202Y-74282846D01*
X130406107Y-74308125D01*
X130420812Y-74330632D01*
X131484318Y-73267127D01*
X131545641Y-73233642D01*
X131615333Y-73238626D01*
X131659680Y-73267127D01*
X132723186Y-74330633D01*
X132807482Y-74201611D01*
X132900682Y-73989135D01*
X132957638Y-73764218D01*
X132976798Y-73533005D01*
X132976798Y-73532994D01*
X132957793Y-73303648D01*
X142641300Y-73303648D01*
X142641300Y-73508351D01*
X142673322Y-73710534D01*
X142736581Y-73905223D01*
X142829515Y-74087613D01*
X142949828Y-74253213D01*
X143094586Y-74397971D01*
X143229509Y-74495996D01*
X143260190Y-74518287D01*
X143341919Y-74559930D01*
X143442576Y-74611218D01*
X143442578Y-74611218D01*
X143442581Y-74611220D01*
X143546937Y-74645127D01*
X143637265Y-74674477D01*
X143738357Y-74690488D01*
X143839448Y-74706500D01*
X143839449Y-74706500D01*
X144044151Y-74706500D01*
X144044152Y-74706500D01*
X144246334Y-74674477D01*
X144441019Y-74611220D01*
X144623410Y-74518287D01*
X144737084Y-74435699D01*
X144789013Y-74397971D01*
X144789015Y-74397968D01*
X144789019Y-74397966D01*
X144933766Y-74253219D01*
X144933768Y-74253215D01*
X144933771Y-74253213D01*
X145017670Y-74137734D01*
X145054087Y-74087610D01*
X145147020Y-73905219D01*
X145210277Y-73710534D01*
X145242300Y-73508352D01*
X145242300Y-73303648D01*
X145210277Y-73101466D01*
X145202283Y-73076864D01*
X145158410Y-72941836D01*
X145147020Y-72906781D01*
X145147018Y-72906778D01*
X145147018Y-72906776D01*
X145113303Y-72840607D01*
X145054087Y-72724390D01*
X145046356Y-72713749D01*
X144933771Y-72558786D01*
X144789013Y-72414028D01*
X144623413Y-72293715D01*
X144623412Y-72293714D01*
X144623410Y-72293713D01*
X144521665Y-72241871D01*
X144441023Y-72200781D01*
X144246334Y-72137522D01*
X144071795Y-72109878D01*
X144044152Y-72105500D01*
X143839448Y-72105500D01*
X143815129Y-72109351D01*
X143637265Y-72137522D01*
X143442576Y-72200781D01*
X143260186Y-72293715D01*
X143094586Y-72414028D01*
X142949828Y-72558786D01*
X142829515Y-72724386D01*
X142736581Y-72906776D01*
X142673322Y-73101465D01*
X142641300Y-73303648D01*
X132957793Y-73303648D01*
X132957638Y-73301781D01*
X132900682Y-73076864D01*
X132807482Y-72864388D01*
X132752820Y-72780722D01*
X132732632Y-72713832D01*
X132751811Y-72646647D01*
X132804270Y-72600496D01*
X132856628Y-72588900D01*
X133776330Y-72588900D01*
X133776331Y-72588899D01*
X133894276Y-72565439D01*
X134005381Y-72519418D01*
X134105371Y-72452606D01*
X139513206Y-67044771D01*
X139580018Y-66944780D01*
X139626039Y-66833676D01*
X139649500Y-66715729D01*
X139649500Y-66595471D01*
X139649500Y-65280726D01*
X139668507Y-65214753D01*
X139670438Y-65211681D01*
X139764789Y-65061522D01*
X139824368Y-64891255D01*
X139825159Y-64884239D01*
X139844565Y-64712003D01*
X139844565Y-64711996D01*
X139824369Y-64532750D01*
X139824368Y-64532745D01*
X139764788Y-64362476D01*
X139668815Y-64209737D01*
X139541262Y-64082184D01*
X139388523Y-63986211D01*
X139218254Y-63926631D01*
X139218249Y-63926630D01*
X139039004Y-63906435D01*
X139038996Y-63906435D01*
X138859750Y-63926630D01*
X138859742Y-63926632D01*
X138703454Y-63981320D01*
X138633676Y-63984881D01*
X138573048Y-63950152D01*
X138540821Y-63888159D01*
X138538500Y-63864278D01*
X138538500Y-62305470D01*
X138538499Y-62305466D01*
X138536494Y-62295388D01*
X138515039Y-62187524D01*
X138480893Y-62105089D01*
X138469018Y-62076419D01*
X138402206Y-61976429D01*
X138402203Y-61976425D01*
X138234777Y-61808999D01*
X140053552Y-61808999D01*
X140053553Y-61809000D01*
X144096447Y-61809000D01*
X144096447Y-61808999D01*
X142075000Y-59787553D01*
X140053552Y-61808999D01*
X138234777Y-61808999D01*
X135948505Y-59522728D01*
X135915020Y-59461405D01*
X135912966Y-59448929D01*
X135904969Y-59377950D01*
X135904968Y-59377945D01*
X135878413Y-59302055D01*
X135845389Y-59207678D01*
X135749416Y-59054938D01*
X135621862Y-58927384D01*
X135469123Y-58831411D01*
X135298854Y-58771831D01*
X135298849Y-58771830D01*
X135119604Y-58751635D01*
X135119596Y-58751635D01*
X134940350Y-58771830D01*
X134940345Y-58771831D01*
X134770076Y-58831411D01*
X134617337Y-58927384D01*
X134489784Y-59054937D01*
X134489782Y-59054940D01*
X134455754Y-59109095D01*
X134403419Y-59155386D01*
X134334366Y-59166033D01*
X134270517Y-59137658D01*
X134263080Y-59130803D01*
X132792805Y-57660528D01*
X132759320Y-57599205D01*
X132757266Y-57586729D01*
X132749269Y-57515750D01*
X132749268Y-57515745D01*
X132747662Y-57511155D01*
X139325000Y-57511155D01*
X139325000Y-61356844D01*
X139331401Y-61416372D01*
X139331403Y-61416379D01*
X139381645Y-61551086D01*
X139381647Y-61551089D01*
X139467811Y-61666189D01*
X139480076Y-61675369D01*
X141721447Y-59434000D01*
X141721446Y-59433999D01*
X142428553Y-59433999D01*
X142428553Y-59434000D01*
X144669922Y-61675369D01*
X144669923Y-61675369D01*
X144682185Y-61666192D01*
X144682189Y-61666187D01*
X144768353Y-61551088D01*
X144768354Y-61551086D01*
X144818596Y-61416379D01*
X144818598Y-61416372D01*
X144824999Y-61356844D01*
X144825000Y-61356827D01*
X144825000Y-57511172D01*
X144824999Y-57511155D01*
X144818598Y-57451627D01*
X144818596Y-57451620D01*
X144768354Y-57316913D01*
X144768352Y-57316911D01*
X144682190Y-57201813D01*
X144682186Y-57201808D01*
X144669923Y-57192629D01*
X144669922Y-57192629D01*
X142428553Y-59433999D01*
X141721446Y-59433999D01*
X139480076Y-57192629D01*
X139480075Y-57192629D01*
X139467813Y-57201808D01*
X139467808Y-57201814D01*
X139381649Y-57316906D01*
X139381645Y-57316913D01*
X139331403Y-57451620D01*
X139331401Y-57451627D01*
X139325000Y-57511155D01*
X132747662Y-57511155D01*
X132697167Y-57366850D01*
X132689689Y-57345478D01*
X132671740Y-57316913D01*
X132599193Y-57201455D01*
X132593716Y-57192738D01*
X132466162Y-57065184D01*
X132456320Y-57059000D01*
X140053552Y-57059000D01*
X142075000Y-59080447D01*
X144096447Y-57059000D01*
X140053552Y-57059000D01*
X132456320Y-57059000D01*
X132455526Y-57058501D01*
X132313423Y-56969211D01*
X132143154Y-56909631D01*
X132143149Y-56909630D01*
X131963904Y-56889435D01*
X131963896Y-56889435D01*
X131784650Y-56909630D01*
X131784645Y-56909631D01*
X131614376Y-56969211D01*
X131461637Y-57065184D01*
X131334084Y-57192737D01*
X131238111Y-57345476D01*
X131178531Y-57515745D01*
X131178530Y-57515750D01*
X131158335Y-57694996D01*
X131158335Y-57695003D01*
X131178530Y-57874249D01*
X131178531Y-57874254D01*
X131238111Y-58044523D01*
X131334084Y-58197262D01*
X131437441Y-58300619D01*
X131470926Y-58361942D01*
X131465942Y-58431634D01*
X131424070Y-58487567D01*
X131358606Y-58511984D01*
X131349760Y-58512300D01*
X130390227Y-58512300D01*
X130324255Y-58493294D01*
X130171023Y-58397011D01*
X130000754Y-58337431D01*
X130000749Y-58337430D01*
X129821504Y-58317235D01*
X129821496Y-58317235D01*
X129642250Y-58337430D01*
X129642245Y-58337431D01*
X129471976Y-58397011D01*
X129319237Y-58492984D01*
X129191684Y-58620537D01*
X129095711Y-58773276D01*
X129036131Y-58943545D01*
X129036130Y-58943550D01*
X129015935Y-59122796D01*
X129015935Y-59122803D01*
X129036130Y-59302049D01*
X129036131Y-59302054D01*
X129095711Y-59472323D01*
X129127383Y-59522728D01*
X129191684Y-59625062D01*
X129319238Y-59752616D01*
X129374840Y-59787553D01*
X129469426Y-59846986D01*
X129471978Y-59848589D01*
X129642245Y-59908168D01*
X129642250Y-59908169D01*
X129821496Y-59928365D01*
X129821500Y-59928365D01*
X129821504Y-59928365D01*
X130000749Y-59908169D01*
X130000752Y-59908168D01*
X130000755Y-59908168D01*
X130171022Y-59848589D01*
X130323762Y-59752616D01*
X130323762Y-59752615D01*
X130324255Y-59752306D01*
X130390227Y-59733300D01*
X131661461Y-59733300D01*
X131728500Y-59752985D01*
X131749142Y-59769619D01*
X132724102Y-60744580D01*
X132757587Y-60805903D01*
X132752603Y-60875595D01*
X132710731Y-60931528D01*
X132690239Y-60943973D01*
X132684346Y-60946812D01*
X132630528Y-60959100D01*
X131288327Y-60959100D01*
X131222355Y-60940094D01*
X131208722Y-60931528D01*
X131143144Y-60890322D01*
X131069123Y-60843811D01*
X130898854Y-60784231D01*
X130898849Y-60784230D01*
X130719604Y-60764035D01*
X130719596Y-60764035D01*
X130540350Y-60784230D01*
X130540345Y-60784231D01*
X130370076Y-60843811D01*
X130217337Y-60939784D01*
X130089784Y-61067337D01*
X129993811Y-61220076D01*
X129934231Y-61390345D01*
X129934230Y-61390350D01*
X129914035Y-61569596D01*
X129914035Y-61569603D01*
X129934230Y-61748849D01*
X129934231Y-61748854D01*
X129993811Y-61919123D01*
X130058279Y-62021722D01*
X130089784Y-62071862D01*
X130217338Y-62199416D01*
X130370078Y-62295389D01*
X130540345Y-62354968D01*
X130540350Y-62354969D01*
X130719596Y-62375165D01*
X130719600Y-62375165D01*
X130719604Y-62375165D01*
X130898849Y-62354969D01*
X130898852Y-62354968D01*
X130898855Y-62354968D01*
X131069122Y-62295389D01*
X131221862Y-62199416D01*
X131221862Y-62199415D01*
X131222355Y-62199106D01*
X131288327Y-62180100D01*
X132359160Y-62180100D01*
X132426199Y-62199785D01*
X132446841Y-62216419D01*
X132532438Y-62302016D01*
X132557611Y-62317833D01*
X132685178Y-62397989D01*
X132758821Y-62423758D01*
X132815598Y-62464480D01*
X132841345Y-62529433D01*
X132827889Y-62597994D01*
X132779502Y-62648397D01*
X132717867Y-62664800D01*
X122361727Y-62664800D01*
X122295755Y-62645794D01*
X122294674Y-62645115D01*
X122248044Y-62615815D01*
X122142523Y-62549511D01*
X121972254Y-62489931D01*
X121972249Y-62489930D01*
X121793004Y-62469735D01*
X121792996Y-62469735D01*
X121613750Y-62489930D01*
X121613745Y-62489931D01*
X121443476Y-62549511D01*
X121290737Y-62645484D01*
X121163184Y-62773037D01*
X121067211Y-62925776D01*
X121007631Y-63096045D01*
X121007630Y-63096050D01*
X120987435Y-63275296D01*
X120987435Y-63275305D01*
X121001460Y-63399791D01*
X120989405Y-63468612D01*
X120942056Y-63519991D01*
X120874445Y-63537615D01*
X120808039Y-63515888D01*
X120790559Y-63501354D01*
X120061002Y-62771796D01*
X120060998Y-62771793D01*
X119961006Y-62704980D01*
X119961004Y-62704979D01*
X119849908Y-62658962D01*
X119849896Y-62658959D01*
X119731961Y-62635500D01*
X119731957Y-62635500D01*
X118414239Y-62635500D01*
X118347200Y-62615815D01*
X118326558Y-62599181D01*
X116918280Y-61190903D01*
X116884795Y-61129580D01*
X116889779Y-61059888D01*
X116900965Y-61037253D01*
X116993289Y-60890322D01*
X117052868Y-60720055D01*
X117060752Y-60650081D01*
X117073065Y-60540803D01*
X117073065Y-60540796D01*
X117052869Y-60361550D01*
X117052868Y-60361545D01*
X116993288Y-60191276D01*
X116897315Y-60038537D01*
X116769762Y-59910984D01*
X116617023Y-59815011D01*
X116446754Y-59755431D01*
X116446749Y-59755430D01*
X116267504Y-59735235D01*
X116267496Y-59735235D01*
X116088250Y-59755430D01*
X116088245Y-59755431D01*
X115917975Y-59815011D01*
X115897325Y-59827987D01*
X115830088Y-59846986D01*
X115763253Y-59826617D01*
X115718040Y-59773349D01*
X115708804Y-59704092D01*
X115714314Y-59682037D01*
X115772566Y-59515562D01*
X115772569Y-59515549D01*
X115792765Y-59336303D01*
X115792765Y-59336296D01*
X115772569Y-59157050D01*
X115772568Y-59157045D01*
X115765784Y-59137658D01*
X115712989Y-58986778D01*
X115617016Y-58834038D01*
X115489462Y-58706484D01*
X115336723Y-58610511D01*
X115166454Y-58550931D01*
X115166449Y-58550930D01*
X114987204Y-58530735D01*
X114987196Y-58530735D01*
X114807950Y-58550930D01*
X114807942Y-58550932D01*
X114781537Y-58560172D01*
X114711758Y-58563733D01*
X114651131Y-58529004D01*
X114635589Y-58509102D01*
X114617534Y-58480368D01*
X114584716Y-58428138D01*
X114457162Y-58300584D01*
X114304423Y-58204611D01*
X114134154Y-58145031D01*
X114134149Y-58145030D01*
X113954904Y-58124835D01*
X113954896Y-58124835D01*
X113775650Y-58145030D01*
X113775645Y-58145031D01*
X113605376Y-58204611D01*
X113452637Y-58300584D01*
X113325084Y-58428137D01*
X113229109Y-58580880D01*
X113226241Y-58589077D01*
X113185520Y-58645853D01*
X113120567Y-58671600D01*
X113052005Y-58658144D01*
X113001602Y-58609756D01*
X112985200Y-58548122D01*
X112985200Y-58114826D01*
X113004207Y-58048853D01*
X113006929Y-58044522D01*
X113100489Y-57895622D01*
X113160068Y-57725355D01*
X113163489Y-57694996D01*
X113180265Y-57546103D01*
X113180265Y-57546096D01*
X113160069Y-57366850D01*
X113160068Y-57366845D01*
X113102319Y-57201808D01*
X113100489Y-57196578D01*
X113097213Y-57191365D01*
X113061282Y-57134180D01*
X113004516Y-57043838D01*
X112876962Y-56916284D01*
X112787390Y-56860002D01*
X112724223Y-56820311D01*
X112553954Y-56760731D01*
X112553949Y-56760730D01*
X112374704Y-56740535D01*
X112374696Y-56740535D01*
X112195450Y-56760730D01*
X112195445Y-56760731D01*
X112025176Y-56820311D01*
X111872437Y-56916284D01*
X111744884Y-57043837D01*
X111648911Y-57196576D01*
X111589331Y-57366845D01*
X111589330Y-57366850D01*
X111569135Y-57546096D01*
X111569135Y-57546103D01*
X111589330Y-57725349D01*
X111589331Y-57725354D01*
X111648911Y-57895624D01*
X111718424Y-58006251D01*
X111742471Y-58044522D01*
X111745193Y-58048853D01*
X111764200Y-58114826D01*
X111764200Y-62317833D01*
X111787659Y-62435768D01*
X111787662Y-62435780D01*
X111833679Y-62546876D01*
X111833680Y-62546878D01*
X111900493Y-62646870D01*
X111900496Y-62646874D01*
X114050181Y-64796558D01*
X114083666Y-64857881D01*
X114086500Y-64884239D01*
X114086500Y-65211681D01*
X114096563Y-65310183D01*
X114149450Y-65469784D01*
X114149455Y-65469795D01*
X114237716Y-65612887D01*
X114237719Y-65612892D01*
X114270000Y-65645173D01*
X114303485Y-65706497D01*
X114298499Y-65776188D01*
X114270000Y-65820533D01*
X114238114Y-65852419D01*
X114149908Y-65995422D01*
X114149906Y-65995427D01*
X114097057Y-66154916D01*
X114087000Y-66253349D01*
X114087000Y-66270000D01*
X116036999Y-66270000D01*
X116036999Y-66253364D01*
X116036998Y-66253347D01*
X116026943Y-66154916D01*
X115974093Y-65995427D01*
X115974091Y-65995422D01*
X115885885Y-65852419D01*
X115854000Y-65820534D01*
X115820515Y-65759211D01*
X115825499Y-65689519D01*
X115854000Y-65645172D01*
X115886281Y-65612891D01*
X115974549Y-65469787D01*
X116027436Y-65310185D01*
X116037500Y-65211674D01*
X116037500Y-64678326D01*
X116027436Y-64579815D01*
X115974549Y-64420213D01*
X115974545Y-64420207D01*
X115974544Y-64420204D01*
X115886283Y-64277112D01*
X115886280Y-64277108D01*
X115767391Y-64158219D01*
X115767387Y-64158216D01*
X115624295Y-64069955D01*
X115624289Y-64069952D01*
X115624287Y-64069951D01*
X115464685Y-64017064D01*
X115464683Y-64017063D01*
X115366181Y-64007000D01*
X115366174Y-64007000D01*
X115038739Y-64007000D01*
X114971700Y-63987315D01*
X114951058Y-63970681D01*
X113021519Y-62041142D01*
X112988034Y-61979819D01*
X112985200Y-61953461D01*
X112985200Y-59312677D01*
X113004885Y-59245638D01*
X113057689Y-59199883D01*
X113126847Y-59189939D01*
X113190403Y-59218964D01*
X113226242Y-59271724D01*
X113229110Y-59279922D01*
X113325393Y-59433153D01*
X113344400Y-59499126D01*
X113344400Y-60421033D01*
X113367859Y-60538968D01*
X113367862Y-60538980D01*
X113413879Y-60650076D01*
X113413880Y-60650078D01*
X113480693Y-60750070D01*
X113480696Y-60750074D01*
X116805044Y-64074421D01*
X116838529Y-64135744D01*
X116833545Y-64205436D01*
X116805046Y-64249782D01*
X116777716Y-64277112D01*
X116689455Y-64420204D01*
X116689451Y-64420213D01*
X116636564Y-64579815D01*
X116636564Y-64579816D01*
X116636563Y-64579816D01*
X116626500Y-64678318D01*
X116626500Y-65211681D01*
X116636563Y-65310183D01*
X116689450Y-65469784D01*
X116689455Y-65469795D01*
X116777716Y-65612887D01*
X116777719Y-65612892D01*
X116810000Y-65645173D01*
X116843485Y-65706497D01*
X116838499Y-65776188D01*
X116810000Y-65820533D01*
X116778114Y-65852419D01*
X116689908Y-65995422D01*
X116689906Y-65995427D01*
X116637057Y-66154916D01*
X116627000Y-66253349D01*
X116627000Y-66413207D01*
X116607315Y-66480246D01*
X116554511Y-66526001D01*
X116530604Y-66534096D01*
X116530447Y-66534131D01*
X116360178Y-66593710D01*
X116207437Y-66689684D01*
X116163441Y-66733681D01*
X116102118Y-66767166D01*
X116075760Y-66770000D01*
X114087001Y-66770000D01*
X114087001Y-66786652D01*
X114097056Y-66885083D01*
X114149906Y-67044572D01*
X114149908Y-67044577D01*
X114238114Y-67187580D01*
X114349153Y-67298619D01*
X114382638Y-67359942D01*
X114377654Y-67429634D01*
X114335782Y-67485567D01*
X114270318Y-67509984D01*
X114261472Y-67510300D01*
X113559366Y-67510300D01*
X113441431Y-67533759D01*
X113441419Y-67533762D01*
X113330323Y-67579779D01*
X113330321Y-67579780D01*
X113230329Y-67646593D01*
X113121727Y-67755195D01*
X113060404Y-67788679D01*
X113047930Y-67790733D01*
X112976950Y-67798730D01*
X112806678Y-67858310D01*
X112653937Y-67954284D01*
X112526384Y-68081837D01*
X112430411Y-68234576D01*
X112370831Y-68404845D01*
X112370830Y-68404850D01*
X112350635Y-68584096D01*
X112350635Y-68584103D01*
X112370830Y-68763349D01*
X112370831Y-68763354D01*
X112430411Y-68933623D01*
X112471367Y-68998803D01*
X112526384Y-69086362D01*
X112653938Y-69213916D01*
X112806678Y-69309889D01*
X112976945Y-69369468D01*
X112976950Y-69369469D01*
X113156196Y-69389665D01*
X113156200Y-69389665D01*
X113156204Y-69389665D01*
X113335449Y-69369469D01*
X113335452Y-69369468D01*
X113335455Y-69369468D01*
X113505722Y-69309889D01*
X113658462Y-69213916D01*
X113786016Y-69086362D01*
X113881989Y-68933622D01*
X113923725Y-68814344D01*
X113964447Y-68757570D01*
X114029399Y-68731822D01*
X114040767Y-68731300D01*
X116475494Y-68731300D01*
X116522946Y-68740738D01*
X116593924Y-68770139D01*
X116711866Y-68793599D01*
X116711870Y-68793600D01*
X116711871Y-68793600D01*
X116711872Y-68793600D01*
X116832129Y-68793600D01*
X128257521Y-68793600D01*
X128324560Y-68813285D01*
X128370315Y-68866089D01*
X128380259Y-68935247D01*
X128351234Y-68998803D01*
X128345202Y-69005281D01*
X126535302Y-70815181D01*
X126473979Y-70848666D01*
X126447621Y-70851500D01*
X124332866Y-70851500D01*
X124214931Y-70874959D01*
X124214919Y-70874962D01*
X124103823Y-70920979D01*
X124103821Y-70920980D01*
X124003829Y-70987793D01*
X124003825Y-70987796D01*
X123735442Y-71256181D01*
X123674119Y-71289666D01*
X123647761Y-71292500D01*
X119344667Y-71292500D01*
X119226722Y-71315961D01*
X119225047Y-71316469D01*
X119223420Y-71316617D01*
X119220750Y-71317149D01*
X119220693Y-71316867D01*
X119187563Y-71319897D01*
X119187563Y-71321635D01*
X119180596Y-71321635D01*
X119001350Y-71341830D01*
X119001345Y-71341831D01*
X118831076Y-71401411D01*
X118678337Y-71497384D01*
X118550784Y-71624937D01*
X118454811Y-71777676D01*
X118395231Y-71947945D01*
X118395230Y-71947950D01*
X118375035Y-72127196D01*
X118375035Y-72134163D01*
X118372224Y-72134163D01*
X118362345Y-72190500D01*
X118314986Y-72241871D01*
X118310208Y-72244595D01*
X118103380Y-72356525D01*
X118103365Y-72356535D01*
X117920222Y-72499081D01*
X117920219Y-72499084D01*
X117763016Y-72669852D01*
X117636075Y-72864151D01*
X117542842Y-73076699D01*
X117485866Y-73301691D01*
X117485864Y-73301702D01*
X117466700Y-73532993D01*
X117466700Y-73533006D01*
X117485864Y-73764297D01*
X117485868Y-73764317D01*
X117539996Y-73978059D01*
X117537372Y-74047880D01*
X117497416Y-74105197D01*
X117432815Y-74131814D01*
X117419791Y-74132500D01*
X112958639Y-74132500D01*
X112891600Y-74112815D01*
X112871007Y-74096230D01*
X112782620Y-74007942D01*
X112719260Y-73944582D01*
X112719258Y-73944581D01*
X112653647Y-73903354D01*
X112650789Y-73901503D01*
X112609382Y-73873870D01*
X112595783Y-73864795D01*
X112595216Y-73864560D01*
X112576642Y-73854970D01*
X112566522Y-73848611D01*
X112505631Y-73827304D01*
X112499199Y-73824851D01*
X112450067Y-73804532D01*
X112436676Y-73801876D01*
X112419855Y-73797289D01*
X112396260Y-73789033D01*
X112396256Y-73789032D01*
X112396255Y-73789032D01*
X112370511Y-73786131D01*
X112345045Y-73783261D01*
X112334811Y-73781672D01*
X112295399Y-73773856D01*
X112295396Y-73773856D01*
X112295234Y-73773856D01*
X112268726Y-73773870D01*
X112254782Y-73773091D01*
X112225687Y-73769813D01*
X112217000Y-73768835D01*
X112216999Y-73768835D01*
X112178701Y-73773149D01*
X112164897Y-73773928D01*
X112138223Y-73773943D01*
X112137711Y-73773944D01*
X112137708Y-73773944D01*
X112137703Y-73773945D01*
X112098806Y-73781704D01*
X112088434Y-73783320D01*
X112037750Y-73789030D01*
X112037744Y-73789032D01*
X112013657Y-73797460D01*
X111996974Y-73802019D01*
X111983072Y-73804793D01*
X111934440Y-73824969D01*
X111927879Y-73827475D01*
X111867477Y-73848610D01*
X111856903Y-73855254D01*
X111838472Y-73864784D01*
X111837425Y-73865218D01*
X111782896Y-73901696D01*
X111779940Y-73903613D01*
X111777379Y-73905223D01*
X111714733Y-73944587D01*
X111714731Y-73944588D01*
X111710906Y-73948413D01*
X111710206Y-73949049D01*
X111650692Y-74008629D01*
X111587182Y-74072139D01*
X111545965Y-74137734D01*
X111544116Y-74140590D01*
X111507392Y-74195620D01*
X111507161Y-74196181D01*
X111497576Y-74214746D01*
X111491214Y-74224872D01*
X111491208Y-74224884D01*
X111469902Y-74285773D01*
X111467449Y-74292204D01*
X111447134Y-74341327D01*
X111444478Y-74354718D01*
X111439890Y-74371541D01*
X111431634Y-74395135D01*
X111431632Y-74395143D01*
X111425861Y-74446355D01*
X111424272Y-74456588D01*
X111416456Y-74495996D01*
X111416456Y-74496004D01*
X111416470Y-74522673D01*
X111415691Y-74536617D01*
X111411435Y-74574399D01*
X111415749Y-74612697D01*
X111416528Y-74626502D01*
X111416544Y-74653686D01*
X111416545Y-74653696D01*
X111424304Y-74692594D01*
X111425920Y-74702966D01*
X111431630Y-74753649D01*
X111431632Y-74753656D01*
X111440060Y-74777742D01*
X111444619Y-74794426D01*
X111447393Y-74808326D01*
X111467567Y-74856954D01*
X111470066Y-74863496D01*
X111491210Y-74923921D01*
X111497850Y-74934489D01*
X111507385Y-74952932D01*
X111507815Y-74953970D01*
X111507818Y-74953975D01*
X111544306Y-75008518D01*
X111546234Y-75011492D01*
X111587183Y-75076660D01*
X111587186Y-75076664D01*
X111590341Y-75079819D01*
X111623826Y-75141142D01*
X111618842Y-75210834D01*
X111576970Y-75266767D01*
X111511506Y-75291184D01*
X111502660Y-75291500D01*
X106506252Y-75291500D01*
X106498142Y-75291234D01*
X106264203Y-75275900D01*
X106248122Y-75273783D01*
X106022167Y-75228838D01*
X106006500Y-75224640D01*
X105788348Y-75150588D01*
X105773362Y-75144381D01*
X105566739Y-75042485D01*
X105552693Y-75034375D01*
X105361138Y-74906383D01*
X105348269Y-74896509D01*
X105175060Y-74744608D01*
X105163591Y-74733139D01*
X105093912Y-74653686D01*
X105011687Y-74559926D01*
X105001816Y-74547061D01*
X104873824Y-74355506D01*
X104865714Y-74341460D01*
X104849275Y-74308125D01*
X104763815Y-74134829D01*
X104757614Y-74119858D01*
X104683557Y-73901693D01*
X104679361Y-73886032D01*
X104674293Y-73860555D01*
X104634415Y-73660072D01*
X104632300Y-73644016D01*
X104616964Y-73410028D01*
X104616700Y-73401948D01*
X104616700Y-73303648D01*
X105201700Y-73303648D01*
X105201700Y-73508351D01*
X105233722Y-73710534D01*
X105296981Y-73905223D01*
X105389915Y-74087613D01*
X105510228Y-74253213D01*
X105654986Y-74397971D01*
X105789909Y-74495996D01*
X105820590Y-74518287D01*
X105902319Y-74559930D01*
X106002976Y-74611218D01*
X106002978Y-74611218D01*
X106002981Y-74611220D01*
X106107337Y-74645127D01*
X106197665Y-74674477D01*
X106298757Y-74690488D01*
X106399848Y-74706500D01*
X106399849Y-74706500D01*
X106604551Y-74706500D01*
X106604552Y-74706500D01*
X106806734Y-74674477D01*
X107001419Y-74611220D01*
X107183810Y-74518287D01*
X107297484Y-74435699D01*
X107349413Y-74397971D01*
X107349415Y-74397968D01*
X107349419Y-74397966D01*
X107494166Y-74253219D01*
X107494168Y-74253215D01*
X107494171Y-74253213D01*
X107578070Y-74137734D01*
X107614487Y-74087610D01*
X107707420Y-73905219D01*
X107770677Y-73710534D01*
X107802700Y-73508352D01*
X107802700Y-73303648D01*
X107770677Y-73101466D01*
X107762683Y-73076864D01*
X107718810Y-72941836D01*
X107707420Y-72906781D01*
X107707418Y-72906778D01*
X107707418Y-72906776D01*
X107673703Y-72840607D01*
X107614487Y-72724390D01*
X107606756Y-72713749D01*
X107494171Y-72558786D01*
X107349413Y-72414028D01*
X107183813Y-72293715D01*
X107183812Y-72293714D01*
X107183810Y-72293713D01*
X107082065Y-72241871D01*
X107001423Y-72200781D01*
X106806734Y-72137522D01*
X106632195Y-72109878D01*
X106604552Y-72105500D01*
X106399848Y-72105500D01*
X106375529Y-72109351D01*
X106197665Y-72137522D01*
X106002976Y-72200781D01*
X105820586Y-72293715D01*
X105654986Y-72414028D01*
X105510228Y-72558786D01*
X105389915Y-72724386D01*
X105296981Y-72906776D01*
X105233722Y-73101465D01*
X105201700Y-73303648D01*
X104616700Y-73303648D01*
X104616700Y-57511135D01*
X105618500Y-57511135D01*
X105618500Y-61356870D01*
X105618501Y-61356876D01*
X105624908Y-61416483D01*
X105675202Y-61551328D01*
X105675206Y-61551335D01*
X105761452Y-61666544D01*
X105761455Y-61666547D01*
X105876664Y-61752793D01*
X105876671Y-61752797D01*
X106011517Y-61803091D01*
X106011516Y-61803091D01*
X106018444Y-61803835D01*
X106071127Y-61809500D01*
X110666872Y-61809499D01*
X110726483Y-61803091D01*
X110861331Y-61752796D01*
X110976546Y-61666546D01*
X111062796Y-61551331D01*
X111113091Y-61416483D01*
X111119500Y-61356873D01*
X111119499Y-57511128D01*
X111113091Y-57451517D01*
X111081512Y-57366850D01*
X111062797Y-57316671D01*
X111062793Y-57316664D01*
X110976547Y-57201455D01*
X110976544Y-57201452D01*
X110861335Y-57115206D01*
X110861328Y-57115202D01*
X110726482Y-57064908D01*
X110726483Y-57064908D01*
X110666883Y-57058501D01*
X110666881Y-57058500D01*
X110666873Y-57058500D01*
X110666865Y-57058500D01*
X110525500Y-57058500D01*
X110458461Y-57038815D01*
X110412706Y-56986011D01*
X110401500Y-56934500D01*
X110401500Y-55296914D01*
X110402280Y-55283029D01*
X110406565Y-55245001D01*
X110406565Y-55244998D01*
X110402280Y-55206969D01*
X110401500Y-55193085D01*
X110401500Y-55166157D01*
X110393711Y-55127003D01*
X110392110Y-55116714D01*
X110386368Y-55065745D01*
X110378023Y-55041898D01*
X110373449Y-55025139D01*
X110370737Y-55011503D01*
X110370734Y-55011496D01*
X110362253Y-54991021D01*
X110350484Y-54962607D01*
X110348028Y-54956175D01*
X110326789Y-54895478D01*
X110320289Y-54885134D01*
X110310719Y-54866606D01*
X110310394Y-54865821D01*
X110273790Y-54811040D01*
X110271905Y-54808131D01*
X110230816Y-54742738D01*
X110103262Y-54615184D01*
X110103260Y-54615182D01*
X110103257Y-54615180D01*
X110037900Y-54574114D01*
X110034982Y-54572223D01*
X109980179Y-54535605D01*
X109980173Y-54535603D01*
X109979365Y-54535268D01*
X109960865Y-54525709D01*
X109950524Y-54519212D01*
X109950523Y-54519211D01*
X109950522Y-54519211D01*
X109889867Y-54497986D01*
X109883377Y-54495509D01*
X109834496Y-54475262D01*
X109820860Y-54472550D01*
X109804104Y-54467976D01*
X109780260Y-54459633D01*
X109780256Y-54459632D01*
X109780255Y-54459632D01*
X109759575Y-54457301D01*
X109729303Y-54453890D01*
X109719003Y-54452288D01*
X109679844Y-54444500D01*
X109679842Y-54444500D01*
X109652915Y-54444500D01*
X109639031Y-54443720D01*
X109601002Y-54439435D01*
X109600998Y-54439435D01*
X109562969Y-54443720D01*
X109549085Y-54444500D01*
X109522152Y-54444500D01*
X109482994Y-54452288D01*
X109472696Y-54453890D01*
X109421742Y-54459632D01*
X109421735Y-54459634D01*
X109397898Y-54467975D01*
X109381140Y-54472550D01*
X109367502Y-54475263D01*
X109367496Y-54475264D01*
X109318631Y-54495504D01*
X109312140Y-54497982D01*
X109251477Y-54519210D01*
X109251474Y-54519212D01*
X109241127Y-54525713D01*
X109222639Y-54535266D01*
X109221832Y-54535600D01*
X109221824Y-54535604D01*
X109167047Y-54572204D01*
X109164132Y-54574092D01*
X109098742Y-54615180D01*
X109098735Y-54615186D01*
X108971186Y-54742735D01*
X108971180Y-54742742D01*
X108930092Y-54808132D01*
X108928204Y-54811047D01*
X108891604Y-54865824D01*
X108891600Y-54865832D01*
X108891266Y-54866639D01*
X108881713Y-54885127D01*
X108875212Y-54895474D01*
X108875210Y-54895477D01*
X108853982Y-54956140D01*
X108851504Y-54962631D01*
X108831264Y-55011496D01*
X108831263Y-55011502D01*
X108828550Y-55025140D01*
X108823975Y-55041898D01*
X108815634Y-55065735D01*
X108815632Y-55065742D01*
X108809890Y-55116696D01*
X108808288Y-55126994D01*
X108800500Y-55166152D01*
X108800500Y-55193085D01*
X108799720Y-55206969D01*
X108795435Y-55244998D01*
X108795435Y-55245001D01*
X108799720Y-55283029D01*
X108800500Y-55296914D01*
X108800500Y-56934500D01*
X108780815Y-57001539D01*
X108728011Y-57047294D01*
X108676500Y-57058500D01*
X106071129Y-57058500D01*
X106071123Y-57058501D01*
X106011516Y-57064908D01*
X105876671Y-57115202D01*
X105876664Y-57115206D01*
X105761455Y-57201452D01*
X105761452Y-57201455D01*
X105675206Y-57316664D01*
X105675202Y-57316671D01*
X105624908Y-57451517D01*
X105618501Y-57511116D01*
X105618501Y-57511123D01*
X105618500Y-57511135D01*
X104616700Y-57511135D01*
X104616700Y-52328051D01*
X104616963Y-52319972D01*
X104623408Y-52221648D01*
X105201700Y-52221648D01*
X105201700Y-52426351D01*
X105233722Y-52628534D01*
X105296981Y-52823223D01*
X105389915Y-53005613D01*
X105510228Y-53171213D01*
X105654986Y-53315971D01*
X105781941Y-53408207D01*
X105820590Y-53436287D01*
X105896604Y-53475018D01*
X106002976Y-53529218D01*
X106002978Y-53529218D01*
X106002981Y-53529220D01*
X106107337Y-53563127D01*
X106197665Y-53592477D01*
X106298757Y-53608488D01*
X106399848Y-53624500D01*
X106399849Y-53624500D01*
X106604551Y-53624500D01*
X106604552Y-53624500D01*
X106806734Y-53592477D01*
X107001419Y-53529220D01*
X107183810Y-53436287D01*
X107300071Y-53351819D01*
X107349413Y-53315971D01*
X107349415Y-53315968D01*
X107349419Y-53315966D01*
X107494166Y-53171219D01*
X107494168Y-53171215D01*
X107494171Y-53171213D01*
X107578950Y-53054523D01*
X107614487Y-53005610D01*
X107707420Y-52823219D01*
X107770677Y-52628534D01*
X107802700Y-52426352D01*
X107802700Y-52221648D01*
X107776617Y-52056970D01*
X107770677Y-52019465D01*
X107719759Y-51862757D01*
X107707420Y-51824781D01*
X107707418Y-51824778D01*
X107707418Y-51824776D01*
X107673703Y-51758607D01*
X107614487Y-51642390D01*
X107568512Y-51579110D01*
X107511650Y-51500844D01*
X120980000Y-51500844D01*
X120986401Y-51560372D01*
X120986403Y-51560379D01*
X121036645Y-51695086D01*
X121036649Y-51695093D01*
X121122809Y-51810187D01*
X121122812Y-51810190D01*
X121237906Y-51896350D01*
X121237913Y-51896354D01*
X121372620Y-51946596D01*
X121372627Y-51946598D01*
X121432155Y-51952999D01*
X121432172Y-51953000D01*
X121580000Y-51953000D01*
X121580000Y-51128000D01*
X120980000Y-51128000D01*
X120980000Y-51500844D01*
X107511650Y-51500844D01*
X107494171Y-51476786D01*
X107349413Y-51332028D01*
X107183813Y-51211715D01*
X107183812Y-51211714D01*
X107183810Y-51211713D01*
X107114073Y-51176180D01*
X107001423Y-51118781D01*
X106806734Y-51055522D01*
X106632195Y-51027878D01*
X106604552Y-51023500D01*
X106399848Y-51023500D01*
X106375529Y-51027351D01*
X106197665Y-51055522D01*
X106002976Y-51118781D01*
X105820586Y-51211715D01*
X105654986Y-51332028D01*
X105510228Y-51476786D01*
X105389915Y-51642386D01*
X105296981Y-51824776D01*
X105233722Y-52019465D01*
X105201700Y-52221648D01*
X104623408Y-52221648D01*
X104632300Y-52085981D01*
X104634414Y-52069929D01*
X104679363Y-51843957D01*
X104683556Y-51828310D01*
X104757615Y-51610135D01*
X104763812Y-51595175D01*
X104865717Y-51388533D01*
X104873824Y-51374493D01*
X104982588Y-51211715D01*
X105001819Y-51182933D01*
X105011681Y-51170080D01*
X105163596Y-50996854D01*
X105175054Y-50985396D01*
X105348280Y-50833481D01*
X105361133Y-50823619D01*
X105552693Y-50695624D01*
X105566733Y-50687517D01*
X105773375Y-50585612D01*
X105788335Y-50579415D01*
X106006510Y-50505356D01*
X106022157Y-50501163D01*
X106248129Y-50456214D01*
X106264181Y-50454100D01*
X106498171Y-50438764D01*
X106506252Y-50438500D01*
X120856000Y-50438500D01*
X120923039Y-50458185D01*
G37*
%TD.AperFunction*%
%TA.AperFunction,Conductor*%
G36*
X133965839Y-64405477D02*
G01*
X134005918Y-64432295D01*
X134370181Y-64796558D01*
X134403666Y-64857881D01*
X134406500Y-64884239D01*
X134406500Y-65211681D01*
X134416563Y-65310183D01*
X134469450Y-65469784D01*
X134469455Y-65469795D01*
X134557716Y-65612887D01*
X134557719Y-65612892D01*
X134590000Y-65645173D01*
X134623485Y-65706497D01*
X134618499Y-65776188D01*
X134590000Y-65820533D01*
X134558114Y-65852419D01*
X134469908Y-65995422D01*
X134469906Y-65995427D01*
X134417057Y-66154916D01*
X134407000Y-66253349D01*
X134407000Y-66270000D01*
X135508000Y-66270000D01*
X135575039Y-66289685D01*
X135620794Y-66342489D01*
X135632000Y-66394000D01*
X135632000Y-66635261D01*
X135612315Y-66702300D01*
X135595681Y-66722942D01*
X135584942Y-66733681D01*
X135523619Y-66767166D01*
X135497261Y-66770000D01*
X134407001Y-66770000D01*
X134407001Y-66786652D01*
X134417056Y-66885083D01*
X134469906Y-67044572D01*
X134469908Y-67044577D01*
X134558114Y-67187580D01*
X134676919Y-67306385D01*
X134750838Y-67351979D01*
X134797562Y-67403927D01*
X134808785Y-67472890D01*
X134780941Y-67536972D01*
X134773422Y-67545199D01*
X133895442Y-68423181D01*
X133834119Y-68456666D01*
X133807761Y-68459500D01*
X132055139Y-68459500D01*
X131988100Y-68439815D01*
X131942345Y-68387011D01*
X131932401Y-68317853D01*
X131961426Y-68254297D01*
X131967458Y-68247819D01*
X132528703Y-67686574D01*
X132528706Y-67686571D01*
X132595518Y-67586580D01*
X132641539Y-67475476D01*
X132645115Y-67457499D01*
X133092000Y-67457499D01*
X133146136Y-67457499D01*
X133146152Y-67457498D01*
X133244583Y-67447443D01*
X133404072Y-67394593D01*
X133404077Y-67394591D01*
X133547080Y-67306385D01*
X133665885Y-67187580D01*
X133754091Y-67044577D01*
X133754093Y-67044572D01*
X133806942Y-66885083D01*
X133816999Y-66786650D01*
X133817000Y-66786637D01*
X133817000Y-66770000D01*
X133092000Y-66770000D01*
X133092000Y-67457499D01*
X132645115Y-67457499D01*
X132665000Y-67357529D01*
X132665000Y-67237271D01*
X132665000Y-66394000D01*
X132684685Y-66326961D01*
X132737489Y-66281206D01*
X132789000Y-66270000D01*
X133816999Y-66270000D01*
X133816999Y-66253364D01*
X133816998Y-66253347D01*
X133806943Y-66154916D01*
X133754093Y-65995427D01*
X133754091Y-65995422D01*
X133665885Y-65852419D01*
X133634000Y-65820534D01*
X133600515Y-65759211D01*
X133605499Y-65689519D01*
X133634000Y-65645172D01*
X133666281Y-65612891D01*
X133754549Y-65469787D01*
X133807436Y-65310185D01*
X133817500Y-65211674D01*
X133817500Y-64678326D01*
X133807436Y-64579815D01*
X133800531Y-64558979D01*
X133798129Y-64489154D01*
X133833859Y-64429111D01*
X133896379Y-64397918D01*
X133965839Y-64405477D01*
G37*
%TD.AperFunction*%
%TA.AperFunction,Conductor*%
G36*
X126879012Y-65567477D02*
G01*
X126932691Y-65607662D01*
X126933241Y-65607228D01*
X126934878Y-65609299D01*
X126934945Y-65609349D01*
X126935112Y-65609595D01*
X126937720Y-65612893D01*
X126969999Y-65645172D01*
X127003484Y-65706495D01*
X126998500Y-65776187D01*
X126970000Y-65820533D01*
X126938114Y-65852419D01*
X126849908Y-65995422D01*
X126849906Y-65995427D01*
X126797057Y-66154916D01*
X126787000Y-66253349D01*
X126787000Y-66270000D01*
X128227160Y-66270000D01*
X128274612Y-66279439D01*
X128371419Y-66319537D01*
X128371424Y-66319539D01*
X128486802Y-66342489D01*
X128489366Y-66342999D01*
X128489370Y-66343000D01*
X128489371Y-66343000D01*
X128609629Y-66343000D01*
X130385400Y-66343000D01*
X130452439Y-66362685D01*
X130498194Y-66415489D01*
X130509400Y-66467000D01*
X130509400Y-66544000D01*
X130489715Y-66611039D01*
X130436911Y-66656794D01*
X130385400Y-66668000D01*
X122556000Y-66668000D01*
X122488961Y-66648315D01*
X122443206Y-66595511D01*
X122432000Y-66544000D01*
X122432000Y-66429500D01*
X122451685Y-66362461D01*
X122504489Y-66316706D01*
X122556000Y-66305500D01*
X125845730Y-66305500D01*
X125845731Y-66305499D01*
X125885044Y-66297679D01*
X125963668Y-66282041D01*
X125963669Y-66282040D01*
X125963676Y-66282039D01*
X125969956Y-66279437D01*
X126017405Y-66270000D01*
X126196999Y-66270000D01*
X126196999Y-66253364D01*
X126196998Y-66253348D01*
X126193127Y-66215454D01*
X126205897Y-66146761D01*
X126228798Y-66115177D01*
X126747999Y-65595976D01*
X126809320Y-65562493D01*
X126879012Y-65567477D01*
G37*
%TD.AperFunction*%
%TA.AperFunction,Conductor*%
G36*
X134887099Y-50458185D02*
G01*
X134932854Y-50510989D01*
X134942798Y-50580147D01*
X134913773Y-50643703D01*
X134907741Y-50650181D01*
X134879184Y-50678737D01*
X134783210Y-50831478D01*
X134723630Y-51001750D01*
X134715633Y-51072731D01*
X134688566Y-51137145D01*
X134680094Y-51146528D01*
X134188442Y-51638181D01*
X134127119Y-51671666D01*
X134100761Y-51674500D01*
X130973240Y-51674500D01*
X130906201Y-51654815D01*
X130885559Y-51638181D01*
X130437174Y-51189796D01*
X130437170Y-51189793D01*
X130337178Y-51122980D01*
X130337176Y-51122979D01*
X130226080Y-51076962D01*
X130226068Y-51076959D01*
X130108133Y-51053500D01*
X130108129Y-51053500D01*
X128676400Y-51053500D01*
X128609361Y-51033815D01*
X128563606Y-50981011D01*
X128553662Y-50911853D01*
X128577133Y-50855189D01*
X128633353Y-50780088D01*
X128633354Y-50780086D01*
X128683596Y-50645379D01*
X128683598Y-50645372D01*
X128689999Y-50585844D01*
X128690000Y-50585827D01*
X128690000Y-50562500D01*
X128709685Y-50495461D01*
X128762489Y-50449706D01*
X128814000Y-50438500D01*
X134820060Y-50438500D01*
X134887099Y-50458185D01*
G37*
%TD.AperFunction*%
%TD*%
M02*
