M48
; DRILL file {KiCad 8.0.5} date 2024-11-03T20:33:19+0800
; FORMAT={-:-/ absolute / inch / decimal}
; #@! TF.CreationDate,2024-11-03T20:33:19+08:00
; #@! TF.GenerationSoftware,Kicad,Pcbnew,8.0.5
; #@! TF.FileFunction,Plated,1,2,PTH
FMAT,2
INCH
; #@! TA.AperFunction,Plated,PTH,ViaDrill
T1C0.0118
%
G90
G05
T1
X4.2Y-2.2
X4.2Y-2.5
X4.2Y-2.6
X4.2Y-2.7
X4.2Y-2.8
X4.315Y-2.175
X4.39Y-2.42
X4.39Y-2.51
X4.418Y-2.936
X4.4242Y-2.2656
X4.45Y-2.8
X4.455Y-2.7002
X4.4864Y-2.3201
X4.5Y-2.05
X4.5Y-2.15
X4.5271Y-2.3361
X4.55Y-2.8
X4.5698Y-2.5427
X4.5775Y-2.3835
X4.5949Y-2.6504
X4.6374Y-2.2923
X4.65Y-2.8
X4.6527Y-2.1153
X4.6556Y-2.6565
X4.6849Y-2.5945
X4.6921Y-2.8397
X4.7273Y-2.6565
X4.74Y-2.44
X4.7801Y-2.6421
X4.795Y-2.4912
X4.83Y-2.01
X4.8615Y-2.01
X4.93Y-2.3934
X4.96Y-2.24
X4.965Y-2.02
X4.995Y-2.01
X5.03Y-2.01
X5.0484Y-2.058
X5.105Y-2.06
X5.1111Y-2.3277
X5.1439Y-2.2199
X5.1464Y-2.424
X5.1954Y-2.2715
X5.2376Y-2.428
X5.3197Y-2.3448
X5.3306Y-2.4165
X5.335Y-2.015
X5.335Y-2.075
X5.35Y-2.85
X5.4089Y-2.7363
X5.42Y-2.01
X5.45Y-2.2
X5.474Y-2.5477
X5.55Y-2.05
X5.55Y-2.75
X5.55Y-2.85
X5.65Y-2.2
X5.65Y-2.75
M30
