%TF.GenerationSoftware,KiCad,Pcbnew,8.0.5*%
%TF.CreationDate,2024-11-03T20:33:15+08:00*%
%TF.ProjectId,ptr,7074722e-6b69-4636-9164-5f7063625858,rev?*%
%TF.SameCoordinates,Original*%
%TF.FileFunction,Copper,L2,Bot*%
%TF.FilePolarity,Positive*%
%FSLAX46Y46*%
G04 Gerber Fmt 4.6, Leading zero omitted, Abs format (unit mm)*
G04 Created by KiCad (PCBNEW 8.0.5) date 2024-11-03 20:33:15*
%MOMM*%
%LPD*%
G01*
G04 APERTURE LIST*
G04 Aperture macros list*
%AMRoundRect*
0 Rectangle with rounded corners*
0 $1 Rounding radius*
0 $2 $3 $4 $5 $6 $7 $8 $9 X,Y pos of 4 corners*
0 Add a 4 corners polygon primitive as box body*
4,1,4,$2,$3,$4,$5,$6,$7,$8,$9,$2,$3,0*
0 Add four circle primitives for the rounded corners*
1,1,$1+$1,$2,$3*
1,1,$1+$1,$4,$5*
1,1,$1+$1,$6,$7*
1,1,$1+$1,$8,$9*
0 Add four rect primitives between the rounded corners*
20,1,$1+$1,$2,$3,$4,$5,0*
20,1,$1+$1,$4,$5,$6,$7,0*
20,1,$1+$1,$6,$7,$8,$9,0*
20,1,$1+$1,$8,$9,$2,$3,0*%
%AMRotRect*
0 Rectangle, with rotation*
0 The origin of the aperture is its center*
0 $1 length*
0 $2 width*
0 $3 Rotation angle, in degrees counterclockwise*
0 Add horizontal line*
21,1,$1,$2,0,0,$3*%
G04 Aperture macros list end*
%ADD10C,0.100000*%
%ADD11C,0.150000*%
%ADD12C,0.300000*%
%ADD13C,0.400000*%
%TA.AperFunction,SMDPad,CuDef*%
%ADD14R,0.380000X1.000000*%
%TD*%
%TA.AperFunction,SMDPad,CuDef*%
%ADD15R,0.700000X1.150000*%
%TD*%
%TA.AperFunction,SMDPad,CuDef*%
%ADD16RoundRect,0.218750X0.218750X0.256250X-0.218750X0.256250X-0.218750X-0.256250X0.218750X-0.256250X0*%
%TD*%
%TA.AperFunction,SMDPad,CuDef*%
%ADD17RoundRect,0.243750X-0.456250X0.243750X-0.456250X-0.243750X0.456250X-0.243750X0.456250X0.243750X0*%
%TD*%
%TA.AperFunction,SMDPad,CuDef*%
%ADD18RoundRect,0.225000X-0.225000X-0.250000X0.225000X-0.250000X0.225000X0.250000X-0.225000X0.250000X0*%
%TD*%
%TA.AperFunction,SMDPad,CuDef*%
%ADD19RoundRect,0.225000X-0.250000X0.225000X-0.250000X-0.225000X0.250000X-0.225000X0.250000X0.225000X0*%
%TD*%
%TA.AperFunction,SMDPad,CuDef*%
%ADD20RoundRect,0.200000X-0.275000X0.200000X-0.275000X-0.200000X0.275000X-0.200000X0.275000X0.200000X0*%
%TD*%
%TA.AperFunction,SMDPad,CuDef*%
%ADD21RoundRect,0.200000X-0.200000X-0.275000X0.200000X-0.275000X0.200000X0.275000X-0.200000X0.275000X0*%
%TD*%
%TA.AperFunction,SMDPad,CuDef*%
%ADD22R,1.800000X1.100000*%
%TD*%
%TA.AperFunction,SMDPad,CuDef*%
%ADD23RoundRect,0.218750X-0.218750X-0.256250X0.218750X-0.256250X0.218750X0.256250X-0.218750X0.256250X0*%
%TD*%
%TA.AperFunction,SMDPad,CuDef*%
%ADD24R,1.400000X1.200000*%
%TD*%
%TA.AperFunction,SMDPad,CuDef*%
%ADD25R,0.900000X0.400000*%
%TD*%
%TA.AperFunction,SMDPad,CuDef*%
%ADD26RoundRect,0.200000X0.200000X0.275000X-0.200000X0.275000X-0.200000X-0.275000X0.200000X-0.275000X0*%
%TD*%
%TA.AperFunction,SMDPad,CuDef*%
%ADD27RoundRect,0.225000X0.225000X0.250000X-0.225000X0.250000X-0.225000X-0.250000X0.225000X-0.250000X0*%
%TD*%
%TA.AperFunction,SMDPad,CuDef*%
%ADD28RoundRect,0.200000X0.275000X-0.200000X0.275000X0.200000X-0.275000X0.200000X-0.275000X-0.200000X0*%
%TD*%
%TA.AperFunction,SMDPad,CuDef*%
%ADD29RoundRect,0.225000X0.250000X-0.225000X0.250000X0.225000X-0.250000X0.225000X-0.250000X-0.225000X0*%
%TD*%
%TA.AperFunction,SMDPad,CuDef*%
%ADD30RotRect,1.500000X0.550000X225.000000*%
%TD*%
%TA.AperFunction,SMDPad,CuDef*%
%ADD31RotRect,1.500000X0.550000X135.000000*%
%TD*%
%TA.AperFunction,SMDPad,CuDef*%
%ADD32RotRect,4.500000X4.500000X225.000000*%
%TD*%
%TA.AperFunction,ViaPad*%
%ADD33C,0.600000*%
%TD*%
%TA.AperFunction,Conductor*%
%ADD34C,0.220000*%
%TD*%
%TA.AperFunction,Conductor*%
%ADD35C,0.600000*%
%TD*%
%TA.AperFunction,Conductor*%
%ADD36C,0.380000*%
%TD*%
%TA.AperFunction,Conductor*%
%ADD37C,0.200000*%
%TD*%
G04 APERTURE END LIST*
D10*
D11*
X177002200Y-166007200D02*
X285002200Y-166007200D01*
X285002200Y-198007200D01*
X177002200Y-198007200D01*
X177002200Y-166007200D01*
D10*
D11*
X10000000Y-10000000D02*
X287002200Y-10000000D01*
X287002200Y-200007200D01*
X10000000Y-200007200D01*
X10000000Y-10000000D01*
D10*
D11*
X12000000Y-12000000D02*
X285002200Y-12000000D01*
X285002200Y-198007200D01*
X12000000Y-198007200D01*
X12000000Y-12000000D01*
D10*
D11*
X60000000Y-12000000D02*
X60000000Y-10000000D01*
D10*
D11*
X110000000Y-12000000D02*
X110000000Y-10000000D01*
D10*
D11*
X160000000Y-12000000D02*
X160000000Y-10000000D01*
D10*
D11*
X210000000Y-12000000D02*
X210000000Y-10000000D01*
D10*
D11*
X260000000Y-12000000D02*
X260000000Y-10000000D01*
D10*
D11*
X36089160Y-11593604D02*
X35346303Y-11593604D01*
X35717731Y-11593604D02*
X35717731Y-10293604D01*
X35717731Y-10293604D02*
X35593922Y-10479319D01*
X35593922Y-10479319D02*
X35470112Y-10603128D01*
X35470112Y-10603128D02*
X35346303Y-10665033D01*
D10*
D11*
X85346303Y-10417414D02*
X85408207Y-10355509D01*
X85408207Y-10355509D02*
X85532017Y-10293604D01*
X85532017Y-10293604D02*
X85841541Y-10293604D01*
X85841541Y-10293604D02*
X85965350Y-10355509D01*
X85965350Y-10355509D02*
X86027255Y-10417414D01*
X86027255Y-10417414D02*
X86089160Y-10541223D01*
X86089160Y-10541223D02*
X86089160Y-10665033D01*
X86089160Y-10665033D02*
X86027255Y-10850747D01*
X86027255Y-10850747D02*
X85284398Y-11593604D01*
X85284398Y-11593604D02*
X86089160Y-11593604D01*
D10*
D11*
X135284398Y-10293604D02*
X136089160Y-10293604D01*
X136089160Y-10293604D02*
X135655826Y-10788842D01*
X135655826Y-10788842D02*
X135841541Y-10788842D01*
X135841541Y-10788842D02*
X135965350Y-10850747D01*
X135965350Y-10850747D02*
X136027255Y-10912652D01*
X136027255Y-10912652D02*
X136089160Y-11036461D01*
X136089160Y-11036461D02*
X136089160Y-11345985D01*
X136089160Y-11345985D02*
X136027255Y-11469795D01*
X136027255Y-11469795D02*
X135965350Y-11531700D01*
X135965350Y-11531700D02*
X135841541Y-11593604D01*
X135841541Y-11593604D02*
X135470112Y-11593604D01*
X135470112Y-11593604D02*
X135346303Y-11531700D01*
X135346303Y-11531700D02*
X135284398Y-11469795D01*
D10*
D11*
X185965350Y-10726938D02*
X185965350Y-11593604D01*
X185655826Y-10231700D02*
X185346303Y-11160271D01*
X185346303Y-11160271D02*
X186151064Y-11160271D01*
D10*
D11*
X236027255Y-10293604D02*
X235408207Y-10293604D01*
X235408207Y-10293604D02*
X235346303Y-10912652D01*
X235346303Y-10912652D02*
X235408207Y-10850747D01*
X235408207Y-10850747D02*
X235532017Y-10788842D01*
X235532017Y-10788842D02*
X235841541Y-10788842D01*
X235841541Y-10788842D02*
X235965350Y-10850747D01*
X235965350Y-10850747D02*
X236027255Y-10912652D01*
X236027255Y-10912652D02*
X236089160Y-11036461D01*
X236089160Y-11036461D02*
X236089160Y-11345985D01*
X236089160Y-11345985D02*
X236027255Y-11469795D01*
X236027255Y-11469795D02*
X235965350Y-11531700D01*
X235965350Y-11531700D02*
X235841541Y-11593604D01*
X235841541Y-11593604D02*
X235532017Y-11593604D01*
X235532017Y-11593604D02*
X235408207Y-11531700D01*
X235408207Y-11531700D02*
X235346303Y-11469795D01*
D10*
D11*
X285965350Y-10293604D02*
X285717731Y-10293604D01*
X285717731Y-10293604D02*
X285593922Y-10355509D01*
X285593922Y-10355509D02*
X285532017Y-10417414D01*
X285532017Y-10417414D02*
X285408207Y-10603128D01*
X285408207Y-10603128D02*
X285346303Y-10850747D01*
X285346303Y-10850747D02*
X285346303Y-11345985D01*
X285346303Y-11345985D02*
X285408207Y-11469795D01*
X285408207Y-11469795D02*
X285470112Y-11531700D01*
X285470112Y-11531700D02*
X285593922Y-11593604D01*
X285593922Y-11593604D02*
X285841541Y-11593604D01*
X285841541Y-11593604D02*
X285965350Y-11531700D01*
X285965350Y-11531700D02*
X286027255Y-11469795D01*
X286027255Y-11469795D02*
X286089160Y-11345985D01*
X286089160Y-11345985D02*
X286089160Y-11036461D01*
X286089160Y-11036461D02*
X286027255Y-10912652D01*
X286027255Y-10912652D02*
X285965350Y-10850747D01*
X285965350Y-10850747D02*
X285841541Y-10788842D01*
X285841541Y-10788842D02*
X285593922Y-10788842D01*
X285593922Y-10788842D02*
X285470112Y-10850747D01*
X285470112Y-10850747D02*
X285408207Y-10912652D01*
X285408207Y-10912652D02*
X285346303Y-11036461D01*
D10*
D11*
X60000000Y-198007200D02*
X60000000Y-200007200D01*
D10*
D11*
X110000000Y-198007200D02*
X110000000Y-200007200D01*
D10*
D11*
X160000000Y-198007200D02*
X160000000Y-200007200D01*
D10*
D11*
X210000000Y-198007200D02*
X210000000Y-200007200D01*
D10*
D11*
X260000000Y-198007200D02*
X260000000Y-200007200D01*
D10*
D11*
X36089160Y-199600804D02*
X35346303Y-199600804D01*
X35717731Y-199600804D02*
X35717731Y-198300804D01*
X35717731Y-198300804D02*
X35593922Y-198486519D01*
X35593922Y-198486519D02*
X35470112Y-198610328D01*
X35470112Y-198610328D02*
X35346303Y-198672233D01*
D10*
D11*
X85346303Y-198424614D02*
X85408207Y-198362709D01*
X85408207Y-198362709D02*
X85532017Y-198300804D01*
X85532017Y-198300804D02*
X85841541Y-198300804D01*
X85841541Y-198300804D02*
X85965350Y-198362709D01*
X85965350Y-198362709D02*
X86027255Y-198424614D01*
X86027255Y-198424614D02*
X86089160Y-198548423D01*
X86089160Y-198548423D02*
X86089160Y-198672233D01*
X86089160Y-198672233D02*
X86027255Y-198857947D01*
X86027255Y-198857947D02*
X85284398Y-199600804D01*
X85284398Y-199600804D02*
X86089160Y-199600804D01*
D10*
D11*
X135284398Y-198300804D02*
X136089160Y-198300804D01*
X136089160Y-198300804D02*
X135655826Y-198796042D01*
X135655826Y-198796042D02*
X135841541Y-198796042D01*
X135841541Y-198796042D02*
X135965350Y-198857947D01*
X135965350Y-198857947D02*
X136027255Y-198919852D01*
X136027255Y-198919852D02*
X136089160Y-199043661D01*
X136089160Y-199043661D02*
X136089160Y-199353185D01*
X136089160Y-199353185D02*
X136027255Y-199476995D01*
X136027255Y-199476995D02*
X135965350Y-199538900D01*
X135965350Y-199538900D02*
X135841541Y-199600804D01*
X135841541Y-199600804D02*
X135470112Y-199600804D01*
X135470112Y-199600804D02*
X135346303Y-199538900D01*
X135346303Y-199538900D02*
X135284398Y-199476995D01*
D10*
D11*
X185965350Y-198734138D02*
X185965350Y-199600804D01*
X185655826Y-198238900D02*
X185346303Y-199167471D01*
X185346303Y-199167471D02*
X186151064Y-199167471D01*
D10*
D11*
X236027255Y-198300804D02*
X235408207Y-198300804D01*
X235408207Y-198300804D02*
X235346303Y-198919852D01*
X235346303Y-198919852D02*
X235408207Y-198857947D01*
X235408207Y-198857947D02*
X235532017Y-198796042D01*
X235532017Y-198796042D02*
X235841541Y-198796042D01*
X235841541Y-198796042D02*
X235965350Y-198857947D01*
X235965350Y-198857947D02*
X236027255Y-198919852D01*
X236027255Y-198919852D02*
X236089160Y-199043661D01*
X236089160Y-199043661D02*
X236089160Y-199353185D01*
X236089160Y-199353185D02*
X236027255Y-199476995D01*
X236027255Y-199476995D02*
X235965350Y-199538900D01*
X235965350Y-199538900D02*
X235841541Y-199600804D01*
X235841541Y-199600804D02*
X235532017Y-199600804D01*
X235532017Y-199600804D02*
X235408207Y-199538900D01*
X235408207Y-199538900D02*
X235346303Y-199476995D01*
D10*
D11*
X285965350Y-198300804D02*
X285717731Y-198300804D01*
X285717731Y-198300804D02*
X285593922Y-198362709D01*
X285593922Y-198362709D02*
X285532017Y-198424614D01*
X285532017Y-198424614D02*
X285408207Y-198610328D01*
X285408207Y-198610328D02*
X285346303Y-198857947D01*
X285346303Y-198857947D02*
X285346303Y-199353185D01*
X285346303Y-199353185D02*
X285408207Y-199476995D01*
X285408207Y-199476995D02*
X285470112Y-199538900D01*
X285470112Y-199538900D02*
X285593922Y-199600804D01*
X285593922Y-199600804D02*
X285841541Y-199600804D01*
X285841541Y-199600804D02*
X285965350Y-199538900D01*
X285965350Y-199538900D02*
X286027255Y-199476995D01*
X286027255Y-199476995D02*
X286089160Y-199353185D01*
X286089160Y-199353185D02*
X286089160Y-199043661D01*
X286089160Y-199043661D02*
X286027255Y-198919852D01*
X286027255Y-198919852D02*
X285965350Y-198857947D01*
X285965350Y-198857947D02*
X285841541Y-198796042D01*
X285841541Y-198796042D02*
X285593922Y-198796042D01*
X285593922Y-198796042D02*
X285470112Y-198857947D01*
X285470112Y-198857947D02*
X285408207Y-198919852D01*
X285408207Y-198919852D02*
X285346303Y-199043661D01*
D10*
D11*
X10000000Y-60000000D02*
X12000000Y-60000000D01*
D10*
D11*
X10000000Y-110000000D02*
X12000000Y-110000000D01*
D10*
D11*
X10000000Y-160000000D02*
X12000000Y-160000000D01*
D10*
D11*
X10690476Y-35222176D02*
X11309523Y-35222176D01*
X10566666Y-35593604D02*
X10999999Y-34293604D01*
X10999999Y-34293604D02*
X11433333Y-35593604D01*
D10*
D11*
X11092857Y-84912652D02*
X11278571Y-84974557D01*
X11278571Y-84974557D02*
X11340476Y-85036461D01*
X11340476Y-85036461D02*
X11402380Y-85160271D01*
X11402380Y-85160271D02*
X11402380Y-85345985D01*
X11402380Y-85345985D02*
X11340476Y-85469795D01*
X11340476Y-85469795D02*
X11278571Y-85531700D01*
X11278571Y-85531700D02*
X11154761Y-85593604D01*
X11154761Y-85593604D02*
X10659523Y-85593604D01*
X10659523Y-85593604D02*
X10659523Y-84293604D01*
X10659523Y-84293604D02*
X11092857Y-84293604D01*
X11092857Y-84293604D02*
X11216666Y-84355509D01*
X11216666Y-84355509D02*
X11278571Y-84417414D01*
X11278571Y-84417414D02*
X11340476Y-84541223D01*
X11340476Y-84541223D02*
X11340476Y-84665033D01*
X11340476Y-84665033D02*
X11278571Y-84788842D01*
X11278571Y-84788842D02*
X11216666Y-84850747D01*
X11216666Y-84850747D02*
X11092857Y-84912652D01*
X11092857Y-84912652D02*
X10659523Y-84912652D01*
D10*
D11*
X11402380Y-135469795D02*
X11340476Y-135531700D01*
X11340476Y-135531700D02*
X11154761Y-135593604D01*
X11154761Y-135593604D02*
X11030952Y-135593604D01*
X11030952Y-135593604D02*
X10845238Y-135531700D01*
X10845238Y-135531700D02*
X10721428Y-135407890D01*
X10721428Y-135407890D02*
X10659523Y-135284080D01*
X10659523Y-135284080D02*
X10597619Y-135036461D01*
X10597619Y-135036461D02*
X10597619Y-134850747D01*
X10597619Y-134850747D02*
X10659523Y-134603128D01*
X10659523Y-134603128D02*
X10721428Y-134479319D01*
X10721428Y-134479319D02*
X10845238Y-134355509D01*
X10845238Y-134355509D02*
X11030952Y-134293604D01*
X11030952Y-134293604D02*
X11154761Y-134293604D01*
X11154761Y-134293604D02*
X11340476Y-134355509D01*
X11340476Y-134355509D02*
X11402380Y-134417414D01*
D10*
D11*
X10659523Y-185593604D02*
X10659523Y-184293604D01*
X10659523Y-184293604D02*
X10969047Y-184293604D01*
X10969047Y-184293604D02*
X11154761Y-184355509D01*
X11154761Y-184355509D02*
X11278571Y-184479319D01*
X11278571Y-184479319D02*
X11340476Y-184603128D01*
X11340476Y-184603128D02*
X11402380Y-184850747D01*
X11402380Y-184850747D02*
X11402380Y-185036461D01*
X11402380Y-185036461D02*
X11340476Y-185284080D01*
X11340476Y-185284080D02*
X11278571Y-185407890D01*
X11278571Y-185407890D02*
X11154761Y-185531700D01*
X11154761Y-185531700D02*
X10969047Y-185593604D01*
X10969047Y-185593604D02*
X10659523Y-185593604D01*
D10*
D11*
X287002200Y-60000000D02*
X285002200Y-60000000D01*
D10*
D11*
X287002200Y-110000000D02*
X285002200Y-110000000D01*
D10*
D11*
X287002200Y-160000000D02*
X285002200Y-160000000D01*
D10*
D11*
X285692676Y-35222176D02*
X286311723Y-35222176D01*
X285568866Y-35593604D02*
X286002199Y-34293604D01*
X286002199Y-34293604D02*
X286435533Y-35593604D01*
D10*
D11*
X286095057Y-84912652D02*
X286280771Y-84974557D01*
X286280771Y-84974557D02*
X286342676Y-85036461D01*
X286342676Y-85036461D02*
X286404580Y-85160271D01*
X286404580Y-85160271D02*
X286404580Y-85345985D01*
X286404580Y-85345985D02*
X286342676Y-85469795D01*
X286342676Y-85469795D02*
X286280771Y-85531700D01*
X286280771Y-85531700D02*
X286156961Y-85593604D01*
X286156961Y-85593604D02*
X285661723Y-85593604D01*
X285661723Y-85593604D02*
X285661723Y-84293604D01*
X285661723Y-84293604D02*
X286095057Y-84293604D01*
X286095057Y-84293604D02*
X286218866Y-84355509D01*
X286218866Y-84355509D02*
X286280771Y-84417414D01*
X286280771Y-84417414D02*
X286342676Y-84541223D01*
X286342676Y-84541223D02*
X286342676Y-84665033D01*
X286342676Y-84665033D02*
X286280771Y-84788842D01*
X286280771Y-84788842D02*
X286218866Y-84850747D01*
X286218866Y-84850747D02*
X286095057Y-84912652D01*
X286095057Y-84912652D02*
X285661723Y-84912652D01*
D10*
D11*
X286404580Y-135469795D02*
X286342676Y-135531700D01*
X286342676Y-135531700D02*
X286156961Y-135593604D01*
X286156961Y-135593604D02*
X286033152Y-135593604D01*
X286033152Y-135593604D02*
X285847438Y-135531700D01*
X285847438Y-135531700D02*
X285723628Y-135407890D01*
X285723628Y-135407890D02*
X285661723Y-135284080D01*
X285661723Y-135284080D02*
X285599819Y-135036461D01*
X285599819Y-135036461D02*
X285599819Y-134850747D01*
X285599819Y-134850747D02*
X285661723Y-134603128D01*
X285661723Y-134603128D02*
X285723628Y-134479319D01*
X285723628Y-134479319D02*
X285847438Y-134355509D01*
X285847438Y-134355509D02*
X286033152Y-134293604D01*
X286033152Y-134293604D02*
X286156961Y-134293604D01*
X286156961Y-134293604D02*
X286342676Y-134355509D01*
X286342676Y-134355509D02*
X286404580Y-134417414D01*
D10*
D11*
X285661723Y-185593604D02*
X285661723Y-184293604D01*
X285661723Y-184293604D02*
X285971247Y-184293604D01*
X285971247Y-184293604D02*
X286156961Y-184355509D01*
X286156961Y-184355509D02*
X286280771Y-184479319D01*
X286280771Y-184479319D02*
X286342676Y-184603128D01*
X286342676Y-184603128D02*
X286404580Y-184850747D01*
X286404580Y-184850747D02*
X286404580Y-185036461D01*
X286404580Y-185036461D02*
X286342676Y-185284080D01*
X286342676Y-185284080D02*
X286280771Y-185407890D01*
X286280771Y-185407890D02*
X286156961Y-185531700D01*
X286156961Y-185531700D02*
X285971247Y-185593604D01*
X285971247Y-185593604D02*
X285661723Y-185593604D01*
D10*
D11*
X200458026Y-193793328D02*
X200458026Y-192293328D01*
X200458026Y-192293328D02*
X200815169Y-192293328D01*
X200815169Y-192293328D02*
X201029455Y-192364757D01*
X201029455Y-192364757D02*
X201172312Y-192507614D01*
X201172312Y-192507614D02*
X201243741Y-192650471D01*
X201243741Y-192650471D02*
X201315169Y-192936185D01*
X201315169Y-192936185D02*
X201315169Y-193150471D01*
X201315169Y-193150471D02*
X201243741Y-193436185D01*
X201243741Y-193436185D02*
X201172312Y-193579042D01*
X201172312Y-193579042D02*
X201029455Y-193721900D01*
X201029455Y-193721900D02*
X200815169Y-193793328D01*
X200815169Y-193793328D02*
X200458026Y-193793328D01*
X202600884Y-193793328D02*
X202600884Y-193007614D01*
X202600884Y-193007614D02*
X202529455Y-192864757D01*
X202529455Y-192864757D02*
X202386598Y-192793328D01*
X202386598Y-192793328D02*
X202100884Y-192793328D01*
X202100884Y-192793328D02*
X201958026Y-192864757D01*
X202600884Y-193721900D02*
X202458026Y-193793328D01*
X202458026Y-193793328D02*
X202100884Y-193793328D01*
X202100884Y-193793328D02*
X201958026Y-193721900D01*
X201958026Y-193721900D02*
X201886598Y-193579042D01*
X201886598Y-193579042D02*
X201886598Y-193436185D01*
X201886598Y-193436185D02*
X201958026Y-193293328D01*
X201958026Y-193293328D02*
X202100884Y-193221900D01*
X202100884Y-193221900D02*
X202458026Y-193221900D01*
X202458026Y-193221900D02*
X202600884Y-193150471D01*
X203100884Y-192793328D02*
X203672312Y-192793328D01*
X203315169Y-192293328D02*
X203315169Y-193579042D01*
X203315169Y-193579042D02*
X203386598Y-193721900D01*
X203386598Y-193721900D02*
X203529455Y-193793328D01*
X203529455Y-193793328D02*
X203672312Y-193793328D01*
X204743741Y-193721900D02*
X204600884Y-193793328D01*
X204600884Y-193793328D02*
X204315170Y-193793328D01*
X204315170Y-193793328D02*
X204172312Y-193721900D01*
X204172312Y-193721900D02*
X204100884Y-193579042D01*
X204100884Y-193579042D02*
X204100884Y-193007614D01*
X204100884Y-193007614D02*
X204172312Y-192864757D01*
X204172312Y-192864757D02*
X204315170Y-192793328D01*
X204315170Y-192793328D02*
X204600884Y-192793328D01*
X204600884Y-192793328D02*
X204743741Y-192864757D01*
X204743741Y-192864757D02*
X204815170Y-193007614D01*
X204815170Y-193007614D02*
X204815170Y-193150471D01*
X204815170Y-193150471D02*
X204100884Y-193293328D01*
X205458026Y-193650471D02*
X205529455Y-193721900D01*
X205529455Y-193721900D02*
X205458026Y-193793328D01*
X205458026Y-193793328D02*
X205386598Y-193721900D01*
X205386598Y-193721900D02*
X205458026Y-193650471D01*
X205458026Y-193650471D02*
X205458026Y-193793328D01*
X205458026Y-192864757D02*
X205529455Y-192936185D01*
X205529455Y-192936185D02*
X205458026Y-193007614D01*
X205458026Y-193007614D02*
X205386598Y-192936185D01*
X205386598Y-192936185D02*
X205458026Y-192864757D01*
X205458026Y-192864757D02*
X205458026Y-193007614D01*
D10*
D11*
X177002200Y-194507200D02*
X285002200Y-194507200D01*
D10*
D11*
X178458026Y-196593328D02*
X178458026Y-195093328D01*
X179315169Y-196593328D02*
X178672312Y-195736185D01*
X179315169Y-195093328D02*
X178458026Y-195950471D01*
X179958026Y-196593328D02*
X179958026Y-195593328D01*
X179958026Y-195093328D02*
X179886598Y-195164757D01*
X179886598Y-195164757D02*
X179958026Y-195236185D01*
X179958026Y-195236185D02*
X180029455Y-195164757D01*
X180029455Y-195164757D02*
X179958026Y-195093328D01*
X179958026Y-195093328D02*
X179958026Y-195236185D01*
X181529455Y-196450471D02*
X181458027Y-196521900D01*
X181458027Y-196521900D02*
X181243741Y-196593328D01*
X181243741Y-196593328D02*
X181100884Y-196593328D01*
X181100884Y-196593328D02*
X180886598Y-196521900D01*
X180886598Y-196521900D02*
X180743741Y-196379042D01*
X180743741Y-196379042D02*
X180672312Y-196236185D01*
X180672312Y-196236185D02*
X180600884Y-195950471D01*
X180600884Y-195950471D02*
X180600884Y-195736185D01*
X180600884Y-195736185D02*
X180672312Y-195450471D01*
X180672312Y-195450471D02*
X180743741Y-195307614D01*
X180743741Y-195307614D02*
X180886598Y-195164757D01*
X180886598Y-195164757D02*
X181100884Y-195093328D01*
X181100884Y-195093328D02*
X181243741Y-195093328D01*
X181243741Y-195093328D02*
X181458027Y-195164757D01*
X181458027Y-195164757D02*
X181529455Y-195236185D01*
X182815170Y-196593328D02*
X182815170Y-195807614D01*
X182815170Y-195807614D02*
X182743741Y-195664757D01*
X182743741Y-195664757D02*
X182600884Y-195593328D01*
X182600884Y-195593328D02*
X182315170Y-195593328D01*
X182315170Y-195593328D02*
X182172312Y-195664757D01*
X182815170Y-196521900D02*
X182672312Y-196593328D01*
X182672312Y-196593328D02*
X182315170Y-196593328D01*
X182315170Y-196593328D02*
X182172312Y-196521900D01*
X182172312Y-196521900D02*
X182100884Y-196379042D01*
X182100884Y-196379042D02*
X182100884Y-196236185D01*
X182100884Y-196236185D02*
X182172312Y-196093328D01*
X182172312Y-196093328D02*
X182315170Y-196021900D01*
X182315170Y-196021900D02*
X182672312Y-196021900D01*
X182672312Y-196021900D02*
X182815170Y-195950471D01*
X184172313Y-196593328D02*
X184172313Y-195093328D01*
X184172313Y-196521900D02*
X184029455Y-196593328D01*
X184029455Y-196593328D02*
X183743741Y-196593328D01*
X183743741Y-196593328D02*
X183600884Y-196521900D01*
X183600884Y-196521900D02*
X183529455Y-196450471D01*
X183529455Y-196450471D02*
X183458027Y-196307614D01*
X183458027Y-196307614D02*
X183458027Y-195879042D01*
X183458027Y-195879042D02*
X183529455Y-195736185D01*
X183529455Y-195736185D02*
X183600884Y-195664757D01*
X183600884Y-195664757D02*
X183743741Y-195593328D01*
X183743741Y-195593328D02*
X184029455Y-195593328D01*
X184029455Y-195593328D02*
X184172313Y-195664757D01*
X186029455Y-195807614D02*
X186529455Y-195807614D01*
X186743741Y-196593328D02*
X186029455Y-196593328D01*
X186029455Y-196593328D02*
X186029455Y-195093328D01*
X186029455Y-195093328D02*
X186743741Y-195093328D01*
X187386598Y-196450471D02*
X187458027Y-196521900D01*
X187458027Y-196521900D02*
X187386598Y-196593328D01*
X187386598Y-196593328D02*
X187315170Y-196521900D01*
X187315170Y-196521900D02*
X187386598Y-196450471D01*
X187386598Y-196450471D02*
X187386598Y-196593328D01*
X188100884Y-196593328D02*
X188100884Y-195093328D01*
X188100884Y-195093328D02*
X188458027Y-195093328D01*
X188458027Y-195093328D02*
X188672313Y-195164757D01*
X188672313Y-195164757D02*
X188815170Y-195307614D01*
X188815170Y-195307614D02*
X188886599Y-195450471D01*
X188886599Y-195450471D02*
X188958027Y-195736185D01*
X188958027Y-195736185D02*
X188958027Y-195950471D01*
X188958027Y-195950471D02*
X188886599Y-196236185D01*
X188886599Y-196236185D02*
X188815170Y-196379042D01*
X188815170Y-196379042D02*
X188672313Y-196521900D01*
X188672313Y-196521900D02*
X188458027Y-196593328D01*
X188458027Y-196593328D02*
X188100884Y-196593328D01*
X189600884Y-196450471D02*
X189672313Y-196521900D01*
X189672313Y-196521900D02*
X189600884Y-196593328D01*
X189600884Y-196593328D02*
X189529456Y-196521900D01*
X189529456Y-196521900D02*
X189600884Y-196450471D01*
X189600884Y-196450471D02*
X189600884Y-196593328D01*
X190243742Y-196164757D02*
X190958028Y-196164757D01*
X190100885Y-196593328D02*
X190600885Y-195093328D01*
X190600885Y-195093328D02*
X191100885Y-196593328D01*
X191600884Y-196450471D02*
X191672313Y-196521900D01*
X191672313Y-196521900D02*
X191600884Y-196593328D01*
X191600884Y-196593328D02*
X191529456Y-196521900D01*
X191529456Y-196521900D02*
X191600884Y-196450471D01*
X191600884Y-196450471D02*
X191600884Y-196593328D01*
X193672313Y-195736185D02*
X193529456Y-195664757D01*
X193529456Y-195664757D02*
X193458027Y-195593328D01*
X193458027Y-195593328D02*
X193386599Y-195450471D01*
X193386599Y-195450471D02*
X193386599Y-195379042D01*
X193386599Y-195379042D02*
X193458027Y-195236185D01*
X193458027Y-195236185D02*
X193529456Y-195164757D01*
X193529456Y-195164757D02*
X193672313Y-195093328D01*
X193672313Y-195093328D02*
X193958027Y-195093328D01*
X193958027Y-195093328D02*
X194100885Y-195164757D01*
X194100885Y-195164757D02*
X194172313Y-195236185D01*
X194172313Y-195236185D02*
X194243742Y-195379042D01*
X194243742Y-195379042D02*
X194243742Y-195450471D01*
X194243742Y-195450471D02*
X194172313Y-195593328D01*
X194172313Y-195593328D02*
X194100885Y-195664757D01*
X194100885Y-195664757D02*
X193958027Y-195736185D01*
X193958027Y-195736185D02*
X193672313Y-195736185D01*
X193672313Y-195736185D02*
X193529456Y-195807614D01*
X193529456Y-195807614D02*
X193458027Y-195879042D01*
X193458027Y-195879042D02*
X193386599Y-196021900D01*
X193386599Y-196021900D02*
X193386599Y-196307614D01*
X193386599Y-196307614D02*
X193458027Y-196450471D01*
X193458027Y-196450471D02*
X193529456Y-196521900D01*
X193529456Y-196521900D02*
X193672313Y-196593328D01*
X193672313Y-196593328D02*
X193958027Y-196593328D01*
X193958027Y-196593328D02*
X194100885Y-196521900D01*
X194100885Y-196521900D02*
X194172313Y-196450471D01*
X194172313Y-196450471D02*
X194243742Y-196307614D01*
X194243742Y-196307614D02*
X194243742Y-196021900D01*
X194243742Y-196021900D02*
X194172313Y-195879042D01*
X194172313Y-195879042D02*
X194100885Y-195807614D01*
X194100885Y-195807614D02*
X193958027Y-195736185D01*
X194886598Y-196450471D02*
X194958027Y-196521900D01*
X194958027Y-196521900D02*
X194886598Y-196593328D01*
X194886598Y-196593328D02*
X194815170Y-196521900D01*
X194815170Y-196521900D02*
X194886598Y-196450471D01*
X194886598Y-196450471D02*
X194886598Y-196593328D01*
X195886599Y-195093328D02*
X196029456Y-195093328D01*
X196029456Y-195093328D02*
X196172313Y-195164757D01*
X196172313Y-195164757D02*
X196243742Y-195236185D01*
X196243742Y-195236185D02*
X196315170Y-195379042D01*
X196315170Y-195379042D02*
X196386599Y-195664757D01*
X196386599Y-195664757D02*
X196386599Y-196021900D01*
X196386599Y-196021900D02*
X196315170Y-196307614D01*
X196315170Y-196307614D02*
X196243742Y-196450471D01*
X196243742Y-196450471D02*
X196172313Y-196521900D01*
X196172313Y-196521900D02*
X196029456Y-196593328D01*
X196029456Y-196593328D02*
X195886599Y-196593328D01*
X195886599Y-196593328D02*
X195743742Y-196521900D01*
X195743742Y-196521900D02*
X195672313Y-196450471D01*
X195672313Y-196450471D02*
X195600884Y-196307614D01*
X195600884Y-196307614D02*
X195529456Y-196021900D01*
X195529456Y-196021900D02*
X195529456Y-195664757D01*
X195529456Y-195664757D02*
X195600884Y-195379042D01*
X195600884Y-195379042D02*
X195672313Y-195236185D01*
X195672313Y-195236185D02*
X195743742Y-195164757D01*
X195743742Y-195164757D02*
X195886599Y-195093328D01*
X197029455Y-196450471D02*
X197100884Y-196521900D01*
X197100884Y-196521900D02*
X197029455Y-196593328D01*
X197029455Y-196593328D02*
X196958027Y-196521900D01*
X196958027Y-196521900D02*
X197029455Y-196450471D01*
X197029455Y-196450471D02*
X197029455Y-196593328D01*
X198458027Y-195093328D02*
X197743741Y-195093328D01*
X197743741Y-195093328D02*
X197672313Y-195807614D01*
X197672313Y-195807614D02*
X197743741Y-195736185D01*
X197743741Y-195736185D02*
X197886599Y-195664757D01*
X197886599Y-195664757D02*
X198243741Y-195664757D01*
X198243741Y-195664757D02*
X198386599Y-195736185D01*
X198386599Y-195736185D02*
X198458027Y-195807614D01*
X198458027Y-195807614D02*
X198529456Y-195950471D01*
X198529456Y-195950471D02*
X198529456Y-196307614D01*
X198529456Y-196307614D02*
X198458027Y-196450471D01*
X198458027Y-196450471D02*
X198386599Y-196521900D01*
X198386599Y-196521900D02*
X198243741Y-196593328D01*
X198243741Y-196593328D02*
X197886599Y-196593328D01*
X197886599Y-196593328D02*
X197743741Y-196521900D01*
X197743741Y-196521900D02*
X197672313Y-196450471D01*
D10*
D11*
X177002200Y-191507200D02*
X285002200Y-191507200D01*
D10*
D12*
X264413853Y-193785528D02*
X263913853Y-193071242D01*
X263556710Y-193785528D02*
X263556710Y-192285528D01*
X263556710Y-192285528D02*
X264128139Y-192285528D01*
X264128139Y-192285528D02*
X264270996Y-192356957D01*
X264270996Y-192356957D02*
X264342425Y-192428385D01*
X264342425Y-192428385D02*
X264413853Y-192571242D01*
X264413853Y-192571242D02*
X264413853Y-192785528D01*
X264413853Y-192785528D02*
X264342425Y-192928385D01*
X264342425Y-192928385D02*
X264270996Y-192999814D01*
X264270996Y-192999814D02*
X264128139Y-193071242D01*
X264128139Y-193071242D02*
X263556710Y-193071242D01*
X265628139Y-193714100D02*
X265485282Y-193785528D01*
X265485282Y-193785528D02*
X265199568Y-193785528D01*
X265199568Y-193785528D02*
X265056710Y-193714100D01*
X265056710Y-193714100D02*
X264985282Y-193571242D01*
X264985282Y-193571242D02*
X264985282Y-192999814D01*
X264985282Y-192999814D02*
X265056710Y-192856957D01*
X265056710Y-192856957D02*
X265199568Y-192785528D01*
X265199568Y-192785528D02*
X265485282Y-192785528D01*
X265485282Y-192785528D02*
X265628139Y-192856957D01*
X265628139Y-192856957D02*
X265699568Y-192999814D01*
X265699568Y-192999814D02*
X265699568Y-193142671D01*
X265699568Y-193142671D02*
X264985282Y-193285528D01*
X266199567Y-192785528D02*
X266556710Y-193785528D01*
X266556710Y-193785528D02*
X266913853Y-192785528D01*
X267485281Y-193642671D02*
X267556710Y-193714100D01*
X267556710Y-193714100D02*
X267485281Y-193785528D01*
X267485281Y-193785528D02*
X267413853Y-193714100D01*
X267413853Y-193714100D02*
X267485281Y-193642671D01*
X267485281Y-193642671D02*
X267485281Y-193785528D01*
X267485281Y-192856957D02*
X267556710Y-192928385D01*
X267556710Y-192928385D02*
X267485281Y-192999814D01*
X267485281Y-192999814D02*
X267413853Y-192928385D01*
X267413853Y-192928385D02*
X267485281Y-192856957D01*
X267485281Y-192856957D02*
X267485281Y-192999814D01*
D10*
D11*
X178386598Y-193721900D02*
X178600884Y-193793328D01*
X178600884Y-193793328D02*
X178958026Y-193793328D01*
X178958026Y-193793328D02*
X179100884Y-193721900D01*
X179100884Y-193721900D02*
X179172312Y-193650471D01*
X179172312Y-193650471D02*
X179243741Y-193507614D01*
X179243741Y-193507614D02*
X179243741Y-193364757D01*
X179243741Y-193364757D02*
X179172312Y-193221900D01*
X179172312Y-193221900D02*
X179100884Y-193150471D01*
X179100884Y-193150471D02*
X178958026Y-193079042D01*
X178958026Y-193079042D02*
X178672312Y-193007614D01*
X178672312Y-193007614D02*
X178529455Y-192936185D01*
X178529455Y-192936185D02*
X178458026Y-192864757D01*
X178458026Y-192864757D02*
X178386598Y-192721900D01*
X178386598Y-192721900D02*
X178386598Y-192579042D01*
X178386598Y-192579042D02*
X178458026Y-192436185D01*
X178458026Y-192436185D02*
X178529455Y-192364757D01*
X178529455Y-192364757D02*
X178672312Y-192293328D01*
X178672312Y-192293328D02*
X179029455Y-192293328D01*
X179029455Y-192293328D02*
X179243741Y-192364757D01*
X179886597Y-193793328D02*
X179886597Y-192793328D01*
X179886597Y-192293328D02*
X179815169Y-192364757D01*
X179815169Y-192364757D02*
X179886597Y-192436185D01*
X179886597Y-192436185D02*
X179958026Y-192364757D01*
X179958026Y-192364757D02*
X179886597Y-192293328D01*
X179886597Y-192293328D02*
X179886597Y-192436185D01*
X180458026Y-192793328D02*
X181243741Y-192793328D01*
X181243741Y-192793328D02*
X180458026Y-193793328D01*
X180458026Y-193793328D02*
X181243741Y-193793328D01*
X182386598Y-193721900D02*
X182243741Y-193793328D01*
X182243741Y-193793328D02*
X181958027Y-193793328D01*
X181958027Y-193793328D02*
X181815169Y-193721900D01*
X181815169Y-193721900D02*
X181743741Y-193579042D01*
X181743741Y-193579042D02*
X181743741Y-193007614D01*
X181743741Y-193007614D02*
X181815169Y-192864757D01*
X181815169Y-192864757D02*
X181958027Y-192793328D01*
X181958027Y-192793328D02*
X182243741Y-192793328D01*
X182243741Y-192793328D02*
X182386598Y-192864757D01*
X182386598Y-192864757D02*
X182458027Y-193007614D01*
X182458027Y-193007614D02*
X182458027Y-193150471D01*
X182458027Y-193150471D02*
X181743741Y-193293328D01*
X183100883Y-193650471D02*
X183172312Y-193721900D01*
X183172312Y-193721900D02*
X183100883Y-193793328D01*
X183100883Y-193793328D02*
X183029455Y-193721900D01*
X183029455Y-193721900D02*
X183100883Y-193650471D01*
X183100883Y-193650471D02*
X183100883Y-193793328D01*
X183100883Y-192864757D02*
X183172312Y-192936185D01*
X183172312Y-192936185D02*
X183100883Y-193007614D01*
X183100883Y-193007614D02*
X183029455Y-192936185D01*
X183029455Y-192936185D02*
X183100883Y-192864757D01*
X183100883Y-192864757D02*
X183100883Y-193007614D01*
X184886598Y-193364757D02*
X185600884Y-193364757D01*
X184743741Y-193793328D02*
X185243741Y-192293328D01*
X185243741Y-192293328D02*
X185743741Y-193793328D01*
X186886598Y-192793328D02*
X186886598Y-193793328D01*
X186529455Y-192221900D02*
X186172312Y-193293328D01*
X186172312Y-193293328D02*
X187100883Y-193293328D01*
D10*
D11*
X263458026Y-196593328D02*
X263458026Y-195093328D01*
X264815170Y-196593328D02*
X264815170Y-195093328D01*
X264815170Y-196521900D02*
X264672312Y-196593328D01*
X264672312Y-196593328D02*
X264386598Y-196593328D01*
X264386598Y-196593328D02*
X264243741Y-196521900D01*
X264243741Y-196521900D02*
X264172312Y-196450471D01*
X264172312Y-196450471D02*
X264100884Y-196307614D01*
X264100884Y-196307614D02*
X264100884Y-195879042D01*
X264100884Y-195879042D02*
X264172312Y-195736185D01*
X264172312Y-195736185D02*
X264243741Y-195664757D01*
X264243741Y-195664757D02*
X264386598Y-195593328D01*
X264386598Y-195593328D02*
X264672312Y-195593328D01*
X264672312Y-195593328D02*
X264815170Y-195664757D01*
X265529455Y-196450471D02*
X265600884Y-196521900D01*
X265600884Y-196521900D02*
X265529455Y-196593328D01*
X265529455Y-196593328D02*
X265458027Y-196521900D01*
X265458027Y-196521900D02*
X265529455Y-196450471D01*
X265529455Y-196450471D02*
X265529455Y-196593328D01*
X265529455Y-195664757D02*
X265600884Y-195736185D01*
X265600884Y-195736185D02*
X265529455Y-195807614D01*
X265529455Y-195807614D02*
X265458027Y-195736185D01*
X265458027Y-195736185D02*
X265529455Y-195664757D01*
X265529455Y-195664757D02*
X265529455Y-195807614D01*
X268172313Y-196593328D02*
X267315170Y-196593328D01*
X267743741Y-196593328D02*
X267743741Y-195093328D01*
X267743741Y-195093328D02*
X267600884Y-195307614D01*
X267600884Y-195307614D02*
X267458027Y-195450471D01*
X267458027Y-195450471D02*
X267315170Y-195521900D01*
X269886598Y-195021900D02*
X268600884Y-196950471D01*
X271172313Y-196593328D02*
X270315170Y-196593328D01*
X270743741Y-196593328D02*
X270743741Y-195093328D01*
X270743741Y-195093328D02*
X270600884Y-195307614D01*
X270600884Y-195307614D02*
X270458027Y-195450471D01*
X270458027Y-195450471D02*
X270315170Y-195521900D01*
D10*
D11*
X177002200Y-187507200D02*
X285002200Y-187507200D01*
D10*
D13*
X178693928Y-188211638D02*
X179836785Y-188211638D01*
X179015357Y-190211638D02*
X179265357Y-188211638D01*
X180253452Y-190211638D02*
X180420119Y-188878304D01*
X180503452Y-188211638D02*
X180396309Y-188306876D01*
X180396309Y-188306876D02*
X180479643Y-188402114D01*
X180479643Y-188402114D02*
X180586786Y-188306876D01*
X180586786Y-188306876D02*
X180503452Y-188211638D01*
X180503452Y-188211638D02*
X180479643Y-188402114D01*
X181086786Y-188878304D02*
X181848690Y-188878304D01*
X181455833Y-188211638D02*
X181241548Y-189925923D01*
X181241548Y-189925923D02*
X181312976Y-190116400D01*
X181312976Y-190116400D02*
X181491548Y-190211638D01*
X181491548Y-190211638D02*
X181682024Y-190211638D01*
X182634405Y-190211638D02*
X182455833Y-190116400D01*
X182455833Y-190116400D02*
X182384405Y-189925923D01*
X182384405Y-189925923D02*
X182598690Y-188211638D01*
X184170119Y-190116400D02*
X183967738Y-190211638D01*
X183967738Y-190211638D02*
X183586785Y-190211638D01*
X183586785Y-190211638D02*
X183408214Y-190116400D01*
X183408214Y-190116400D02*
X183336785Y-189925923D01*
X183336785Y-189925923D02*
X183432024Y-189164019D01*
X183432024Y-189164019D02*
X183551071Y-188973542D01*
X183551071Y-188973542D02*
X183753452Y-188878304D01*
X183753452Y-188878304D02*
X184134404Y-188878304D01*
X184134404Y-188878304D02*
X184312976Y-188973542D01*
X184312976Y-188973542D02*
X184384404Y-189164019D01*
X184384404Y-189164019D02*
X184360595Y-189354495D01*
X184360595Y-189354495D02*
X183384404Y-189544971D01*
X185134405Y-190021161D02*
X185217738Y-190116400D01*
X185217738Y-190116400D02*
X185110595Y-190211638D01*
X185110595Y-190211638D02*
X185027262Y-190116400D01*
X185027262Y-190116400D02*
X185134405Y-190021161D01*
X185134405Y-190021161D02*
X185110595Y-190211638D01*
X185265357Y-188973542D02*
X185348690Y-189068780D01*
X185348690Y-189068780D02*
X185241548Y-189164019D01*
X185241548Y-189164019D02*
X185158214Y-189068780D01*
X185158214Y-189068780D02*
X185265357Y-188973542D01*
X185265357Y-188973542D02*
X185241548Y-189164019D01*
D10*
D11*
X178958026Y-185607614D02*
X178458026Y-185607614D01*
X178458026Y-186393328D02*
X178458026Y-184893328D01*
X178458026Y-184893328D02*
X179172312Y-184893328D01*
X179743740Y-186393328D02*
X179743740Y-185393328D01*
X179743740Y-184893328D02*
X179672312Y-184964757D01*
X179672312Y-184964757D02*
X179743740Y-185036185D01*
X179743740Y-185036185D02*
X179815169Y-184964757D01*
X179815169Y-184964757D02*
X179743740Y-184893328D01*
X179743740Y-184893328D02*
X179743740Y-185036185D01*
X180672312Y-186393328D02*
X180529455Y-186321900D01*
X180529455Y-186321900D02*
X180458026Y-186179042D01*
X180458026Y-186179042D02*
X180458026Y-184893328D01*
X181815169Y-186321900D02*
X181672312Y-186393328D01*
X181672312Y-186393328D02*
X181386598Y-186393328D01*
X181386598Y-186393328D02*
X181243740Y-186321900D01*
X181243740Y-186321900D02*
X181172312Y-186179042D01*
X181172312Y-186179042D02*
X181172312Y-185607614D01*
X181172312Y-185607614D02*
X181243740Y-185464757D01*
X181243740Y-185464757D02*
X181386598Y-185393328D01*
X181386598Y-185393328D02*
X181672312Y-185393328D01*
X181672312Y-185393328D02*
X181815169Y-185464757D01*
X181815169Y-185464757D02*
X181886598Y-185607614D01*
X181886598Y-185607614D02*
X181886598Y-185750471D01*
X181886598Y-185750471D02*
X181172312Y-185893328D01*
X182529454Y-186250471D02*
X182600883Y-186321900D01*
X182600883Y-186321900D02*
X182529454Y-186393328D01*
X182529454Y-186393328D02*
X182458026Y-186321900D01*
X182458026Y-186321900D02*
X182529454Y-186250471D01*
X182529454Y-186250471D02*
X182529454Y-186393328D01*
X182529454Y-185464757D02*
X182600883Y-185536185D01*
X182600883Y-185536185D02*
X182529454Y-185607614D01*
X182529454Y-185607614D02*
X182458026Y-185536185D01*
X182458026Y-185536185D02*
X182529454Y-185464757D01*
X182529454Y-185464757D02*
X182529454Y-185607614D01*
X184386597Y-185393328D02*
X184386597Y-186893328D01*
X184386597Y-185464757D02*
X184529455Y-185393328D01*
X184529455Y-185393328D02*
X184815169Y-185393328D01*
X184815169Y-185393328D02*
X184958026Y-185464757D01*
X184958026Y-185464757D02*
X185029455Y-185536185D01*
X185029455Y-185536185D02*
X185100883Y-185679042D01*
X185100883Y-185679042D02*
X185100883Y-186107614D01*
X185100883Y-186107614D02*
X185029455Y-186250471D01*
X185029455Y-186250471D02*
X184958026Y-186321900D01*
X184958026Y-186321900D02*
X184815169Y-186393328D01*
X184815169Y-186393328D02*
X184529455Y-186393328D01*
X184529455Y-186393328D02*
X184386597Y-186321900D01*
X185529455Y-185393328D02*
X186100883Y-185393328D01*
X185743740Y-184893328D02*
X185743740Y-186179042D01*
X185743740Y-186179042D02*
X185815169Y-186321900D01*
X185815169Y-186321900D02*
X185958026Y-186393328D01*
X185958026Y-186393328D02*
X186100883Y-186393328D01*
X186600883Y-186393328D02*
X186600883Y-185393328D01*
X186600883Y-185679042D02*
X186672312Y-185536185D01*
X186672312Y-185536185D02*
X186743741Y-185464757D01*
X186743741Y-185464757D02*
X186886598Y-185393328D01*
X186886598Y-185393328D02*
X187029455Y-185393328D01*
X187529454Y-186250471D02*
X187600883Y-186321900D01*
X187600883Y-186321900D02*
X187529454Y-186393328D01*
X187529454Y-186393328D02*
X187458026Y-186321900D01*
X187458026Y-186321900D02*
X187529454Y-186250471D01*
X187529454Y-186250471D02*
X187529454Y-186393328D01*
X188243740Y-186393328D02*
X188243740Y-184893328D01*
X188386598Y-185821900D02*
X188815169Y-186393328D01*
X188815169Y-185393328D02*
X188243740Y-185964757D01*
X189458026Y-186393328D02*
X189458026Y-185393328D01*
X189458026Y-184893328D02*
X189386598Y-184964757D01*
X189386598Y-184964757D02*
X189458026Y-185036185D01*
X189458026Y-185036185D02*
X189529455Y-184964757D01*
X189529455Y-184964757D02*
X189458026Y-184893328D01*
X189458026Y-184893328D02*
X189458026Y-185036185D01*
X190815170Y-186321900D02*
X190672312Y-186393328D01*
X190672312Y-186393328D02*
X190386598Y-186393328D01*
X190386598Y-186393328D02*
X190243741Y-186321900D01*
X190243741Y-186321900D02*
X190172312Y-186250471D01*
X190172312Y-186250471D02*
X190100884Y-186107614D01*
X190100884Y-186107614D02*
X190100884Y-185679042D01*
X190100884Y-185679042D02*
X190172312Y-185536185D01*
X190172312Y-185536185D02*
X190243741Y-185464757D01*
X190243741Y-185464757D02*
X190386598Y-185393328D01*
X190386598Y-185393328D02*
X190672312Y-185393328D01*
X190672312Y-185393328D02*
X190815170Y-185464757D01*
X192100884Y-186393328D02*
X192100884Y-185607614D01*
X192100884Y-185607614D02*
X192029455Y-185464757D01*
X192029455Y-185464757D02*
X191886598Y-185393328D01*
X191886598Y-185393328D02*
X191600884Y-185393328D01*
X191600884Y-185393328D02*
X191458026Y-185464757D01*
X192100884Y-186321900D02*
X191958026Y-186393328D01*
X191958026Y-186393328D02*
X191600884Y-186393328D01*
X191600884Y-186393328D02*
X191458026Y-186321900D01*
X191458026Y-186321900D02*
X191386598Y-186179042D01*
X191386598Y-186179042D02*
X191386598Y-186036185D01*
X191386598Y-186036185D02*
X191458026Y-185893328D01*
X191458026Y-185893328D02*
X191600884Y-185821900D01*
X191600884Y-185821900D02*
X191958026Y-185821900D01*
X191958026Y-185821900D02*
X192100884Y-185750471D01*
X193458027Y-186393328D02*
X193458027Y-184893328D01*
X193458027Y-186321900D02*
X193315169Y-186393328D01*
X193315169Y-186393328D02*
X193029455Y-186393328D01*
X193029455Y-186393328D02*
X192886598Y-186321900D01*
X192886598Y-186321900D02*
X192815169Y-186250471D01*
X192815169Y-186250471D02*
X192743741Y-186107614D01*
X192743741Y-186107614D02*
X192743741Y-185679042D01*
X192743741Y-185679042D02*
X192815169Y-185536185D01*
X192815169Y-185536185D02*
X192886598Y-185464757D01*
X192886598Y-185464757D02*
X193029455Y-185393328D01*
X193029455Y-185393328D02*
X193315169Y-185393328D01*
X193315169Y-185393328D02*
X193458027Y-185464757D01*
X193815170Y-186536185D02*
X194958027Y-186536185D01*
X195315169Y-185393328D02*
X195315169Y-186893328D01*
X195315169Y-185464757D02*
X195458027Y-185393328D01*
X195458027Y-185393328D02*
X195743741Y-185393328D01*
X195743741Y-185393328D02*
X195886598Y-185464757D01*
X195886598Y-185464757D02*
X195958027Y-185536185D01*
X195958027Y-185536185D02*
X196029455Y-185679042D01*
X196029455Y-185679042D02*
X196029455Y-186107614D01*
X196029455Y-186107614D02*
X195958027Y-186250471D01*
X195958027Y-186250471D02*
X195886598Y-186321900D01*
X195886598Y-186321900D02*
X195743741Y-186393328D01*
X195743741Y-186393328D02*
X195458027Y-186393328D01*
X195458027Y-186393328D02*
X195315169Y-186321900D01*
X197315170Y-186321900D02*
X197172312Y-186393328D01*
X197172312Y-186393328D02*
X196886598Y-186393328D01*
X196886598Y-186393328D02*
X196743741Y-186321900D01*
X196743741Y-186321900D02*
X196672312Y-186250471D01*
X196672312Y-186250471D02*
X196600884Y-186107614D01*
X196600884Y-186107614D02*
X196600884Y-185679042D01*
X196600884Y-185679042D02*
X196672312Y-185536185D01*
X196672312Y-185536185D02*
X196743741Y-185464757D01*
X196743741Y-185464757D02*
X196886598Y-185393328D01*
X196886598Y-185393328D02*
X197172312Y-185393328D01*
X197172312Y-185393328D02*
X197315170Y-185464757D01*
X197958026Y-186393328D02*
X197958026Y-184893328D01*
X197958026Y-185464757D02*
X198100884Y-185393328D01*
X198100884Y-185393328D02*
X198386598Y-185393328D01*
X198386598Y-185393328D02*
X198529455Y-185464757D01*
X198529455Y-185464757D02*
X198600884Y-185536185D01*
X198600884Y-185536185D02*
X198672312Y-185679042D01*
X198672312Y-185679042D02*
X198672312Y-186107614D01*
X198672312Y-186107614D02*
X198600884Y-186250471D01*
X198600884Y-186250471D02*
X198529455Y-186321900D01*
X198529455Y-186321900D02*
X198386598Y-186393328D01*
X198386598Y-186393328D02*
X198100884Y-186393328D01*
X198100884Y-186393328D02*
X197958026Y-186321900D01*
D10*
D11*
X177002200Y-181507200D02*
X285002200Y-181507200D01*
D10*
D11*
X178386598Y-183621900D02*
X178600884Y-183693328D01*
X178600884Y-183693328D02*
X178958026Y-183693328D01*
X178958026Y-183693328D02*
X179100884Y-183621900D01*
X179100884Y-183621900D02*
X179172312Y-183550471D01*
X179172312Y-183550471D02*
X179243741Y-183407614D01*
X179243741Y-183407614D02*
X179243741Y-183264757D01*
X179243741Y-183264757D02*
X179172312Y-183121900D01*
X179172312Y-183121900D02*
X179100884Y-183050471D01*
X179100884Y-183050471D02*
X178958026Y-182979042D01*
X178958026Y-182979042D02*
X178672312Y-182907614D01*
X178672312Y-182907614D02*
X178529455Y-182836185D01*
X178529455Y-182836185D02*
X178458026Y-182764757D01*
X178458026Y-182764757D02*
X178386598Y-182621900D01*
X178386598Y-182621900D02*
X178386598Y-182479042D01*
X178386598Y-182479042D02*
X178458026Y-182336185D01*
X178458026Y-182336185D02*
X178529455Y-182264757D01*
X178529455Y-182264757D02*
X178672312Y-182193328D01*
X178672312Y-182193328D02*
X179029455Y-182193328D01*
X179029455Y-182193328D02*
X179243741Y-182264757D01*
X179886597Y-183693328D02*
X179886597Y-182193328D01*
X180529455Y-183693328D02*
X180529455Y-182907614D01*
X180529455Y-182907614D02*
X180458026Y-182764757D01*
X180458026Y-182764757D02*
X180315169Y-182693328D01*
X180315169Y-182693328D02*
X180100883Y-182693328D01*
X180100883Y-182693328D02*
X179958026Y-182764757D01*
X179958026Y-182764757D02*
X179886597Y-182836185D01*
X181815169Y-183621900D02*
X181672312Y-183693328D01*
X181672312Y-183693328D02*
X181386598Y-183693328D01*
X181386598Y-183693328D02*
X181243740Y-183621900D01*
X181243740Y-183621900D02*
X181172312Y-183479042D01*
X181172312Y-183479042D02*
X181172312Y-182907614D01*
X181172312Y-182907614D02*
X181243740Y-182764757D01*
X181243740Y-182764757D02*
X181386598Y-182693328D01*
X181386598Y-182693328D02*
X181672312Y-182693328D01*
X181672312Y-182693328D02*
X181815169Y-182764757D01*
X181815169Y-182764757D02*
X181886598Y-182907614D01*
X181886598Y-182907614D02*
X181886598Y-183050471D01*
X181886598Y-183050471D02*
X181172312Y-183193328D01*
X183100883Y-183621900D02*
X182958026Y-183693328D01*
X182958026Y-183693328D02*
X182672312Y-183693328D01*
X182672312Y-183693328D02*
X182529454Y-183621900D01*
X182529454Y-183621900D02*
X182458026Y-183479042D01*
X182458026Y-183479042D02*
X182458026Y-182907614D01*
X182458026Y-182907614D02*
X182529454Y-182764757D01*
X182529454Y-182764757D02*
X182672312Y-182693328D01*
X182672312Y-182693328D02*
X182958026Y-182693328D01*
X182958026Y-182693328D02*
X183100883Y-182764757D01*
X183100883Y-182764757D02*
X183172312Y-182907614D01*
X183172312Y-182907614D02*
X183172312Y-183050471D01*
X183172312Y-183050471D02*
X182458026Y-183193328D01*
X183600883Y-182693328D02*
X184172311Y-182693328D01*
X183815168Y-182193328D02*
X183815168Y-183479042D01*
X183815168Y-183479042D02*
X183886597Y-183621900D01*
X183886597Y-183621900D02*
X184029454Y-183693328D01*
X184029454Y-183693328D02*
X184172311Y-183693328D01*
X184672311Y-183550471D02*
X184743740Y-183621900D01*
X184743740Y-183621900D02*
X184672311Y-183693328D01*
X184672311Y-183693328D02*
X184600883Y-183621900D01*
X184600883Y-183621900D02*
X184672311Y-183550471D01*
X184672311Y-183550471D02*
X184672311Y-183693328D01*
X184672311Y-182764757D02*
X184743740Y-182836185D01*
X184743740Y-182836185D02*
X184672311Y-182907614D01*
X184672311Y-182907614D02*
X184600883Y-182836185D01*
X184600883Y-182836185D02*
X184672311Y-182764757D01*
X184672311Y-182764757D02*
X184672311Y-182907614D01*
D10*
D11*
X197002200Y-191507200D02*
X197002200Y-194507200D01*
D10*
D11*
X261002200Y-191507200D02*
X261002200Y-198007200D01*
D14*
%TO.P,P1,B1,GND*%
%TO.N,GND*%
X128000000Y-50038000D03*
%TO.P,P1,B2,TX2+*%
%TO.N,unconnected-(P1-TX2+-PadB2)*%
X127500000Y-50038000D03*
%TO.P,P1,B3,TX2-*%
%TO.N,unconnected-(P1-TX2--PadB3)*%
X127000000Y-50038000D03*
%TO.P,P1,B4,VBUS*%
%TO.N,VBUS*%
X126500000Y-50038000D03*
%TO.P,P1,B5,VCONN*%
%TO.N,Net-(P1-VCONN)*%
X126000000Y-50038000D03*
%TO.P,P1,B8,SBU2*%
%TO.N,unconnected-(P1-SBU2-PadB8)*%
X124500000Y-50038000D03*
%TO.P,P1,B9,VBUS*%
%TO.N,VBUS*%
X124000000Y-50038000D03*
%TO.P,P1,B10,RX1-*%
%TO.N,unconnected-(P1-RX1--PadB10)*%
X123500000Y-50038000D03*
%TO.P,P1,B11,RX1+*%
%TO.N,unconnected-(P1-RX1+-PadB11)*%
X123000000Y-50038000D03*
%TO.P,P1,B12,GND*%
%TO.N,GND*%
X122500000Y-50038000D03*
D15*
%TO.P,P1,S1,SHIELD*%
X128670000Y-50878000D03*
%TD*%
D16*
%TO.P,D5,1,K*%
%TO.N,Net-(D5-K)*%
X114703500Y-74500000D03*
%TO.P,D5,2,A*%
%TO.N,VCC*%
X113128500Y-74500000D03*
%TD*%
D17*
%TO.P,F1,1*%
%TO.N,VBUS*%
X119634000Y-51054000D03*
%TO.P,F1,2*%
%TO.N,VCC*%
X119634000Y-52929000D03*
%TD*%
D18*
%TO.P,C4,1*%
%TO.N,GND*%
X115450000Y-55250000D03*
%TO.P,C4,2*%
%TO.N,Net-(U1-AREF)*%
X117000000Y-55250000D03*
%TD*%
D19*
%TO.P,C1,1*%
%TO.N,VBUS*%
X117729000Y-51028000D03*
%TO.P,C1,2*%
%TO.N,GND*%
X117729000Y-52578000D03*
%TD*%
D20*
%TO.P,R2,1*%
%TO.N,/DN*%
X131700000Y-51100000D03*
%TO.P,R2,2*%
%TO.N,/D-*%
X131700000Y-52750000D03*
%TD*%
D21*
%TO.P,R6,1*%
%TO.N,VCC*%
X115175000Y-65750000D03*
%TO.P,R6,2*%
%TO.N,/DATA7*%
X116825000Y-65750000D03*
%TD*%
D22*
%TO.P,SW1,1,1*%
%TO.N,Net-(U1-PD1)*%
X128322000Y-70906000D03*
X122122000Y-70906000D03*
%TO.P,SW1,2,2*%
%TO.N,GND*%
X128322000Y-74606000D03*
X122122000Y-74606000D03*
%TD*%
D23*
%TO.P,D6,1,K*%
%TO.N,Net-(D6-K)*%
X135675000Y-74500000D03*
%TO.P,D6,2,A*%
%TO.N,VCC*%
X137250000Y-74500000D03*
%TD*%
D24*
%TO.P,Y1,1,1*%
%TO.N,Net-(U1-XTAL2)*%
X134323000Y-68287000D03*
%TO.P,Y1,2,2*%
%TO.N,unconnected-(Y1-Pad2)*%
X132123000Y-68287000D03*
%TO.P,Y1,3,3*%
%TO.N,Net-(U1-XTAL1)*%
X132123000Y-66587000D03*
%TO.P,Y1,4,4*%
%TO.N,unconnected-(Y1-Pad4)*%
X134323000Y-66587000D03*
%TD*%
D25*
%TO.P,RN2,1,R1.1*%
%TO.N,/DATA0*%
X111314600Y-57372400D03*
%TO.P,RN2,2,R2.1*%
%TO.N,/DATA1*%
X111314600Y-58172400D03*
%TO.P,RN2,3,R3.1*%
%TO.N,/DATA2*%
X111314600Y-58972400D03*
%TO.P,RN2,4,R4.1*%
%TO.N,/FEED*%
X111314600Y-59772400D03*
%TO.P,RN2,5,R4.2*%
%TO.N,VCC*%
X109614600Y-59772400D03*
%TO.P,RN2,6,R3.2*%
X109614600Y-58972400D03*
%TO.P,RN2,7,R2.2*%
X109614600Y-58172400D03*
%TO.P,RN2,8,R1.2*%
X109614600Y-57372400D03*
%TD*%
D26*
%TO.P,R4,1*%
%TO.N,Net-(U1-PB0)*%
X119126000Y-74422000D03*
%TO.P,R4,2*%
%TO.N,Net-(D5-K)*%
X117476000Y-74422000D03*
%TD*%
D20*
%TO.P,R1,1*%
%TO.N,/DP*%
X133300000Y-51100000D03*
%TO.P,R1,2*%
%TO.N,/D+*%
X133300000Y-52750000D03*
%TD*%
D21*
%TO.P,R7,1*%
%TO.N,Net-(P1-CC)*%
X136600000Y-52800000D03*
%TO.P,R7,2*%
%TO.N,GND*%
X138250000Y-52800000D03*
%TD*%
D18*
%TO.P,C6,1*%
%TO.N,VBUS*%
X133200000Y-57500000D03*
%TO.P,C6,2*%
%TO.N,GND*%
X134750000Y-57500000D03*
%TD*%
D27*
%TO.P,C2,1*%
%TO.N,GND*%
X133998000Y-70231000D03*
%TO.P,C2,2*%
%TO.N,Net-(U1-XTAL1)*%
X132448000Y-70231000D03*
%TD*%
D21*
%TO.P,R5,1*%
%TO.N,Net-(U1-PD5)*%
X131318000Y-74422000D03*
%TO.P,R5,2*%
%TO.N,Net-(D6-K)*%
X132968000Y-74422000D03*
%TD*%
D28*
%TO.P,R3,1*%
%TO.N,VCC*%
X136750000Y-63575000D03*
%TO.P,R3,2*%
%TO.N,/RESET*%
X136750000Y-61925000D03*
%TD*%
D27*
%TO.P,C5,1*%
%TO.N,GND*%
X134750000Y-56000000D03*
%TO.P,C5,2*%
%TO.N,Net-(U1-UCAP)*%
X133200000Y-56000000D03*
%TD*%
D25*
%TO.P,RN3,1,R1.1*%
%TO.N,/DATA3*%
X111289200Y-65119400D03*
%TO.P,RN3,2,R2.1*%
%TO.N,/DATA4*%
X111289200Y-65919400D03*
%TO.P,RN3,3,R3.1*%
%TO.N,/DATA5*%
X111289200Y-66719400D03*
%TO.P,RN3,4,R4.1*%
%TO.N,/DATA6*%
X111289200Y-67519400D03*
%TO.P,RN3,5,R4.2*%
%TO.N,VCC*%
X109589200Y-67519400D03*
%TO.P,RN3,6,R3.2*%
X109589200Y-66719400D03*
%TO.P,RN3,7,R2.2*%
X109589200Y-65919400D03*
%TO.P,RN3,8,R1.2*%
X109589200Y-65119400D03*
%TD*%
D29*
%TO.P,C3,1*%
%TO.N,GND*%
X136525000Y-70244000D03*
%TO.P,C3,2*%
%TO.N,Net-(U1-XTAL2)*%
X136525000Y-68694000D03*
%TD*%
D21*
%TO.P,R8,1*%
%TO.N,Net-(P1-VCONN)*%
X136650000Y-51200000D03*
%TO.P,R8,2*%
%TO.N,GND*%
X138300000Y-51200000D03*
%TD*%
D30*
%TO.P,U1,1,PE6*%
%TO.N,unconnected-(U1-PE6-Pad1)*%
X126424082Y-53934264D03*
%TO.P,U1,2,UVCC*%
%TO.N,VBUS*%
X126989767Y-54499950D03*
%TO.P,U1,3,D-*%
%TO.N,/D-*%
X127555452Y-55065635D03*
%TO.P,U1,4,D+*%
%TO.N,/D+*%
X128121138Y-55631320D03*
%TO.P,U1,5,UGND*%
%TO.N,GND*%
X128686823Y-56197006D03*
%TO.P,U1,6,UCAP*%
%TO.N,Net-(U1-UCAP)*%
X129252509Y-56762691D03*
%TO.P,U1,7,VBUS*%
%TO.N,VBUS*%
X129818194Y-57328377D03*
%TO.P,U1,8,PB0*%
%TO.N,Net-(U1-PB0)*%
X130383880Y-57894062D03*
%TO.P,U1,9,PB1*%
%TO.N,/SCK*%
X130949565Y-58459748D03*
%TO.P,U1,10,PB2*%
%TO.N,/MOSI*%
X131515250Y-59025433D03*
%TO.P,U1,11,PB3*%
%TO.N,/MISO*%
X132080936Y-59591118D03*
D31*
%TO.P,U1,12,PB7*%
%TO.N,unconnected-(U1-PB7-Pad12)*%
X132080936Y-61995282D03*
%TO.P,U1,13,~{RESET}*%
%TO.N,/RESET*%
X131515250Y-62560967D03*
%TO.P,U1,14,VCC*%
%TO.N,VCC*%
X130949565Y-63126652D03*
%TO.P,U1,15,GND*%
%TO.N,GND*%
X130383880Y-63692338D03*
%TO.P,U1,16,XTAL2*%
%TO.N,Net-(U1-XTAL2)*%
X129818194Y-64258023D03*
%TO.P,U1,17,XTAL1*%
%TO.N,Net-(U1-XTAL1)*%
X129252509Y-64823709D03*
%TO.P,U1,18,PD0*%
%TO.N,unconnected-(U1-PD0-Pad18)*%
X128686823Y-65389394D03*
%TO.P,U1,19,PD1*%
%TO.N,Net-(U1-PD1)*%
X128121138Y-65955080D03*
%TO.P,U1,20,PD2*%
%TO.N,unconnected-(U1-PD2-Pad20)*%
X127555452Y-66520765D03*
%TO.P,U1,21,PD3*%
%TO.N,unconnected-(U1-PD3-Pad21)*%
X126989767Y-67086450D03*
%TO.P,U1,22,PD5*%
%TO.N,Net-(U1-PD5)*%
X126424082Y-67652136D03*
D30*
%TO.P,U1,23,GND*%
%TO.N,GND*%
X124019918Y-67652136D03*
%TO.P,U1,24,AVCC*%
%TO.N,VCC*%
X123454233Y-67086450D03*
%TO.P,U1,25,PD4*%
%TO.N,/DATA3*%
X122888548Y-66520765D03*
%TO.P,U1,26,PD6*%
%TO.N,unconnected-(U1-PD6-Pad26)*%
X122322862Y-65955080D03*
%TO.P,U1,27,PD7*%
%TO.N,/DATA4*%
X121757177Y-65389394D03*
%TO.P,U1,28,PB4*%
%TO.N,/DATA5*%
X121191491Y-64823709D03*
%TO.P,U1,29,PB5*%
%TO.N,/DATA6*%
X120625806Y-64258023D03*
%TO.P,U1,30,PB6*%
%TO.N,/DATA7*%
X120060120Y-63692338D03*
%TO.P,U1,31,PC6*%
%TO.N,unconnected-(U1-PC6-Pad31)*%
X119494435Y-63126652D03*
%TO.P,U1,32,PC7*%
%TO.N,unconnected-(U1-PC7-Pad32)*%
X118928750Y-62560967D03*
%TO.P,U1,33,~{HWB}/PE2*%
%TO.N,GND*%
X118363064Y-61995282D03*
D31*
%TO.P,U1,34,VCC*%
%TO.N,VCC*%
X118363064Y-59591118D03*
%TO.P,U1,35,GND*%
%TO.N,GND*%
X118928750Y-59025433D03*
%TO.P,U1,36,PF7*%
%TO.N,/FEED*%
X119494435Y-58459748D03*
%TO.P,U1,37,PF6*%
%TO.N,/DATA2*%
X120060120Y-57894062D03*
%TO.P,U1,38,PF5*%
%TO.N,/DATA1*%
X120625806Y-57328377D03*
%TO.P,U1,39,PF4*%
%TO.N,/DATA0*%
X121191491Y-56762691D03*
%TO.P,U1,40,PF1*%
%TO.N,unconnected-(U1-PF1-Pad40)*%
X121757177Y-56197006D03*
%TO.P,U1,41,PF0*%
%TO.N,unconnected-(U1-PF0-Pad41)*%
X122322862Y-55631320D03*
%TO.P,U1,42,AREF*%
%TO.N,Net-(U1-AREF)*%
X122888548Y-55065635D03*
%TO.P,U1,43,GND*%
%TO.N,GND*%
X123454233Y-54499950D03*
%TO.P,U1,44,AVCC*%
%TO.N,VCC*%
X124019918Y-53934264D03*
D32*
%TO.P,U1,45,GND*%
%TO.N,GND*%
X125222000Y-60793200D03*
%TD*%
D33*
%TO.N,GND*%
X125984000Y-56896000D03*
X120396000Y-61976000D03*
%TO.N,/DATA7*%
X121793000Y-63275300D03*
%TO.N,GND*%
X111506000Y-61468000D03*
X111506000Y-63754000D03*
X106680000Y-55880000D03*
X114300000Y-54610000D03*
X114300000Y-52070000D03*
X138430000Y-55880000D03*
X143510000Y-55880000D03*
X140970000Y-52070000D03*
X140970000Y-69850000D03*
X143510000Y-69850000D03*
X140970000Y-72390000D03*
X135890000Y-72390000D03*
X118110000Y-71120000D03*
X115570000Y-71120000D03*
X113030000Y-71120000D03*
X106680000Y-71120000D03*
X106680000Y-68580000D03*
X106680000Y-66040000D03*
X106680000Y-63500000D03*
X137384800Y-69502600D03*
X118178900Y-53728300D03*
X116072300Y-64585300D03*
X137668000Y-51054000D03*
X125222000Y-60793200D03*
X117791200Y-58224300D03*
X122682000Y-51054000D03*
X127762000Y-51054000D03*
%TO.N,VBUS*%
X126873000Y-51054000D03*
X123482000Y-51054000D03*
X130655100Y-56385800D03*
%TO.N,VCC*%
X109601000Y-55245000D03*
X112217000Y-74574400D03*
%TO.N,Net-(P1-VCONN)*%
X126110000Y-51308000D03*
X135509000Y-51181000D03*
%TO.N,Net-(P1-CC)*%
X135509000Y-52705000D03*
%TO.N,/DP*%
X129667000Y-52324000D03*
%TO.N,/DN*%
X128229000Y-52274000D03*
%TO.N,/MOSI*%
X135119600Y-59557200D03*
%TO.N,Net-(U1-PB0)*%
X119180600Y-72127200D03*
X129821500Y-59122800D03*
%TO.N,/SCK*%
X131963900Y-57695000D03*
%TO.N,/MISO*%
X135397500Y-61379300D03*
%TO.N,/RESET*%
X133034700Y-61672200D03*
X130719600Y-61569600D03*
X139039000Y-64712000D03*
%TO.N,/DATA0*%
X112374700Y-57546100D03*
%TO.N,/DATA1*%
X113954900Y-58930400D03*
%TO.N,/DATA2*%
X114987200Y-59336300D03*
%TO.N,/FEED*%
X116267500Y-60540800D03*
%TO.N,/DATA3*%
X118251900Y-67474700D03*
X120073000Y-67474700D03*
%TO.N,/DATA4*%
X121415400Y-67108300D03*
%TO.N,/DATA5*%
X118996300Y-65900800D03*
%TO.N,/DATA6*%
X113156200Y-68584100D03*
X116709700Y-67319500D03*
%TD*%
D34*
%TO.N,GND*%
X137384800Y-66264800D02*
X137384800Y-69502600D01*
X135763000Y-64643000D02*
X137384800Y-66264800D01*
X131334542Y-64643000D02*
X135763000Y-64643000D01*
X130383880Y-63692338D02*
X131334542Y-64643000D01*
%TO.N,/DATA7*%
X117984800Y-64590200D02*
X116825000Y-65750000D01*
X119162258Y-64590200D02*
X117984800Y-64590200D01*
X120060120Y-63692338D02*
X119162258Y-64590200D01*
X121740939Y-63223239D02*
X120529219Y-63223239D01*
X120529219Y-63223239D02*
X120060120Y-63692338D01*
X121793000Y-63275300D02*
X121740939Y-63223239D01*
D35*
%TO.N,VCC*%
X120321200Y-60250200D02*
X119022100Y-60250200D01*
X124587000Y-64516000D02*
X120321200Y-60250200D01*
X124587000Y-65953400D02*
X124587000Y-64516000D01*
X123454100Y-67086300D02*
X124587000Y-65953400D01*
D34*
%TO.N,Net-(U1-PD5)*%
X129762100Y-71454200D02*
X129554900Y-71247000D01*
X129762100Y-72136000D02*
X129762100Y-71454200D01*
X129554900Y-70190100D02*
X129554900Y-71247000D01*
X131318000Y-73691900D02*
X129762100Y-72136000D01*
X131318000Y-74422000D02*
X131318000Y-73691900D01*
%TO.N,Net-(U1-AREF)*%
X121202800Y-55250000D02*
X122137900Y-54314900D01*
X117000000Y-55250000D02*
X121202800Y-55250000D01*
%TO.N,/DATA0*%
X112374700Y-57546100D02*
X115804860Y-57546100D01*
X116583980Y-56766980D02*
X117315960Y-56035000D01*
X115804860Y-57546100D02*
X116583980Y-56766980D01*
X121145391Y-56762691D02*
X121191491Y-56762691D01*
X120417700Y-56035000D02*
X121145391Y-56762691D01*
X117315960Y-56035000D02*
X120417700Y-56035000D01*
X112374700Y-57372400D02*
X112384300Y-57372400D01*
%TO.N,/DATA1*%
X117306030Y-56638900D02*
X119936329Y-56638900D01*
X119936329Y-56638900D02*
X120625806Y-57328377D01*
X115772530Y-58172400D02*
X117306030Y-56638900D01*
X113954900Y-58172400D02*
X115772530Y-58172400D01*
%TO.N,/DATA2*%
X115202600Y-59336300D02*
X117348000Y-57190900D01*
X114987200Y-59336300D02*
X115202600Y-59336300D01*
X117348000Y-57190900D02*
X119261800Y-57190900D01*
%TO.N,/FEED*%
X118845893Y-57811107D02*
X119494400Y-58459700D01*
X115566600Y-59583900D02*
X117537900Y-57612600D01*
X117537900Y-57612600D02*
X118647386Y-57612600D01*
X115566600Y-59772400D02*
X115566600Y-59583900D01*
X118647386Y-57612600D02*
X118845893Y-57811107D01*
X115532900Y-59806100D02*
X115566600Y-59772400D01*
%TO.N,/DATA2*%
X119964962Y-57894062D02*
X119261800Y-57190900D01*
X120060120Y-57894062D02*
X119964962Y-57894062D01*
%TO.N,Net-(U1-XTAL2)*%
X135333000Y-65677000D02*
X134998500Y-65342500D01*
X135333000Y-67497000D02*
X135333000Y-65677000D01*
X134543000Y-68287000D02*
X135333000Y-67497000D01*
X134323000Y-68287000D02*
X134543000Y-68287000D01*
X134998500Y-65342500D02*
X130902700Y-65342500D01*
%TO.N,Net-(U1-XTAL1)*%
X131015800Y-66587000D02*
X129252500Y-64823700D01*
X132123000Y-66587000D02*
X131015800Y-66587000D01*
%TO.N,Net-(U1-PD1)*%
X124877000Y-70906000D02*
X128322000Y-70906000D01*
%TO.N,GND*%
X128322000Y-74606000D02*
X122122000Y-74606000D01*
X122712300Y-68402900D02*
X123269100Y-68402900D01*
X120910300Y-74606000D02*
X120910300Y-70204900D01*
X137266400Y-69502600D02*
X137384800Y-69502600D01*
X128670000Y-50878000D02*
X127938000Y-50878000D01*
X127033400Y-58196700D02*
X127033400Y-58981800D01*
X136525000Y-70244000D02*
X137266400Y-69502600D01*
X138154000Y-51054000D02*
X138300000Y-51200000D01*
X127402200Y-57481600D02*
X127402200Y-57827900D01*
X118199700Y-53749100D02*
X118178900Y-53728300D01*
X122703400Y-53749100D02*
X118199700Y-53749100D01*
X117612400Y-62746000D02*
X117519500Y-62653200D01*
X134750000Y-55194000D02*
X134750000Y-56000000D01*
X117841500Y-58274600D02*
X117791200Y-58224300D01*
X117431100Y-53268900D02*
X115450000Y-55250000D01*
X130137200Y-75209500D02*
X131730400Y-75209500D01*
X134750000Y-55194000D02*
X129689800Y-55194000D01*
X131730400Y-75209500D02*
X132134700Y-74805200D01*
X117719500Y-53268900D02*
X118178900Y-53728300D01*
X134750000Y-56000000D02*
X134750000Y-57500000D01*
X122500000Y-50872000D02*
X122682000Y-51054000D01*
X123454200Y-54499900D02*
X122703400Y-53749100D01*
X127936100Y-56947700D02*
X127402200Y-57481600D01*
X129533700Y-74606000D02*
X130137200Y-75209500D01*
X128686800Y-56197000D02*
X127936100Y-56947700D01*
X137668000Y-51054000D02*
X138154000Y-51054000D01*
X118177900Y-58274600D02*
X117841500Y-58274600D01*
X128322000Y-74606000D02*
X129533700Y-74606000D01*
X132134700Y-74805200D02*
X132134700Y-73522100D01*
X138300000Y-52750000D02*
X138300000Y-51200000D01*
X135856000Y-55194000D02*
X134750000Y-55194000D01*
X116963000Y-62653200D02*
X116072300Y-63543900D01*
X129689800Y-55194000D02*
X128686800Y-56197000D01*
X117729000Y-52989500D02*
X117729000Y-52578000D01*
X117519500Y-62653200D02*
X116963000Y-62653200D01*
X117719500Y-53268900D02*
X117431100Y-53268900D01*
X122500000Y-50038000D02*
X122500000Y-50872000D01*
X120910300Y-70204900D02*
X122712300Y-68402900D01*
X132134700Y-73522100D02*
X134011000Y-71645800D01*
X127938000Y-50878000D02*
X127762000Y-51054000D01*
X122122000Y-74606000D02*
X120910300Y-74606000D01*
X127938000Y-50878000D02*
X127762000Y-51054000D01*
X125222000Y-60793200D02*
X127033400Y-58981800D01*
X116072300Y-63543900D02*
X116072300Y-64585300D01*
X128000000Y-50038000D02*
X128000000Y-50816000D01*
X128000000Y-50816000D02*
X127938000Y-50878000D01*
X117710000Y-52989500D02*
X117719500Y-52989500D01*
X117719500Y-52989500D02*
X117719500Y-53268900D01*
X138250000Y-52800000D02*
X138300000Y-52750000D01*
X134011000Y-70244000D02*
X136525000Y-70244000D01*
X117719500Y-52989500D02*
X117729000Y-52989500D01*
X127402200Y-57827900D02*
X127033400Y-58196700D01*
X118363100Y-61995300D02*
X117612400Y-62746000D01*
X124019900Y-67652100D02*
X123269100Y-68402900D01*
X134011000Y-71645800D02*
X134011000Y-70244000D01*
X138250000Y-52800000D02*
X135856000Y-55194000D01*
X118928700Y-59025400D02*
X118177900Y-58274600D01*
X134011000Y-70244000D02*
X133998000Y-70231000D01*
%TO.N,VBUS*%
X123556000Y-51292500D02*
X123365000Y-51483000D01*
X132277700Y-56577700D02*
X130655100Y-56577700D01*
X126990000Y-54499900D02*
X126990000Y-54500000D01*
X117755000Y-51054000D02*
X117729000Y-51028000D01*
X130655100Y-56577700D02*
X130569000Y-56577700D01*
X124000000Y-51133000D02*
X124000000Y-50848000D01*
X123279000Y-51854000D02*
X124000000Y-51133000D01*
D36*
X126873000Y-51140800D02*
X127490000Y-51757300D01*
D34*
X127264500Y-54225400D02*
X127264300Y-54225400D01*
X123667000Y-51181000D02*
X123556000Y-51292500D01*
X123482000Y-51366000D02*
X123365000Y-51483000D01*
X124835000Y-51967900D02*
X124000000Y-51133000D01*
X127279000Y-51967900D02*
X124835000Y-51967900D01*
X127490000Y-51757300D02*
X127490000Y-51757400D01*
X124000000Y-50038000D02*
X124000000Y-50848000D01*
X133200000Y-57500000D02*
X132277700Y-56577700D01*
D36*
X126873000Y-51054000D02*
X126873000Y-51140800D01*
D34*
X130569000Y-56577700D02*
X130569000Y-56577600D01*
X119634000Y-51054000D02*
X117755000Y-51054000D01*
X127490000Y-51757400D02*
X127279000Y-51967900D01*
D35*
X120929000Y-51054000D02*
X121539000Y-51664000D01*
X119634000Y-51054000D02*
X120929000Y-51054000D01*
D34*
X126500000Y-50681000D02*
X126873000Y-51054000D01*
D36*
X127539000Y-53950900D02*
X127264500Y-54225400D01*
D34*
X129818200Y-57328400D02*
X130569000Y-56577600D01*
D36*
X126990000Y-54499900D02*
X126990000Y-54500000D01*
D34*
X123365000Y-51483000D02*
X123184000Y-51664000D01*
X130655100Y-56577700D02*
X130655100Y-56385800D01*
X126500000Y-50038000D02*
X126500000Y-50681000D01*
D35*
X121729000Y-51854000D02*
X123279000Y-51854000D01*
D34*
X123482000Y-51054000D02*
X123482000Y-51366000D01*
X127264300Y-54225400D02*
X126989800Y-54499900D01*
X123184000Y-51664000D02*
X121539000Y-51664000D01*
D36*
X127539000Y-51806700D02*
X127539000Y-53950900D01*
D35*
X121539000Y-51664000D02*
X121729000Y-51854000D01*
D34*
X124000000Y-50848000D02*
X123556000Y-51292500D01*
D36*
X127490000Y-51757300D02*
X127539000Y-51806700D01*
X127264500Y-54225400D02*
X126990000Y-54499900D01*
D34*
%TO.N,Net-(U1-XTAL1)*%
X133133000Y-69071000D02*
X133133000Y-67497000D01*
X133133000Y-67497000D02*
X132223000Y-66587000D01*
X132223000Y-66587000D02*
X132123000Y-66587000D01*
X132448000Y-70231000D02*
X132448000Y-69756000D01*
X132448000Y-69756000D02*
X133133000Y-69071000D01*
%TO.N,Net-(U1-XTAL2)*%
X134828900Y-68287000D02*
X136118000Y-68287000D01*
X136118000Y-68287000D02*
X136525000Y-68694000D01*
X134323000Y-68287000D02*
X134828900Y-68287000D01*
X129818200Y-64258000D02*
X130902700Y-65342500D01*
%TO.N,Net-(U1-AREF)*%
X122888500Y-55065600D02*
X122137900Y-54314900D01*
%TO.N,VCC*%
X109589200Y-67519400D02*
X109589000Y-67519400D01*
X109589200Y-64604400D02*
X109589200Y-65119400D01*
D35*
X132209700Y-63785800D02*
X136539000Y-63785800D01*
D34*
X124019900Y-53934300D02*
X124020000Y-53934300D01*
D35*
X115175000Y-62779200D02*
X109738000Y-62779200D01*
X119022100Y-60250200D02*
X119963000Y-60250200D01*
D34*
X109614600Y-59772400D02*
X109615000Y-59772400D01*
D35*
X118363000Y-59591100D02*
X119022000Y-60250200D01*
X130290000Y-62467600D02*
X130949800Y-63126500D01*
X109589000Y-57397800D02*
X109614800Y-57372600D01*
X130950000Y-63126700D02*
X131609000Y-63785800D01*
X112217000Y-74574400D02*
X113054000Y-74574400D01*
D34*
X109589200Y-66280600D02*
X109589200Y-65919400D01*
X109614600Y-58984500D02*
X109614600Y-58972400D01*
D35*
X130949800Y-63126500D02*
X130950000Y-63126700D01*
X109615000Y-57372400D02*
X109615000Y-58178600D01*
X109615000Y-58984900D02*
X109615000Y-59772400D01*
X128073000Y-62467600D02*
X130290000Y-62467600D01*
X123454100Y-67086300D02*
X123454000Y-67086400D01*
X118363000Y-59591100D02*
X119022100Y-60250200D01*
X109589000Y-66280800D02*
X109589000Y-64604200D01*
D34*
X109614600Y-58178200D02*
X109614600Y-58172400D01*
D35*
X109738000Y-62779200D02*
X109615000Y-62901700D01*
X115175000Y-62779200D02*
X118363000Y-59591100D01*
D34*
X123454200Y-67086500D02*
X123454100Y-67086400D01*
D35*
X123454000Y-67086400D02*
X128073000Y-62467600D01*
X124679000Y-55534000D02*
X124679000Y-54593400D01*
D34*
X109589200Y-66899900D02*
X109589200Y-66719400D01*
X123454100Y-67086400D02*
X123454100Y-67086300D01*
D35*
X113128000Y-73910900D02*
X109589000Y-70371600D01*
X124679000Y-54593400D02*
X124020000Y-53934300D01*
X119022000Y-60250200D02*
X119022100Y-60250200D01*
X109589000Y-70371600D02*
X109589000Y-67519400D01*
X119963000Y-60250200D02*
X124679000Y-55534000D01*
D34*
X109589000Y-64604200D02*
X109589200Y-64604400D01*
D35*
X109615000Y-59772400D02*
X109615000Y-62901700D01*
X109615000Y-58178600D02*
X109615000Y-58984900D01*
X124020000Y-53934300D02*
X123015000Y-52929000D01*
X109615000Y-55258600D02*
X109601000Y-55245000D01*
X136539000Y-63785800D02*
X136750000Y-63575000D01*
D34*
X109589000Y-66900100D02*
X109589200Y-66899900D01*
D35*
X115175000Y-65750000D02*
X115175000Y-62779200D01*
X109615000Y-62901700D02*
X109615000Y-62902200D01*
D34*
X109615000Y-58984900D02*
X109614600Y-58984500D01*
D35*
X109589000Y-67519400D02*
X109589000Y-66900100D01*
D34*
X109615000Y-58178600D02*
X109614600Y-58178200D01*
D35*
X138862000Y-65686800D02*
X138862000Y-72888200D01*
X109589000Y-66900100D02*
X109589000Y-66280800D01*
X113054000Y-74574400D02*
X113128000Y-74500000D01*
X109615000Y-62902200D02*
X109589000Y-62927600D01*
X113128000Y-74500000D02*
X113128000Y-73910900D01*
X138862000Y-72888200D02*
X137250000Y-74500000D01*
X136750000Y-63575000D02*
X138862000Y-65686800D01*
X109615000Y-57372400D02*
X109615000Y-55258600D01*
D34*
X130949600Y-63126700D02*
X130949800Y-63126500D01*
D35*
X109589000Y-64604200D02*
X109589000Y-62927600D01*
D34*
X118363100Y-59591100D02*
X118363000Y-59591100D01*
D35*
X109614800Y-57372600D02*
X109615000Y-57372400D01*
X131609000Y-63785800D02*
X132209700Y-63785800D01*
D34*
X113128500Y-74500000D02*
X113128000Y-74500000D01*
D35*
X109615000Y-62901700D02*
X109589000Y-62927600D01*
X123015000Y-52929000D02*
X119634000Y-52929000D01*
D34*
X109614600Y-57372400D02*
X109614800Y-57372600D01*
X109589000Y-66280800D02*
X109589200Y-66280600D01*
%TO.N,Net-(P1-VCONN)*%
X126000000Y-51198000D02*
X126000000Y-50038000D01*
X135528000Y-51200000D02*
X135509000Y-51181000D01*
X126110000Y-51308000D02*
X126000000Y-51198000D01*
X136650000Y-51200000D02*
X135528000Y-51200000D01*
%TO.N,Net-(P1-CC)*%
X135604000Y-52800000D02*
X135509000Y-52705000D01*
X136600000Y-52800000D02*
X135604000Y-52800000D01*
%TO.N,Net-(U1-UCAP)*%
X130241100Y-55774100D02*
X129252500Y-56762700D01*
X133200000Y-56000000D02*
X132974100Y-55774100D01*
X132974100Y-55774100D02*
X130241100Y-55774100D01*
%TO.N,Net-(D5-K)*%
X117476000Y-74422000D02*
X114781500Y-74422000D01*
X114781500Y-74422000D02*
X114703500Y-74500000D01*
%TO.N,Net-(D6-K)*%
X135675000Y-74500000D02*
X133046000Y-74500000D01*
X133046000Y-74500000D02*
X132968000Y-74422000D01*
%TO.N,/DP*%
X133300000Y-51100000D02*
X132590000Y-51810000D01*
X130181000Y-51810000D02*
X129667000Y-52324000D01*
X132590000Y-51810000D02*
X130181000Y-51810000D01*
D37*
%TO.N,/DN*%
X128799000Y-52274000D02*
X128229000Y-52274000D01*
X129973000Y-51100000D02*
X128799000Y-52274000D01*
X131700000Y-51100000D02*
X129973000Y-51100000D01*
D34*
X131659000Y-51141000D02*
X131700000Y-51100000D01*
D37*
%TO.N,/D+*%
X132431000Y-53619400D02*
X130133000Y-53619400D01*
X128121100Y-55631300D02*
X128121000Y-55631300D01*
X133300000Y-52750000D02*
X132431000Y-53619400D01*
X130133000Y-53619400D02*
X128121100Y-55631300D01*
D34*
%TO.N,/D-*%
X128306100Y-54314700D02*
X128306100Y-54314900D01*
D37*
X129697000Y-52924000D02*
X128626000Y-53994800D01*
D34*
X128626000Y-53994800D02*
X128306100Y-54314700D01*
D37*
X131526000Y-52924000D02*
X129697000Y-52924000D01*
D34*
X127555500Y-55065600D02*
X128306200Y-54314900D01*
D37*
X131700000Y-52750000D02*
X131526000Y-52924000D01*
X128626000Y-53994800D02*
X127555000Y-55065600D01*
D34*
X128306100Y-54314900D02*
X128306200Y-54314900D01*
%TO.N,/MOSI*%
X132266100Y-58274600D02*
X132351100Y-58359600D01*
X131515300Y-59025400D02*
X132266100Y-58274600D01*
X132351100Y-58359600D02*
X133922000Y-58359600D01*
X133922000Y-58359600D02*
X135119600Y-59557200D01*
%TO.N,Net-(U1-PB0)*%
X129633200Y-58644800D02*
X129821500Y-58833200D01*
X119126000Y-74422000D02*
X119180600Y-74367400D01*
X130383900Y-57894100D02*
X129633200Y-58644800D01*
X129821500Y-58833200D02*
X129821500Y-59122800D01*
X119180600Y-74367400D02*
X119180600Y-72127200D01*
%TO.N,Net-(U1-PD5)*%
X127767600Y-68402800D02*
X129554900Y-70190100D01*
X126424100Y-67652100D02*
X127174900Y-68402800D01*
X127174900Y-68402800D02*
X127767600Y-68402800D01*
%TO.N,Net-(U1-PD1)*%
X124877000Y-70906000D02*
X124877000Y-67648600D01*
X124877000Y-67648600D02*
X127321200Y-65204400D01*
X128121100Y-65955100D02*
X127370400Y-65204400D01*
X124877000Y-70906000D02*
X123333700Y-70906000D01*
X127321200Y-65204400D02*
X127370400Y-65204400D01*
X122122000Y-70906000D02*
X123333700Y-70906000D01*
%TO.N,/SCK*%
X130949600Y-58459700D02*
X131714300Y-57695000D01*
X131714300Y-57695000D02*
X131963900Y-57695000D01*
%TO.N,/MISO*%
X132080900Y-59591100D02*
X132831700Y-58840300D01*
X133582400Y-59591100D02*
X133609300Y-59591100D01*
X133609300Y-59591100D02*
X135397500Y-61379300D01*
X132831700Y-58840300D02*
X133582400Y-59591100D01*
%TO.N,/RESET*%
X133353500Y-61991000D02*
X136684000Y-61991000D01*
X133034700Y-61672200D02*
X133353500Y-61991000D01*
X136750000Y-61925000D02*
X139039000Y-64214000D01*
X131515300Y-62561000D02*
X130719600Y-61765300D01*
X139039000Y-64214000D02*
X139039000Y-64712000D01*
X136684000Y-61991000D02*
X136750000Y-61925000D01*
X130719600Y-61765300D02*
X130719600Y-61569600D01*
%TO.N,/DATA0*%
X112076300Y-57372400D02*
X112374700Y-57372400D01*
X111314600Y-57372400D02*
X112076300Y-57372400D01*
X112374700Y-57372400D02*
X112374700Y-57546100D01*
%TO.N,/DATA1*%
X111314600Y-58172400D02*
X113954900Y-58172400D01*
X113954900Y-58172400D02*
X113954900Y-58930400D01*
%TO.N,/DATA2*%
X111314600Y-58972400D02*
X112076300Y-58972400D01*
X114779500Y-59544000D02*
X114987200Y-59336300D01*
X112647900Y-59544000D02*
X114779500Y-59544000D01*
X112076300Y-58972400D02*
X112647900Y-59544000D01*
%TO.N,/FEED*%
X115341600Y-59997400D02*
X115532900Y-59806100D01*
X112076300Y-59772400D02*
X112301300Y-59997400D01*
X111314600Y-59772400D02*
X112076300Y-59772400D01*
X112301300Y-59997400D02*
X115341600Y-59997400D01*
X115532900Y-59806100D02*
X116267500Y-60540800D01*
%TO.N,/DATA3*%
X111289200Y-65119400D02*
X112563400Y-65119400D01*
X115830300Y-68386300D02*
X117340300Y-68386300D01*
X120333600Y-67735300D02*
X121674000Y-67735300D01*
X122888500Y-66520800D02*
X122137900Y-67271400D01*
X120073000Y-67474700D02*
X120333600Y-67735300D01*
X117340300Y-68386300D02*
X118251900Y-67474700D01*
X112563400Y-65119400D02*
X115830300Y-68386300D01*
X121674000Y-67735300D02*
X122137900Y-67271400D01*
%TO.N,/DATA4*%
X117783000Y-68838700D02*
X119789100Y-66832600D01*
X121006400Y-66832600D02*
X121006400Y-66140200D01*
X121757200Y-65389400D02*
X121006500Y-66140100D01*
X121139700Y-66832600D02*
X121415400Y-67108300D01*
X121006400Y-66140200D02*
X121006500Y-66140100D01*
X112050900Y-65919400D02*
X114970200Y-68838700D01*
X111289200Y-65919400D02*
X112050900Y-65919400D01*
X121006400Y-66832600D02*
X121139700Y-66832600D01*
X114970200Y-68838700D02*
X117783000Y-68838700D01*
X119789100Y-66832600D02*
X121006400Y-66832600D01*
%TO.N,/DATA5*%
X118996300Y-65900800D02*
X118877300Y-65900800D01*
X111289200Y-66719400D02*
X110527500Y-66719400D01*
X116153800Y-67935500D02*
X112735900Y-64517600D01*
X110527500Y-64707800D02*
X110527500Y-66719400D01*
X120440800Y-65574400D02*
X120114400Y-65900800D01*
X121191500Y-64823700D02*
X120440800Y-65574400D01*
X120114400Y-65900800D02*
X118996300Y-65900800D01*
X112735900Y-64517600D02*
X110717700Y-64517600D01*
X117425500Y-67469500D02*
X116959500Y-67935500D01*
X117425500Y-67352600D02*
X117425500Y-67469500D01*
X116959500Y-67935500D02*
X116153800Y-67935500D01*
X110717700Y-64517600D02*
X110527500Y-64707800D01*
X118877300Y-65900800D02*
X117425500Y-67352600D01*
%TO.N,/DATA6*%
X111289200Y-67519400D02*
X112091500Y-67519400D01*
X119338600Y-65010200D02*
X119340100Y-65008700D01*
X120625800Y-64258000D02*
X119875100Y-65008700D01*
X119875000Y-65008700D02*
X119875100Y-65008700D01*
X118750500Y-65278700D02*
X118770700Y-65278700D01*
X119340100Y-65008700D02*
X119875000Y-65008700D01*
X119039200Y-65010200D02*
X119338600Y-65010200D01*
X112091500Y-67519400D02*
X113156200Y-68584100D01*
X118770700Y-65278700D02*
X119039200Y-65010200D01*
X116709700Y-67319500D02*
X118750500Y-65278700D01*
%TO.N,/DATA7*%
X120060100Y-63692300D02*
X119309300Y-64443100D01*
X116825000Y-65750000D02*
X117986500Y-64588500D01*
%TD*%
%TA.AperFunction,Conductor*%
%TO.N,GND*%
G36*
X116730807Y-50458185D02*
G01*
X116776562Y-50510989D01*
X116786506Y-50580147D01*
X116781474Y-50601503D01*
X116763651Y-50655288D01*
X116753500Y-50754647D01*
X116753500Y-51301337D01*
X116753501Y-51301355D01*
X116763650Y-51400707D01*
X116763651Y-51400710D01*
X116816996Y-51561694D01*
X116817001Y-51561705D01*
X116906029Y-51706040D01*
X116906032Y-51706044D01*
X116915660Y-51715672D01*
X116949145Y-51776995D01*
X116944161Y-51846687D01*
X116915663Y-51891031D01*
X116906428Y-51900265D01*
X116906424Y-51900271D01*
X116817457Y-52044507D01*
X116817452Y-52044518D01*
X116764144Y-52205393D01*
X116754000Y-52304677D01*
X116754000Y-52328000D01*
X117855000Y-52328000D01*
X117922039Y-52347685D01*
X117967794Y-52400489D01*
X117979000Y-52452000D01*
X117979000Y-53527999D01*
X118027308Y-53527999D01*
X118027322Y-53527998D01*
X118126607Y-53517855D01*
X118287481Y-53464547D01*
X118287483Y-53464546D01*
X118323867Y-53442104D01*
X118391259Y-53423663D01*
X118457923Y-53444584D01*
X118492397Y-53484788D01*
X118494846Y-53483278D01*
X118589971Y-53637499D01*
X118589974Y-53637503D01*
X118712996Y-53760525D01*
X118713000Y-53760528D01*
X118861066Y-53851857D01*
X118861069Y-53851858D01*
X118861075Y-53851862D01*
X119026225Y-53906587D01*
X119128152Y-53917000D01*
X119128157Y-53917000D01*
X120139843Y-53917000D01*
X120139848Y-53917000D01*
X120241775Y-53906587D01*
X120406925Y-53851862D01*
X120555003Y-53760526D01*
X120555007Y-53760521D01*
X120560432Y-53756233D01*
X120625227Y-53730093D01*
X120637342Y-53729500D01*
X121560560Y-53729500D01*
X121627599Y-53749185D01*
X121673354Y-53801989D01*
X121683298Y-53871147D01*
X121654273Y-53934703D01*
X121648240Y-53941181D01*
X121314422Y-54275001D01*
X120986242Y-54603181D01*
X120924919Y-54636666D01*
X120898561Y-54639500D01*
X117924256Y-54639500D01*
X117857217Y-54619815D01*
X117818717Y-54580596D01*
X117815116Y-54574758D01*
X117797968Y-54546956D01*
X117678044Y-54427032D01*
X117678040Y-54427029D01*
X117533705Y-54338001D01*
X117533699Y-54337998D01*
X117533697Y-54337997D01*
X117533694Y-54337996D01*
X117372709Y-54284651D01*
X117273346Y-54274500D01*
X116726662Y-54274500D01*
X116726644Y-54274501D01*
X116627292Y-54284650D01*
X116627289Y-54284651D01*
X116466305Y-54337996D01*
X116466294Y-54338001D01*
X116321959Y-54427029D01*
X116321953Y-54427033D01*
X116312324Y-54436663D01*
X116251000Y-54470146D01*
X116181308Y-54465159D01*
X116136965Y-54436660D01*
X116127732Y-54427427D01*
X116127728Y-54427424D01*
X115983492Y-54338457D01*
X115983481Y-54338452D01*
X115822606Y-54285144D01*
X115723322Y-54275000D01*
X115700000Y-54275000D01*
X115700000Y-56224999D01*
X115723308Y-56224999D01*
X115723322Y-56224998D01*
X115822607Y-56214855D01*
X115983483Y-56161546D01*
X115987984Y-56159448D01*
X116057062Y-56148955D01*
X116120846Y-56177473D01*
X116159087Y-56235949D01*
X116159642Y-56305817D01*
X116128072Y-56359510D01*
X115588302Y-56899281D01*
X115526979Y-56932766D01*
X115500621Y-56935600D01*
X112943427Y-56935600D01*
X112877455Y-56916594D01*
X112724223Y-56820311D01*
X112553954Y-56760731D01*
X112553949Y-56760730D01*
X112374704Y-56740535D01*
X112374696Y-56740535D01*
X112191995Y-56761120D01*
X112178112Y-56761900D01*
X112092681Y-56761900D01*
X112025642Y-56742215D01*
X112018371Y-56737167D01*
X112006935Y-56728606D01*
X112006928Y-56728602D01*
X111872082Y-56678308D01*
X111872083Y-56678308D01*
X111812483Y-56671901D01*
X111812481Y-56671900D01*
X111812473Y-56671900D01*
X111812464Y-56671900D01*
X110816729Y-56671900D01*
X110816723Y-56671901D01*
X110757116Y-56678308D01*
X110622271Y-56728602D01*
X110622266Y-56728605D01*
X110613808Y-56734937D01*
X110548343Y-56759352D01*
X110480071Y-56744499D01*
X110430666Y-56695092D01*
X110415500Y-56635668D01*
X110415500Y-55548322D01*
X114500001Y-55548322D01*
X114510144Y-55647607D01*
X114563452Y-55808481D01*
X114563457Y-55808492D01*
X114652424Y-55952728D01*
X114652427Y-55952732D01*
X114772267Y-56072572D01*
X114772271Y-56072575D01*
X114916507Y-56161542D01*
X114916518Y-56161547D01*
X115077393Y-56214855D01*
X115176683Y-56224999D01*
X115200000Y-56224998D01*
X115200000Y-55500000D01*
X114500001Y-55500000D01*
X114500001Y-55548322D01*
X110415500Y-55548322D01*
X110415500Y-55342895D01*
X110416498Y-55331946D01*
X110416049Y-55331909D01*
X110416557Y-55325840D01*
X110416556Y-55325839D01*
X110416558Y-55325834D01*
X110415513Y-55253726D01*
X110415500Y-55251930D01*
X110415500Y-55179758D01*
X110414927Y-55173959D01*
X110414272Y-55168161D01*
X110399169Y-55097594D01*
X110398825Y-55095934D01*
X110384737Y-55025103D01*
X110384734Y-55025097D01*
X110383025Y-55019463D01*
X110381274Y-55013979D01*
X110381273Y-55013973D01*
X110354404Y-54951677D01*
X114500000Y-54951677D01*
X114500000Y-55000000D01*
X115200000Y-55000000D01*
X115200000Y-54274999D01*
X115176693Y-54275000D01*
X115176674Y-54275001D01*
X115077392Y-54285144D01*
X114916518Y-54338452D01*
X114916507Y-54338457D01*
X114772271Y-54427424D01*
X114772267Y-54427427D01*
X114652427Y-54547267D01*
X114652424Y-54547271D01*
X114563457Y-54691507D01*
X114563452Y-54691518D01*
X114510144Y-54852393D01*
X114500000Y-54951677D01*
X110354404Y-54951677D01*
X110352698Y-54947721D01*
X110352014Y-54946101D01*
X110324395Y-54879422D01*
X110321674Y-54874332D01*
X110318825Y-54869183D01*
X110307251Y-54852393D01*
X110277849Y-54809741D01*
X110276928Y-54808384D01*
X110236789Y-54748311D01*
X110236787Y-54748308D01*
X110233129Y-54743851D01*
X110229331Y-54739357D01*
X110229329Y-54739354D01*
X110177569Y-54689073D01*
X110176289Y-54687811D01*
X110123028Y-54634549D01*
X110118747Y-54630669D01*
X110103260Y-54615182D01*
X110103255Y-54615178D01*
X110032173Y-54570514D01*
X110030757Y-54569612D01*
X109996249Y-54547271D01*
X109969859Y-54530186D01*
X109969858Y-54530185D01*
X109969851Y-54530181D01*
X109964442Y-54527390D01*
X109964663Y-54526960D01*
X109955158Y-54522123D01*
X109950524Y-54519211D01*
X109909663Y-54504913D01*
X109883532Y-54495769D01*
X109878718Y-54493972D01*
X109823318Y-54471960D01*
X109816257Y-54470661D01*
X109797742Y-54465750D01*
X109780259Y-54459633D01*
X109780248Y-54459630D01*
X109722637Y-54453140D01*
X109714096Y-54451875D01*
X109706365Y-54450453D01*
X109668233Y-54443441D01*
X109648035Y-54443734D01*
X109632363Y-54442968D01*
X109610442Y-54440498D01*
X109601000Y-54439435D01*
X109600999Y-54439435D01*
X109556277Y-54444472D01*
X109544200Y-54445238D01*
X109510568Y-54445726D01*
X109478093Y-54452676D01*
X109466031Y-54454641D01*
X109421747Y-54459631D01*
X109391553Y-54470196D01*
X109376554Y-54474407D01*
X109373699Y-54475018D01*
X109356372Y-54478726D01*
X109313952Y-54497023D01*
X109305798Y-54500203D01*
X109251487Y-54519207D01*
X109251481Y-54519209D01*
X109251478Y-54519211D01*
X109251475Y-54519213D01*
X109235415Y-54529303D01*
X109218571Y-54538160D01*
X109211583Y-54541174D01*
X109211580Y-54541176D01*
X109162863Y-54574758D01*
X109158462Y-54577656D01*
X109098736Y-54615185D01*
X109094554Y-54619367D01*
X109086115Y-54626403D01*
X109086402Y-54626742D01*
X109081756Y-54630669D01*
X109031507Y-54682394D01*
X109030249Y-54683671D01*
X108971186Y-54742735D01*
X108926506Y-54813841D01*
X108925603Y-54815255D01*
X108886189Y-54876133D01*
X108883397Y-54881546D01*
X108882971Y-54881326D01*
X108878128Y-54890834D01*
X108875212Y-54895475D01*
X108875209Y-54895481D01*
X108851773Y-54962456D01*
X108849970Y-54967285D01*
X108827959Y-55022682D01*
X108826661Y-55029742D01*
X108821752Y-55048254D01*
X108815631Y-55065747D01*
X108815630Y-55065751D01*
X108809139Y-55123365D01*
X108807874Y-55131906D01*
X108799442Y-55177762D01*
X108799441Y-55177763D01*
X108799734Y-55197964D01*
X108798968Y-55213635D01*
X108795435Y-55244998D01*
X108800472Y-55289709D01*
X108801238Y-55301789D01*
X108801726Y-55335433D01*
X108808676Y-55367906D01*
X108810642Y-55379970D01*
X108813720Y-55407283D01*
X108814500Y-55421169D01*
X108814500Y-56763635D01*
X108794815Y-56830674D01*
X108789767Y-56837946D01*
X108720804Y-56930068D01*
X108720802Y-56930071D01*
X108670510Y-57064913D01*
X108670509Y-57064917D01*
X108664100Y-57124527D01*
X108664100Y-57124534D01*
X108664100Y-57124535D01*
X108664100Y-57620270D01*
X108664101Y-57620276D01*
X108670508Y-57679882D01*
X108688853Y-57729066D01*
X108693837Y-57798758D01*
X108688853Y-57815731D01*
X108670510Y-57864911D01*
X108670509Y-57864915D01*
X108670509Y-57864917D01*
X108664100Y-57924527D01*
X108664100Y-57924534D01*
X108664100Y-57924535D01*
X108664100Y-58420270D01*
X108664101Y-58420276D01*
X108670508Y-58479882D01*
X108683604Y-58514993D01*
X108688031Y-58526864D01*
X108688853Y-58529066D01*
X108693837Y-58598758D01*
X108688853Y-58615731D01*
X108670510Y-58664911D01*
X108670509Y-58664915D01*
X108670509Y-58664917D01*
X108664100Y-58724527D01*
X108664100Y-58724534D01*
X108664100Y-58724535D01*
X108664100Y-59220270D01*
X108664101Y-59220276D01*
X108670508Y-59279882D01*
X108688853Y-59329066D01*
X108693837Y-59398758D01*
X108688853Y-59415731D01*
X108670510Y-59464911D01*
X108670509Y-59464915D01*
X108670509Y-59464917D01*
X108664100Y-59524527D01*
X108664100Y-59524534D01*
X108664100Y-59524535D01*
X108664100Y-60020270D01*
X108664101Y-60020276D01*
X108670508Y-60079883D01*
X108720802Y-60214728D01*
X108720806Y-60214735D01*
X108789766Y-60306853D01*
X108814184Y-60372317D01*
X108814500Y-60381164D01*
X108814500Y-62705835D01*
X108812117Y-62730030D01*
X108804940Y-62766105D01*
X108804650Y-62767517D01*
X108789474Y-62839418D01*
X108789169Y-62842188D01*
X108789141Y-62842371D01*
X108789106Y-62842718D01*
X108788976Y-62843944D01*
X108788949Y-62844187D01*
X108788944Y-62844216D01*
X108788593Y-62847796D01*
X108788564Y-62848087D01*
X108788500Y-62848723D01*
X108788500Y-62922160D01*
X108788492Y-62923608D01*
X108787634Y-62997091D01*
X108787876Y-62999882D01*
X108787885Y-63000099D01*
X108787920Y-63000458D01*
X108787970Y-63000995D01*
X108787977Y-63001071D01*
X108788500Y-63012444D01*
X108788500Y-64511437D01*
X108768815Y-64578476D01*
X108763767Y-64585746D01*
X108732559Y-64627437D01*
X108695404Y-64677069D01*
X108695402Y-64677071D01*
X108648723Y-64802227D01*
X108645109Y-64811917D01*
X108638700Y-64871527D01*
X108638700Y-64871534D01*
X108638700Y-64871535D01*
X108638700Y-65367270D01*
X108638701Y-65367276D01*
X108645108Y-65426882D01*
X108658204Y-65461993D01*
X108662540Y-65473620D01*
X108663453Y-65476066D01*
X108668437Y-65545758D01*
X108663453Y-65562731D01*
X108645110Y-65611911D01*
X108645109Y-65611915D01*
X108645109Y-65611917D01*
X108638700Y-65671527D01*
X108638700Y-65671534D01*
X108638700Y-65671535D01*
X108638700Y-66167270D01*
X108638701Y-66167276D01*
X108645108Y-66226882D01*
X108663453Y-66276066D01*
X108668437Y-66345758D01*
X108663453Y-66362731D01*
X108645110Y-66411911D01*
X108645109Y-66411915D01*
X108645109Y-66411917D01*
X108638700Y-66471527D01*
X108638700Y-66471534D01*
X108638700Y-66471535D01*
X108638700Y-66967270D01*
X108638701Y-66967276D01*
X108645108Y-67026882D01*
X108663453Y-67076066D01*
X108668437Y-67145758D01*
X108663453Y-67162731D01*
X108645110Y-67211911D01*
X108645109Y-67211915D01*
X108645109Y-67211917D01*
X108638700Y-67271527D01*
X108638700Y-67271534D01*
X108638700Y-67271535D01*
X108638700Y-67767270D01*
X108638701Y-67767276D01*
X108645108Y-67826883D01*
X108695402Y-67961728D01*
X108695404Y-67961731D01*
X108763766Y-68053051D01*
X108788184Y-68118515D01*
X108788500Y-68127362D01*
X108788500Y-70364986D01*
X108788497Y-70450421D01*
X108788499Y-70450441D01*
X108794578Y-70481000D01*
X108802372Y-70520180D01*
X108804195Y-70529345D01*
X108819255Y-70605078D01*
X108843786Y-70664300D01*
X108843787Y-70664306D01*
X108843788Y-70664306D01*
X108879596Y-70750764D01*
X108924548Y-70818039D01*
X108924551Y-70818044D01*
X108967197Y-70881875D01*
X108967200Y-70881877D01*
X108967208Y-70881885D01*
X108967211Y-70881889D01*
X109026065Y-70940743D01*
X109026067Y-70940746D01*
X109026068Y-70940746D01*
X111798199Y-73713112D01*
X111831681Y-73774437D01*
X111826694Y-73844128D01*
X111784820Y-73900060D01*
X111776488Y-73905783D01*
X111714736Y-73944585D01*
X111587186Y-74072135D01*
X111587180Y-74072142D01*
X111546092Y-74137532D01*
X111544204Y-74140447D01*
X111507604Y-74195224D01*
X111507600Y-74195232D01*
X111507266Y-74196039D01*
X111497713Y-74214527D01*
X111491212Y-74224874D01*
X111491210Y-74224877D01*
X111469982Y-74285540D01*
X111467504Y-74292031D01*
X111447264Y-74340896D01*
X111447263Y-74340902D01*
X111444550Y-74354540D01*
X111439975Y-74371298D01*
X111431634Y-74395135D01*
X111431632Y-74395142D01*
X111425890Y-74446096D01*
X111424288Y-74456394D01*
X111416500Y-74495552D01*
X111416500Y-74522485D01*
X111415720Y-74536368D01*
X111411435Y-74574400D01*
X111415583Y-74611218D01*
X111415720Y-74612429D01*
X111416500Y-74626314D01*
X111416500Y-74653244D01*
X111424288Y-74692403D01*
X111425890Y-74702703D01*
X111429301Y-74732975D01*
X111431627Y-74753613D01*
X111431632Y-74753652D01*
X111431633Y-74753660D01*
X111439976Y-74777504D01*
X111444550Y-74794260D01*
X111447262Y-74807896D01*
X111467509Y-74856777D01*
X111469986Y-74863267D01*
X111481618Y-74896509D01*
X111491212Y-74923924D01*
X111497709Y-74934265D01*
X111507268Y-74952765D01*
X111507603Y-74953573D01*
X111507605Y-74953579D01*
X111544223Y-75008382D01*
X111546114Y-75011300D01*
X111587180Y-75076657D01*
X111587182Y-75076660D01*
X111590341Y-75079819D01*
X111623826Y-75141142D01*
X111618842Y-75210834D01*
X111576970Y-75266767D01*
X111511506Y-75291184D01*
X111502660Y-75291500D01*
X106506252Y-75291500D01*
X106498142Y-75291234D01*
X106264203Y-75275900D01*
X106248122Y-75273783D01*
X106022167Y-75228838D01*
X106006500Y-75224640D01*
X105788348Y-75150588D01*
X105773362Y-75144381D01*
X105566739Y-75042485D01*
X105552693Y-75034375D01*
X105361138Y-74906383D01*
X105348269Y-74896509D01*
X105175060Y-74744608D01*
X105163591Y-74733139D01*
X105057731Y-74612429D01*
X105011687Y-74559926D01*
X105001816Y-74547061D01*
X104873824Y-74355506D01*
X104865714Y-74341460D01*
X104803117Y-74214527D01*
X104763815Y-74134829D01*
X104757614Y-74119858D01*
X104683557Y-73901693D01*
X104679361Y-73886032D01*
X104677628Y-73877321D01*
X104634415Y-73660072D01*
X104632300Y-73644016D01*
X104616964Y-73410028D01*
X104616700Y-73401948D01*
X104616700Y-73303648D01*
X105201700Y-73303648D01*
X105201700Y-73508352D01*
X105203809Y-73521668D01*
X105233722Y-73710534D01*
X105296981Y-73905223D01*
X105389915Y-74087613D01*
X105510228Y-74253213D01*
X105654986Y-74397971D01*
X105789306Y-74495558D01*
X105820590Y-74518287D01*
X105902319Y-74559930D01*
X106002976Y-74611218D01*
X106002978Y-74611218D01*
X106002981Y-74611220D01*
X106049436Y-74626314D01*
X106197665Y-74674477D01*
X106298757Y-74690488D01*
X106399848Y-74706500D01*
X106399849Y-74706500D01*
X106604551Y-74706500D01*
X106604552Y-74706500D01*
X106806734Y-74674477D01*
X107001419Y-74611220D01*
X107183810Y-74518287D01*
X107297484Y-74435699D01*
X107349413Y-74397971D01*
X107349415Y-74397968D01*
X107349419Y-74397966D01*
X107494166Y-74253219D01*
X107494168Y-74253215D01*
X107494171Y-74253213D01*
X107576099Y-74140447D01*
X107614487Y-74087610D01*
X107707420Y-73905219D01*
X107770677Y-73710534D01*
X107802700Y-73508352D01*
X107802700Y-73303648D01*
X107773889Y-73121745D01*
X107770677Y-73101465D01*
X107707418Y-72906776D01*
X107654778Y-72803466D01*
X107614487Y-72724390D01*
X107575667Y-72670958D01*
X107494171Y-72558786D01*
X107349413Y-72414028D01*
X107183813Y-72293715D01*
X107183812Y-72293714D01*
X107183810Y-72293713D01*
X107126853Y-72264691D01*
X107001423Y-72200781D01*
X106806734Y-72137522D01*
X106632195Y-72109878D01*
X106604552Y-72105500D01*
X106399848Y-72105500D01*
X106375529Y-72109351D01*
X106197665Y-72137522D01*
X106002976Y-72200781D01*
X105820586Y-72293715D01*
X105654986Y-72414028D01*
X105510228Y-72558786D01*
X105389915Y-72724386D01*
X105296981Y-72906776D01*
X105233722Y-73101465D01*
X105207136Y-73269326D01*
X105201700Y-73303648D01*
X104616700Y-73303648D01*
X104616700Y-52328051D01*
X104616963Y-52319972D01*
X104623408Y-52221648D01*
X105201700Y-52221648D01*
X105201700Y-52426351D01*
X105233722Y-52628534D01*
X105296981Y-52823223D01*
X105389915Y-53005613D01*
X105510228Y-53171213D01*
X105654986Y-53315971D01*
X105803214Y-53423663D01*
X105820590Y-53436287D01*
X105934837Y-53494499D01*
X106002976Y-53529218D01*
X106002978Y-53529218D01*
X106002981Y-53529220D01*
X106107337Y-53563127D01*
X106197665Y-53592477D01*
X106298757Y-53608488D01*
X106399848Y-53624500D01*
X106399849Y-53624500D01*
X106604551Y-53624500D01*
X106604552Y-53624500D01*
X106806734Y-53592477D01*
X107001419Y-53529220D01*
X107183810Y-53436287D01*
X107282762Y-53364395D01*
X107349413Y-53315971D01*
X107349415Y-53315968D01*
X107349419Y-53315966D01*
X107494166Y-53171219D01*
X107494168Y-53171215D01*
X107494171Y-53171213D01*
X107562480Y-53077192D01*
X107614487Y-53005610D01*
X107693101Y-52851322D01*
X116754001Y-52851322D01*
X116764144Y-52950607D01*
X116817452Y-53111481D01*
X116817457Y-53111492D01*
X116906424Y-53255728D01*
X116906427Y-53255732D01*
X117026267Y-53375572D01*
X117026271Y-53375575D01*
X117170507Y-53464542D01*
X117170518Y-53464547D01*
X117331393Y-53517855D01*
X117430683Y-53527999D01*
X117478999Y-53527998D01*
X117479000Y-53527998D01*
X117479000Y-52828000D01*
X116754001Y-52828000D01*
X116754001Y-52851322D01*
X107693101Y-52851322D01*
X107707420Y-52823219D01*
X107770677Y-52628534D01*
X107802700Y-52426352D01*
X107802700Y-52221648D01*
X107795015Y-52173129D01*
X107770677Y-52019465D01*
X107717076Y-51854500D01*
X107707420Y-51824781D01*
X107707418Y-51824778D01*
X107707418Y-51824776D01*
X107673703Y-51758607D01*
X107614487Y-51642390D01*
X107580174Y-51595162D01*
X107494171Y-51476786D01*
X107349413Y-51332028D01*
X107183813Y-51211715D01*
X107183812Y-51211714D01*
X107183810Y-51211713D01*
X107123525Y-51180996D01*
X107001423Y-51118781D01*
X106806734Y-51055522D01*
X106632195Y-51027878D01*
X106604552Y-51023500D01*
X106399848Y-51023500D01*
X106375529Y-51027351D01*
X106197665Y-51055522D01*
X106002976Y-51118781D01*
X105820586Y-51211715D01*
X105654986Y-51332028D01*
X105510228Y-51476786D01*
X105389915Y-51642386D01*
X105296981Y-51824776D01*
X105233722Y-52019465D01*
X105201700Y-52221648D01*
X104623408Y-52221648D01*
X104632300Y-52085981D01*
X104634414Y-52069929D01*
X104679363Y-51843957D01*
X104683556Y-51828310D01*
X104757615Y-51610135D01*
X104763812Y-51595175D01*
X104865717Y-51388533D01*
X104873824Y-51374493D01*
X104902198Y-51332028D01*
X105001819Y-51182933D01*
X105011681Y-51170080D01*
X105163596Y-50996854D01*
X105175054Y-50985396D01*
X105348280Y-50833481D01*
X105361133Y-50823619D01*
X105524034Y-50714773D01*
X105552693Y-50695624D01*
X105566733Y-50687517D01*
X105773375Y-50585612D01*
X105788335Y-50579415D01*
X106006510Y-50505356D01*
X106022157Y-50501163D01*
X106248129Y-50456214D01*
X106264181Y-50454100D01*
X106498171Y-50438764D01*
X106506252Y-50438500D01*
X106559783Y-50438500D01*
X108405273Y-50438500D01*
X116663768Y-50438500D01*
X116730807Y-50458185D01*
G37*
%TD.AperFunction*%
%TA.AperFunction,Conductor*%
G36*
X124185835Y-67589161D02*
G01*
X124241768Y-67631033D01*
X124266184Y-67696498D01*
X124266500Y-67705342D01*
X124266500Y-67707745D01*
X124246815Y-67774784D01*
X124230181Y-67795426D01*
X123312811Y-68712796D01*
X123364309Y-68764294D01*
X123410944Y-68801874D01*
X123541723Y-68861600D01*
X123541728Y-68861601D01*
X123684042Y-68882061D01*
X123826355Y-68861601D01*
X123826360Y-68861600D01*
X123957139Y-68801874D01*
X124003774Y-68764294D01*
X124003778Y-68764290D01*
X124054819Y-68713250D01*
X124116142Y-68679765D01*
X124185834Y-68684749D01*
X124241767Y-68726621D01*
X124266184Y-68792085D01*
X124266500Y-68800931D01*
X124266500Y-70171500D01*
X124246815Y-70238539D01*
X124194011Y-70284294D01*
X124142500Y-70295500D01*
X123619710Y-70295500D01*
X123552671Y-70275815D01*
X123506916Y-70223011D01*
X123503528Y-70214833D01*
X123465797Y-70113671D01*
X123465793Y-70113664D01*
X123379547Y-69998455D01*
X123379544Y-69998452D01*
X123264335Y-69912206D01*
X123264328Y-69912202D01*
X123129482Y-69861908D01*
X123129483Y-69861908D01*
X123069883Y-69855501D01*
X123069881Y-69855500D01*
X123069873Y-69855500D01*
X123069864Y-69855500D01*
X121174129Y-69855500D01*
X121174123Y-69855501D01*
X121114516Y-69861908D01*
X120979671Y-69912202D01*
X120979664Y-69912206D01*
X120864455Y-69998452D01*
X120864452Y-69998455D01*
X120778206Y-70113664D01*
X120778202Y-70113671D01*
X120727908Y-70248517D01*
X120721501Y-70308116D01*
X120721500Y-70308135D01*
X120721500Y-71503870D01*
X120721501Y-71503876D01*
X120727908Y-71563483D01*
X120778202Y-71698328D01*
X120778206Y-71698335D01*
X120864452Y-71813544D01*
X120864455Y-71813547D01*
X120979664Y-71899793D01*
X120979671Y-71899797D01*
X121114517Y-71950091D01*
X121122062Y-71951874D01*
X121121557Y-71954010D01*
X121175795Y-71976468D01*
X121215650Y-72033856D01*
X121222000Y-72073029D01*
X121222000Y-73439475D01*
X121202315Y-73506514D01*
X121149511Y-73552269D01*
X121121979Y-73559822D01*
X121122168Y-73560620D01*
X121114620Y-73562403D01*
X120979913Y-73612645D01*
X120979906Y-73612649D01*
X120864812Y-73698809D01*
X120864809Y-73698812D01*
X120778649Y-73813906D01*
X120778645Y-73813913D01*
X120728403Y-73948620D01*
X120728401Y-73948627D01*
X120722000Y-74008155D01*
X120722000Y-74356000D01*
X123522000Y-74356000D01*
X123522000Y-74180000D01*
X123541685Y-74112961D01*
X123594489Y-74067206D01*
X123646000Y-74056000D01*
X124222000Y-74056000D01*
X124222000Y-71640500D01*
X124241685Y-71573461D01*
X124294489Y-71527706D01*
X124346000Y-71516500D01*
X124816871Y-71516500D01*
X124937129Y-71516500D01*
X126098000Y-71516500D01*
X126165039Y-71536185D01*
X126210794Y-71588989D01*
X126222000Y-71640500D01*
X126222000Y-74056000D01*
X126798000Y-74056000D01*
X126865039Y-74075685D01*
X126910794Y-74128489D01*
X126922000Y-74180000D01*
X126922000Y-74356000D01*
X129722000Y-74356000D01*
X129722000Y-74008172D01*
X129721999Y-74008155D01*
X129715598Y-73948627D01*
X129715596Y-73948620D01*
X129665354Y-73813913D01*
X129665350Y-73813906D01*
X129579190Y-73698812D01*
X129579187Y-73698809D01*
X129464093Y-73612649D01*
X129464086Y-73612645D01*
X129329379Y-73562403D01*
X129321832Y-73560620D01*
X129322343Y-73558456D01*
X129268192Y-73536025D01*
X129228345Y-73478632D01*
X129222000Y-73439475D01*
X129222000Y-72758639D01*
X129241685Y-72691600D01*
X129294489Y-72645845D01*
X129363647Y-72635901D01*
X129427203Y-72664926D01*
X129433681Y-72670958D01*
X130460682Y-73697959D01*
X130494167Y-73759282D01*
X130489183Y-73828974D01*
X130479121Y-73849785D01*
X130474523Y-73857390D01*
X130423913Y-74019807D01*
X130419606Y-74067206D01*
X130417500Y-74090384D01*
X130417500Y-74753616D01*
X130417504Y-74753655D01*
X130423913Y-74824192D01*
X130423913Y-74824194D01*
X130423914Y-74824196D01*
X130474522Y-74986606D01*
X130545095Y-75103348D01*
X130545097Y-75103350D01*
X130562933Y-75170905D01*
X130541415Y-75237378D01*
X130487375Y-75281666D01*
X130438980Y-75291500D01*
X129846000Y-75291500D01*
X129778961Y-75271815D01*
X129733206Y-75219011D01*
X129722000Y-75167500D01*
X129722000Y-74856000D01*
X126922000Y-74856000D01*
X126922000Y-75167500D01*
X126902315Y-75234539D01*
X126849511Y-75280294D01*
X126798000Y-75291500D01*
X123646000Y-75291500D01*
X123578961Y-75271815D01*
X123533206Y-75219011D01*
X123522000Y-75167500D01*
X123522000Y-74856000D01*
X120722000Y-74856000D01*
X120722000Y-75167500D01*
X120702315Y-75234539D01*
X120649511Y-75280294D01*
X120598000Y-75291500D01*
X120005020Y-75291500D01*
X119937981Y-75271815D01*
X119892226Y-75219011D01*
X119882282Y-75149853D01*
X119898903Y-75103350D01*
X119969478Y-74986606D01*
X120020086Y-74824196D01*
X120026500Y-74753616D01*
X120026500Y-74090384D01*
X120020086Y-74019804D01*
X119969478Y-73857394D01*
X119881472Y-73711815D01*
X119881470Y-73711813D01*
X119881469Y-73711811D01*
X119827419Y-73657761D01*
X119793934Y-73596438D01*
X119791100Y-73570080D01*
X119791100Y-72695926D01*
X119810107Y-72629953D01*
X119833383Y-72592911D01*
X119906389Y-72476722D01*
X119965968Y-72306455D01*
X119965969Y-72306449D01*
X119986165Y-72127203D01*
X119986165Y-72127196D01*
X119965969Y-71947950D01*
X119965968Y-71947945D01*
X119943286Y-71883123D01*
X119906389Y-71777678D01*
X119810416Y-71624938D01*
X119682862Y-71497384D01*
X119530123Y-71401411D01*
X119359854Y-71341831D01*
X119359849Y-71341830D01*
X119180604Y-71321635D01*
X119180596Y-71321635D01*
X119001350Y-71341830D01*
X119001345Y-71341831D01*
X118831076Y-71401411D01*
X118678337Y-71497384D01*
X118550784Y-71624937D01*
X118454811Y-71777676D01*
X118395231Y-71947945D01*
X118395230Y-71947950D01*
X118375035Y-72127196D01*
X118375035Y-72127203D01*
X118395230Y-72306449D01*
X118395231Y-72306454D01*
X118454811Y-72476724D01*
X118506372Y-72558781D01*
X118527817Y-72592911D01*
X118551093Y-72629953D01*
X118570100Y-72695926D01*
X118570100Y-73473662D01*
X118550415Y-73540701D01*
X118510252Y-73579778D01*
X118490811Y-73591530D01*
X118490810Y-73591531D01*
X118388681Y-73693661D01*
X118327358Y-73727146D01*
X118257666Y-73722162D01*
X118213319Y-73693661D01*
X118111188Y-73591530D01*
X118104442Y-73587452D01*
X117965606Y-73503522D01*
X117803196Y-73452914D01*
X117803194Y-73452913D01*
X117803192Y-73452913D01*
X117753778Y-73448423D01*
X117732616Y-73446500D01*
X117219384Y-73446500D01*
X117200145Y-73448248D01*
X117148807Y-73452913D01*
X116986393Y-73503522D01*
X116840811Y-73591530D01*
X116720531Y-73711810D01*
X116720528Y-73711814D01*
X116696446Y-73751651D01*
X116644918Y-73798838D01*
X116590330Y-73811500D01*
X115558535Y-73811500D01*
X115491496Y-73791815D01*
X115470854Y-73775182D01*
X115422818Y-73727146D01*
X115371391Y-73675719D01*
X115371388Y-73675717D01*
X115371387Y-73675716D01*
X115228295Y-73587455D01*
X115228289Y-73587452D01*
X115228287Y-73587451D01*
X115068685Y-73534564D01*
X115068683Y-73534563D01*
X114970181Y-73524500D01*
X114970174Y-73524500D01*
X114436826Y-73524500D01*
X114436818Y-73524500D01*
X114338316Y-73534563D01*
X114338315Y-73534564D01*
X114284885Y-73552269D01*
X114178715Y-73587450D01*
X114178710Y-73587452D01*
X114049172Y-73667353D01*
X113981779Y-73685793D01*
X113915116Y-73664870D01*
X113870346Y-73611228D01*
X113869518Y-73609276D01*
X113868991Y-73608004D01*
X113868985Y-73607989D01*
X113837579Y-73532158D01*
X113837423Y-73531775D01*
X113837398Y-73531729D01*
X113837396Y-73531726D01*
X113837394Y-73531721D01*
X113784737Y-73452914D01*
X113749810Y-73400637D01*
X113749806Y-73400633D01*
X113749804Y-73400630D01*
X113749791Y-73400614D01*
X113749789Y-73400611D01*
X113690932Y-73341754D01*
X113690931Y-73341752D01*
X113690931Y-73341753D01*
X110425815Y-70076359D01*
X110392333Y-70015034D01*
X110389500Y-69988681D01*
X110389500Y-68255682D01*
X110409185Y-68188643D01*
X110461989Y-68142888D01*
X110531147Y-68132944D01*
X110587812Y-68156416D01*
X110593004Y-68160303D01*
X110596868Y-68163195D01*
X110596871Y-68163197D01*
X110731717Y-68213491D01*
X110731716Y-68213491D01*
X110738644Y-68214235D01*
X110791327Y-68219900D01*
X111787072Y-68219899D01*
X111834959Y-68214751D01*
X111854397Y-68212662D01*
X111854726Y-68215723D01*
X111910234Y-68218692D01*
X111956676Y-68247953D01*
X112327294Y-68618571D01*
X112360779Y-68679894D01*
X112362833Y-68692368D01*
X112370830Y-68763349D01*
X112430410Y-68933621D01*
X112492845Y-69032985D01*
X112526384Y-69086362D01*
X112653938Y-69213916D01*
X112806678Y-69309889D01*
X112866427Y-69330796D01*
X112976945Y-69369468D01*
X112976950Y-69369469D01*
X113156196Y-69389665D01*
X113156200Y-69389665D01*
X113156204Y-69389665D01*
X113335449Y-69369469D01*
X113335452Y-69369468D01*
X113335455Y-69369468D01*
X113505722Y-69309889D01*
X113658462Y-69213916D01*
X113786016Y-69086362D01*
X113881989Y-68933622D01*
X113899694Y-68883022D01*
X113940415Y-68826247D01*
X114005367Y-68800498D01*
X114073929Y-68813953D01*
X114104417Y-68836295D01*
X114581023Y-69312902D01*
X114581026Y-69312905D01*
X114661731Y-69366830D01*
X114661730Y-69366830D01*
X114681018Y-69379717D01*
X114681019Y-69379717D01*
X114681020Y-69379718D01*
X114792124Y-69425739D01*
X114910066Y-69449199D01*
X114910070Y-69449200D01*
X114910071Y-69449200D01*
X117843130Y-69449200D01*
X117843131Y-69449199D01*
X117961076Y-69425739D01*
X118072181Y-69379718D01*
X118172171Y-69312906D01*
X119387968Y-68097107D01*
X119449291Y-68063623D01*
X119518982Y-68068607D01*
X119563330Y-68097108D01*
X119570738Y-68104516D01*
X119615981Y-68132944D01*
X119711514Y-68192972D01*
X119723478Y-68200489D01*
X119859122Y-68247953D01*
X119893745Y-68260068D01*
X119893750Y-68260069D01*
X119948182Y-68266201D01*
X120029434Y-68275356D01*
X120062996Y-68284012D01*
X120155524Y-68322339D01*
X120273466Y-68345799D01*
X120273470Y-68345800D01*
X120273471Y-68345800D01*
X121734130Y-68345800D01*
X121734131Y-68345799D01*
X121852076Y-68322339D01*
X121963181Y-68276318D01*
X122063171Y-68209506D01*
X122348315Y-67924361D01*
X122409634Y-67890879D01*
X122479326Y-67895863D01*
X122523672Y-67924363D01*
X122798302Y-68198991D01*
X122798305Y-68198993D01*
X122798310Y-68198998D01*
X122850162Y-68240785D01*
X122868905Y-68259528D01*
X122907759Y-68307744D01*
X122959257Y-68359242D01*
X122972401Y-68346099D01*
X123033723Y-68312612D01*
X123077730Y-68311040D01*
X123118357Y-68316881D01*
X123260815Y-68296400D01*
X123391730Y-68236612D01*
X123438413Y-68198993D01*
X123849962Y-67787442D01*
X123868746Y-67772029D01*
X123899924Y-67751197D01*
X123925385Y-67734185D01*
X123960727Y-67710571D01*
X123964027Y-67708529D01*
X123964281Y-67708348D01*
X123965122Y-67707555D01*
X123967622Y-67704855D01*
X124019702Y-67652776D01*
X124041446Y-67631033D01*
X124054820Y-67617660D01*
X124116144Y-67584175D01*
X124185835Y-67589161D01*
G37*
%TD.AperFunction*%
%TA.AperFunction,Conductor*%
G36*
X134887099Y-50458185D02*
G01*
X134932854Y-50510989D01*
X134942798Y-50580147D01*
X134913773Y-50643703D01*
X134907741Y-50650181D01*
X134879184Y-50678737D01*
X134783211Y-50831476D01*
X134723631Y-51001745D01*
X134723630Y-51001750D01*
X134703435Y-51180996D01*
X134703435Y-51181003D01*
X134723630Y-51360249D01*
X134723631Y-51360254D01*
X134783211Y-51530523D01*
X134879184Y-51683262D01*
X135006737Y-51810815D01*
X135006740Y-51810817D01*
X135050011Y-51838007D01*
X135096302Y-51890342D01*
X135106949Y-51959395D01*
X135078574Y-52023244D01*
X135050011Y-52047993D01*
X135006740Y-52075182D01*
X135006737Y-52075184D01*
X134879184Y-52202737D01*
X134783211Y-52355476D01*
X134723631Y-52525745D01*
X134723630Y-52525750D01*
X134703435Y-52704996D01*
X134703435Y-52705003D01*
X134723630Y-52884249D01*
X134723631Y-52884254D01*
X134783211Y-53054523D01*
X134831652Y-53131616D01*
X134879184Y-53207262D01*
X135006738Y-53334816D01*
X135159478Y-53430789D01*
X135210645Y-53448693D01*
X135329745Y-53490368D01*
X135329750Y-53490369D01*
X135508996Y-53510565D01*
X135509000Y-53510565D01*
X135509004Y-53510565D01*
X135688250Y-53490369D01*
X135688251Y-53490368D01*
X135688255Y-53490368D01*
X135715796Y-53480730D01*
X135785572Y-53477167D01*
X135844432Y-53510090D01*
X135964811Y-53630469D01*
X135964813Y-53630470D01*
X135964815Y-53630472D01*
X136110394Y-53718478D01*
X136272804Y-53769086D01*
X136343384Y-53775500D01*
X136343387Y-53775500D01*
X136856613Y-53775500D01*
X136856616Y-53775500D01*
X136927196Y-53769086D01*
X137089606Y-53718478D01*
X137235185Y-53630472D01*
X137337673Y-53527983D01*
X137398994Y-53494499D01*
X137468685Y-53499483D01*
X137513034Y-53527984D01*
X137615122Y-53630072D01*
X137760604Y-53718019D01*
X137760603Y-53718019D01*
X137922894Y-53768590D01*
X137922893Y-53768590D01*
X137993408Y-53774998D01*
X137993426Y-53774999D01*
X138500000Y-53774999D01*
X138506581Y-53774999D01*
X138577102Y-53768591D01*
X138577107Y-53768590D01*
X138739396Y-53718018D01*
X138884877Y-53630072D01*
X139005072Y-53509877D01*
X139093019Y-53364395D01*
X139143590Y-53202106D01*
X139150000Y-53131572D01*
X139150000Y-53050000D01*
X138500000Y-53050000D01*
X138500000Y-53774999D01*
X137993426Y-53774999D01*
X137999999Y-53774998D01*
X138000000Y-53774998D01*
X138000000Y-52218000D01*
X138500000Y-52218000D01*
X138500000Y-52550000D01*
X139149999Y-52550000D01*
X139149999Y-52468417D01*
X139143591Y-52397897D01*
X139143590Y-52397892D01*
X139093018Y-52235603D01*
X139084582Y-52221648D01*
X142641300Y-52221648D01*
X142641300Y-52426351D01*
X142673322Y-52628534D01*
X142736581Y-52823223D01*
X142829515Y-53005613D01*
X142949828Y-53171213D01*
X143094586Y-53315971D01*
X143242814Y-53423663D01*
X143260190Y-53436287D01*
X143374437Y-53494499D01*
X143442576Y-53529218D01*
X143442578Y-53529218D01*
X143442581Y-53529220D01*
X143546937Y-53563127D01*
X143637265Y-53592477D01*
X143738357Y-53608488D01*
X143839448Y-53624500D01*
X143839449Y-53624500D01*
X144044151Y-53624500D01*
X144044152Y-53624500D01*
X144246334Y-53592477D01*
X144441019Y-53529220D01*
X144623410Y-53436287D01*
X144722362Y-53364395D01*
X144789013Y-53315971D01*
X144789015Y-53315968D01*
X144789019Y-53315966D01*
X144933766Y-53171219D01*
X144933768Y-53171215D01*
X144933771Y-53171213D01*
X145002080Y-53077192D01*
X145054087Y-53005610D01*
X145147020Y-52823219D01*
X145210277Y-52628534D01*
X145242300Y-52426352D01*
X145242300Y-52221648D01*
X145234615Y-52173129D01*
X145210277Y-52019465D01*
X145156676Y-51854500D01*
X145147020Y-51824781D01*
X145147018Y-51824778D01*
X145147018Y-51824776D01*
X145113303Y-51758607D01*
X145054087Y-51642390D01*
X145019774Y-51595162D01*
X144933771Y-51476786D01*
X144789013Y-51332028D01*
X144623413Y-51211715D01*
X144623412Y-51211714D01*
X144623410Y-51211713D01*
X144563125Y-51180996D01*
X144441023Y-51118781D01*
X144246334Y-51055522D01*
X144071795Y-51027878D01*
X144044152Y-51023500D01*
X143839448Y-51023500D01*
X143815129Y-51027351D01*
X143637265Y-51055522D01*
X143442576Y-51118781D01*
X143260186Y-51211715D01*
X143094586Y-51332028D01*
X142949828Y-51476786D01*
X142829515Y-51642386D01*
X142736581Y-51824776D01*
X142673322Y-52019465D01*
X142641300Y-52221648D01*
X139084582Y-52221648D01*
X139006259Y-52092085D01*
X138988423Y-52024530D01*
X139009941Y-51958057D01*
X139024696Y-51940253D01*
X139055072Y-51909877D01*
X139143019Y-51764395D01*
X139193590Y-51602106D01*
X139200000Y-51531572D01*
X139200000Y-51450000D01*
X138550000Y-51450000D01*
X138550000Y-52116638D01*
X138530315Y-52183677D01*
X138513681Y-52204319D01*
X138500000Y-52218000D01*
X138000000Y-52218000D01*
X138000000Y-51883362D01*
X138019685Y-51816323D01*
X138036319Y-51795681D01*
X138050000Y-51782000D01*
X138050000Y-51074000D01*
X138069685Y-51006961D01*
X138122489Y-50961206D01*
X138174000Y-50950000D01*
X139199999Y-50950000D01*
X139199999Y-50868417D01*
X139193591Y-50797897D01*
X139193590Y-50797892D01*
X139143018Y-50635601D01*
X139143017Y-50635600D01*
X139137608Y-50626652D01*
X139119770Y-50559098D01*
X139141286Y-50492624D01*
X139195325Y-50448335D01*
X139243723Y-50438500D01*
X141933273Y-50438500D01*
X143884217Y-50438500D01*
X143937748Y-50438500D01*
X143945828Y-50438764D01*
X144179816Y-50454100D01*
X144195872Y-50456215D01*
X144421838Y-50501162D01*
X144437493Y-50505357D01*
X144655658Y-50579414D01*
X144670629Y-50585615D01*
X144859462Y-50678737D01*
X144877260Y-50687514D01*
X144891306Y-50695624D01*
X145082861Y-50823616D01*
X145095726Y-50833487D01*
X145135519Y-50868384D01*
X145268939Y-50985391D01*
X145280408Y-50996860D01*
X145331854Y-51055523D01*
X145387329Y-51118780D01*
X145432309Y-51170069D01*
X145442183Y-51182938D01*
X145570175Y-51374493D01*
X145578285Y-51388539D01*
X145680181Y-51595162D01*
X145686388Y-51610148D01*
X145760440Y-51828300D01*
X145764638Y-51843967D01*
X145809583Y-52069922D01*
X145811700Y-52086003D01*
X145827034Y-52319941D01*
X145827300Y-52328051D01*
X145827300Y-73401948D01*
X145827034Y-73410058D01*
X145811700Y-73643996D01*
X145809583Y-73660077D01*
X145764638Y-73886032D01*
X145760440Y-73901699D01*
X145686388Y-74119851D01*
X145680181Y-74134837D01*
X145578285Y-74341460D01*
X145570175Y-74355506D01*
X145442183Y-74547061D01*
X145432309Y-74559930D01*
X145280408Y-74733139D01*
X145268939Y-74744608D01*
X145095730Y-74896509D01*
X145082861Y-74906383D01*
X144891306Y-75034375D01*
X144877260Y-75042485D01*
X144670637Y-75144381D01*
X144655651Y-75150588D01*
X144437499Y-75224640D01*
X144421832Y-75228838D01*
X144195877Y-75273783D01*
X144179796Y-75275900D01*
X143945858Y-75291234D01*
X143937748Y-75291500D01*
X138205844Y-75291500D01*
X138138805Y-75271815D01*
X138093050Y-75219011D01*
X138083106Y-75149853D01*
X138100305Y-75102404D01*
X138125045Y-75062293D01*
X138125049Y-75062287D01*
X138177936Y-74902685D01*
X138188000Y-74804174D01*
X138188000Y-74745491D01*
X138207685Y-74678452D01*
X138224324Y-74657804D01*
X138307738Y-74574401D01*
X139367189Y-73515079D01*
X139367256Y-73515020D01*
X139372283Y-73509992D01*
X139372289Y-73509989D01*
X139429364Y-73452914D01*
X139476284Y-73406000D01*
X139482663Y-73399622D01*
X139483754Y-73398561D01*
X139483760Y-73398554D01*
X139484358Y-73397636D01*
X139529653Y-73329847D01*
X139547161Y-73303648D01*
X142641300Y-73303648D01*
X142641300Y-73508352D01*
X142643409Y-73521668D01*
X142673322Y-73710534D01*
X142736581Y-73905223D01*
X142829515Y-74087613D01*
X142949828Y-74253213D01*
X143094586Y-74397971D01*
X143228906Y-74495558D01*
X143260190Y-74518287D01*
X143341919Y-74559930D01*
X143442576Y-74611218D01*
X143442578Y-74611218D01*
X143442581Y-74611220D01*
X143489036Y-74626314D01*
X143637265Y-74674477D01*
X143738357Y-74690488D01*
X143839448Y-74706500D01*
X143839449Y-74706500D01*
X144044151Y-74706500D01*
X144044152Y-74706500D01*
X144246334Y-74674477D01*
X144441019Y-74611220D01*
X144623410Y-74518287D01*
X144737084Y-74435699D01*
X144789013Y-74397971D01*
X144789015Y-74397968D01*
X144789019Y-74397966D01*
X144933766Y-74253219D01*
X144933768Y-74253215D01*
X144933771Y-74253213D01*
X145015699Y-74140447D01*
X145054087Y-74087610D01*
X145147020Y-73905219D01*
X145210277Y-73710534D01*
X145242300Y-73508352D01*
X145242300Y-73303648D01*
X145213489Y-73121745D01*
X145210277Y-73101465D01*
X145147018Y-72906776D01*
X145094378Y-72803466D01*
X145054087Y-72724390D01*
X145015267Y-72670958D01*
X144933771Y-72558786D01*
X144789013Y-72414028D01*
X144623413Y-72293715D01*
X144623412Y-72293714D01*
X144623410Y-72293713D01*
X144566453Y-72264691D01*
X144441023Y-72200781D01*
X144246334Y-72137522D01*
X144071795Y-72109878D01*
X144044152Y-72105500D01*
X143839448Y-72105500D01*
X143815129Y-72109351D01*
X143637265Y-72137522D01*
X143442576Y-72200781D01*
X143260186Y-72293715D01*
X143094586Y-72414028D01*
X142949828Y-72558786D01*
X142829515Y-72724386D01*
X142736581Y-72906776D01*
X142673322Y-73101465D01*
X142646736Y-73269326D01*
X142641300Y-73303648D01*
X139547161Y-73303648D01*
X139570127Y-73269282D01*
X139571451Y-73267384D01*
X139571452Y-73267383D01*
X139572366Y-73265032D01*
X139601234Y-73195336D01*
X139601268Y-73195254D01*
X139631114Y-73123213D01*
X139631725Y-73121800D01*
X139631727Y-73121793D01*
X139631904Y-73120856D01*
X139640777Y-73076246D01*
X139646301Y-73048477D01*
X139646301Y-73048473D01*
X139662495Y-72967092D01*
X139662495Y-72967082D01*
X139662498Y-72967049D01*
X139662500Y-72967042D01*
X139662500Y-72888249D01*
X139662505Y-72809407D01*
X139662503Y-72809400D01*
X139662504Y-72803572D01*
X139662500Y-72803466D01*
X139662500Y-65771766D01*
X139662503Y-65771685D01*
X139662502Y-65765610D01*
X139662504Y-65765605D01*
X139662500Y-65665894D01*
X139662500Y-65607958D01*
X139662500Y-65607945D01*
X139662498Y-65607925D01*
X139643226Y-65511063D01*
X139643225Y-65511058D01*
X139640811Y-65498923D01*
X139631886Y-65454052D01*
X139631743Y-65453305D01*
X139631740Y-65453293D01*
X139631601Y-65452963D01*
X139625635Y-65438563D01*
X139604292Y-65387044D01*
X139596820Y-65317579D01*
X139628090Y-65255098D01*
X139631155Y-65251922D01*
X139668816Y-65214262D01*
X139764789Y-65061522D01*
X139824368Y-64891255D01*
X139829289Y-64847578D01*
X139844565Y-64712003D01*
X139844565Y-64711996D01*
X139824369Y-64532750D01*
X139824368Y-64532745D01*
X139796203Y-64452253D01*
X139764789Y-64362478D01*
X139764788Y-64362477D01*
X139764787Y-64362473D01*
X139667980Y-64208407D01*
X139651328Y-64159718D01*
X139650689Y-64159846D01*
X139649739Y-64155074D01*
X139649569Y-64154575D01*
X139649500Y-64153883D01*
X139649500Y-64153871D01*
X139626039Y-64035924D01*
X139582555Y-63930945D01*
X139580019Y-63924822D01*
X139580014Y-63924813D01*
X139513207Y-63824830D01*
X139470960Y-63782583D01*
X139428171Y-63739794D01*
X137761819Y-62073442D01*
X137728334Y-62012119D01*
X137725500Y-61985761D01*
X137725500Y-61668386D01*
X137719086Y-61597807D01*
X137719086Y-61597804D01*
X137668478Y-61435394D01*
X137580472Y-61289815D01*
X137580470Y-61289813D01*
X137580469Y-61289811D01*
X137460188Y-61169530D01*
X137397057Y-61131366D01*
X137314606Y-61081522D01*
X137152196Y-61030914D01*
X137152194Y-61030913D01*
X137152192Y-61030913D01*
X137102778Y-61026423D01*
X137081616Y-61024500D01*
X136418384Y-61024500D01*
X136347804Y-61030914D01*
X136257440Y-61059072D01*
X136251757Y-61060843D01*
X136181897Y-61061993D01*
X136122505Y-61025192D01*
X136109877Y-61008433D01*
X136027316Y-60877038D01*
X135899762Y-60749484D01*
X135886705Y-60741280D01*
X135747021Y-60653510D01*
X135599349Y-60601838D01*
X135576755Y-60593932D01*
X135576754Y-60593931D01*
X135576749Y-60593930D01*
X135505768Y-60585933D01*
X135441354Y-60558866D01*
X135431978Y-60550401D01*
X135383054Y-60501476D01*
X135349570Y-60440153D01*
X135354555Y-60370461D01*
X135396427Y-60314528D01*
X135429784Y-60296754D01*
X135469119Y-60282990D01*
X135469118Y-60282990D01*
X135469122Y-60282989D01*
X135621862Y-60187016D01*
X135749416Y-60059462D01*
X135845389Y-59906722D01*
X135904968Y-59736455D01*
X135907738Y-59711872D01*
X135925165Y-59557203D01*
X135925165Y-59557196D01*
X135904969Y-59377950D01*
X135904968Y-59377945D01*
X135878413Y-59302055D01*
X135845389Y-59207678D01*
X135749416Y-59054938D01*
X135621862Y-58927384D01*
X135614466Y-58922737D01*
X135469121Y-58831410D01*
X135298849Y-58771830D01*
X135227868Y-58763833D01*
X135163454Y-58736766D01*
X135154071Y-58728294D01*
X135090521Y-58664744D01*
X135057036Y-58603421D01*
X135062020Y-58533729D01*
X135103892Y-58477796D01*
X135139199Y-58459357D01*
X135283479Y-58411548D01*
X135283492Y-58411542D01*
X135427728Y-58322575D01*
X135427732Y-58322572D01*
X135547572Y-58202732D01*
X135547575Y-58202728D01*
X135636542Y-58058492D01*
X135636547Y-58058481D01*
X135689855Y-57897606D01*
X135699999Y-57798322D01*
X135700000Y-57798309D01*
X135700000Y-57750000D01*
X134624000Y-57750000D01*
X134556961Y-57730315D01*
X134511206Y-57677511D01*
X134500000Y-57626000D01*
X134500000Y-57250000D01*
X135000000Y-57250000D01*
X135699999Y-57250000D01*
X135699999Y-57201692D01*
X135699998Y-57201677D01*
X135689855Y-57102392D01*
X135636547Y-56941518D01*
X135636544Y-56941511D01*
X135558570Y-56815098D01*
X135540129Y-56747705D01*
X135558570Y-56684902D01*
X135636544Y-56558488D01*
X135636547Y-56558481D01*
X135689855Y-56397606D01*
X135699999Y-56298322D01*
X135700000Y-56298309D01*
X135700000Y-56250000D01*
X135000000Y-56250000D01*
X135000000Y-57250000D01*
X134500000Y-57250000D01*
X134500000Y-55750000D01*
X135000000Y-55750000D01*
X135699999Y-55750000D01*
X135699999Y-55701692D01*
X135699998Y-55701677D01*
X135689855Y-55602392D01*
X135636547Y-55441518D01*
X135636542Y-55441507D01*
X135547575Y-55297271D01*
X135547572Y-55297267D01*
X135427732Y-55177427D01*
X135427728Y-55177424D01*
X135283492Y-55088457D01*
X135283481Y-55088452D01*
X135122606Y-55035144D01*
X135023322Y-55025000D01*
X135000000Y-55025000D01*
X135000000Y-55750000D01*
X134500000Y-55750000D01*
X134500000Y-55024999D01*
X134476693Y-55025000D01*
X134476674Y-55025001D01*
X134377392Y-55035144D01*
X134216518Y-55088452D01*
X134216507Y-55088457D01*
X134072271Y-55177424D01*
X134072265Y-55177428D01*
X134063031Y-55186663D01*
X134001707Y-55220146D01*
X133932015Y-55215159D01*
X133887672Y-55186660D01*
X133878044Y-55177032D01*
X133878040Y-55177029D01*
X133733705Y-55088001D01*
X133733699Y-55087998D01*
X133733697Y-55087997D01*
X133722920Y-55084426D01*
X133572709Y-55034651D01*
X133473346Y-55024500D01*
X132926662Y-55024500D01*
X132926644Y-55024501D01*
X132827292Y-55034650D01*
X132827289Y-55034651D01*
X132666305Y-55087996D01*
X132666294Y-55088001D01*
X132573663Y-55145138D01*
X132508566Y-55163600D01*
X130180970Y-55163600D01*
X130158041Y-55168161D01*
X130099739Y-55179758D01*
X130070326Y-55185608D01*
X130063023Y-55187061D01*
X129951917Y-55233082D01*
X129851934Y-55299889D01*
X129851931Y-55299891D01*
X129653979Y-55497842D01*
X129592655Y-55531326D01*
X129583944Y-55532898D01*
X129475761Y-55548451D01*
X129406602Y-55538507D01*
X129353799Y-55492751D01*
X129334115Y-55425711D01*
X129335377Y-55408067D01*
X129352831Y-55286666D01*
X129355778Y-55287089D01*
X129371254Y-55234388D01*
X129387888Y-55213746D01*
X130345416Y-54256219D01*
X130406739Y-54222734D01*
X130433097Y-54219900D01*
X132343825Y-54219900D01*
X132344145Y-54219920D01*
X132352078Y-54219918D01*
X132352081Y-54219919D01*
X132433275Y-54219900D01*
X132510057Y-54219900D01*
X132510061Y-54219898D01*
X132510185Y-54219882D01*
X132510196Y-54219882D01*
X132569131Y-54204074D01*
X132586180Y-54199502D01*
X132586181Y-54199507D01*
X132586208Y-54199494D01*
X132662784Y-54178977D01*
X132662787Y-54178975D01*
X132662821Y-54178966D01*
X132662876Y-54178943D01*
X132662908Y-54178924D01*
X132662913Y-54178923D01*
X132729714Y-54140334D01*
X132799716Y-54099920D01*
X132799720Y-54099915D01*
X132799730Y-54099910D01*
X132799810Y-54099848D01*
X132799819Y-54099838D01*
X132799826Y-54099835D01*
X132854192Y-54045443D01*
X132911520Y-53988116D01*
X132911521Y-53988113D01*
X132917236Y-53982399D01*
X132917444Y-53982162D01*
X132931830Y-53967770D01*
X133097535Y-53801989D01*
X133212632Y-53686839D01*
X133273947Y-53653340D01*
X133300333Y-53650500D01*
X133631613Y-53650500D01*
X133631616Y-53650500D01*
X133702196Y-53644086D01*
X133864606Y-53593478D01*
X134010185Y-53505472D01*
X134130472Y-53385185D01*
X134218478Y-53239606D01*
X134269086Y-53077196D01*
X134275500Y-53006616D01*
X134275500Y-52493384D01*
X134269086Y-52422804D01*
X134218478Y-52260394D01*
X134130472Y-52114815D01*
X134130470Y-52114813D01*
X134130469Y-52114811D01*
X134028339Y-52012681D01*
X133994854Y-51951358D01*
X133999838Y-51881666D01*
X134028339Y-51837319D01*
X134130468Y-51735189D01*
X134130469Y-51735188D01*
X134130472Y-51735185D01*
X134218478Y-51589606D01*
X134269086Y-51427196D01*
X134275500Y-51356616D01*
X134275500Y-50843384D01*
X134269086Y-50772804D01*
X134218478Y-50610394D01*
X134218476Y-50610391D01*
X134216246Y-50603233D01*
X134218335Y-50602582D01*
X134210261Y-50544190D01*
X134239629Y-50480792D01*
X134298611Y-50443336D01*
X134332902Y-50438500D01*
X134820060Y-50438500D01*
X134887099Y-50458185D01*
G37*
%TD.AperFunction*%
%TA.AperFunction,Conductor*%
G36*
X136577981Y-64586318D02*
G01*
X136645010Y-64606033D01*
X136665598Y-64622631D01*
X137814842Y-65771766D01*
X138025177Y-65982080D01*
X138058665Y-66043401D01*
X138061500Y-66069765D01*
X138061500Y-72505224D01*
X138041815Y-72572263D01*
X138025176Y-72592911D01*
X137129790Y-73488187D01*
X137068465Y-73521668D01*
X137042114Y-73524500D01*
X136983318Y-73524500D01*
X136884816Y-73534563D01*
X136884815Y-73534564D01*
X136831385Y-73552269D01*
X136725215Y-73587450D01*
X136725204Y-73587455D01*
X136582112Y-73675716D01*
X136582108Y-73675719D01*
X136550181Y-73707647D01*
X136488858Y-73741132D01*
X136419166Y-73736148D01*
X136374819Y-73707647D01*
X136342891Y-73675719D01*
X136342887Y-73675716D01*
X136199795Y-73587455D01*
X136199789Y-73587452D01*
X136199787Y-73587451D01*
X136040185Y-73534564D01*
X136040183Y-73534563D01*
X135941681Y-73524500D01*
X135941674Y-73524500D01*
X135408326Y-73524500D01*
X135408318Y-73524500D01*
X135309816Y-73534563D01*
X135309815Y-73534564D01*
X135256385Y-73552269D01*
X135150215Y-73587450D01*
X135150204Y-73587455D01*
X135007112Y-73675716D01*
X135007108Y-73675719D01*
X134888220Y-73794607D01*
X134888219Y-73794609D01*
X134866020Y-73830598D01*
X134814074Y-73877321D01*
X134760483Y-73889500D01*
X133900823Y-73889500D01*
X133833784Y-73869815D01*
X133794706Y-73829650D01*
X133794297Y-73828974D01*
X133723472Y-73711815D01*
X133723470Y-73711813D01*
X133723469Y-73711811D01*
X133603188Y-73591530D01*
X133596442Y-73587452D01*
X133457606Y-73503522D01*
X133295196Y-73452914D01*
X133295194Y-73452913D01*
X133295192Y-73452913D01*
X133245778Y-73448423D01*
X133224616Y-73446500D01*
X132711384Y-73446500D01*
X132692145Y-73448248D01*
X132640807Y-73452913D01*
X132478393Y-73503522D01*
X132332811Y-73591530D01*
X132332810Y-73591531D01*
X132230681Y-73693661D01*
X132169358Y-73727146D01*
X132099666Y-73722162D01*
X132055319Y-73693661D01*
X131953191Y-73591533D01*
X131950643Y-73589537D01*
X131949258Y-73587600D01*
X131947882Y-73586224D01*
X131948110Y-73585995D01*
X131910007Y-73532699D01*
X131905495Y-73516117D01*
X131905039Y-73513824D01*
X131859018Y-73402720D01*
X131859017Y-73402719D01*
X131859014Y-73402713D01*
X131792207Y-73302730D01*
X131754509Y-73265032D01*
X131707171Y-73217694D01*
X130408919Y-71919442D01*
X130375434Y-71858119D01*
X130372600Y-71831761D01*
X130372600Y-71394070D01*
X130372599Y-71394066D01*
X130349141Y-71276131D01*
X130349138Y-71276122D01*
X130320300Y-71206499D01*
X130303120Y-71165023D01*
X130303119Y-71165021D01*
X130288102Y-71142547D01*
X130236306Y-71065029D01*
X130236303Y-71065025D01*
X130201719Y-71030441D01*
X130168234Y-70969118D01*
X130165400Y-70942760D01*
X130165400Y-70129970D01*
X130165399Y-70129966D01*
X130147098Y-70037961D01*
X130141939Y-70012024D01*
X130095918Y-69900920D01*
X130095917Y-69900919D01*
X130095914Y-69900913D01*
X130029107Y-69800930D01*
X130003011Y-69774834D01*
X129944071Y-69715894D01*
X129054424Y-68826247D01*
X128156774Y-67928596D01*
X128156768Y-67928591D01*
X128136570Y-67915095D01*
X128091766Y-67861483D01*
X128083059Y-67792157D01*
X128108913Y-67734185D01*
X128130374Y-67707555D01*
X128139929Y-67695699D01*
X128139929Y-67695698D01*
X128142622Y-67692357D01*
X128161366Y-67673614D01*
X128164699Y-67670927D01*
X128164701Y-67670927D01*
X128211383Y-67633308D01*
X128667993Y-67176696D01*
X128705614Y-67130014D01*
X128705613Y-67130014D01*
X128708305Y-67126675D01*
X128727048Y-67107932D01*
X128730384Y-67105242D01*
X128730387Y-67105242D01*
X128777069Y-67067623D01*
X129233679Y-66611011D01*
X129271300Y-66564329D01*
X129271301Y-66564326D01*
X129273994Y-66560985D01*
X129292739Y-66542240D01*
X129296066Y-66539558D01*
X129296072Y-66539556D01*
X129342754Y-66501937D01*
X129617377Y-66227312D01*
X129678697Y-66193829D01*
X129748389Y-66198813D01*
X129792737Y-66227314D01*
X130541594Y-66976171D01*
X130592305Y-67026882D01*
X130626630Y-67061207D01*
X130726613Y-67128014D01*
X130726622Y-67128019D01*
X130751790Y-67138444D01*
X130837724Y-67174039D01*
X130837730Y-67174040D01*
X130840069Y-67174750D01*
X130841148Y-67175457D01*
X130843352Y-67176370D01*
X130843178Y-67176787D01*
X130898510Y-67213045D01*
X130926969Y-67276856D01*
X130927369Y-67280158D01*
X130928909Y-67294485D01*
X130965901Y-67393668D01*
X130970885Y-67463360D01*
X130965901Y-67480332D01*
X130928909Y-67579514D01*
X130928908Y-67579516D01*
X130922501Y-67639116D01*
X130922500Y-67639135D01*
X130922500Y-68934870D01*
X130922501Y-68934876D01*
X130928908Y-68994483D01*
X130979202Y-69129328D01*
X130979206Y-69129335D01*
X131065452Y-69244544D01*
X131065455Y-69244547D01*
X131180664Y-69330793D01*
X131180671Y-69330797D01*
X131225618Y-69347561D01*
X131315517Y-69381091D01*
X131375127Y-69387500D01*
X131514492Y-69387499D01*
X131581530Y-69407183D01*
X131627285Y-69459987D01*
X131637229Y-69529145D01*
X131620030Y-69576596D01*
X131560998Y-69672300D01*
X131560996Y-69672305D01*
X131507651Y-69833290D01*
X131497500Y-69932647D01*
X131497500Y-70529337D01*
X131497501Y-70529355D01*
X131507650Y-70628707D01*
X131507651Y-70628710D01*
X131560996Y-70789694D01*
X131561001Y-70789705D01*
X131650029Y-70934040D01*
X131650032Y-70934044D01*
X131769955Y-71053967D01*
X131769959Y-71053970D01*
X131914294Y-71142998D01*
X131914297Y-71142999D01*
X131914303Y-71143003D01*
X132075292Y-71196349D01*
X132174655Y-71206500D01*
X132721344Y-71206499D01*
X132721352Y-71206498D01*
X132721355Y-71206498D01*
X132775760Y-71200940D01*
X132820708Y-71196349D01*
X132981697Y-71143003D01*
X133126044Y-71053968D01*
X133135668Y-71044343D01*
X133196987Y-71010856D01*
X133266679Y-71015835D01*
X133311034Y-71044339D01*
X133320267Y-71053572D01*
X133320271Y-71053575D01*
X133464507Y-71142542D01*
X133464518Y-71142547D01*
X133625393Y-71195855D01*
X133724683Y-71205999D01*
X134248000Y-71205999D01*
X134271308Y-71205999D01*
X134271322Y-71205998D01*
X134370607Y-71195855D01*
X134531481Y-71142547D01*
X134531492Y-71142542D01*
X134675728Y-71053575D01*
X134675732Y-71053572D01*
X134795572Y-70933732D01*
X134795575Y-70933728D01*
X134884542Y-70789492D01*
X134884547Y-70789481D01*
X134937855Y-70628606D01*
X134947999Y-70529322D01*
X134948000Y-70529309D01*
X134948000Y-70517322D01*
X135550001Y-70517322D01*
X135560144Y-70616607D01*
X135613452Y-70777481D01*
X135613457Y-70777492D01*
X135702424Y-70921728D01*
X135702427Y-70921732D01*
X135822267Y-71041572D01*
X135822271Y-71041575D01*
X135966507Y-71130542D01*
X135966518Y-71130547D01*
X136127393Y-71183855D01*
X136226683Y-71193999D01*
X136775000Y-71193999D01*
X136823308Y-71193999D01*
X136823322Y-71193998D01*
X136922607Y-71183855D01*
X137083481Y-71130547D01*
X137083492Y-71130542D01*
X137227728Y-71041575D01*
X137227732Y-71041572D01*
X137347572Y-70921732D01*
X137347575Y-70921728D01*
X137436542Y-70777492D01*
X137436547Y-70777481D01*
X137489855Y-70616606D01*
X137500000Y-70517319D01*
X137500000Y-70494000D01*
X136775000Y-70494000D01*
X136775000Y-71193999D01*
X136226683Y-71193999D01*
X136274999Y-71193998D01*
X136275000Y-71193998D01*
X136275000Y-70494000D01*
X135550001Y-70494000D01*
X135550001Y-70517322D01*
X134948000Y-70517322D01*
X134948000Y-70481000D01*
X134248000Y-70481000D01*
X134248000Y-71205999D01*
X133724683Y-71205999D01*
X133748000Y-71205998D01*
X133748000Y-70105000D01*
X133767685Y-70037961D01*
X133820489Y-69992206D01*
X133872000Y-69981000D01*
X134947999Y-69981000D01*
X134947999Y-69932692D01*
X134947998Y-69932677D01*
X134937855Y-69833392D01*
X134884547Y-69672518D01*
X134884542Y-69672507D01*
X134825383Y-69576596D01*
X134806942Y-69509204D01*
X134827864Y-69442540D01*
X134881506Y-69397771D01*
X134930921Y-69387499D01*
X135070871Y-69387499D01*
X135070872Y-69387499D01*
X135130483Y-69381091D01*
X135265331Y-69330796D01*
X135380546Y-69244546D01*
X135404517Y-69212523D01*
X135460448Y-69170654D01*
X135530140Y-69165669D01*
X135591463Y-69199153D01*
X135609321Y-69221738D01*
X135702029Y-69372040D01*
X135702032Y-69372044D01*
X135711660Y-69381672D01*
X135745145Y-69442995D01*
X135740161Y-69512687D01*
X135711663Y-69557031D01*
X135702428Y-69566265D01*
X135702424Y-69566271D01*
X135613457Y-69710507D01*
X135613452Y-69710518D01*
X135560144Y-69871393D01*
X135550000Y-69970677D01*
X135550000Y-69994000D01*
X137499999Y-69994000D01*
X137499999Y-69970692D01*
X137499998Y-69970677D01*
X137489855Y-69871392D01*
X137436547Y-69710518D01*
X137436542Y-69710507D01*
X137347575Y-69566271D01*
X137347572Y-69566267D01*
X137338339Y-69557034D01*
X137304854Y-69495711D01*
X137309838Y-69426019D01*
X137338343Y-69381668D01*
X137347968Y-69372044D01*
X137437003Y-69227697D01*
X137490349Y-69066708D01*
X137500500Y-68967345D01*
X137500499Y-68420656D01*
X137492852Y-68345800D01*
X137490349Y-68321292D01*
X137490348Y-68321289D01*
X137475447Y-68276320D01*
X137437003Y-68160303D01*
X137436999Y-68160297D01*
X137436998Y-68160294D01*
X137347970Y-68015959D01*
X137347967Y-68015955D01*
X137228044Y-67896032D01*
X137228040Y-67896029D01*
X137083705Y-67807001D01*
X137083699Y-67806998D01*
X137083697Y-67806997D01*
X137048778Y-67795426D01*
X136922709Y-67753651D01*
X136823352Y-67743500D01*
X136823345Y-67743500D01*
X136425854Y-67743500D01*
X136378402Y-67734061D01*
X136296077Y-67699961D01*
X136296068Y-67699958D01*
X136178133Y-67676500D01*
X136178129Y-67676500D01*
X136067500Y-67676500D01*
X136000461Y-67656815D01*
X135954706Y-67604011D01*
X135943500Y-67552500D01*
X135943500Y-65616870D01*
X135943499Y-65616866D01*
X135941727Y-65607958D01*
X135920039Y-65498924D01*
X135882469Y-65408222D01*
X135874018Y-65387819D01*
X135807206Y-65287829D01*
X135807203Y-65287825D01*
X135387674Y-64868296D01*
X135387670Y-64868293D01*
X135305520Y-64813402D01*
X135260715Y-64759790D01*
X135252008Y-64690465D01*
X135282162Y-64627437D01*
X135341605Y-64590718D01*
X135374411Y-64586300D01*
X136538620Y-64586300D01*
X136538659Y-64586300D01*
X136577981Y-64586318D01*
G37*
%TD.AperFunction*%
%TA.AperFunction,Conductor*%
G36*
X114317539Y-63599385D02*
G01*
X114363294Y-63652189D01*
X114374500Y-63703700D01*
X114374500Y-64993460D01*
X114354815Y-65060499D01*
X114302011Y-65106254D01*
X114232853Y-65116198D01*
X114169297Y-65087173D01*
X114162819Y-65081141D01*
X113125074Y-64043396D01*
X113125070Y-64043393D01*
X113025078Y-63976580D01*
X113025076Y-63976579D01*
X112913980Y-63930562D01*
X112913968Y-63930559D01*
X112796033Y-63907100D01*
X112796029Y-63907100D01*
X110657571Y-63907100D01*
X110636934Y-63911205D01*
X110537690Y-63930945D01*
X110468099Y-63924716D01*
X110412922Y-63881853D01*
X110389678Y-63815963D01*
X110389500Y-63809327D01*
X110389500Y-63703700D01*
X110409185Y-63636661D01*
X110461989Y-63590906D01*
X110513500Y-63579700D01*
X114250500Y-63579700D01*
X114317539Y-63599385D01*
G37*
%TD.AperFunction*%
%TA.AperFunction,Conductor*%
G36*
X118406398Y-61700909D02*
G01*
X118450745Y-61729410D01*
X118469483Y-61748148D01*
X118502968Y-61809471D01*
X118497984Y-61879163D01*
X118469483Y-61923510D01*
X117816212Y-62576783D01*
X117816203Y-62576793D01*
X117778590Y-62623465D01*
X117778587Y-62623471D01*
X117718799Y-62754385D01*
X117698319Y-62896842D01*
X117698319Y-62896845D01*
X117704159Y-62937470D01*
X117694214Y-63006628D01*
X117669104Y-63042793D01*
X117655957Y-63055940D01*
X117655957Y-63055941D01*
X117707458Y-63107442D01*
X117755673Y-63146296D01*
X117774419Y-63165042D01*
X117816205Y-63216896D01*
X117816209Y-63216900D01*
X118272809Y-63673499D01*
X118272821Y-63673510D01*
X118322842Y-63713822D01*
X118341585Y-63732565D01*
X118378113Y-63777894D01*
X118404851Y-63842446D01*
X118392445Y-63911205D01*
X118344834Y-63962342D01*
X118281561Y-63979700D01*
X118067388Y-63979700D01*
X118052724Y-63978256D01*
X118052691Y-63978597D01*
X118046629Y-63978000D01*
X117926371Y-63978000D01*
X117926366Y-63978000D01*
X117808431Y-64001459D01*
X117808419Y-64001462D01*
X117697323Y-64047479D01*
X117697321Y-64047480D01*
X117597329Y-64114293D01*
X117597325Y-64114296D01*
X116973442Y-64738181D01*
X116912119Y-64771666D01*
X116885761Y-64774500D01*
X116568384Y-64774500D01*
X116549145Y-64776248D01*
X116497807Y-64780913D01*
X116335393Y-64831522D01*
X116189811Y-64919530D01*
X116189810Y-64919531D01*
X116187181Y-64922161D01*
X116184781Y-64923471D01*
X116183906Y-64924157D01*
X116183792Y-64924011D01*
X116125858Y-64955646D01*
X116056166Y-64950662D01*
X116000233Y-64908790D01*
X115975816Y-64843326D01*
X115975500Y-64834480D01*
X115975500Y-63162131D01*
X115995185Y-63095092D01*
X116011813Y-63074455D01*
X116933182Y-62153057D01*
X116994502Y-62119573D01*
X117064194Y-62124557D01*
X117120128Y-62166427D01*
X117144546Y-62231891D01*
X117143600Y-62258384D01*
X117133138Y-62331156D01*
X117133138Y-62331157D01*
X117153598Y-62473471D01*
X117153599Y-62473476D01*
X117213325Y-62604255D01*
X117250905Y-62650890D01*
X117302404Y-62702389D01*
X118275383Y-61729410D01*
X118336706Y-61695925D01*
X118406398Y-61700909D01*
G37*
%TD.AperFunction*%
%TA.AperFunction,Conductor*%
G36*
X119878073Y-61050701D02*
G01*
X119884169Y-61050700D01*
X119884175Y-61050702D01*
X119938258Y-61050700D01*
X120005296Y-61070382D01*
X120025941Y-61087019D01*
X121339980Y-62401058D01*
X121373465Y-62462381D01*
X121368481Y-62532073D01*
X121326609Y-62588006D01*
X121261145Y-62612423D01*
X121252299Y-62612739D01*
X120800239Y-62612739D01*
X120733200Y-62593054D01*
X120717376Y-62580987D01*
X120716050Y-62579796D01*
X120666030Y-62539485D01*
X120647287Y-62520742D01*
X120644597Y-62517404D01*
X120644597Y-62517403D01*
X120606978Y-62470721D01*
X120537315Y-62401058D01*
X120150375Y-62014119D01*
X120150363Y-62014108D01*
X120100345Y-61973799D01*
X120081603Y-61955057D01*
X120041296Y-61905040D01*
X120041290Y-61905033D01*
X119584690Y-61448434D01*
X119584678Y-61448423D01*
X119532815Y-61406627D01*
X119514072Y-61387883D01*
X119475229Y-61339682D01*
X119475218Y-61339669D01*
X119397930Y-61262381D01*
X119364445Y-61201058D01*
X119369429Y-61131366D01*
X119411301Y-61075433D01*
X119476765Y-61051016D01*
X119485611Y-61050700D01*
X119878033Y-61050700D01*
X119878073Y-61050701D01*
G37*
%TD.AperFunction*%
%TA.AperFunction,Conductor*%
G36*
X110613812Y-60409865D02*
G01*
X110622268Y-60416195D01*
X110622271Y-60416197D01*
X110757117Y-60466491D01*
X110757116Y-60466491D01*
X110764044Y-60467235D01*
X110816727Y-60472900D01*
X111812472Y-60472899D01*
X111855250Y-60468300D01*
X111924008Y-60480706D01*
X111937394Y-60488488D01*
X112012119Y-60538418D01*
X112012120Y-60538418D01*
X112012121Y-60538419D01*
X112012123Y-60538420D01*
X112041029Y-60550393D01*
X112097382Y-60573735D01*
X112123224Y-60584439D01*
X112123226Y-60584439D01*
X112123231Y-60584441D01*
X112241166Y-60607899D01*
X112241170Y-60607900D01*
X115358682Y-60607900D01*
X115425721Y-60627585D01*
X115471476Y-60680389D01*
X115481903Y-60718022D01*
X115482131Y-60720052D01*
X115541710Y-60890321D01*
X115585323Y-60959730D01*
X115637257Y-61042383D01*
X115639614Y-61046133D01*
X115658614Y-61113369D01*
X115638246Y-61180205D01*
X115622303Y-61199785D01*
X114879733Y-61942380D01*
X114818410Y-61975866D01*
X114792050Y-61978700D01*
X110539500Y-61978700D01*
X110472461Y-61959015D01*
X110426706Y-61906211D01*
X110415500Y-61854700D01*
X110415500Y-60509131D01*
X110435185Y-60442092D01*
X110487989Y-60396337D01*
X110557147Y-60386393D01*
X110613812Y-60409865D01*
G37*
%TD.AperFunction*%
%TA.AperFunction,Conductor*%
G36*
X125684703Y-54963804D02*
G01*
X125691181Y-54969836D01*
X125768141Y-55046796D01*
X125768144Y-55046798D01*
X125768151Y-55046805D01*
X125814157Y-55083881D01*
X125818172Y-55087117D01*
X125836913Y-55105859D01*
X125877220Y-55155876D01*
X125877226Y-55155883D01*
X126333826Y-55612482D01*
X126333838Y-55612493D01*
X126383859Y-55652805D01*
X126402602Y-55671548D01*
X126442907Y-55721564D01*
X126442911Y-55721568D01*
X126899511Y-56178167D01*
X126899523Y-56178178D01*
X126949547Y-56218492D01*
X126968290Y-56237235D01*
X126970975Y-56240567D01*
X126970976Y-56240569D01*
X126978576Y-56250000D01*
X127008593Y-56287249D01*
X127008597Y-56287253D01*
X127465197Y-56743852D01*
X127465209Y-56743863D01*
X127517067Y-56785655D01*
X127535810Y-56804398D01*
X127574664Y-56852614D01*
X127626162Y-56904112D01*
X127639306Y-56890969D01*
X127700628Y-56857482D01*
X127744635Y-56855910D01*
X127785262Y-56861751D01*
X127897886Y-56845559D01*
X127967043Y-56855503D01*
X128019847Y-56901258D01*
X128039531Y-56968298D01*
X128038269Y-56985942D01*
X128022078Y-57098565D01*
X128022078Y-57098569D01*
X128027918Y-57139194D01*
X128017973Y-57208352D01*
X127992863Y-57244517D01*
X127979716Y-57257664D01*
X127979716Y-57257665D01*
X128031217Y-57309166D01*
X128079432Y-57348020D01*
X128098178Y-57366766D01*
X128139964Y-57418620D01*
X128139968Y-57418624D01*
X128596568Y-57875223D01*
X128596571Y-57875225D01*
X128596578Y-57875232D01*
X128624341Y-57897606D01*
X128646599Y-57915544D01*
X128665340Y-57934286D01*
X128668032Y-57937626D01*
X128705651Y-57984308D01*
X129029132Y-58307787D01*
X129062616Y-58369109D01*
X129057632Y-58438800D01*
X129056000Y-58442947D01*
X129046194Y-58466604D01*
X129046167Y-58466693D01*
X129043544Y-58479882D01*
X129034198Y-58526864D01*
X129032831Y-58533729D01*
X129022704Y-58584564D01*
X129022700Y-58584613D01*
X129022700Y-58644672D01*
X129022683Y-58704770D01*
X129022698Y-58704919D01*
X129034412Y-58763813D01*
X129034415Y-58763843D01*
X129034418Y-58763843D01*
X129046114Y-58822724D01*
X129046124Y-58822755D01*
X129047690Y-58827929D01*
X129047724Y-58828023D01*
X129047785Y-58828221D01*
X129047779Y-58828222D01*
X129047874Y-58828534D01*
X129046328Y-58829001D01*
X129052968Y-58890743D01*
X129047980Y-58909682D01*
X129036133Y-58943540D01*
X129036130Y-58943551D01*
X129015935Y-59122796D01*
X129015935Y-59122803D01*
X129036130Y-59302049D01*
X129036131Y-59302054D01*
X129095711Y-59472323D01*
X129191684Y-59625062D01*
X129319238Y-59752616D01*
X129471978Y-59848589D01*
X129606282Y-59895584D01*
X129642245Y-59908168D01*
X129642250Y-59908169D01*
X129821496Y-59928365D01*
X129821500Y-59928365D01*
X129821504Y-59928365D01*
X130000749Y-59908169D01*
X130000752Y-59908168D01*
X130000755Y-59908168D01*
X130171022Y-59848589D01*
X130305110Y-59764336D01*
X130329659Y-59748911D01*
X130330910Y-59750902D01*
X130385333Y-59728665D01*
X130454033Y-59741401D01*
X130485678Y-59764336D01*
X130859308Y-60137964D01*
X130859321Y-60137976D01*
X130909345Y-60178290D01*
X130928088Y-60197033D01*
X130930773Y-60200365D01*
X130930774Y-60200367D01*
X130942353Y-60214735D01*
X130968391Y-60247047D01*
X130968395Y-60247051D01*
X131426863Y-60705518D01*
X131460348Y-60766841D01*
X131455364Y-60836532D01*
X131426863Y-60880880D01*
X131381498Y-60926245D01*
X131320175Y-60959730D01*
X131250483Y-60954746D01*
X131228484Y-60942332D01*
X131227758Y-60943489D01*
X131215072Y-60935518D01*
X131143142Y-60890321D01*
X131069123Y-60843811D01*
X130898854Y-60784231D01*
X130898849Y-60784230D01*
X130719604Y-60764035D01*
X130719596Y-60764035D01*
X130540350Y-60784230D01*
X130540345Y-60784231D01*
X130370076Y-60843811D01*
X130217337Y-60939784D01*
X130089784Y-61067337D01*
X129993811Y-61220076D01*
X129934231Y-61390345D01*
X129934230Y-61390350D01*
X129915456Y-61556983D01*
X129888390Y-61621397D01*
X129830795Y-61660953D01*
X129792236Y-61667100D01*
X128536549Y-61667100D01*
X128469510Y-61647415D01*
X128423755Y-61594611D01*
X128413811Y-61525453D01*
X128442836Y-61461897D01*
X128448868Y-61455419D01*
X128791350Y-61112936D01*
X128791354Y-61112932D01*
X128828934Y-61066297D01*
X128888660Y-60935518D01*
X128888661Y-60935513D01*
X128909121Y-60793200D01*
X128888661Y-60650886D01*
X128888660Y-60650881D01*
X128828934Y-60520102D01*
X128791354Y-60473467D01*
X127343320Y-59025433D01*
X125309681Y-61059072D01*
X125248358Y-61092557D01*
X125178666Y-61087573D01*
X125134319Y-61059072D01*
X123100680Y-59025433D01*
X121752276Y-60373836D01*
X121690953Y-60407321D01*
X121621261Y-60402337D01*
X121576914Y-60373836D01*
X121361841Y-60158763D01*
X121328356Y-60097440D01*
X121333340Y-60027748D01*
X121361839Y-59983403D01*
X121449655Y-59895584D01*
X122673307Y-58671880D01*
X123454233Y-58671880D01*
X125222000Y-60439647D01*
X126989767Y-58671880D01*
X125541732Y-57223845D01*
X125495097Y-57186265D01*
X125364318Y-57126539D01*
X125364313Y-57126538D01*
X125222000Y-57106078D01*
X125079686Y-57126538D01*
X125079681Y-57126539D01*
X124948902Y-57186265D01*
X124902267Y-57223845D01*
X124902263Y-57223849D01*
X123454233Y-58671880D01*
X122673307Y-58671880D01*
X125263801Y-56081277D01*
X125297467Y-56047610D01*
X125300159Y-56045118D01*
X125300948Y-56044281D01*
X125301129Y-56044027D01*
X125303171Y-56040727D01*
X125352365Y-55967100D01*
X125387381Y-55914694D01*
X125388436Y-55913167D01*
X125389166Y-55911318D01*
X125441784Y-55784283D01*
X125447818Y-55769713D01*
X125448698Y-55767703D01*
X125448741Y-55767484D01*
X125448743Y-55767481D01*
X125470117Y-55660011D01*
X125479500Y-55612842D01*
X125479500Y-55612835D01*
X125479502Y-55612825D01*
X125479500Y-55484919D01*
X125479500Y-55057517D01*
X125499185Y-54990478D01*
X125551989Y-54944723D01*
X125621147Y-54934779D01*
X125684703Y-54963804D01*
G37*
%TD.AperFunction*%
%TD*%
M02*
