%TF.GenerationSoftware,KiCad,Pcbnew,8.0.5*%
%TF.CreationDate,2024-11-03T22:21:08+08:00*%
%TF.ProjectId,LEDshield,4c454473-6869-4656-9c64-2e6b69636164,rev?*%
%TF.SameCoordinates,Original*%
%TF.FileFunction,Legend,Bot*%
%TF.FilePolarity,Positive*%
%FSLAX46Y46*%
G04 Gerber Fmt 4.6, Leading zero omitted, Abs format (unit mm)*
G04 Created by KiCad (PCBNEW 8.0.5) date 2024-11-03 22:21:08*
%MOMM*%
%LPD*%
G01*
G04 APERTURE LIST*
%ADD10C,0.100000*%
%ADD11C,0.150000*%
%ADD12C,0.300000*%
%ADD13C,0.400000*%
%ADD14C,0.200000*%
%ADD15C,0.965000*%
%ADD16C,0.635000*%
G04 APERTURE END LIST*
D10*
D11*
X177002200Y-166007200D02*
X285002200Y-166007200D01*
X285002200Y-198007200D01*
X177002200Y-198007200D01*
X177002200Y-166007200D01*
D10*
D11*
X10000000Y-10000000D02*
X287002200Y-10000000D01*
X287002200Y-200007200D01*
X10000000Y-200007200D01*
X10000000Y-10000000D01*
D10*
D11*
X12000000Y-12000000D02*
X285002200Y-12000000D01*
X285002200Y-198007200D01*
X12000000Y-198007200D01*
X12000000Y-12000000D01*
D10*
D11*
X60000000Y-12000000D02*
X60000000Y-10000000D01*
D10*
D11*
X110000000Y-12000000D02*
X110000000Y-10000000D01*
D10*
D11*
X160000000Y-12000000D02*
X160000000Y-10000000D01*
D10*
D11*
X210000000Y-12000000D02*
X210000000Y-10000000D01*
D10*
D11*
X260000000Y-12000000D02*
X260000000Y-10000000D01*
D10*
D11*
X36089160Y-11593604D02*
X35346303Y-11593604D01*
X35717731Y-11593604D02*
X35717731Y-10293604D01*
X35717731Y-10293604D02*
X35593922Y-10479319D01*
X35593922Y-10479319D02*
X35470112Y-10603128D01*
X35470112Y-10603128D02*
X35346303Y-10665033D01*
D10*
D11*
X85346303Y-10417414D02*
X85408207Y-10355509D01*
X85408207Y-10355509D02*
X85532017Y-10293604D01*
X85532017Y-10293604D02*
X85841541Y-10293604D01*
X85841541Y-10293604D02*
X85965350Y-10355509D01*
X85965350Y-10355509D02*
X86027255Y-10417414D01*
X86027255Y-10417414D02*
X86089160Y-10541223D01*
X86089160Y-10541223D02*
X86089160Y-10665033D01*
X86089160Y-10665033D02*
X86027255Y-10850747D01*
X86027255Y-10850747D02*
X85284398Y-11593604D01*
X85284398Y-11593604D02*
X86089160Y-11593604D01*
D10*
D11*
X135284398Y-10293604D02*
X136089160Y-10293604D01*
X136089160Y-10293604D02*
X135655826Y-10788842D01*
X135655826Y-10788842D02*
X135841541Y-10788842D01*
X135841541Y-10788842D02*
X135965350Y-10850747D01*
X135965350Y-10850747D02*
X136027255Y-10912652D01*
X136027255Y-10912652D02*
X136089160Y-11036461D01*
X136089160Y-11036461D02*
X136089160Y-11345985D01*
X136089160Y-11345985D02*
X136027255Y-11469795D01*
X136027255Y-11469795D02*
X135965350Y-11531700D01*
X135965350Y-11531700D02*
X135841541Y-11593604D01*
X135841541Y-11593604D02*
X135470112Y-11593604D01*
X135470112Y-11593604D02*
X135346303Y-11531700D01*
X135346303Y-11531700D02*
X135284398Y-11469795D01*
D10*
D11*
X185965350Y-10726938D02*
X185965350Y-11593604D01*
X185655826Y-10231700D02*
X185346303Y-11160271D01*
X185346303Y-11160271D02*
X186151064Y-11160271D01*
D10*
D11*
X236027255Y-10293604D02*
X235408207Y-10293604D01*
X235408207Y-10293604D02*
X235346303Y-10912652D01*
X235346303Y-10912652D02*
X235408207Y-10850747D01*
X235408207Y-10850747D02*
X235532017Y-10788842D01*
X235532017Y-10788842D02*
X235841541Y-10788842D01*
X235841541Y-10788842D02*
X235965350Y-10850747D01*
X235965350Y-10850747D02*
X236027255Y-10912652D01*
X236027255Y-10912652D02*
X236089160Y-11036461D01*
X236089160Y-11036461D02*
X236089160Y-11345985D01*
X236089160Y-11345985D02*
X236027255Y-11469795D01*
X236027255Y-11469795D02*
X235965350Y-11531700D01*
X235965350Y-11531700D02*
X235841541Y-11593604D01*
X235841541Y-11593604D02*
X235532017Y-11593604D01*
X235532017Y-11593604D02*
X235408207Y-11531700D01*
X235408207Y-11531700D02*
X235346303Y-11469795D01*
D10*
D11*
X285965350Y-10293604D02*
X285717731Y-10293604D01*
X285717731Y-10293604D02*
X285593922Y-10355509D01*
X285593922Y-10355509D02*
X285532017Y-10417414D01*
X285532017Y-10417414D02*
X285408207Y-10603128D01*
X285408207Y-10603128D02*
X285346303Y-10850747D01*
X285346303Y-10850747D02*
X285346303Y-11345985D01*
X285346303Y-11345985D02*
X285408207Y-11469795D01*
X285408207Y-11469795D02*
X285470112Y-11531700D01*
X285470112Y-11531700D02*
X285593922Y-11593604D01*
X285593922Y-11593604D02*
X285841541Y-11593604D01*
X285841541Y-11593604D02*
X285965350Y-11531700D01*
X285965350Y-11531700D02*
X286027255Y-11469795D01*
X286027255Y-11469795D02*
X286089160Y-11345985D01*
X286089160Y-11345985D02*
X286089160Y-11036461D01*
X286089160Y-11036461D02*
X286027255Y-10912652D01*
X286027255Y-10912652D02*
X285965350Y-10850747D01*
X285965350Y-10850747D02*
X285841541Y-10788842D01*
X285841541Y-10788842D02*
X285593922Y-10788842D01*
X285593922Y-10788842D02*
X285470112Y-10850747D01*
X285470112Y-10850747D02*
X285408207Y-10912652D01*
X285408207Y-10912652D02*
X285346303Y-11036461D01*
D10*
D11*
X60000000Y-198007200D02*
X60000000Y-200007200D01*
D10*
D11*
X110000000Y-198007200D02*
X110000000Y-200007200D01*
D10*
D11*
X160000000Y-198007200D02*
X160000000Y-200007200D01*
D10*
D11*
X210000000Y-198007200D02*
X210000000Y-200007200D01*
D10*
D11*
X260000000Y-198007200D02*
X260000000Y-200007200D01*
D10*
D11*
X36089160Y-199600804D02*
X35346303Y-199600804D01*
X35717731Y-199600804D02*
X35717731Y-198300804D01*
X35717731Y-198300804D02*
X35593922Y-198486519D01*
X35593922Y-198486519D02*
X35470112Y-198610328D01*
X35470112Y-198610328D02*
X35346303Y-198672233D01*
D10*
D11*
X85346303Y-198424614D02*
X85408207Y-198362709D01*
X85408207Y-198362709D02*
X85532017Y-198300804D01*
X85532017Y-198300804D02*
X85841541Y-198300804D01*
X85841541Y-198300804D02*
X85965350Y-198362709D01*
X85965350Y-198362709D02*
X86027255Y-198424614D01*
X86027255Y-198424614D02*
X86089160Y-198548423D01*
X86089160Y-198548423D02*
X86089160Y-198672233D01*
X86089160Y-198672233D02*
X86027255Y-198857947D01*
X86027255Y-198857947D02*
X85284398Y-199600804D01*
X85284398Y-199600804D02*
X86089160Y-199600804D01*
D10*
D11*
X135284398Y-198300804D02*
X136089160Y-198300804D01*
X136089160Y-198300804D02*
X135655826Y-198796042D01*
X135655826Y-198796042D02*
X135841541Y-198796042D01*
X135841541Y-198796042D02*
X135965350Y-198857947D01*
X135965350Y-198857947D02*
X136027255Y-198919852D01*
X136027255Y-198919852D02*
X136089160Y-199043661D01*
X136089160Y-199043661D02*
X136089160Y-199353185D01*
X136089160Y-199353185D02*
X136027255Y-199476995D01*
X136027255Y-199476995D02*
X135965350Y-199538900D01*
X135965350Y-199538900D02*
X135841541Y-199600804D01*
X135841541Y-199600804D02*
X135470112Y-199600804D01*
X135470112Y-199600804D02*
X135346303Y-199538900D01*
X135346303Y-199538900D02*
X135284398Y-199476995D01*
D10*
D11*
X185965350Y-198734138D02*
X185965350Y-199600804D01*
X185655826Y-198238900D02*
X185346303Y-199167471D01*
X185346303Y-199167471D02*
X186151064Y-199167471D01*
D10*
D11*
X236027255Y-198300804D02*
X235408207Y-198300804D01*
X235408207Y-198300804D02*
X235346303Y-198919852D01*
X235346303Y-198919852D02*
X235408207Y-198857947D01*
X235408207Y-198857947D02*
X235532017Y-198796042D01*
X235532017Y-198796042D02*
X235841541Y-198796042D01*
X235841541Y-198796042D02*
X235965350Y-198857947D01*
X235965350Y-198857947D02*
X236027255Y-198919852D01*
X236027255Y-198919852D02*
X236089160Y-199043661D01*
X236089160Y-199043661D02*
X236089160Y-199353185D01*
X236089160Y-199353185D02*
X236027255Y-199476995D01*
X236027255Y-199476995D02*
X235965350Y-199538900D01*
X235965350Y-199538900D02*
X235841541Y-199600804D01*
X235841541Y-199600804D02*
X235532017Y-199600804D01*
X235532017Y-199600804D02*
X235408207Y-199538900D01*
X235408207Y-199538900D02*
X235346303Y-199476995D01*
D10*
D11*
X285965350Y-198300804D02*
X285717731Y-198300804D01*
X285717731Y-198300804D02*
X285593922Y-198362709D01*
X285593922Y-198362709D02*
X285532017Y-198424614D01*
X285532017Y-198424614D02*
X285408207Y-198610328D01*
X285408207Y-198610328D02*
X285346303Y-198857947D01*
X285346303Y-198857947D02*
X285346303Y-199353185D01*
X285346303Y-199353185D02*
X285408207Y-199476995D01*
X285408207Y-199476995D02*
X285470112Y-199538900D01*
X285470112Y-199538900D02*
X285593922Y-199600804D01*
X285593922Y-199600804D02*
X285841541Y-199600804D01*
X285841541Y-199600804D02*
X285965350Y-199538900D01*
X285965350Y-199538900D02*
X286027255Y-199476995D01*
X286027255Y-199476995D02*
X286089160Y-199353185D01*
X286089160Y-199353185D02*
X286089160Y-199043661D01*
X286089160Y-199043661D02*
X286027255Y-198919852D01*
X286027255Y-198919852D02*
X285965350Y-198857947D01*
X285965350Y-198857947D02*
X285841541Y-198796042D01*
X285841541Y-198796042D02*
X285593922Y-198796042D01*
X285593922Y-198796042D02*
X285470112Y-198857947D01*
X285470112Y-198857947D02*
X285408207Y-198919852D01*
X285408207Y-198919852D02*
X285346303Y-199043661D01*
D10*
D11*
X10000000Y-60000000D02*
X12000000Y-60000000D01*
D10*
D11*
X10000000Y-110000000D02*
X12000000Y-110000000D01*
D10*
D11*
X10000000Y-160000000D02*
X12000000Y-160000000D01*
D10*
D11*
X10690476Y-35222176D02*
X11309523Y-35222176D01*
X10566666Y-35593604D02*
X10999999Y-34293604D01*
X10999999Y-34293604D02*
X11433333Y-35593604D01*
D10*
D11*
X11092857Y-84912652D02*
X11278571Y-84974557D01*
X11278571Y-84974557D02*
X11340476Y-85036461D01*
X11340476Y-85036461D02*
X11402380Y-85160271D01*
X11402380Y-85160271D02*
X11402380Y-85345985D01*
X11402380Y-85345985D02*
X11340476Y-85469795D01*
X11340476Y-85469795D02*
X11278571Y-85531700D01*
X11278571Y-85531700D02*
X11154761Y-85593604D01*
X11154761Y-85593604D02*
X10659523Y-85593604D01*
X10659523Y-85593604D02*
X10659523Y-84293604D01*
X10659523Y-84293604D02*
X11092857Y-84293604D01*
X11092857Y-84293604D02*
X11216666Y-84355509D01*
X11216666Y-84355509D02*
X11278571Y-84417414D01*
X11278571Y-84417414D02*
X11340476Y-84541223D01*
X11340476Y-84541223D02*
X11340476Y-84665033D01*
X11340476Y-84665033D02*
X11278571Y-84788842D01*
X11278571Y-84788842D02*
X11216666Y-84850747D01*
X11216666Y-84850747D02*
X11092857Y-84912652D01*
X11092857Y-84912652D02*
X10659523Y-84912652D01*
D10*
D11*
X11402380Y-135469795D02*
X11340476Y-135531700D01*
X11340476Y-135531700D02*
X11154761Y-135593604D01*
X11154761Y-135593604D02*
X11030952Y-135593604D01*
X11030952Y-135593604D02*
X10845238Y-135531700D01*
X10845238Y-135531700D02*
X10721428Y-135407890D01*
X10721428Y-135407890D02*
X10659523Y-135284080D01*
X10659523Y-135284080D02*
X10597619Y-135036461D01*
X10597619Y-135036461D02*
X10597619Y-134850747D01*
X10597619Y-134850747D02*
X10659523Y-134603128D01*
X10659523Y-134603128D02*
X10721428Y-134479319D01*
X10721428Y-134479319D02*
X10845238Y-134355509D01*
X10845238Y-134355509D02*
X11030952Y-134293604D01*
X11030952Y-134293604D02*
X11154761Y-134293604D01*
X11154761Y-134293604D02*
X11340476Y-134355509D01*
X11340476Y-134355509D02*
X11402380Y-134417414D01*
D10*
D11*
X10659523Y-185593604D02*
X10659523Y-184293604D01*
X10659523Y-184293604D02*
X10969047Y-184293604D01*
X10969047Y-184293604D02*
X11154761Y-184355509D01*
X11154761Y-184355509D02*
X11278571Y-184479319D01*
X11278571Y-184479319D02*
X11340476Y-184603128D01*
X11340476Y-184603128D02*
X11402380Y-184850747D01*
X11402380Y-184850747D02*
X11402380Y-185036461D01*
X11402380Y-185036461D02*
X11340476Y-185284080D01*
X11340476Y-185284080D02*
X11278571Y-185407890D01*
X11278571Y-185407890D02*
X11154761Y-185531700D01*
X11154761Y-185531700D02*
X10969047Y-185593604D01*
X10969047Y-185593604D02*
X10659523Y-185593604D01*
D10*
D11*
X287002200Y-60000000D02*
X285002200Y-60000000D01*
D10*
D11*
X287002200Y-110000000D02*
X285002200Y-110000000D01*
D10*
D11*
X287002200Y-160000000D02*
X285002200Y-160000000D01*
D10*
D11*
X285692676Y-35222176D02*
X286311723Y-35222176D01*
X285568866Y-35593604D02*
X286002199Y-34293604D01*
X286002199Y-34293604D02*
X286435533Y-35593604D01*
D10*
D11*
X286095057Y-84912652D02*
X286280771Y-84974557D01*
X286280771Y-84974557D02*
X286342676Y-85036461D01*
X286342676Y-85036461D02*
X286404580Y-85160271D01*
X286404580Y-85160271D02*
X286404580Y-85345985D01*
X286404580Y-85345985D02*
X286342676Y-85469795D01*
X286342676Y-85469795D02*
X286280771Y-85531700D01*
X286280771Y-85531700D02*
X286156961Y-85593604D01*
X286156961Y-85593604D02*
X285661723Y-85593604D01*
X285661723Y-85593604D02*
X285661723Y-84293604D01*
X285661723Y-84293604D02*
X286095057Y-84293604D01*
X286095057Y-84293604D02*
X286218866Y-84355509D01*
X286218866Y-84355509D02*
X286280771Y-84417414D01*
X286280771Y-84417414D02*
X286342676Y-84541223D01*
X286342676Y-84541223D02*
X286342676Y-84665033D01*
X286342676Y-84665033D02*
X286280771Y-84788842D01*
X286280771Y-84788842D02*
X286218866Y-84850747D01*
X286218866Y-84850747D02*
X286095057Y-84912652D01*
X286095057Y-84912652D02*
X285661723Y-84912652D01*
D10*
D11*
X286404580Y-135469795D02*
X286342676Y-135531700D01*
X286342676Y-135531700D02*
X286156961Y-135593604D01*
X286156961Y-135593604D02*
X286033152Y-135593604D01*
X286033152Y-135593604D02*
X285847438Y-135531700D01*
X285847438Y-135531700D02*
X285723628Y-135407890D01*
X285723628Y-135407890D02*
X285661723Y-135284080D01*
X285661723Y-135284080D02*
X285599819Y-135036461D01*
X285599819Y-135036461D02*
X285599819Y-134850747D01*
X285599819Y-134850747D02*
X285661723Y-134603128D01*
X285661723Y-134603128D02*
X285723628Y-134479319D01*
X285723628Y-134479319D02*
X285847438Y-134355509D01*
X285847438Y-134355509D02*
X286033152Y-134293604D01*
X286033152Y-134293604D02*
X286156961Y-134293604D01*
X286156961Y-134293604D02*
X286342676Y-134355509D01*
X286342676Y-134355509D02*
X286404580Y-134417414D01*
D10*
D11*
X285661723Y-185593604D02*
X285661723Y-184293604D01*
X285661723Y-184293604D02*
X285971247Y-184293604D01*
X285971247Y-184293604D02*
X286156961Y-184355509D01*
X286156961Y-184355509D02*
X286280771Y-184479319D01*
X286280771Y-184479319D02*
X286342676Y-184603128D01*
X286342676Y-184603128D02*
X286404580Y-184850747D01*
X286404580Y-184850747D02*
X286404580Y-185036461D01*
X286404580Y-185036461D02*
X286342676Y-185284080D01*
X286342676Y-185284080D02*
X286280771Y-185407890D01*
X286280771Y-185407890D02*
X286156961Y-185531700D01*
X286156961Y-185531700D02*
X285971247Y-185593604D01*
X285971247Y-185593604D02*
X285661723Y-185593604D01*
D10*
D11*
X200458026Y-193793328D02*
X200458026Y-192293328D01*
X200458026Y-192293328D02*
X200815169Y-192293328D01*
X200815169Y-192293328D02*
X201029455Y-192364757D01*
X201029455Y-192364757D02*
X201172312Y-192507614D01*
X201172312Y-192507614D02*
X201243741Y-192650471D01*
X201243741Y-192650471D02*
X201315169Y-192936185D01*
X201315169Y-192936185D02*
X201315169Y-193150471D01*
X201315169Y-193150471D02*
X201243741Y-193436185D01*
X201243741Y-193436185D02*
X201172312Y-193579042D01*
X201172312Y-193579042D02*
X201029455Y-193721900D01*
X201029455Y-193721900D02*
X200815169Y-193793328D01*
X200815169Y-193793328D02*
X200458026Y-193793328D01*
X202600884Y-193793328D02*
X202600884Y-193007614D01*
X202600884Y-193007614D02*
X202529455Y-192864757D01*
X202529455Y-192864757D02*
X202386598Y-192793328D01*
X202386598Y-192793328D02*
X202100884Y-192793328D01*
X202100884Y-192793328D02*
X201958026Y-192864757D01*
X202600884Y-193721900D02*
X202458026Y-193793328D01*
X202458026Y-193793328D02*
X202100884Y-193793328D01*
X202100884Y-193793328D02*
X201958026Y-193721900D01*
X201958026Y-193721900D02*
X201886598Y-193579042D01*
X201886598Y-193579042D02*
X201886598Y-193436185D01*
X201886598Y-193436185D02*
X201958026Y-193293328D01*
X201958026Y-193293328D02*
X202100884Y-193221900D01*
X202100884Y-193221900D02*
X202458026Y-193221900D01*
X202458026Y-193221900D02*
X202600884Y-193150471D01*
X203100884Y-192793328D02*
X203672312Y-192793328D01*
X203315169Y-192293328D02*
X203315169Y-193579042D01*
X203315169Y-193579042D02*
X203386598Y-193721900D01*
X203386598Y-193721900D02*
X203529455Y-193793328D01*
X203529455Y-193793328D02*
X203672312Y-193793328D01*
X204743741Y-193721900D02*
X204600884Y-193793328D01*
X204600884Y-193793328D02*
X204315170Y-193793328D01*
X204315170Y-193793328D02*
X204172312Y-193721900D01*
X204172312Y-193721900D02*
X204100884Y-193579042D01*
X204100884Y-193579042D02*
X204100884Y-193007614D01*
X204100884Y-193007614D02*
X204172312Y-192864757D01*
X204172312Y-192864757D02*
X204315170Y-192793328D01*
X204315170Y-192793328D02*
X204600884Y-192793328D01*
X204600884Y-192793328D02*
X204743741Y-192864757D01*
X204743741Y-192864757D02*
X204815170Y-193007614D01*
X204815170Y-193007614D02*
X204815170Y-193150471D01*
X204815170Y-193150471D02*
X204100884Y-193293328D01*
X205458026Y-193650471D02*
X205529455Y-193721900D01*
X205529455Y-193721900D02*
X205458026Y-193793328D01*
X205458026Y-193793328D02*
X205386598Y-193721900D01*
X205386598Y-193721900D02*
X205458026Y-193650471D01*
X205458026Y-193650471D02*
X205458026Y-193793328D01*
X205458026Y-192864757D02*
X205529455Y-192936185D01*
X205529455Y-192936185D02*
X205458026Y-193007614D01*
X205458026Y-193007614D02*
X205386598Y-192936185D01*
X205386598Y-192936185D02*
X205458026Y-192864757D01*
X205458026Y-192864757D02*
X205458026Y-193007614D01*
D10*
D11*
X177002200Y-194507200D02*
X285002200Y-194507200D01*
D10*
D11*
X178458026Y-196593328D02*
X178458026Y-195093328D01*
X179315169Y-196593328D02*
X178672312Y-195736185D01*
X179315169Y-195093328D02*
X178458026Y-195950471D01*
X179958026Y-196593328D02*
X179958026Y-195593328D01*
X179958026Y-195093328D02*
X179886598Y-195164757D01*
X179886598Y-195164757D02*
X179958026Y-195236185D01*
X179958026Y-195236185D02*
X180029455Y-195164757D01*
X180029455Y-195164757D02*
X179958026Y-195093328D01*
X179958026Y-195093328D02*
X179958026Y-195236185D01*
X181529455Y-196450471D02*
X181458027Y-196521900D01*
X181458027Y-196521900D02*
X181243741Y-196593328D01*
X181243741Y-196593328D02*
X181100884Y-196593328D01*
X181100884Y-196593328D02*
X180886598Y-196521900D01*
X180886598Y-196521900D02*
X180743741Y-196379042D01*
X180743741Y-196379042D02*
X180672312Y-196236185D01*
X180672312Y-196236185D02*
X180600884Y-195950471D01*
X180600884Y-195950471D02*
X180600884Y-195736185D01*
X180600884Y-195736185D02*
X180672312Y-195450471D01*
X180672312Y-195450471D02*
X180743741Y-195307614D01*
X180743741Y-195307614D02*
X180886598Y-195164757D01*
X180886598Y-195164757D02*
X181100884Y-195093328D01*
X181100884Y-195093328D02*
X181243741Y-195093328D01*
X181243741Y-195093328D02*
X181458027Y-195164757D01*
X181458027Y-195164757D02*
X181529455Y-195236185D01*
X182815170Y-196593328D02*
X182815170Y-195807614D01*
X182815170Y-195807614D02*
X182743741Y-195664757D01*
X182743741Y-195664757D02*
X182600884Y-195593328D01*
X182600884Y-195593328D02*
X182315170Y-195593328D01*
X182315170Y-195593328D02*
X182172312Y-195664757D01*
X182815170Y-196521900D02*
X182672312Y-196593328D01*
X182672312Y-196593328D02*
X182315170Y-196593328D01*
X182315170Y-196593328D02*
X182172312Y-196521900D01*
X182172312Y-196521900D02*
X182100884Y-196379042D01*
X182100884Y-196379042D02*
X182100884Y-196236185D01*
X182100884Y-196236185D02*
X182172312Y-196093328D01*
X182172312Y-196093328D02*
X182315170Y-196021900D01*
X182315170Y-196021900D02*
X182672312Y-196021900D01*
X182672312Y-196021900D02*
X182815170Y-195950471D01*
X184172313Y-196593328D02*
X184172313Y-195093328D01*
X184172313Y-196521900D02*
X184029455Y-196593328D01*
X184029455Y-196593328D02*
X183743741Y-196593328D01*
X183743741Y-196593328D02*
X183600884Y-196521900D01*
X183600884Y-196521900D02*
X183529455Y-196450471D01*
X183529455Y-196450471D02*
X183458027Y-196307614D01*
X183458027Y-196307614D02*
X183458027Y-195879042D01*
X183458027Y-195879042D02*
X183529455Y-195736185D01*
X183529455Y-195736185D02*
X183600884Y-195664757D01*
X183600884Y-195664757D02*
X183743741Y-195593328D01*
X183743741Y-195593328D02*
X184029455Y-195593328D01*
X184029455Y-195593328D02*
X184172313Y-195664757D01*
X186029455Y-195807614D02*
X186529455Y-195807614D01*
X186743741Y-196593328D02*
X186029455Y-196593328D01*
X186029455Y-196593328D02*
X186029455Y-195093328D01*
X186029455Y-195093328D02*
X186743741Y-195093328D01*
X187386598Y-196450471D02*
X187458027Y-196521900D01*
X187458027Y-196521900D02*
X187386598Y-196593328D01*
X187386598Y-196593328D02*
X187315170Y-196521900D01*
X187315170Y-196521900D02*
X187386598Y-196450471D01*
X187386598Y-196450471D02*
X187386598Y-196593328D01*
X188100884Y-196593328D02*
X188100884Y-195093328D01*
X188100884Y-195093328D02*
X188458027Y-195093328D01*
X188458027Y-195093328D02*
X188672313Y-195164757D01*
X188672313Y-195164757D02*
X188815170Y-195307614D01*
X188815170Y-195307614D02*
X188886599Y-195450471D01*
X188886599Y-195450471D02*
X188958027Y-195736185D01*
X188958027Y-195736185D02*
X188958027Y-195950471D01*
X188958027Y-195950471D02*
X188886599Y-196236185D01*
X188886599Y-196236185D02*
X188815170Y-196379042D01*
X188815170Y-196379042D02*
X188672313Y-196521900D01*
X188672313Y-196521900D02*
X188458027Y-196593328D01*
X188458027Y-196593328D02*
X188100884Y-196593328D01*
X189600884Y-196450471D02*
X189672313Y-196521900D01*
X189672313Y-196521900D02*
X189600884Y-196593328D01*
X189600884Y-196593328D02*
X189529456Y-196521900D01*
X189529456Y-196521900D02*
X189600884Y-196450471D01*
X189600884Y-196450471D02*
X189600884Y-196593328D01*
X190243742Y-196164757D02*
X190958028Y-196164757D01*
X190100885Y-196593328D02*
X190600885Y-195093328D01*
X190600885Y-195093328D02*
X191100885Y-196593328D01*
X191600884Y-196450471D02*
X191672313Y-196521900D01*
X191672313Y-196521900D02*
X191600884Y-196593328D01*
X191600884Y-196593328D02*
X191529456Y-196521900D01*
X191529456Y-196521900D02*
X191600884Y-196450471D01*
X191600884Y-196450471D02*
X191600884Y-196593328D01*
X193672313Y-195736185D02*
X193529456Y-195664757D01*
X193529456Y-195664757D02*
X193458027Y-195593328D01*
X193458027Y-195593328D02*
X193386599Y-195450471D01*
X193386599Y-195450471D02*
X193386599Y-195379042D01*
X193386599Y-195379042D02*
X193458027Y-195236185D01*
X193458027Y-195236185D02*
X193529456Y-195164757D01*
X193529456Y-195164757D02*
X193672313Y-195093328D01*
X193672313Y-195093328D02*
X193958027Y-195093328D01*
X193958027Y-195093328D02*
X194100885Y-195164757D01*
X194100885Y-195164757D02*
X194172313Y-195236185D01*
X194172313Y-195236185D02*
X194243742Y-195379042D01*
X194243742Y-195379042D02*
X194243742Y-195450471D01*
X194243742Y-195450471D02*
X194172313Y-195593328D01*
X194172313Y-195593328D02*
X194100885Y-195664757D01*
X194100885Y-195664757D02*
X193958027Y-195736185D01*
X193958027Y-195736185D02*
X193672313Y-195736185D01*
X193672313Y-195736185D02*
X193529456Y-195807614D01*
X193529456Y-195807614D02*
X193458027Y-195879042D01*
X193458027Y-195879042D02*
X193386599Y-196021900D01*
X193386599Y-196021900D02*
X193386599Y-196307614D01*
X193386599Y-196307614D02*
X193458027Y-196450471D01*
X193458027Y-196450471D02*
X193529456Y-196521900D01*
X193529456Y-196521900D02*
X193672313Y-196593328D01*
X193672313Y-196593328D02*
X193958027Y-196593328D01*
X193958027Y-196593328D02*
X194100885Y-196521900D01*
X194100885Y-196521900D02*
X194172313Y-196450471D01*
X194172313Y-196450471D02*
X194243742Y-196307614D01*
X194243742Y-196307614D02*
X194243742Y-196021900D01*
X194243742Y-196021900D02*
X194172313Y-195879042D01*
X194172313Y-195879042D02*
X194100885Y-195807614D01*
X194100885Y-195807614D02*
X193958027Y-195736185D01*
X194886598Y-196450471D02*
X194958027Y-196521900D01*
X194958027Y-196521900D02*
X194886598Y-196593328D01*
X194886598Y-196593328D02*
X194815170Y-196521900D01*
X194815170Y-196521900D02*
X194886598Y-196450471D01*
X194886598Y-196450471D02*
X194886598Y-196593328D01*
X195886599Y-195093328D02*
X196029456Y-195093328D01*
X196029456Y-195093328D02*
X196172313Y-195164757D01*
X196172313Y-195164757D02*
X196243742Y-195236185D01*
X196243742Y-195236185D02*
X196315170Y-195379042D01*
X196315170Y-195379042D02*
X196386599Y-195664757D01*
X196386599Y-195664757D02*
X196386599Y-196021900D01*
X196386599Y-196021900D02*
X196315170Y-196307614D01*
X196315170Y-196307614D02*
X196243742Y-196450471D01*
X196243742Y-196450471D02*
X196172313Y-196521900D01*
X196172313Y-196521900D02*
X196029456Y-196593328D01*
X196029456Y-196593328D02*
X195886599Y-196593328D01*
X195886599Y-196593328D02*
X195743742Y-196521900D01*
X195743742Y-196521900D02*
X195672313Y-196450471D01*
X195672313Y-196450471D02*
X195600884Y-196307614D01*
X195600884Y-196307614D02*
X195529456Y-196021900D01*
X195529456Y-196021900D02*
X195529456Y-195664757D01*
X195529456Y-195664757D02*
X195600884Y-195379042D01*
X195600884Y-195379042D02*
X195672313Y-195236185D01*
X195672313Y-195236185D02*
X195743742Y-195164757D01*
X195743742Y-195164757D02*
X195886599Y-195093328D01*
X197029455Y-196450471D02*
X197100884Y-196521900D01*
X197100884Y-196521900D02*
X197029455Y-196593328D01*
X197029455Y-196593328D02*
X196958027Y-196521900D01*
X196958027Y-196521900D02*
X197029455Y-196450471D01*
X197029455Y-196450471D02*
X197029455Y-196593328D01*
X198458027Y-195093328D02*
X197743741Y-195093328D01*
X197743741Y-195093328D02*
X197672313Y-195807614D01*
X197672313Y-195807614D02*
X197743741Y-195736185D01*
X197743741Y-195736185D02*
X197886599Y-195664757D01*
X197886599Y-195664757D02*
X198243741Y-195664757D01*
X198243741Y-195664757D02*
X198386599Y-195736185D01*
X198386599Y-195736185D02*
X198458027Y-195807614D01*
X198458027Y-195807614D02*
X198529456Y-195950471D01*
X198529456Y-195950471D02*
X198529456Y-196307614D01*
X198529456Y-196307614D02*
X198458027Y-196450471D01*
X198458027Y-196450471D02*
X198386599Y-196521900D01*
X198386599Y-196521900D02*
X198243741Y-196593328D01*
X198243741Y-196593328D02*
X197886599Y-196593328D01*
X197886599Y-196593328D02*
X197743741Y-196521900D01*
X197743741Y-196521900D02*
X197672313Y-196450471D01*
D10*
D11*
X177002200Y-191507200D02*
X285002200Y-191507200D01*
D10*
D12*
X264413853Y-193785528D02*
X263913853Y-193071242D01*
X263556710Y-193785528D02*
X263556710Y-192285528D01*
X263556710Y-192285528D02*
X264128139Y-192285528D01*
X264128139Y-192285528D02*
X264270996Y-192356957D01*
X264270996Y-192356957D02*
X264342425Y-192428385D01*
X264342425Y-192428385D02*
X264413853Y-192571242D01*
X264413853Y-192571242D02*
X264413853Y-192785528D01*
X264413853Y-192785528D02*
X264342425Y-192928385D01*
X264342425Y-192928385D02*
X264270996Y-192999814D01*
X264270996Y-192999814D02*
X264128139Y-193071242D01*
X264128139Y-193071242D02*
X263556710Y-193071242D01*
X265628139Y-193714100D02*
X265485282Y-193785528D01*
X265485282Y-193785528D02*
X265199568Y-193785528D01*
X265199568Y-193785528D02*
X265056710Y-193714100D01*
X265056710Y-193714100D02*
X264985282Y-193571242D01*
X264985282Y-193571242D02*
X264985282Y-192999814D01*
X264985282Y-192999814D02*
X265056710Y-192856957D01*
X265056710Y-192856957D02*
X265199568Y-192785528D01*
X265199568Y-192785528D02*
X265485282Y-192785528D01*
X265485282Y-192785528D02*
X265628139Y-192856957D01*
X265628139Y-192856957D02*
X265699568Y-192999814D01*
X265699568Y-192999814D02*
X265699568Y-193142671D01*
X265699568Y-193142671D02*
X264985282Y-193285528D01*
X266199567Y-192785528D02*
X266556710Y-193785528D01*
X266556710Y-193785528D02*
X266913853Y-192785528D01*
X267485281Y-193642671D02*
X267556710Y-193714100D01*
X267556710Y-193714100D02*
X267485281Y-193785528D01*
X267485281Y-193785528D02*
X267413853Y-193714100D01*
X267413853Y-193714100D02*
X267485281Y-193642671D01*
X267485281Y-193642671D02*
X267485281Y-193785528D01*
X267485281Y-192856957D02*
X267556710Y-192928385D01*
X267556710Y-192928385D02*
X267485281Y-192999814D01*
X267485281Y-192999814D02*
X267413853Y-192928385D01*
X267413853Y-192928385D02*
X267485281Y-192856957D01*
X267485281Y-192856957D02*
X267485281Y-192999814D01*
D10*
D11*
X178386598Y-193721900D02*
X178600884Y-193793328D01*
X178600884Y-193793328D02*
X178958026Y-193793328D01*
X178958026Y-193793328D02*
X179100884Y-193721900D01*
X179100884Y-193721900D02*
X179172312Y-193650471D01*
X179172312Y-193650471D02*
X179243741Y-193507614D01*
X179243741Y-193507614D02*
X179243741Y-193364757D01*
X179243741Y-193364757D02*
X179172312Y-193221900D01*
X179172312Y-193221900D02*
X179100884Y-193150471D01*
X179100884Y-193150471D02*
X178958026Y-193079042D01*
X178958026Y-193079042D02*
X178672312Y-193007614D01*
X178672312Y-193007614D02*
X178529455Y-192936185D01*
X178529455Y-192936185D02*
X178458026Y-192864757D01*
X178458026Y-192864757D02*
X178386598Y-192721900D01*
X178386598Y-192721900D02*
X178386598Y-192579042D01*
X178386598Y-192579042D02*
X178458026Y-192436185D01*
X178458026Y-192436185D02*
X178529455Y-192364757D01*
X178529455Y-192364757D02*
X178672312Y-192293328D01*
X178672312Y-192293328D02*
X179029455Y-192293328D01*
X179029455Y-192293328D02*
X179243741Y-192364757D01*
X179886597Y-193793328D02*
X179886597Y-192793328D01*
X179886597Y-192293328D02*
X179815169Y-192364757D01*
X179815169Y-192364757D02*
X179886597Y-192436185D01*
X179886597Y-192436185D02*
X179958026Y-192364757D01*
X179958026Y-192364757D02*
X179886597Y-192293328D01*
X179886597Y-192293328D02*
X179886597Y-192436185D01*
X180458026Y-192793328D02*
X181243741Y-192793328D01*
X181243741Y-192793328D02*
X180458026Y-193793328D01*
X180458026Y-193793328D02*
X181243741Y-193793328D01*
X182386598Y-193721900D02*
X182243741Y-193793328D01*
X182243741Y-193793328D02*
X181958027Y-193793328D01*
X181958027Y-193793328D02*
X181815169Y-193721900D01*
X181815169Y-193721900D02*
X181743741Y-193579042D01*
X181743741Y-193579042D02*
X181743741Y-193007614D01*
X181743741Y-193007614D02*
X181815169Y-192864757D01*
X181815169Y-192864757D02*
X181958027Y-192793328D01*
X181958027Y-192793328D02*
X182243741Y-192793328D01*
X182243741Y-192793328D02*
X182386598Y-192864757D01*
X182386598Y-192864757D02*
X182458027Y-193007614D01*
X182458027Y-193007614D02*
X182458027Y-193150471D01*
X182458027Y-193150471D02*
X181743741Y-193293328D01*
X183100883Y-193650471D02*
X183172312Y-193721900D01*
X183172312Y-193721900D02*
X183100883Y-193793328D01*
X183100883Y-193793328D02*
X183029455Y-193721900D01*
X183029455Y-193721900D02*
X183100883Y-193650471D01*
X183100883Y-193650471D02*
X183100883Y-193793328D01*
X183100883Y-192864757D02*
X183172312Y-192936185D01*
X183172312Y-192936185D02*
X183100883Y-193007614D01*
X183100883Y-193007614D02*
X183029455Y-192936185D01*
X183029455Y-192936185D02*
X183100883Y-192864757D01*
X183100883Y-192864757D02*
X183100883Y-193007614D01*
X184886598Y-193364757D02*
X185600884Y-193364757D01*
X184743741Y-193793328D02*
X185243741Y-192293328D01*
X185243741Y-192293328D02*
X185743741Y-193793328D01*
X186886598Y-192793328D02*
X186886598Y-193793328D01*
X186529455Y-192221900D02*
X186172312Y-193293328D01*
X186172312Y-193293328D02*
X187100883Y-193293328D01*
D10*
D11*
X263458026Y-196593328D02*
X263458026Y-195093328D01*
X264815170Y-196593328D02*
X264815170Y-195093328D01*
X264815170Y-196521900D02*
X264672312Y-196593328D01*
X264672312Y-196593328D02*
X264386598Y-196593328D01*
X264386598Y-196593328D02*
X264243741Y-196521900D01*
X264243741Y-196521900D02*
X264172312Y-196450471D01*
X264172312Y-196450471D02*
X264100884Y-196307614D01*
X264100884Y-196307614D02*
X264100884Y-195879042D01*
X264100884Y-195879042D02*
X264172312Y-195736185D01*
X264172312Y-195736185D02*
X264243741Y-195664757D01*
X264243741Y-195664757D02*
X264386598Y-195593328D01*
X264386598Y-195593328D02*
X264672312Y-195593328D01*
X264672312Y-195593328D02*
X264815170Y-195664757D01*
X265529455Y-196450471D02*
X265600884Y-196521900D01*
X265600884Y-196521900D02*
X265529455Y-196593328D01*
X265529455Y-196593328D02*
X265458027Y-196521900D01*
X265458027Y-196521900D02*
X265529455Y-196450471D01*
X265529455Y-196450471D02*
X265529455Y-196593328D01*
X265529455Y-195664757D02*
X265600884Y-195736185D01*
X265600884Y-195736185D02*
X265529455Y-195807614D01*
X265529455Y-195807614D02*
X265458027Y-195736185D01*
X265458027Y-195736185D02*
X265529455Y-195664757D01*
X265529455Y-195664757D02*
X265529455Y-195807614D01*
X268172313Y-196593328D02*
X267315170Y-196593328D01*
X267743741Y-196593328D02*
X267743741Y-195093328D01*
X267743741Y-195093328D02*
X267600884Y-195307614D01*
X267600884Y-195307614D02*
X267458027Y-195450471D01*
X267458027Y-195450471D02*
X267315170Y-195521900D01*
X269886598Y-195021900D02*
X268600884Y-196950471D01*
X271172313Y-196593328D02*
X270315170Y-196593328D01*
X270743741Y-196593328D02*
X270743741Y-195093328D01*
X270743741Y-195093328D02*
X270600884Y-195307614D01*
X270600884Y-195307614D02*
X270458027Y-195450471D01*
X270458027Y-195450471D02*
X270315170Y-195521900D01*
D10*
D11*
X177002200Y-187507200D02*
X285002200Y-187507200D01*
D10*
D13*
X178693928Y-188211638D02*
X179836785Y-188211638D01*
X179015357Y-190211638D02*
X179265357Y-188211638D01*
X180253452Y-190211638D02*
X180420119Y-188878304D01*
X180503452Y-188211638D02*
X180396309Y-188306876D01*
X180396309Y-188306876D02*
X180479643Y-188402114D01*
X180479643Y-188402114D02*
X180586786Y-188306876D01*
X180586786Y-188306876D02*
X180503452Y-188211638D01*
X180503452Y-188211638D02*
X180479643Y-188402114D01*
X181086786Y-188878304D02*
X181848690Y-188878304D01*
X181455833Y-188211638D02*
X181241548Y-189925923D01*
X181241548Y-189925923D02*
X181312976Y-190116400D01*
X181312976Y-190116400D02*
X181491548Y-190211638D01*
X181491548Y-190211638D02*
X181682024Y-190211638D01*
X182634405Y-190211638D02*
X182455833Y-190116400D01*
X182455833Y-190116400D02*
X182384405Y-189925923D01*
X182384405Y-189925923D02*
X182598690Y-188211638D01*
X184170119Y-190116400D02*
X183967738Y-190211638D01*
X183967738Y-190211638D02*
X183586785Y-190211638D01*
X183586785Y-190211638D02*
X183408214Y-190116400D01*
X183408214Y-190116400D02*
X183336785Y-189925923D01*
X183336785Y-189925923D02*
X183432024Y-189164019D01*
X183432024Y-189164019D02*
X183551071Y-188973542D01*
X183551071Y-188973542D02*
X183753452Y-188878304D01*
X183753452Y-188878304D02*
X184134404Y-188878304D01*
X184134404Y-188878304D02*
X184312976Y-188973542D01*
X184312976Y-188973542D02*
X184384404Y-189164019D01*
X184384404Y-189164019D02*
X184360595Y-189354495D01*
X184360595Y-189354495D02*
X183384404Y-189544971D01*
X185134405Y-190021161D02*
X185217738Y-190116400D01*
X185217738Y-190116400D02*
X185110595Y-190211638D01*
X185110595Y-190211638D02*
X185027262Y-190116400D01*
X185027262Y-190116400D02*
X185134405Y-190021161D01*
X185134405Y-190021161D02*
X185110595Y-190211638D01*
X185265357Y-188973542D02*
X185348690Y-189068780D01*
X185348690Y-189068780D02*
X185241548Y-189164019D01*
X185241548Y-189164019D02*
X185158214Y-189068780D01*
X185158214Y-189068780D02*
X185265357Y-188973542D01*
X185265357Y-188973542D02*
X185241548Y-189164019D01*
D10*
D11*
X178958026Y-185607614D02*
X178458026Y-185607614D01*
X178458026Y-186393328D02*
X178458026Y-184893328D01*
X178458026Y-184893328D02*
X179172312Y-184893328D01*
X179743740Y-186393328D02*
X179743740Y-185393328D01*
X179743740Y-184893328D02*
X179672312Y-184964757D01*
X179672312Y-184964757D02*
X179743740Y-185036185D01*
X179743740Y-185036185D02*
X179815169Y-184964757D01*
X179815169Y-184964757D02*
X179743740Y-184893328D01*
X179743740Y-184893328D02*
X179743740Y-185036185D01*
X180672312Y-186393328D02*
X180529455Y-186321900D01*
X180529455Y-186321900D02*
X180458026Y-186179042D01*
X180458026Y-186179042D02*
X180458026Y-184893328D01*
X181815169Y-186321900D02*
X181672312Y-186393328D01*
X181672312Y-186393328D02*
X181386598Y-186393328D01*
X181386598Y-186393328D02*
X181243740Y-186321900D01*
X181243740Y-186321900D02*
X181172312Y-186179042D01*
X181172312Y-186179042D02*
X181172312Y-185607614D01*
X181172312Y-185607614D02*
X181243740Y-185464757D01*
X181243740Y-185464757D02*
X181386598Y-185393328D01*
X181386598Y-185393328D02*
X181672312Y-185393328D01*
X181672312Y-185393328D02*
X181815169Y-185464757D01*
X181815169Y-185464757D02*
X181886598Y-185607614D01*
X181886598Y-185607614D02*
X181886598Y-185750471D01*
X181886598Y-185750471D02*
X181172312Y-185893328D01*
X182529454Y-186250471D02*
X182600883Y-186321900D01*
X182600883Y-186321900D02*
X182529454Y-186393328D01*
X182529454Y-186393328D02*
X182458026Y-186321900D01*
X182458026Y-186321900D02*
X182529454Y-186250471D01*
X182529454Y-186250471D02*
X182529454Y-186393328D01*
X182529454Y-185464757D02*
X182600883Y-185536185D01*
X182600883Y-185536185D02*
X182529454Y-185607614D01*
X182529454Y-185607614D02*
X182458026Y-185536185D01*
X182458026Y-185536185D02*
X182529454Y-185464757D01*
X182529454Y-185464757D02*
X182529454Y-185607614D01*
X185100883Y-186393328D02*
X184386597Y-186393328D01*
X184386597Y-186393328D02*
X184386597Y-184893328D01*
X185600883Y-185607614D02*
X186100883Y-185607614D01*
X186315169Y-186393328D02*
X185600883Y-186393328D01*
X185600883Y-186393328D02*
X185600883Y-184893328D01*
X185600883Y-184893328D02*
X186315169Y-184893328D01*
X186958026Y-186393328D02*
X186958026Y-184893328D01*
X186958026Y-184893328D02*
X187315169Y-184893328D01*
X187315169Y-184893328D02*
X187529455Y-184964757D01*
X187529455Y-184964757D02*
X187672312Y-185107614D01*
X187672312Y-185107614D02*
X187743741Y-185250471D01*
X187743741Y-185250471D02*
X187815169Y-185536185D01*
X187815169Y-185536185D02*
X187815169Y-185750471D01*
X187815169Y-185750471D02*
X187743741Y-186036185D01*
X187743741Y-186036185D02*
X187672312Y-186179042D01*
X187672312Y-186179042D02*
X187529455Y-186321900D01*
X187529455Y-186321900D02*
X187315169Y-186393328D01*
X187315169Y-186393328D02*
X186958026Y-186393328D01*
X188386598Y-186321900D02*
X188529455Y-186393328D01*
X188529455Y-186393328D02*
X188815169Y-186393328D01*
X188815169Y-186393328D02*
X188958026Y-186321900D01*
X188958026Y-186321900D02*
X189029455Y-186179042D01*
X189029455Y-186179042D02*
X189029455Y-186107614D01*
X189029455Y-186107614D02*
X188958026Y-185964757D01*
X188958026Y-185964757D02*
X188815169Y-185893328D01*
X188815169Y-185893328D02*
X188600884Y-185893328D01*
X188600884Y-185893328D02*
X188458026Y-185821900D01*
X188458026Y-185821900D02*
X188386598Y-185679042D01*
X188386598Y-185679042D02*
X188386598Y-185607614D01*
X188386598Y-185607614D02*
X188458026Y-185464757D01*
X188458026Y-185464757D02*
X188600884Y-185393328D01*
X188600884Y-185393328D02*
X188815169Y-185393328D01*
X188815169Y-185393328D02*
X188958026Y-185464757D01*
X189672312Y-186393328D02*
X189672312Y-184893328D01*
X190315170Y-186393328D02*
X190315170Y-185607614D01*
X190315170Y-185607614D02*
X190243741Y-185464757D01*
X190243741Y-185464757D02*
X190100884Y-185393328D01*
X190100884Y-185393328D02*
X189886598Y-185393328D01*
X189886598Y-185393328D02*
X189743741Y-185464757D01*
X189743741Y-185464757D02*
X189672312Y-185536185D01*
X191029455Y-186393328D02*
X191029455Y-185393328D01*
X191029455Y-184893328D02*
X190958027Y-184964757D01*
X190958027Y-184964757D02*
X191029455Y-185036185D01*
X191029455Y-185036185D02*
X191100884Y-184964757D01*
X191100884Y-184964757D02*
X191029455Y-184893328D01*
X191029455Y-184893328D02*
X191029455Y-185036185D01*
X192315170Y-186321900D02*
X192172313Y-186393328D01*
X192172313Y-186393328D02*
X191886599Y-186393328D01*
X191886599Y-186393328D02*
X191743741Y-186321900D01*
X191743741Y-186321900D02*
X191672313Y-186179042D01*
X191672313Y-186179042D02*
X191672313Y-185607614D01*
X191672313Y-185607614D02*
X191743741Y-185464757D01*
X191743741Y-185464757D02*
X191886599Y-185393328D01*
X191886599Y-185393328D02*
X192172313Y-185393328D01*
X192172313Y-185393328D02*
X192315170Y-185464757D01*
X192315170Y-185464757D02*
X192386599Y-185607614D01*
X192386599Y-185607614D02*
X192386599Y-185750471D01*
X192386599Y-185750471D02*
X191672313Y-185893328D01*
X193243741Y-186393328D02*
X193100884Y-186321900D01*
X193100884Y-186321900D02*
X193029455Y-186179042D01*
X193029455Y-186179042D02*
X193029455Y-184893328D01*
X194458027Y-186393328D02*
X194458027Y-184893328D01*
X194458027Y-186321900D02*
X194315169Y-186393328D01*
X194315169Y-186393328D02*
X194029455Y-186393328D01*
X194029455Y-186393328D02*
X193886598Y-186321900D01*
X193886598Y-186321900D02*
X193815169Y-186250471D01*
X193815169Y-186250471D02*
X193743741Y-186107614D01*
X193743741Y-186107614D02*
X193743741Y-185679042D01*
X193743741Y-185679042D02*
X193815169Y-185536185D01*
X193815169Y-185536185D02*
X193886598Y-185464757D01*
X193886598Y-185464757D02*
X194029455Y-185393328D01*
X194029455Y-185393328D02*
X194315169Y-185393328D01*
X194315169Y-185393328D02*
X194458027Y-185464757D01*
X195172312Y-186250471D02*
X195243741Y-186321900D01*
X195243741Y-186321900D02*
X195172312Y-186393328D01*
X195172312Y-186393328D02*
X195100884Y-186321900D01*
X195100884Y-186321900D02*
X195172312Y-186250471D01*
X195172312Y-186250471D02*
X195172312Y-186393328D01*
X195886598Y-186393328D02*
X195886598Y-184893328D01*
X196029456Y-185821900D02*
X196458027Y-186393328D01*
X196458027Y-185393328D02*
X195886598Y-185964757D01*
X197100884Y-186393328D02*
X197100884Y-185393328D01*
X197100884Y-184893328D02*
X197029456Y-184964757D01*
X197029456Y-184964757D02*
X197100884Y-185036185D01*
X197100884Y-185036185D02*
X197172313Y-184964757D01*
X197172313Y-184964757D02*
X197100884Y-184893328D01*
X197100884Y-184893328D02*
X197100884Y-185036185D01*
X198458028Y-186321900D02*
X198315170Y-186393328D01*
X198315170Y-186393328D02*
X198029456Y-186393328D01*
X198029456Y-186393328D02*
X197886599Y-186321900D01*
X197886599Y-186321900D02*
X197815170Y-186250471D01*
X197815170Y-186250471D02*
X197743742Y-186107614D01*
X197743742Y-186107614D02*
X197743742Y-185679042D01*
X197743742Y-185679042D02*
X197815170Y-185536185D01*
X197815170Y-185536185D02*
X197886599Y-185464757D01*
X197886599Y-185464757D02*
X198029456Y-185393328D01*
X198029456Y-185393328D02*
X198315170Y-185393328D01*
X198315170Y-185393328D02*
X198458028Y-185464757D01*
X199743742Y-186393328D02*
X199743742Y-185607614D01*
X199743742Y-185607614D02*
X199672313Y-185464757D01*
X199672313Y-185464757D02*
X199529456Y-185393328D01*
X199529456Y-185393328D02*
X199243742Y-185393328D01*
X199243742Y-185393328D02*
X199100884Y-185464757D01*
X199743742Y-186321900D02*
X199600884Y-186393328D01*
X199600884Y-186393328D02*
X199243742Y-186393328D01*
X199243742Y-186393328D02*
X199100884Y-186321900D01*
X199100884Y-186321900D02*
X199029456Y-186179042D01*
X199029456Y-186179042D02*
X199029456Y-186036185D01*
X199029456Y-186036185D02*
X199100884Y-185893328D01*
X199100884Y-185893328D02*
X199243742Y-185821900D01*
X199243742Y-185821900D02*
X199600884Y-185821900D01*
X199600884Y-185821900D02*
X199743742Y-185750471D01*
X201100885Y-186393328D02*
X201100885Y-184893328D01*
X201100885Y-186321900D02*
X200958027Y-186393328D01*
X200958027Y-186393328D02*
X200672313Y-186393328D01*
X200672313Y-186393328D02*
X200529456Y-186321900D01*
X200529456Y-186321900D02*
X200458027Y-186250471D01*
X200458027Y-186250471D02*
X200386599Y-186107614D01*
X200386599Y-186107614D02*
X200386599Y-185679042D01*
X200386599Y-185679042D02*
X200458027Y-185536185D01*
X200458027Y-185536185D02*
X200529456Y-185464757D01*
X200529456Y-185464757D02*
X200672313Y-185393328D01*
X200672313Y-185393328D02*
X200958027Y-185393328D01*
X200958027Y-185393328D02*
X201100885Y-185464757D01*
X201458028Y-186536185D02*
X202600885Y-186536185D01*
X202958027Y-185393328D02*
X202958027Y-186893328D01*
X202958027Y-185464757D02*
X203100885Y-185393328D01*
X203100885Y-185393328D02*
X203386599Y-185393328D01*
X203386599Y-185393328D02*
X203529456Y-185464757D01*
X203529456Y-185464757D02*
X203600885Y-185536185D01*
X203600885Y-185536185D02*
X203672313Y-185679042D01*
X203672313Y-185679042D02*
X203672313Y-186107614D01*
X203672313Y-186107614D02*
X203600885Y-186250471D01*
X203600885Y-186250471D02*
X203529456Y-186321900D01*
X203529456Y-186321900D02*
X203386599Y-186393328D01*
X203386599Y-186393328D02*
X203100885Y-186393328D01*
X203100885Y-186393328D02*
X202958027Y-186321900D01*
X204958028Y-186321900D02*
X204815170Y-186393328D01*
X204815170Y-186393328D02*
X204529456Y-186393328D01*
X204529456Y-186393328D02*
X204386599Y-186321900D01*
X204386599Y-186321900D02*
X204315170Y-186250471D01*
X204315170Y-186250471D02*
X204243742Y-186107614D01*
X204243742Y-186107614D02*
X204243742Y-185679042D01*
X204243742Y-185679042D02*
X204315170Y-185536185D01*
X204315170Y-185536185D02*
X204386599Y-185464757D01*
X204386599Y-185464757D02*
X204529456Y-185393328D01*
X204529456Y-185393328D02*
X204815170Y-185393328D01*
X204815170Y-185393328D02*
X204958028Y-185464757D01*
X205600884Y-186393328D02*
X205600884Y-184893328D01*
X205600884Y-185464757D02*
X205743742Y-185393328D01*
X205743742Y-185393328D02*
X206029456Y-185393328D01*
X206029456Y-185393328D02*
X206172313Y-185464757D01*
X206172313Y-185464757D02*
X206243742Y-185536185D01*
X206243742Y-185536185D02*
X206315170Y-185679042D01*
X206315170Y-185679042D02*
X206315170Y-186107614D01*
X206315170Y-186107614D02*
X206243742Y-186250471D01*
X206243742Y-186250471D02*
X206172313Y-186321900D01*
X206172313Y-186321900D02*
X206029456Y-186393328D01*
X206029456Y-186393328D02*
X205743742Y-186393328D01*
X205743742Y-186393328D02*
X205600884Y-186321900D01*
D10*
D11*
X177002200Y-181507200D02*
X285002200Y-181507200D01*
D10*
D11*
X178386598Y-183621900D02*
X178600884Y-183693328D01*
X178600884Y-183693328D02*
X178958026Y-183693328D01*
X178958026Y-183693328D02*
X179100884Y-183621900D01*
X179100884Y-183621900D02*
X179172312Y-183550471D01*
X179172312Y-183550471D02*
X179243741Y-183407614D01*
X179243741Y-183407614D02*
X179243741Y-183264757D01*
X179243741Y-183264757D02*
X179172312Y-183121900D01*
X179172312Y-183121900D02*
X179100884Y-183050471D01*
X179100884Y-183050471D02*
X178958026Y-182979042D01*
X178958026Y-182979042D02*
X178672312Y-182907614D01*
X178672312Y-182907614D02*
X178529455Y-182836185D01*
X178529455Y-182836185D02*
X178458026Y-182764757D01*
X178458026Y-182764757D02*
X178386598Y-182621900D01*
X178386598Y-182621900D02*
X178386598Y-182479042D01*
X178386598Y-182479042D02*
X178458026Y-182336185D01*
X178458026Y-182336185D02*
X178529455Y-182264757D01*
X178529455Y-182264757D02*
X178672312Y-182193328D01*
X178672312Y-182193328D02*
X179029455Y-182193328D01*
X179029455Y-182193328D02*
X179243741Y-182264757D01*
X179886597Y-183693328D02*
X179886597Y-182193328D01*
X180529455Y-183693328D02*
X180529455Y-182907614D01*
X180529455Y-182907614D02*
X180458026Y-182764757D01*
X180458026Y-182764757D02*
X180315169Y-182693328D01*
X180315169Y-182693328D02*
X180100883Y-182693328D01*
X180100883Y-182693328D02*
X179958026Y-182764757D01*
X179958026Y-182764757D02*
X179886597Y-182836185D01*
X181815169Y-183621900D02*
X181672312Y-183693328D01*
X181672312Y-183693328D02*
X181386598Y-183693328D01*
X181386598Y-183693328D02*
X181243740Y-183621900D01*
X181243740Y-183621900D02*
X181172312Y-183479042D01*
X181172312Y-183479042D02*
X181172312Y-182907614D01*
X181172312Y-182907614D02*
X181243740Y-182764757D01*
X181243740Y-182764757D02*
X181386598Y-182693328D01*
X181386598Y-182693328D02*
X181672312Y-182693328D01*
X181672312Y-182693328D02*
X181815169Y-182764757D01*
X181815169Y-182764757D02*
X181886598Y-182907614D01*
X181886598Y-182907614D02*
X181886598Y-183050471D01*
X181886598Y-183050471D02*
X181172312Y-183193328D01*
X183100883Y-183621900D02*
X182958026Y-183693328D01*
X182958026Y-183693328D02*
X182672312Y-183693328D01*
X182672312Y-183693328D02*
X182529454Y-183621900D01*
X182529454Y-183621900D02*
X182458026Y-183479042D01*
X182458026Y-183479042D02*
X182458026Y-182907614D01*
X182458026Y-182907614D02*
X182529454Y-182764757D01*
X182529454Y-182764757D02*
X182672312Y-182693328D01*
X182672312Y-182693328D02*
X182958026Y-182693328D01*
X182958026Y-182693328D02*
X183100883Y-182764757D01*
X183100883Y-182764757D02*
X183172312Y-182907614D01*
X183172312Y-182907614D02*
X183172312Y-183050471D01*
X183172312Y-183050471D02*
X182458026Y-183193328D01*
X183600883Y-182693328D02*
X184172311Y-182693328D01*
X183815168Y-182193328D02*
X183815168Y-183479042D01*
X183815168Y-183479042D02*
X183886597Y-183621900D01*
X183886597Y-183621900D02*
X184029454Y-183693328D01*
X184029454Y-183693328D02*
X184172311Y-183693328D01*
X184672311Y-183550471D02*
X184743740Y-183621900D01*
X184743740Y-183621900D02*
X184672311Y-183693328D01*
X184672311Y-183693328D02*
X184600883Y-183621900D01*
X184600883Y-183621900D02*
X184672311Y-183550471D01*
X184672311Y-183550471D02*
X184672311Y-183693328D01*
X184672311Y-182764757D02*
X184743740Y-182836185D01*
X184743740Y-182836185D02*
X184672311Y-182907614D01*
X184672311Y-182907614D02*
X184600883Y-182836185D01*
X184600883Y-182836185D02*
X184672311Y-182764757D01*
X184672311Y-182764757D02*
X184672311Y-182907614D01*
D10*
D11*
X197002200Y-191507200D02*
X197002200Y-194507200D01*
D10*
D11*
X261002200Y-191507200D02*
X261002200Y-198007200D01*
X105752521Y-55381712D02*
X105752521Y-55048379D01*
X106276331Y-55048379D02*
X105276331Y-55048379D01*
X105276331Y-55048379D02*
X105276331Y-55524569D01*
X106276331Y-56048379D02*
X106228712Y-55953141D01*
X106228712Y-55953141D02*
X106181092Y-55905522D01*
X106181092Y-55905522D02*
X106085854Y-55857903D01*
X106085854Y-55857903D02*
X105800140Y-55857903D01*
X105800140Y-55857903D02*
X105704902Y-55905522D01*
X105704902Y-55905522D02*
X105657283Y-55953141D01*
X105657283Y-55953141D02*
X105609664Y-56048379D01*
X105609664Y-56048379D02*
X105609664Y-56191236D01*
X105609664Y-56191236D02*
X105657283Y-56286474D01*
X105657283Y-56286474D02*
X105704902Y-56334093D01*
X105704902Y-56334093D02*
X105800140Y-56381712D01*
X105800140Y-56381712D02*
X106085854Y-56381712D01*
X106085854Y-56381712D02*
X106181092Y-56334093D01*
X106181092Y-56334093D02*
X106228712Y-56286474D01*
X106228712Y-56286474D02*
X106276331Y-56191236D01*
X106276331Y-56191236D02*
X106276331Y-56048379D01*
X106276331Y-56810284D02*
X105609664Y-56810284D01*
X105800140Y-56810284D02*
X105704902Y-56857903D01*
X105704902Y-56857903D02*
X105657283Y-56905522D01*
X105657283Y-56905522D02*
X105609664Y-57000760D01*
X105609664Y-57000760D02*
X105609664Y-57095998D01*
X106276331Y-58191237D02*
X105609664Y-58191237D01*
X105704902Y-58191237D02*
X105657283Y-58238856D01*
X105657283Y-58238856D02*
X105609664Y-58334094D01*
X105609664Y-58334094D02*
X105609664Y-58476951D01*
X105609664Y-58476951D02*
X105657283Y-58572189D01*
X105657283Y-58572189D02*
X105752521Y-58619808D01*
X105752521Y-58619808D02*
X106276331Y-58619808D01*
X105752521Y-58619808D02*
X105657283Y-58667427D01*
X105657283Y-58667427D02*
X105609664Y-58762665D01*
X105609664Y-58762665D02*
X105609664Y-58905522D01*
X105609664Y-58905522D02*
X105657283Y-59000761D01*
X105657283Y-59000761D02*
X105752521Y-59048380D01*
X105752521Y-59048380D02*
X106276331Y-59048380D01*
X106276331Y-59667427D02*
X106228712Y-59572189D01*
X106228712Y-59572189D02*
X106181092Y-59524570D01*
X106181092Y-59524570D02*
X106085854Y-59476951D01*
X106085854Y-59476951D02*
X105800140Y-59476951D01*
X105800140Y-59476951D02*
X105704902Y-59524570D01*
X105704902Y-59524570D02*
X105657283Y-59572189D01*
X105657283Y-59572189D02*
X105609664Y-59667427D01*
X105609664Y-59667427D02*
X105609664Y-59810284D01*
X105609664Y-59810284D02*
X105657283Y-59905522D01*
X105657283Y-59905522D02*
X105704902Y-59953141D01*
X105704902Y-59953141D02*
X105800140Y-60000760D01*
X105800140Y-60000760D02*
X106085854Y-60000760D01*
X106085854Y-60000760D02*
X106181092Y-59953141D01*
X106181092Y-59953141D02*
X106228712Y-59905522D01*
X106228712Y-59905522D02*
X106276331Y-59810284D01*
X106276331Y-59810284D02*
X106276331Y-59667427D01*
X106276331Y-60429332D02*
X105609664Y-60429332D01*
X105800140Y-60429332D02*
X105704902Y-60476951D01*
X105704902Y-60476951D02*
X105657283Y-60524570D01*
X105657283Y-60524570D02*
X105609664Y-60619808D01*
X105609664Y-60619808D02*
X105609664Y-60715046D01*
X106228712Y-61429332D02*
X106276331Y-61334094D01*
X106276331Y-61334094D02*
X106276331Y-61143618D01*
X106276331Y-61143618D02*
X106228712Y-61048380D01*
X106228712Y-61048380D02*
X106133473Y-61000761D01*
X106133473Y-61000761D02*
X105752521Y-61000761D01*
X105752521Y-61000761D02*
X105657283Y-61048380D01*
X105657283Y-61048380D02*
X105609664Y-61143618D01*
X105609664Y-61143618D02*
X105609664Y-61334094D01*
X105609664Y-61334094D02*
X105657283Y-61429332D01*
X105657283Y-61429332D02*
X105752521Y-61476951D01*
X105752521Y-61476951D02*
X105847759Y-61476951D01*
X105847759Y-61476951D02*
X105942997Y-61000761D01*
X106276331Y-62667428D02*
X105609664Y-62667428D01*
X105276331Y-62667428D02*
X105323950Y-62619809D01*
X105323950Y-62619809D02*
X105371569Y-62667428D01*
X105371569Y-62667428D02*
X105323950Y-62715047D01*
X105323950Y-62715047D02*
X105276331Y-62667428D01*
X105276331Y-62667428D02*
X105371569Y-62667428D01*
X105609664Y-63143618D02*
X106276331Y-63143618D01*
X105704902Y-63143618D02*
X105657283Y-63191237D01*
X105657283Y-63191237D02*
X105609664Y-63286475D01*
X105609664Y-63286475D02*
X105609664Y-63429332D01*
X105609664Y-63429332D02*
X105657283Y-63524570D01*
X105657283Y-63524570D02*
X105752521Y-63572189D01*
X105752521Y-63572189D02*
X106276331Y-63572189D01*
X105609664Y-63905523D02*
X105609664Y-64286475D01*
X106276331Y-64048380D02*
X105419188Y-64048380D01*
X105419188Y-64048380D02*
X105323950Y-64095999D01*
X105323950Y-64095999D02*
X105276331Y-64191237D01*
X105276331Y-64191237D02*
X105276331Y-64286475D01*
X106276331Y-64762666D02*
X106228712Y-64667428D01*
X106228712Y-64667428D02*
X106181092Y-64619809D01*
X106181092Y-64619809D02*
X106085854Y-64572190D01*
X106085854Y-64572190D02*
X105800140Y-64572190D01*
X105800140Y-64572190D02*
X105704902Y-64619809D01*
X105704902Y-64619809D02*
X105657283Y-64667428D01*
X105657283Y-64667428D02*
X105609664Y-64762666D01*
X105609664Y-64762666D02*
X105609664Y-64905523D01*
X105609664Y-64905523D02*
X105657283Y-65000761D01*
X105657283Y-65000761D02*
X105704902Y-65048380D01*
X105704902Y-65048380D02*
X105800140Y-65095999D01*
X105800140Y-65095999D02*
X106085854Y-65095999D01*
X106085854Y-65095999D02*
X106181092Y-65048380D01*
X106181092Y-65048380D02*
X106228712Y-65000761D01*
X106228712Y-65000761D02*
X106276331Y-64905523D01*
X106276331Y-64905523D02*
X106276331Y-64762666D01*
X106276331Y-65524571D02*
X105609664Y-65524571D01*
X105800140Y-65524571D02*
X105704902Y-65572190D01*
X105704902Y-65572190D02*
X105657283Y-65619809D01*
X105657283Y-65619809D02*
X105609664Y-65715047D01*
X105609664Y-65715047D02*
X105609664Y-65810285D01*
X106276331Y-66143619D02*
X105609664Y-66143619D01*
X105704902Y-66143619D02*
X105657283Y-66191238D01*
X105657283Y-66191238D02*
X105609664Y-66286476D01*
X105609664Y-66286476D02*
X105609664Y-66429333D01*
X105609664Y-66429333D02*
X105657283Y-66524571D01*
X105657283Y-66524571D02*
X105752521Y-66572190D01*
X105752521Y-66572190D02*
X106276331Y-66572190D01*
X105752521Y-66572190D02*
X105657283Y-66619809D01*
X105657283Y-66619809D02*
X105609664Y-66715047D01*
X105609664Y-66715047D02*
X105609664Y-66857904D01*
X105609664Y-66857904D02*
X105657283Y-66953143D01*
X105657283Y-66953143D02*
X105752521Y-67000762D01*
X105752521Y-67000762D02*
X106276331Y-67000762D01*
X106276331Y-67905523D02*
X105752521Y-67905523D01*
X105752521Y-67905523D02*
X105657283Y-67857904D01*
X105657283Y-67857904D02*
X105609664Y-67762666D01*
X105609664Y-67762666D02*
X105609664Y-67572190D01*
X105609664Y-67572190D02*
X105657283Y-67476952D01*
X106228712Y-67905523D02*
X106276331Y-67810285D01*
X106276331Y-67810285D02*
X106276331Y-67572190D01*
X106276331Y-67572190D02*
X106228712Y-67476952D01*
X106228712Y-67476952D02*
X106133473Y-67429333D01*
X106133473Y-67429333D02*
X106038235Y-67429333D01*
X106038235Y-67429333D02*
X105942997Y-67476952D01*
X105942997Y-67476952D02*
X105895378Y-67572190D01*
X105895378Y-67572190D02*
X105895378Y-67810285D01*
X105895378Y-67810285D02*
X105847759Y-67905523D01*
X105609664Y-68238857D02*
X105609664Y-68619809D01*
X105276331Y-68381714D02*
X106133473Y-68381714D01*
X106133473Y-68381714D02*
X106228712Y-68429333D01*
X106228712Y-68429333D02*
X106276331Y-68524571D01*
X106276331Y-68524571D02*
X106276331Y-68619809D01*
X106276331Y-68953143D02*
X105609664Y-68953143D01*
X105276331Y-68953143D02*
X105323950Y-68905524D01*
X105323950Y-68905524D02*
X105371569Y-68953143D01*
X105371569Y-68953143D02*
X105323950Y-69000762D01*
X105323950Y-69000762D02*
X105276331Y-68953143D01*
X105276331Y-68953143D02*
X105371569Y-68953143D01*
X106276331Y-69572190D02*
X106228712Y-69476952D01*
X106228712Y-69476952D02*
X106181092Y-69429333D01*
X106181092Y-69429333D02*
X106085854Y-69381714D01*
X106085854Y-69381714D02*
X105800140Y-69381714D01*
X105800140Y-69381714D02*
X105704902Y-69429333D01*
X105704902Y-69429333D02*
X105657283Y-69476952D01*
X105657283Y-69476952D02*
X105609664Y-69572190D01*
X105609664Y-69572190D02*
X105609664Y-69715047D01*
X105609664Y-69715047D02*
X105657283Y-69810285D01*
X105657283Y-69810285D02*
X105704902Y-69857904D01*
X105704902Y-69857904D02*
X105800140Y-69905523D01*
X105800140Y-69905523D02*
X106085854Y-69905523D01*
X106085854Y-69905523D02*
X106181092Y-69857904D01*
X106181092Y-69857904D02*
X106228712Y-69810285D01*
X106228712Y-69810285D02*
X106276331Y-69715047D01*
X106276331Y-69715047D02*
X106276331Y-69572190D01*
X105609664Y-70334095D02*
X106276331Y-70334095D01*
X105704902Y-70334095D02*
X105657283Y-70381714D01*
X105657283Y-70381714D02*
X105609664Y-70476952D01*
X105609664Y-70476952D02*
X105609664Y-70619809D01*
X105609664Y-70619809D02*
X105657283Y-70715047D01*
X105657283Y-70715047D02*
X105752521Y-70762666D01*
X105752521Y-70762666D02*
X106276331Y-70762666D01*
X107886275Y-55476950D02*
X107362465Y-55476950D01*
X107362465Y-55476950D02*
X107267227Y-55429331D01*
X107267227Y-55429331D02*
X107219608Y-55334093D01*
X107219608Y-55334093D02*
X107219608Y-55143617D01*
X107219608Y-55143617D02*
X107267227Y-55048379D01*
X107838656Y-55476950D02*
X107886275Y-55381712D01*
X107886275Y-55381712D02*
X107886275Y-55143617D01*
X107886275Y-55143617D02*
X107838656Y-55048379D01*
X107838656Y-55048379D02*
X107743417Y-55000760D01*
X107743417Y-55000760D02*
X107648179Y-55000760D01*
X107648179Y-55000760D02*
X107552941Y-55048379D01*
X107552941Y-55048379D02*
X107505322Y-55143617D01*
X107505322Y-55143617D02*
X107505322Y-55381712D01*
X107505322Y-55381712D02*
X107457703Y-55476950D01*
X107219608Y-55810284D02*
X107219608Y-56191236D01*
X106886275Y-55953141D02*
X107743417Y-55953141D01*
X107743417Y-55953141D02*
X107838656Y-56000760D01*
X107838656Y-56000760D02*
X107886275Y-56095998D01*
X107886275Y-56095998D02*
X107886275Y-56191236D01*
X107219608Y-57715046D02*
X108029132Y-57715046D01*
X108029132Y-57715046D02*
X108124370Y-57667427D01*
X108124370Y-57667427D02*
X108171989Y-57619808D01*
X108171989Y-57619808D02*
X108219608Y-57524570D01*
X108219608Y-57524570D02*
X108219608Y-57381713D01*
X108219608Y-57381713D02*
X108171989Y-57286475D01*
X107838656Y-57715046D02*
X107886275Y-57619808D01*
X107886275Y-57619808D02*
X107886275Y-57429332D01*
X107886275Y-57429332D02*
X107838656Y-57334094D01*
X107838656Y-57334094D02*
X107791036Y-57286475D01*
X107791036Y-57286475D02*
X107695798Y-57238856D01*
X107695798Y-57238856D02*
X107410084Y-57238856D01*
X107410084Y-57238856D02*
X107314846Y-57286475D01*
X107314846Y-57286475D02*
X107267227Y-57334094D01*
X107267227Y-57334094D02*
X107219608Y-57429332D01*
X107219608Y-57429332D02*
X107219608Y-57619808D01*
X107219608Y-57619808D02*
X107267227Y-57715046D01*
X107886275Y-58191237D02*
X107219608Y-58191237D01*
X106886275Y-58191237D02*
X106933894Y-58143618D01*
X106933894Y-58143618D02*
X106981513Y-58191237D01*
X106981513Y-58191237D02*
X106933894Y-58238856D01*
X106933894Y-58238856D02*
X106886275Y-58191237D01*
X106886275Y-58191237D02*
X106981513Y-58191237D01*
X107219608Y-58524570D02*
X107219608Y-58905522D01*
X106886275Y-58667427D02*
X107743417Y-58667427D01*
X107743417Y-58667427D02*
X107838656Y-58715046D01*
X107838656Y-58715046D02*
X107886275Y-58810284D01*
X107886275Y-58810284D02*
X107886275Y-58905522D01*
X107886275Y-59238856D02*
X106886275Y-59238856D01*
X107886275Y-59667427D02*
X107362465Y-59667427D01*
X107362465Y-59667427D02*
X107267227Y-59619808D01*
X107267227Y-59619808D02*
X107219608Y-59524570D01*
X107219608Y-59524570D02*
X107219608Y-59381713D01*
X107219608Y-59381713D02*
X107267227Y-59286475D01*
X107267227Y-59286475D02*
X107314846Y-59238856D01*
X107219608Y-60572189D02*
X107886275Y-60572189D01*
X107219608Y-60143618D02*
X107743417Y-60143618D01*
X107743417Y-60143618D02*
X107838656Y-60191237D01*
X107838656Y-60191237D02*
X107886275Y-60286475D01*
X107886275Y-60286475D02*
X107886275Y-60429332D01*
X107886275Y-60429332D02*
X107838656Y-60524570D01*
X107838656Y-60524570D02*
X107791036Y-60572189D01*
X107886275Y-61048380D02*
X106886275Y-61048380D01*
X107267227Y-61048380D02*
X107219608Y-61143618D01*
X107219608Y-61143618D02*
X107219608Y-61334094D01*
X107219608Y-61334094D02*
X107267227Y-61429332D01*
X107267227Y-61429332D02*
X107314846Y-61476951D01*
X107314846Y-61476951D02*
X107410084Y-61524570D01*
X107410084Y-61524570D02*
X107695798Y-61524570D01*
X107695798Y-61524570D02*
X107791036Y-61476951D01*
X107791036Y-61476951D02*
X107838656Y-61429332D01*
X107838656Y-61429332D02*
X107886275Y-61334094D01*
X107886275Y-61334094D02*
X107886275Y-61143618D01*
X107886275Y-61143618D02*
X107838656Y-61048380D01*
X107791036Y-61953142D02*
X107838656Y-62000761D01*
X107838656Y-62000761D02*
X107886275Y-61953142D01*
X107886275Y-61953142D02*
X107838656Y-61905523D01*
X107838656Y-61905523D02*
X107791036Y-61953142D01*
X107791036Y-61953142D02*
X107886275Y-61953142D01*
X107838656Y-62857903D02*
X107886275Y-62762665D01*
X107886275Y-62762665D02*
X107886275Y-62572189D01*
X107886275Y-62572189D02*
X107838656Y-62476951D01*
X107838656Y-62476951D02*
X107791036Y-62429332D01*
X107791036Y-62429332D02*
X107695798Y-62381713D01*
X107695798Y-62381713D02*
X107410084Y-62381713D01*
X107410084Y-62381713D02*
X107314846Y-62429332D01*
X107314846Y-62429332D02*
X107267227Y-62476951D01*
X107267227Y-62476951D02*
X107219608Y-62572189D01*
X107219608Y-62572189D02*
X107219608Y-62762665D01*
X107219608Y-62762665D02*
X107267227Y-62857903D01*
X107886275Y-63429332D02*
X107838656Y-63334094D01*
X107838656Y-63334094D02*
X107791036Y-63286475D01*
X107791036Y-63286475D02*
X107695798Y-63238856D01*
X107695798Y-63238856D02*
X107410084Y-63238856D01*
X107410084Y-63238856D02*
X107314846Y-63286475D01*
X107314846Y-63286475D02*
X107267227Y-63334094D01*
X107267227Y-63334094D02*
X107219608Y-63429332D01*
X107219608Y-63429332D02*
X107219608Y-63572189D01*
X107219608Y-63572189D02*
X107267227Y-63667427D01*
X107267227Y-63667427D02*
X107314846Y-63715046D01*
X107314846Y-63715046D02*
X107410084Y-63762665D01*
X107410084Y-63762665D02*
X107695798Y-63762665D01*
X107695798Y-63762665D02*
X107791036Y-63715046D01*
X107791036Y-63715046D02*
X107838656Y-63667427D01*
X107838656Y-63667427D02*
X107886275Y-63572189D01*
X107886275Y-63572189D02*
X107886275Y-63429332D01*
X107886275Y-64191237D02*
X107219608Y-64191237D01*
X107314846Y-64191237D02*
X107267227Y-64238856D01*
X107267227Y-64238856D02*
X107219608Y-64334094D01*
X107219608Y-64334094D02*
X107219608Y-64476951D01*
X107219608Y-64476951D02*
X107267227Y-64572189D01*
X107267227Y-64572189D02*
X107362465Y-64619808D01*
X107362465Y-64619808D02*
X107886275Y-64619808D01*
X107362465Y-64619808D02*
X107267227Y-64667427D01*
X107267227Y-64667427D02*
X107219608Y-64762665D01*
X107219608Y-64762665D02*
X107219608Y-64905522D01*
X107219608Y-64905522D02*
X107267227Y-65000761D01*
X107267227Y-65000761D02*
X107362465Y-65048380D01*
X107362465Y-65048380D02*
X107886275Y-65048380D01*
X106838656Y-66238855D02*
X108124370Y-65381713D01*
X107838656Y-66524570D02*
X107886275Y-66619808D01*
X107886275Y-66619808D02*
X107886275Y-66810284D01*
X107886275Y-66810284D02*
X107838656Y-66905522D01*
X107838656Y-66905522D02*
X107743417Y-66953141D01*
X107743417Y-66953141D02*
X107695798Y-66953141D01*
X107695798Y-66953141D02*
X107600560Y-66905522D01*
X107600560Y-66905522D02*
X107552941Y-66810284D01*
X107552941Y-66810284D02*
X107552941Y-66667427D01*
X107552941Y-66667427D02*
X107505322Y-66572189D01*
X107505322Y-66572189D02*
X107410084Y-66524570D01*
X107410084Y-66524570D02*
X107362465Y-66524570D01*
X107362465Y-66524570D02*
X107267227Y-66572189D01*
X107267227Y-66572189D02*
X107219608Y-66667427D01*
X107219608Y-66667427D02*
X107219608Y-66810284D01*
X107219608Y-66810284D02*
X107267227Y-66905522D01*
X107219608Y-67286475D02*
X107219608Y-67810284D01*
X107219608Y-67810284D02*
X107886275Y-67286475D01*
X107886275Y-67286475D02*
X107886275Y-67810284D01*
X107886275Y-68619808D02*
X106886275Y-68619808D01*
X107838656Y-68619808D02*
X107886275Y-68524570D01*
X107886275Y-68524570D02*
X107886275Y-68334094D01*
X107886275Y-68334094D02*
X107838656Y-68238856D01*
X107838656Y-68238856D02*
X107791036Y-68191237D01*
X107791036Y-68191237D02*
X107695798Y-68143618D01*
X107695798Y-68143618D02*
X107410084Y-68143618D01*
X107410084Y-68143618D02*
X107314846Y-68191237D01*
X107314846Y-68191237D02*
X107267227Y-68238856D01*
X107267227Y-68238856D02*
X107219608Y-68334094D01*
X107219608Y-68334094D02*
X107219608Y-68524570D01*
X107219608Y-68524570D02*
X107267227Y-68619808D01*
X107886275Y-69095999D02*
X107219608Y-69095999D01*
X106886275Y-69095999D02*
X106933894Y-69048380D01*
X106933894Y-69048380D02*
X106981513Y-69095999D01*
X106981513Y-69095999D02*
X106933894Y-69143618D01*
X106933894Y-69143618D02*
X106886275Y-69095999D01*
X106886275Y-69095999D02*
X106981513Y-69095999D01*
X107219608Y-69476951D02*
X107886275Y-69715046D01*
X107219608Y-69953141D02*
X107886275Y-69715046D01*
X107886275Y-69715046D02*
X108124370Y-69619808D01*
X108124370Y-69619808D02*
X108171989Y-69572189D01*
X108171989Y-69572189D02*
X108219608Y-69476951D01*
X106838656Y-71048379D02*
X108124370Y-70191237D01*
X108829552Y-55048379D02*
X109829552Y-55048379D01*
X108877171Y-55048379D02*
X108829552Y-55143617D01*
X108829552Y-55143617D02*
X108829552Y-55334093D01*
X108829552Y-55334093D02*
X108877171Y-55429331D01*
X108877171Y-55429331D02*
X108924790Y-55476950D01*
X108924790Y-55476950D02*
X109020028Y-55524569D01*
X109020028Y-55524569D02*
X109305742Y-55524569D01*
X109305742Y-55524569D02*
X109400980Y-55476950D01*
X109400980Y-55476950D02*
X109448600Y-55429331D01*
X109448600Y-55429331D02*
X109496219Y-55334093D01*
X109496219Y-55334093D02*
X109496219Y-55143617D01*
X109496219Y-55143617D02*
X109448600Y-55048379D01*
X108829552Y-56381712D02*
X109496219Y-56381712D01*
X108829552Y-55953141D02*
X109353361Y-55953141D01*
X109353361Y-55953141D02*
X109448600Y-56000760D01*
X109448600Y-56000760D02*
X109496219Y-56095998D01*
X109496219Y-56095998D02*
X109496219Y-56238855D01*
X109496219Y-56238855D02*
X109448600Y-56334093D01*
X109448600Y-56334093D02*
X109400980Y-56381712D01*
X108829552Y-56857903D02*
X109496219Y-56857903D01*
X108924790Y-56857903D02*
X108877171Y-56905522D01*
X108877171Y-56905522D02*
X108829552Y-57000760D01*
X108829552Y-57000760D02*
X108829552Y-57143617D01*
X108829552Y-57143617D02*
X108877171Y-57238855D01*
X108877171Y-57238855D02*
X108972409Y-57286474D01*
X108972409Y-57286474D02*
X109496219Y-57286474D01*
X109448600Y-58191236D02*
X109496219Y-58095998D01*
X109496219Y-58095998D02*
X109496219Y-57905522D01*
X109496219Y-57905522D02*
X109448600Y-57810284D01*
X109448600Y-57810284D02*
X109400980Y-57762665D01*
X109400980Y-57762665D02*
X109305742Y-57715046D01*
X109305742Y-57715046D02*
X109020028Y-57715046D01*
X109020028Y-57715046D02*
X108924790Y-57762665D01*
X108924790Y-57762665D02*
X108877171Y-57810284D01*
X108877171Y-57810284D02*
X108829552Y-57905522D01*
X108829552Y-57905522D02*
X108829552Y-58095998D01*
X108829552Y-58095998D02*
X108877171Y-58191236D01*
X109496219Y-58619808D02*
X108496219Y-58619808D01*
X109496219Y-59048379D02*
X108972409Y-59048379D01*
X108972409Y-59048379D02*
X108877171Y-59000760D01*
X108877171Y-59000760D02*
X108829552Y-58905522D01*
X108829552Y-58905522D02*
X108829552Y-58762665D01*
X108829552Y-58762665D02*
X108877171Y-58667427D01*
X108877171Y-58667427D02*
X108924790Y-58619808D01*
X109115266Y-59524570D02*
X109115266Y-60286475D01*
X108829552Y-60619808D02*
X108829552Y-61000760D01*
X108496219Y-60762665D02*
X109353361Y-60762665D01*
X109353361Y-60762665D02*
X109448600Y-60810284D01*
X109448600Y-60810284D02*
X109496219Y-60905522D01*
X109496219Y-60905522D02*
X109496219Y-61000760D01*
X109496219Y-61762665D02*
X108972409Y-61762665D01*
X108972409Y-61762665D02*
X108877171Y-61715046D01*
X108877171Y-61715046D02*
X108829552Y-61619808D01*
X108829552Y-61619808D02*
X108829552Y-61429332D01*
X108829552Y-61429332D02*
X108877171Y-61334094D01*
X109448600Y-61762665D02*
X109496219Y-61667427D01*
X109496219Y-61667427D02*
X109496219Y-61429332D01*
X109496219Y-61429332D02*
X109448600Y-61334094D01*
X109448600Y-61334094D02*
X109353361Y-61286475D01*
X109353361Y-61286475D02*
X109258123Y-61286475D01*
X109258123Y-61286475D02*
X109162885Y-61334094D01*
X109162885Y-61334094D02*
X109115266Y-61429332D01*
X109115266Y-61429332D02*
X109115266Y-61667427D01*
X109115266Y-61667427D02*
X109067647Y-61762665D01*
X108829552Y-62238856D02*
X109829552Y-62238856D01*
X108877171Y-62238856D02*
X108829552Y-62334094D01*
X108829552Y-62334094D02*
X108829552Y-62524570D01*
X108829552Y-62524570D02*
X108877171Y-62619808D01*
X108877171Y-62619808D02*
X108924790Y-62667427D01*
X108924790Y-62667427D02*
X109020028Y-62715046D01*
X109020028Y-62715046D02*
X109305742Y-62715046D01*
X109305742Y-62715046D02*
X109400980Y-62667427D01*
X109400980Y-62667427D02*
X109448600Y-62619808D01*
X109448600Y-62619808D02*
X109496219Y-62524570D01*
X109496219Y-62524570D02*
X109496219Y-62334094D01*
X109496219Y-62334094D02*
X109448600Y-62238856D01*
X109448600Y-63524570D02*
X109496219Y-63429332D01*
X109496219Y-63429332D02*
X109496219Y-63238856D01*
X109496219Y-63238856D02*
X109448600Y-63143618D01*
X109448600Y-63143618D02*
X109353361Y-63095999D01*
X109353361Y-63095999D02*
X108972409Y-63095999D01*
X108972409Y-63095999D02*
X108877171Y-63143618D01*
X108877171Y-63143618D02*
X108829552Y-63238856D01*
X108829552Y-63238856D02*
X108829552Y-63429332D01*
X108829552Y-63429332D02*
X108877171Y-63524570D01*
X108877171Y-63524570D02*
X108972409Y-63572189D01*
X108972409Y-63572189D02*
X109067647Y-63572189D01*
X109067647Y-63572189D02*
X109162885Y-63095999D01*
X109115266Y-64000761D02*
X109115266Y-64762666D01*
X109496219Y-65238856D02*
X108829552Y-65238856D01*
X109020028Y-65238856D02*
X108924790Y-65286475D01*
X108924790Y-65286475D02*
X108877171Y-65334094D01*
X108877171Y-65334094D02*
X108829552Y-65429332D01*
X108829552Y-65429332D02*
X108829552Y-65524570D01*
X109448600Y-66238856D02*
X109496219Y-66143618D01*
X109496219Y-66143618D02*
X109496219Y-65953142D01*
X109496219Y-65953142D02*
X109448600Y-65857904D01*
X109448600Y-65857904D02*
X109353361Y-65810285D01*
X109353361Y-65810285D02*
X108972409Y-65810285D01*
X108972409Y-65810285D02*
X108877171Y-65857904D01*
X108877171Y-65857904D02*
X108829552Y-65953142D01*
X108829552Y-65953142D02*
X108829552Y-66143618D01*
X108829552Y-66143618D02*
X108877171Y-66238856D01*
X108877171Y-66238856D02*
X108972409Y-66286475D01*
X108972409Y-66286475D02*
X109067647Y-66286475D01*
X109067647Y-66286475D02*
X109162885Y-65810285D01*
X109496219Y-67143618D02*
X108972409Y-67143618D01*
X108972409Y-67143618D02*
X108877171Y-67095999D01*
X108877171Y-67095999D02*
X108829552Y-67000761D01*
X108829552Y-67000761D02*
X108829552Y-66810285D01*
X108829552Y-66810285D02*
X108877171Y-66715047D01*
X109448600Y-67143618D02*
X109496219Y-67048380D01*
X109496219Y-67048380D02*
X109496219Y-66810285D01*
X109496219Y-66810285D02*
X109448600Y-66715047D01*
X109448600Y-66715047D02*
X109353361Y-66667428D01*
X109353361Y-66667428D02*
X109258123Y-66667428D01*
X109258123Y-66667428D02*
X109162885Y-66715047D01*
X109162885Y-66715047D02*
X109115266Y-66810285D01*
X109115266Y-66810285D02*
X109115266Y-67048380D01*
X109115266Y-67048380D02*
X109067647Y-67143618D01*
X109496219Y-68048380D02*
X108496219Y-68048380D01*
X109448600Y-68048380D02*
X109496219Y-67953142D01*
X109496219Y-67953142D02*
X109496219Y-67762666D01*
X109496219Y-67762666D02*
X109448600Y-67667428D01*
X109448600Y-67667428D02*
X109400980Y-67619809D01*
X109400980Y-67619809D02*
X109305742Y-67572190D01*
X109305742Y-67572190D02*
X109020028Y-67572190D01*
X109020028Y-67572190D02*
X108924790Y-67619809D01*
X108924790Y-67619809D02*
X108877171Y-67667428D01*
X108877171Y-67667428D02*
X108829552Y-67762666D01*
X108829552Y-67762666D02*
X108829552Y-67953142D01*
X108829552Y-67953142D02*
X108877171Y-68048380D01*
X109448600Y-68905523D02*
X109496219Y-68810285D01*
X109496219Y-68810285D02*
X109496219Y-68619809D01*
X109496219Y-68619809D02*
X109448600Y-68524571D01*
X109448600Y-68524571D02*
X109353361Y-68476952D01*
X109353361Y-68476952D02*
X108972409Y-68476952D01*
X108972409Y-68476952D02*
X108877171Y-68524571D01*
X108877171Y-68524571D02*
X108829552Y-68619809D01*
X108829552Y-68619809D02*
X108829552Y-68810285D01*
X108829552Y-68810285D02*
X108877171Y-68905523D01*
X108877171Y-68905523D02*
X108972409Y-68953142D01*
X108972409Y-68953142D02*
X109067647Y-68953142D01*
X109067647Y-68953142D02*
X109162885Y-68476952D01*
X109496219Y-69381714D02*
X108829552Y-69381714D01*
X109020028Y-69381714D02*
X108924790Y-69429333D01*
X108924790Y-69429333D02*
X108877171Y-69476952D01*
X108877171Y-69476952D02*
X108829552Y-69572190D01*
X108829552Y-69572190D02*
X108829552Y-69667428D01*
X108448600Y-70715047D02*
X109734314Y-69857905D01*
D14*
X135782279Y-67368112D02*
X135782279Y-65868112D01*
X135782279Y-65868112D02*
X135210850Y-65868112D01*
X135210850Y-65868112D02*
X135067993Y-65939541D01*
X135067993Y-65939541D02*
X134996564Y-66010969D01*
X134996564Y-66010969D02*
X134925136Y-66153826D01*
X134925136Y-66153826D02*
X134925136Y-66368112D01*
X134925136Y-66368112D02*
X134996564Y-66510969D01*
X134996564Y-66510969D02*
X135067993Y-66582398D01*
X135067993Y-66582398D02*
X135210850Y-66653826D01*
X135210850Y-66653826D02*
X135782279Y-66653826D01*
X133639422Y-66368112D02*
X133639422Y-67368112D01*
X134282279Y-66368112D02*
X134282279Y-67153826D01*
X134282279Y-67153826D02*
X134210850Y-67296684D01*
X134210850Y-67296684D02*
X134067993Y-67368112D01*
X134067993Y-67368112D02*
X133853707Y-67368112D01*
X133853707Y-67368112D02*
X133710850Y-67296684D01*
X133710850Y-67296684D02*
X133639422Y-67225255D01*
X132925136Y-66368112D02*
X132925136Y-67368112D01*
X132925136Y-66510969D02*
X132853707Y-66439541D01*
X132853707Y-66439541D02*
X132710850Y-66368112D01*
X132710850Y-66368112D02*
X132496564Y-66368112D01*
X132496564Y-66368112D02*
X132353707Y-66439541D01*
X132353707Y-66439541D02*
X132282279Y-66582398D01*
X132282279Y-66582398D02*
X132282279Y-67368112D01*
X130925136Y-67296684D02*
X131067993Y-67368112D01*
X131067993Y-67368112D02*
X131353707Y-67368112D01*
X131353707Y-67368112D02*
X131496564Y-67296684D01*
X131496564Y-67296684D02*
X131567993Y-67225255D01*
X131567993Y-67225255D02*
X131639421Y-67082398D01*
X131639421Y-67082398D02*
X131639421Y-66653826D01*
X131639421Y-66653826D02*
X131567993Y-66510969D01*
X131567993Y-66510969D02*
X131496564Y-66439541D01*
X131496564Y-66439541D02*
X131353707Y-66368112D01*
X131353707Y-66368112D02*
X131067993Y-66368112D01*
X131067993Y-66368112D02*
X130925136Y-66439541D01*
X130282279Y-67368112D02*
X130282279Y-65868112D01*
X129639422Y-67368112D02*
X129639422Y-66582398D01*
X129639422Y-66582398D02*
X129710850Y-66439541D01*
X129710850Y-66439541D02*
X129853707Y-66368112D01*
X129853707Y-66368112D02*
X130067993Y-66368112D01*
X130067993Y-66368112D02*
X130210850Y-66439541D01*
X130210850Y-66439541D02*
X130282279Y-66510969D01*
X127996564Y-65868112D02*
X127139422Y-65868112D01*
X127567993Y-67368112D02*
X127567993Y-65868112D01*
X125996565Y-67368112D02*
X125996565Y-66582398D01*
X125996565Y-66582398D02*
X126067993Y-66439541D01*
X126067993Y-66439541D02*
X126210850Y-66368112D01*
X126210850Y-66368112D02*
X126496565Y-66368112D01*
X126496565Y-66368112D02*
X126639422Y-66439541D01*
X125996565Y-67296684D02*
X126139422Y-67368112D01*
X126139422Y-67368112D02*
X126496565Y-67368112D01*
X126496565Y-67368112D02*
X126639422Y-67296684D01*
X126639422Y-67296684D02*
X126710850Y-67153826D01*
X126710850Y-67153826D02*
X126710850Y-67010969D01*
X126710850Y-67010969D02*
X126639422Y-66868112D01*
X126639422Y-66868112D02*
X126496565Y-66796684D01*
X126496565Y-66796684D02*
X126139422Y-66796684D01*
X126139422Y-66796684D02*
X125996565Y-66725255D01*
X125282279Y-66368112D02*
X125282279Y-67868112D01*
X125282279Y-66439541D02*
X125139422Y-66368112D01*
X125139422Y-66368112D02*
X124853707Y-66368112D01*
X124853707Y-66368112D02*
X124710850Y-66439541D01*
X124710850Y-66439541D02*
X124639422Y-66510969D01*
X124639422Y-66510969D02*
X124567993Y-66653826D01*
X124567993Y-66653826D02*
X124567993Y-67082398D01*
X124567993Y-67082398D02*
X124639422Y-67225255D01*
X124639422Y-67225255D02*
X124710850Y-67296684D01*
X124710850Y-67296684D02*
X124853707Y-67368112D01*
X124853707Y-67368112D02*
X125139422Y-67368112D01*
X125139422Y-67368112D02*
X125282279Y-67296684D01*
X123353707Y-67296684D02*
X123496564Y-67368112D01*
X123496564Y-67368112D02*
X123782279Y-67368112D01*
X123782279Y-67368112D02*
X123925136Y-67296684D01*
X123925136Y-67296684D02*
X123996564Y-67153826D01*
X123996564Y-67153826D02*
X123996564Y-66582398D01*
X123996564Y-66582398D02*
X123925136Y-66439541D01*
X123925136Y-66439541D02*
X123782279Y-66368112D01*
X123782279Y-66368112D02*
X123496564Y-66368112D01*
X123496564Y-66368112D02*
X123353707Y-66439541D01*
X123353707Y-66439541D02*
X123282279Y-66582398D01*
X123282279Y-66582398D02*
X123282279Y-66725255D01*
X123282279Y-66725255D02*
X123996564Y-66868112D01*
X120639422Y-67368112D02*
X121139422Y-66653826D01*
X121496565Y-67368112D02*
X121496565Y-65868112D01*
X121496565Y-65868112D02*
X120925136Y-65868112D01*
X120925136Y-65868112D02*
X120782279Y-65939541D01*
X120782279Y-65939541D02*
X120710850Y-66010969D01*
X120710850Y-66010969D02*
X120639422Y-66153826D01*
X120639422Y-66153826D02*
X120639422Y-66368112D01*
X120639422Y-66368112D02*
X120710850Y-66510969D01*
X120710850Y-66510969D02*
X120782279Y-66582398D01*
X120782279Y-66582398D02*
X120925136Y-66653826D01*
X120925136Y-66653826D02*
X121496565Y-66653826D01*
X119425136Y-67296684D02*
X119567993Y-67368112D01*
X119567993Y-67368112D02*
X119853708Y-67368112D01*
X119853708Y-67368112D02*
X119996565Y-67296684D01*
X119996565Y-67296684D02*
X120067993Y-67153826D01*
X120067993Y-67153826D02*
X120067993Y-66582398D01*
X120067993Y-66582398D02*
X119996565Y-66439541D01*
X119996565Y-66439541D02*
X119853708Y-66368112D01*
X119853708Y-66368112D02*
X119567993Y-66368112D01*
X119567993Y-66368112D02*
X119425136Y-66439541D01*
X119425136Y-66439541D02*
X119353708Y-66582398D01*
X119353708Y-66582398D02*
X119353708Y-66725255D01*
X119353708Y-66725255D02*
X120067993Y-66868112D01*
X118067994Y-67368112D02*
X118067994Y-66582398D01*
X118067994Y-66582398D02*
X118139422Y-66439541D01*
X118139422Y-66439541D02*
X118282279Y-66368112D01*
X118282279Y-66368112D02*
X118567994Y-66368112D01*
X118567994Y-66368112D02*
X118710851Y-66439541D01*
X118067994Y-67296684D02*
X118210851Y-67368112D01*
X118210851Y-67368112D02*
X118567994Y-67368112D01*
X118567994Y-67368112D02*
X118710851Y-67296684D01*
X118710851Y-67296684D02*
X118782279Y-67153826D01*
X118782279Y-67153826D02*
X118782279Y-67010969D01*
X118782279Y-67010969D02*
X118710851Y-66868112D01*
X118710851Y-66868112D02*
X118567994Y-66796684D01*
X118567994Y-66796684D02*
X118210851Y-66796684D01*
X118210851Y-66796684D02*
X118067994Y-66725255D01*
X116710851Y-67368112D02*
X116710851Y-65868112D01*
X116710851Y-67296684D02*
X116853708Y-67368112D01*
X116853708Y-67368112D02*
X117139422Y-67368112D01*
X117139422Y-67368112D02*
X117282279Y-67296684D01*
X117282279Y-67296684D02*
X117353708Y-67225255D01*
X117353708Y-67225255D02*
X117425136Y-67082398D01*
X117425136Y-67082398D02*
X117425136Y-66653826D01*
X117425136Y-66653826D02*
X117353708Y-66510969D01*
X117353708Y-66510969D02*
X117282279Y-66439541D01*
X117282279Y-66439541D02*
X117139422Y-66368112D01*
X117139422Y-66368112D02*
X116853708Y-66368112D01*
X116853708Y-66368112D02*
X116710851Y-66439541D01*
X115425136Y-67296684D02*
X115567993Y-67368112D01*
X115567993Y-67368112D02*
X115853708Y-67368112D01*
X115853708Y-67368112D02*
X115996565Y-67296684D01*
X115996565Y-67296684D02*
X116067993Y-67153826D01*
X116067993Y-67153826D02*
X116067993Y-66582398D01*
X116067993Y-66582398D02*
X115996565Y-66439541D01*
X115996565Y-66439541D02*
X115853708Y-66368112D01*
X115853708Y-66368112D02*
X115567993Y-66368112D01*
X115567993Y-66368112D02*
X115425136Y-66439541D01*
X115425136Y-66439541D02*
X115353708Y-66582398D01*
X115353708Y-66582398D02*
X115353708Y-66725255D01*
X115353708Y-66725255D02*
X116067993Y-66868112D01*
X114710851Y-67368112D02*
X114710851Y-66368112D01*
X114710851Y-66653826D02*
X114639422Y-66510969D01*
X114639422Y-66510969D02*
X114567994Y-66439541D01*
X114567994Y-66439541D02*
X114425136Y-66368112D01*
X114425136Y-66368112D02*
X114282279Y-66368112D01*
X131425136Y-69068742D02*
X131496565Y-68997314D01*
X131496565Y-68997314D02*
X131639422Y-68925885D01*
X131639422Y-68925885D02*
X131782279Y-68925885D01*
X131782279Y-68925885D02*
X131925136Y-68997314D01*
X131925136Y-68997314D02*
X131996565Y-69068742D01*
X131996565Y-69068742D02*
X132067993Y-69211600D01*
X132067993Y-69211600D02*
X132067993Y-69354457D01*
X132067993Y-69354457D02*
X131996565Y-69497314D01*
X131996565Y-69497314D02*
X131925136Y-69568742D01*
X131925136Y-69568742D02*
X131782279Y-69640171D01*
X131782279Y-69640171D02*
X131639422Y-69640171D01*
X131639422Y-69640171D02*
X131496565Y-69568742D01*
X131496565Y-69568742D02*
X131425136Y-69497314D01*
X131425136Y-68925885D02*
X131425136Y-69497314D01*
X131425136Y-69497314D02*
X131353708Y-69568742D01*
X131353708Y-69568742D02*
X131282279Y-69568742D01*
X131282279Y-69568742D02*
X131139422Y-69497314D01*
X131139422Y-69497314D02*
X131067993Y-69354457D01*
X131067993Y-69354457D02*
X131067993Y-68997314D01*
X131067993Y-68997314D02*
X131210851Y-68783028D01*
X131210851Y-68783028D02*
X131425136Y-68640171D01*
X131425136Y-68640171D02*
X131710851Y-68568742D01*
X131710851Y-68568742D02*
X131996565Y-68640171D01*
X131996565Y-68640171D02*
X132210851Y-68783028D01*
X132210851Y-68783028D02*
X132353708Y-68997314D01*
X132353708Y-68997314D02*
X132425136Y-69283028D01*
X132425136Y-69283028D02*
X132353708Y-69568742D01*
X132353708Y-69568742D02*
X132210851Y-69783028D01*
X132210851Y-69783028D02*
X131996565Y-69925885D01*
X131996565Y-69925885D02*
X131710851Y-69997314D01*
X131710851Y-69997314D02*
X131425136Y-69925885D01*
X131425136Y-69925885D02*
X131210851Y-69783028D01*
X130496565Y-69711600D02*
X130282280Y-69783028D01*
X130282280Y-69783028D02*
X129925137Y-69783028D01*
X129925137Y-69783028D02*
X129782280Y-69711600D01*
X129782280Y-69711600D02*
X129710851Y-69640171D01*
X129710851Y-69640171D02*
X129639422Y-69497314D01*
X129639422Y-69497314D02*
X129639422Y-69354457D01*
X129639422Y-69354457D02*
X129710851Y-69211600D01*
X129710851Y-69211600D02*
X129782280Y-69140171D01*
X129782280Y-69140171D02*
X129925137Y-69068742D01*
X129925137Y-69068742D02*
X130210851Y-68997314D01*
X130210851Y-68997314D02*
X130353708Y-68925885D01*
X130353708Y-68925885D02*
X130425137Y-68854457D01*
X130425137Y-68854457D02*
X130496565Y-68711600D01*
X130496565Y-68711600D02*
X130496565Y-68568742D01*
X130496565Y-68568742D02*
X130425137Y-68425885D01*
X130425137Y-68425885D02*
X130353708Y-68354457D01*
X130353708Y-68354457D02*
X130210851Y-68283028D01*
X130210851Y-68283028D02*
X129853708Y-68283028D01*
X129853708Y-68283028D02*
X129639422Y-68354457D01*
X129139423Y-68283028D02*
X128139423Y-68283028D01*
X128139423Y-68283028D02*
X129139423Y-69783028D01*
X129139423Y-69783028D02*
X128139423Y-69783028D01*
X127567995Y-69783028D02*
X127567995Y-68283028D01*
X127567995Y-68283028D02*
X127210852Y-68283028D01*
X127210852Y-68283028D02*
X126996566Y-68354457D01*
X126996566Y-68354457D02*
X126853709Y-68497314D01*
X126853709Y-68497314D02*
X126782280Y-68640171D01*
X126782280Y-68640171D02*
X126710852Y-68925885D01*
X126710852Y-68925885D02*
X126710852Y-69140171D01*
X126710852Y-69140171D02*
X126782280Y-69425885D01*
X126782280Y-69425885D02*
X126853709Y-69568742D01*
X126853709Y-69568742D02*
X126996566Y-69711600D01*
X126996566Y-69711600D02*
X127210852Y-69783028D01*
X127210852Y-69783028D02*
X127567995Y-69783028D01*
X126067995Y-69783028D02*
X126067995Y-68283028D01*
X125067994Y-69068742D02*
X125067994Y-69783028D01*
X125567994Y-68283028D02*
X125067994Y-69068742D01*
X125067994Y-69068742D02*
X124567994Y-68283028D01*
X124067995Y-69640171D02*
X123996566Y-69711600D01*
X123996566Y-69711600D02*
X124067995Y-69783028D01*
X124067995Y-69783028D02*
X124139423Y-69711600D01*
X124139423Y-69711600D02*
X124067995Y-69640171D01*
X124067995Y-69640171D02*
X124067995Y-69783028D01*
X123067994Y-68283028D02*
X122782280Y-68283028D01*
X122782280Y-68283028D02*
X122639423Y-68354457D01*
X122639423Y-68354457D02*
X122496566Y-68497314D01*
X122496566Y-68497314D02*
X122425137Y-68783028D01*
X122425137Y-68783028D02*
X122425137Y-69283028D01*
X122425137Y-69283028D02*
X122496566Y-69568742D01*
X122496566Y-69568742D02*
X122639423Y-69711600D01*
X122639423Y-69711600D02*
X122782280Y-69783028D01*
X122782280Y-69783028D02*
X123067994Y-69783028D01*
X123067994Y-69783028D02*
X123210852Y-69711600D01*
X123210852Y-69711600D02*
X123353709Y-69568742D01*
X123353709Y-69568742D02*
X123425137Y-69283028D01*
X123425137Y-69283028D02*
X123425137Y-68783028D01*
X123425137Y-68783028D02*
X123353709Y-68497314D01*
X123353709Y-68497314D02*
X123210852Y-68354457D01*
X123210852Y-68354457D02*
X123067994Y-68283028D01*
X120925137Y-69783028D02*
X121425137Y-69068742D01*
X121782280Y-69783028D02*
X121782280Y-68283028D01*
X121782280Y-68283028D02*
X121210851Y-68283028D01*
X121210851Y-68283028D02*
X121067994Y-68354457D01*
X121067994Y-68354457D02*
X120996565Y-68425885D01*
X120996565Y-68425885D02*
X120925137Y-68568742D01*
X120925137Y-68568742D02*
X120925137Y-68783028D01*
X120925137Y-68783028D02*
X120996565Y-68925885D01*
X120996565Y-68925885D02*
X121067994Y-68997314D01*
X121067994Y-68997314D02*
X121210851Y-69068742D01*
X121210851Y-69068742D02*
X121782280Y-69068742D01*
X119496565Y-68354457D02*
X119639423Y-68283028D01*
X119639423Y-68283028D02*
X119853708Y-68283028D01*
X119853708Y-68283028D02*
X120067994Y-68354457D01*
X120067994Y-68354457D02*
X120210851Y-68497314D01*
X120210851Y-68497314D02*
X120282280Y-68640171D01*
X120282280Y-68640171D02*
X120353708Y-68925885D01*
X120353708Y-68925885D02*
X120353708Y-69140171D01*
X120353708Y-69140171D02*
X120282280Y-69425885D01*
X120282280Y-69425885D02*
X120210851Y-69568742D01*
X120210851Y-69568742D02*
X120067994Y-69711600D01*
X120067994Y-69711600D02*
X119853708Y-69783028D01*
X119853708Y-69783028D02*
X119710851Y-69783028D01*
X119710851Y-69783028D02*
X119496565Y-69711600D01*
X119496565Y-69711600D02*
X119425137Y-69640171D01*
X119425137Y-69640171D02*
X119425137Y-69140171D01*
X119425137Y-69140171D02*
X119710851Y-69140171D01*
D11*
X144628251Y-69932582D02*
X144580632Y-69980201D01*
X144580632Y-69980201D02*
X144533012Y-70123058D01*
X144533012Y-70123058D02*
X144533012Y-70218296D01*
X144533012Y-70218296D02*
X144580632Y-70361153D01*
X144580632Y-70361153D02*
X144675870Y-70456391D01*
X144675870Y-70456391D02*
X144771108Y-70504010D01*
X144771108Y-70504010D02*
X144961584Y-70551629D01*
X144961584Y-70551629D02*
X145104441Y-70551629D01*
X145104441Y-70551629D02*
X145294917Y-70504010D01*
X145294917Y-70504010D02*
X145390155Y-70456391D01*
X145390155Y-70456391D02*
X145485393Y-70361153D01*
X145485393Y-70361153D02*
X145533012Y-70218296D01*
X145533012Y-70218296D02*
X145533012Y-70123058D01*
X145533012Y-70123058D02*
X145485393Y-69980201D01*
X145485393Y-69980201D02*
X145437774Y-69932582D01*
X144533012Y-69361153D02*
X144580632Y-69456391D01*
X144580632Y-69456391D02*
X144628251Y-69504010D01*
X144628251Y-69504010D02*
X144723489Y-69551629D01*
X144723489Y-69551629D02*
X145009203Y-69551629D01*
X145009203Y-69551629D02*
X145104441Y-69504010D01*
X145104441Y-69504010D02*
X145152060Y-69456391D01*
X145152060Y-69456391D02*
X145199679Y-69361153D01*
X145199679Y-69361153D02*
X145199679Y-69218296D01*
X145199679Y-69218296D02*
X145152060Y-69123058D01*
X145152060Y-69123058D02*
X145104441Y-69075439D01*
X145104441Y-69075439D02*
X145009203Y-69027820D01*
X145009203Y-69027820D02*
X144723489Y-69027820D01*
X144723489Y-69027820D02*
X144628251Y-69075439D01*
X144628251Y-69075439D02*
X144580632Y-69123058D01*
X144580632Y-69123058D02*
X144533012Y-69218296D01*
X144533012Y-69218296D02*
X144533012Y-69361153D01*
X144533012Y-68599248D02*
X145199679Y-68599248D01*
X145104441Y-68599248D02*
X145152060Y-68551629D01*
X145152060Y-68551629D02*
X145199679Y-68456391D01*
X145199679Y-68456391D02*
X145199679Y-68313534D01*
X145199679Y-68313534D02*
X145152060Y-68218296D01*
X145152060Y-68218296D02*
X145056822Y-68170677D01*
X145056822Y-68170677D02*
X144533012Y-68170677D01*
X145056822Y-68170677D02*
X145152060Y-68123058D01*
X145152060Y-68123058D02*
X145199679Y-68027820D01*
X145199679Y-68027820D02*
X145199679Y-67884963D01*
X145199679Y-67884963D02*
X145152060Y-67789724D01*
X145152060Y-67789724D02*
X145056822Y-67742105D01*
X145056822Y-67742105D02*
X144533012Y-67742105D01*
X145199679Y-67265915D02*
X144199679Y-67265915D01*
X145152060Y-67265915D02*
X145199679Y-67170677D01*
X145199679Y-67170677D02*
X145199679Y-66980201D01*
X145199679Y-66980201D02*
X145152060Y-66884963D01*
X145152060Y-66884963D02*
X145104441Y-66837344D01*
X145104441Y-66837344D02*
X145009203Y-66789725D01*
X145009203Y-66789725D02*
X144723489Y-66789725D01*
X144723489Y-66789725D02*
X144628251Y-66837344D01*
X144628251Y-66837344D02*
X144580632Y-66884963D01*
X144580632Y-66884963D02*
X144533012Y-66980201D01*
X144533012Y-66980201D02*
X144533012Y-67170677D01*
X144533012Y-67170677D02*
X144580632Y-67265915D01*
X144533012Y-66218296D02*
X144580632Y-66313534D01*
X144580632Y-66313534D02*
X144675870Y-66361153D01*
X144675870Y-66361153D02*
X145533012Y-66361153D01*
X144580632Y-65456391D02*
X144533012Y-65551629D01*
X144533012Y-65551629D02*
X144533012Y-65742105D01*
X144533012Y-65742105D02*
X144580632Y-65837343D01*
X144580632Y-65837343D02*
X144675870Y-65884962D01*
X144675870Y-65884962D02*
X145056822Y-65884962D01*
X145056822Y-65884962D02*
X145152060Y-65837343D01*
X145152060Y-65837343D02*
X145199679Y-65742105D01*
X145199679Y-65742105D02*
X145199679Y-65551629D01*
X145199679Y-65551629D02*
X145152060Y-65456391D01*
X145152060Y-65456391D02*
X145056822Y-65408772D01*
X145056822Y-65408772D02*
X144961584Y-65408772D01*
X144961584Y-65408772D02*
X144866346Y-65884962D01*
X145199679Y-65123057D02*
X145199679Y-64742105D01*
X145533012Y-64980200D02*
X144675870Y-64980200D01*
X144675870Y-64980200D02*
X144580632Y-64932581D01*
X144580632Y-64932581D02*
X144533012Y-64837343D01*
X144533012Y-64837343D02*
X144533012Y-64742105D01*
X144580632Y-64027819D02*
X144533012Y-64123057D01*
X144533012Y-64123057D02*
X144533012Y-64313533D01*
X144533012Y-64313533D02*
X144580632Y-64408771D01*
X144580632Y-64408771D02*
X144675870Y-64456390D01*
X144675870Y-64456390D02*
X145056822Y-64456390D01*
X145056822Y-64456390D02*
X145152060Y-64408771D01*
X145152060Y-64408771D02*
X145199679Y-64313533D01*
X145199679Y-64313533D02*
X145199679Y-64123057D01*
X145199679Y-64123057D02*
X145152060Y-64027819D01*
X145152060Y-64027819D02*
X145056822Y-63980200D01*
X145056822Y-63980200D02*
X144961584Y-63980200D01*
X144961584Y-63980200D02*
X144866346Y-64456390D01*
X144533012Y-63123057D02*
X145533012Y-63123057D01*
X144580632Y-63123057D02*
X144533012Y-63218295D01*
X144533012Y-63218295D02*
X144533012Y-63408771D01*
X144533012Y-63408771D02*
X144580632Y-63504009D01*
X144580632Y-63504009D02*
X144628251Y-63551628D01*
X144628251Y-63551628D02*
X144723489Y-63599247D01*
X144723489Y-63599247D02*
X145009203Y-63599247D01*
X145009203Y-63599247D02*
X145104441Y-63551628D01*
X145104441Y-63551628D02*
X145152060Y-63504009D01*
X145152060Y-63504009D02*
X145199679Y-63408771D01*
X145199679Y-63408771D02*
X145199679Y-63218295D01*
X145199679Y-63218295D02*
X145152060Y-63123057D01*
X144533012Y-61884961D02*
X145533012Y-61884961D01*
X145152060Y-61884961D02*
X145199679Y-61789723D01*
X145199679Y-61789723D02*
X145199679Y-61599247D01*
X145199679Y-61599247D02*
X145152060Y-61504009D01*
X145152060Y-61504009D02*
X145104441Y-61456390D01*
X145104441Y-61456390D02*
X145009203Y-61408771D01*
X145009203Y-61408771D02*
X144723489Y-61408771D01*
X144723489Y-61408771D02*
X144628251Y-61456390D01*
X144628251Y-61456390D02*
X144580632Y-61504009D01*
X144580632Y-61504009D02*
X144533012Y-61599247D01*
X144533012Y-61599247D02*
X144533012Y-61789723D01*
X144533012Y-61789723D02*
X144580632Y-61884961D01*
X144533012Y-60551628D02*
X145056822Y-60551628D01*
X145056822Y-60551628D02*
X145152060Y-60599247D01*
X145152060Y-60599247D02*
X145199679Y-60694485D01*
X145199679Y-60694485D02*
X145199679Y-60884961D01*
X145199679Y-60884961D02*
X145152060Y-60980199D01*
X144580632Y-60551628D02*
X144533012Y-60646866D01*
X144533012Y-60646866D02*
X144533012Y-60884961D01*
X144533012Y-60884961D02*
X144580632Y-60980199D01*
X144580632Y-60980199D02*
X144675870Y-61027818D01*
X144675870Y-61027818D02*
X144771108Y-61027818D01*
X144771108Y-61027818D02*
X144866346Y-60980199D01*
X144866346Y-60980199D02*
X144913965Y-60884961D01*
X144913965Y-60884961D02*
X144913965Y-60646866D01*
X144913965Y-60646866D02*
X144961584Y-60551628D01*
X144580632Y-60123056D02*
X144533012Y-60027818D01*
X144533012Y-60027818D02*
X144533012Y-59837342D01*
X144533012Y-59837342D02*
X144580632Y-59742104D01*
X144580632Y-59742104D02*
X144675870Y-59694485D01*
X144675870Y-59694485D02*
X144723489Y-59694485D01*
X144723489Y-59694485D02*
X144818727Y-59742104D01*
X144818727Y-59742104D02*
X144866346Y-59837342D01*
X144866346Y-59837342D02*
X144866346Y-59980199D01*
X144866346Y-59980199D02*
X144913965Y-60075437D01*
X144913965Y-60075437D02*
X145009203Y-60123056D01*
X145009203Y-60123056D02*
X145056822Y-60123056D01*
X145056822Y-60123056D02*
X145152060Y-60075437D01*
X145152060Y-60075437D02*
X145199679Y-59980199D01*
X145199679Y-59980199D02*
X145199679Y-59837342D01*
X145199679Y-59837342D02*
X145152060Y-59742104D01*
X144580632Y-58884961D02*
X144533012Y-58980199D01*
X144533012Y-58980199D02*
X144533012Y-59170675D01*
X144533012Y-59170675D02*
X144580632Y-59265913D01*
X144580632Y-59265913D02*
X144675870Y-59313532D01*
X144675870Y-59313532D02*
X145056822Y-59313532D01*
X145056822Y-59313532D02*
X145152060Y-59265913D01*
X145152060Y-59265913D02*
X145199679Y-59170675D01*
X145199679Y-59170675D02*
X145199679Y-58980199D01*
X145199679Y-58980199D02*
X145152060Y-58884961D01*
X145152060Y-58884961D02*
X145056822Y-58837342D01*
X145056822Y-58837342D02*
X144961584Y-58837342D01*
X144961584Y-58837342D02*
X144866346Y-59313532D01*
X144533012Y-57980199D02*
X145533012Y-57980199D01*
X144580632Y-57980199D02*
X144533012Y-58075437D01*
X144533012Y-58075437D02*
X144533012Y-58265913D01*
X144533012Y-58265913D02*
X144580632Y-58361151D01*
X144580632Y-58361151D02*
X144628251Y-58408770D01*
X144628251Y-58408770D02*
X144723489Y-58456389D01*
X144723489Y-58456389D02*
X145009203Y-58456389D01*
X145009203Y-58456389D02*
X145104441Y-58408770D01*
X145104441Y-58408770D02*
X145152060Y-58361151D01*
X145152060Y-58361151D02*
X145199679Y-58265913D01*
X145199679Y-58265913D02*
X145199679Y-58075437D01*
X145199679Y-58075437D02*
X145152060Y-57980199D01*
X144533012Y-56599246D02*
X144580632Y-56694484D01*
X144580632Y-56694484D02*
X144628251Y-56742103D01*
X144628251Y-56742103D02*
X144723489Y-56789722D01*
X144723489Y-56789722D02*
X145009203Y-56789722D01*
X145009203Y-56789722D02*
X145104441Y-56742103D01*
X145104441Y-56742103D02*
X145152060Y-56694484D01*
X145152060Y-56694484D02*
X145199679Y-56599246D01*
X145199679Y-56599246D02*
X145199679Y-56456389D01*
X145199679Y-56456389D02*
X145152060Y-56361151D01*
X145152060Y-56361151D02*
X145104441Y-56313532D01*
X145104441Y-56313532D02*
X145009203Y-56265913D01*
X145009203Y-56265913D02*
X144723489Y-56265913D01*
X144723489Y-56265913D02*
X144628251Y-56313532D01*
X144628251Y-56313532D02*
X144580632Y-56361151D01*
X144580632Y-56361151D02*
X144533012Y-56456389D01*
X144533012Y-56456389D02*
X144533012Y-56599246D01*
X145199679Y-55837341D02*
X144533012Y-55837341D01*
X145104441Y-55837341D02*
X145152060Y-55789722D01*
X145152060Y-55789722D02*
X145199679Y-55694484D01*
X145199679Y-55694484D02*
X145199679Y-55551627D01*
X145199679Y-55551627D02*
X145152060Y-55456389D01*
X145152060Y-55456389D02*
X145056822Y-55408770D01*
X145056822Y-55408770D02*
X144533012Y-55408770D01*
X143923068Y-67932581D02*
X143208783Y-67932581D01*
X143208783Y-67932581D02*
X143065926Y-67980200D01*
X143065926Y-67980200D02*
X142970688Y-68075438D01*
X142970688Y-68075438D02*
X142923068Y-68218295D01*
X142923068Y-68218295D02*
X142923068Y-68313533D01*
X143589735Y-67027819D02*
X142923068Y-67027819D01*
X143589735Y-67456390D02*
X143065926Y-67456390D01*
X143065926Y-67456390D02*
X142970688Y-67408771D01*
X142970688Y-67408771D02*
X142923068Y-67313533D01*
X142923068Y-67313533D02*
X142923068Y-67170676D01*
X142923068Y-67170676D02*
X142970688Y-67075438D01*
X142970688Y-67075438D02*
X143018307Y-67027819D01*
X143923068Y-67408771D02*
X143875449Y-67361152D01*
X143875449Y-67361152D02*
X143827830Y-67408771D01*
X143827830Y-67408771D02*
X143875449Y-67456390D01*
X143875449Y-67456390D02*
X143923068Y-67408771D01*
X143923068Y-67408771D02*
X143827830Y-67408771D01*
X143923068Y-67027819D02*
X143875449Y-66980200D01*
X143875449Y-66980200D02*
X143827830Y-67027819D01*
X143827830Y-67027819D02*
X143875449Y-67075438D01*
X143875449Y-67075438D02*
X143923068Y-67027819D01*
X143923068Y-67027819D02*
X143827830Y-67027819D01*
X142923068Y-66551628D02*
X143589735Y-66551628D01*
X143399259Y-66551628D02*
X143494497Y-66504009D01*
X143494497Y-66504009D02*
X143542116Y-66456390D01*
X143542116Y-66456390D02*
X143589735Y-66361152D01*
X143589735Y-66361152D02*
X143589735Y-66265914D01*
X143589735Y-65504009D02*
X142780211Y-65504009D01*
X142780211Y-65504009D02*
X142684973Y-65551628D01*
X142684973Y-65551628D02*
X142637354Y-65599247D01*
X142637354Y-65599247D02*
X142589735Y-65694485D01*
X142589735Y-65694485D02*
X142589735Y-65837342D01*
X142589735Y-65837342D02*
X142637354Y-65932580D01*
X142970688Y-65504009D02*
X142923068Y-65599247D01*
X142923068Y-65599247D02*
X142923068Y-65789723D01*
X142923068Y-65789723D02*
X142970688Y-65884961D01*
X142970688Y-65884961D02*
X143018307Y-65932580D01*
X143018307Y-65932580D02*
X143113545Y-65980199D01*
X143113545Y-65980199D02*
X143399259Y-65980199D01*
X143399259Y-65980199D02*
X143494497Y-65932580D01*
X143494497Y-65932580D02*
X143542116Y-65884961D01*
X143542116Y-65884961D02*
X143589735Y-65789723D01*
X143589735Y-65789723D02*
X143589735Y-65599247D01*
X143589735Y-65599247D02*
X143542116Y-65504009D01*
X142970688Y-64646866D02*
X142923068Y-64742104D01*
X142923068Y-64742104D02*
X142923068Y-64932580D01*
X142923068Y-64932580D02*
X142970688Y-65027818D01*
X142970688Y-65027818D02*
X143065926Y-65075437D01*
X143065926Y-65075437D02*
X143446878Y-65075437D01*
X143446878Y-65075437D02*
X143542116Y-65027818D01*
X143542116Y-65027818D02*
X143589735Y-64932580D01*
X143589735Y-64932580D02*
X143589735Y-64742104D01*
X143589735Y-64742104D02*
X143542116Y-64646866D01*
X143542116Y-64646866D02*
X143446878Y-64599247D01*
X143446878Y-64599247D02*
X143351640Y-64599247D01*
X143351640Y-64599247D02*
X143256402Y-65075437D01*
X143589735Y-64170675D02*
X142923068Y-64170675D01*
X143494497Y-64170675D02*
X143542116Y-64123056D01*
X143542116Y-64123056D02*
X143589735Y-64027818D01*
X143589735Y-64027818D02*
X143589735Y-63884961D01*
X143589735Y-63884961D02*
X143542116Y-63789723D01*
X143542116Y-63789723D02*
X143446878Y-63742104D01*
X143446878Y-63742104D02*
X142923068Y-63742104D01*
X142923068Y-62504008D02*
X143923068Y-62504008D01*
X143923068Y-62504008D02*
X143208783Y-62170675D01*
X143208783Y-62170675D02*
X143923068Y-61837342D01*
X143923068Y-61837342D02*
X142923068Y-61837342D01*
X143589735Y-60932580D02*
X142923068Y-60932580D01*
X143589735Y-61361151D02*
X143065926Y-61361151D01*
X143065926Y-61361151D02*
X142970688Y-61313532D01*
X142970688Y-61313532D02*
X142923068Y-61218294D01*
X142923068Y-61218294D02*
X142923068Y-61075437D01*
X142923068Y-61075437D02*
X142970688Y-60980199D01*
X142970688Y-60980199D02*
X143018307Y-60932580D01*
X143923068Y-61313532D02*
X143875449Y-61265913D01*
X143875449Y-61265913D02*
X143827830Y-61313532D01*
X143827830Y-61313532D02*
X143875449Y-61361151D01*
X143875449Y-61361151D02*
X143923068Y-61313532D01*
X143923068Y-61313532D02*
X143827830Y-61313532D01*
X143923068Y-60932580D02*
X143875449Y-60884961D01*
X143875449Y-60884961D02*
X143827830Y-60932580D01*
X143827830Y-60932580D02*
X143875449Y-60980199D01*
X143875449Y-60980199D02*
X143923068Y-60932580D01*
X143923068Y-60932580D02*
X143827830Y-60932580D01*
X142923068Y-60313532D02*
X142970688Y-60408770D01*
X142970688Y-60408770D02*
X143065926Y-60456389D01*
X143065926Y-60456389D02*
X143923068Y-60456389D01*
X142923068Y-59789722D02*
X142970688Y-59884960D01*
X142970688Y-59884960D02*
X143065926Y-59932579D01*
X143065926Y-59932579D02*
X143923068Y-59932579D01*
X142970688Y-59027817D02*
X142923068Y-59123055D01*
X142923068Y-59123055D02*
X142923068Y-59313531D01*
X142923068Y-59313531D02*
X142970688Y-59408769D01*
X142970688Y-59408769D02*
X143065926Y-59456388D01*
X143065926Y-59456388D02*
X143446878Y-59456388D01*
X143446878Y-59456388D02*
X143542116Y-59408769D01*
X143542116Y-59408769D02*
X143589735Y-59313531D01*
X143589735Y-59313531D02*
X143589735Y-59123055D01*
X143589735Y-59123055D02*
X143542116Y-59027817D01*
X143542116Y-59027817D02*
X143446878Y-58980198D01*
X143446878Y-58980198D02*
X143351640Y-58980198D01*
X143351640Y-58980198D02*
X143256402Y-59456388D01*
X142923068Y-58551626D02*
X143589735Y-58551626D01*
X143399259Y-58551626D02*
X143494497Y-58504007D01*
X143494497Y-58504007D02*
X143542116Y-58456388D01*
X143542116Y-58456388D02*
X143589735Y-58361150D01*
X143589735Y-58361150D02*
X143589735Y-58265912D01*
X143923068Y-57884959D02*
X143732592Y-57980197D01*
X142970688Y-57504007D02*
X142923068Y-57408769D01*
X142923068Y-57408769D02*
X142923068Y-57218293D01*
X142923068Y-57218293D02*
X142970688Y-57123055D01*
X142970688Y-57123055D02*
X143065926Y-57075436D01*
X143065926Y-57075436D02*
X143113545Y-57075436D01*
X143113545Y-57075436D02*
X143208783Y-57123055D01*
X143208783Y-57123055D02*
X143256402Y-57218293D01*
X143256402Y-57218293D02*
X143256402Y-57361150D01*
X143256402Y-57361150D02*
X143304021Y-57456388D01*
X143304021Y-57456388D02*
X143399259Y-57504007D01*
X143399259Y-57504007D02*
X143446878Y-57504007D01*
X143446878Y-57504007D02*
X143542116Y-57456388D01*
X143542116Y-57456388D02*
X143589735Y-57361150D01*
X143589735Y-57361150D02*
X143589735Y-57218293D01*
X143589735Y-57218293D02*
X143542116Y-57123055D01*
X141313124Y-69742105D02*
X142313124Y-69742105D01*
X142313124Y-69742105D02*
X142313124Y-69361153D01*
X142313124Y-69361153D02*
X142265505Y-69265915D01*
X142265505Y-69265915D02*
X142217886Y-69218296D01*
X142217886Y-69218296D02*
X142122648Y-69170677D01*
X142122648Y-69170677D02*
X141979791Y-69170677D01*
X141979791Y-69170677D02*
X141884553Y-69218296D01*
X141884553Y-69218296D02*
X141836934Y-69265915D01*
X141836934Y-69265915D02*
X141789315Y-69361153D01*
X141789315Y-69361153D02*
X141789315Y-69742105D01*
X141313124Y-68313534D02*
X141836934Y-68313534D01*
X141836934Y-68313534D02*
X141932172Y-68361153D01*
X141932172Y-68361153D02*
X141979791Y-68456391D01*
X141979791Y-68456391D02*
X141979791Y-68646867D01*
X141979791Y-68646867D02*
X141932172Y-68742105D01*
X141360744Y-68313534D02*
X141313124Y-68408772D01*
X141313124Y-68408772D02*
X141313124Y-68646867D01*
X141313124Y-68646867D02*
X141360744Y-68742105D01*
X141360744Y-68742105D02*
X141455982Y-68789724D01*
X141455982Y-68789724D02*
X141551220Y-68789724D01*
X141551220Y-68789724D02*
X141646458Y-68742105D01*
X141646458Y-68742105D02*
X141694077Y-68646867D01*
X141694077Y-68646867D02*
X141694077Y-68408772D01*
X141694077Y-68408772D02*
X141741696Y-68313534D01*
X141979791Y-67837343D02*
X140979791Y-67837343D01*
X141932172Y-67837343D02*
X141979791Y-67742105D01*
X141979791Y-67742105D02*
X141979791Y-67551629D01*
X141979791Y-67551629D02*
X141932172Y-67456391D01*
X141932172Y-67456391D02*
X141884553Y-67408772D01*
X141884553Y-67408772D02*
X141789315Y-67361153D01*
X141789315Y-67361153D02*
X141503601Y-67361153D01*
X141503601Y-67361153D02*
X141408363Y-67408772D01*
X141408363Y-67408772D02*
X141360744Y-67456391D01*
X141360744Y-67456391D02*
X141313124Y-67551629D01*
X141313124Y-67551629D02*
X141313124Y-67742105D01*
X141313124Y-67742105D02*
X141360744Y-67837343D01*
X141360744Y-66551629D02*
X141313124Y-66646867D01*
X141313124Y-66646867D02*
X141313124Y-66837343D01*
X141313124Y-66837343D02*
X141360744Y-66932581D01*
X141360744Y-66932581D02*
X141455982Y-66980200D01*
X141455982Y-66980200D02*
X141836934Y-66980200D01*
X141836934Y-66980200D02*
X141932172Y-66932581D01*
X141932172Y-66932581D02*
X141979791Y-66837343D01*
X141979791Y-66837343D02*
X141979791Y-66646867D01*
X141979791Y-66646867D02*
X141932172Y-66551629D01*
X141932172Y-66551629D02*
X141836934Y-66504010D01*
X141836934Y-66504010D02*
X141741696Y-66504010D01*
X141741696Y-66504010D02*
X141646458Y-66980200D01*
X141313124Y-66075438D02*
X141979791Y-66075438D01*
X141789315Y-66075438D02*
X141884553Y-66027819D01*
X141884553Y-66027819D02*
X141932172Y-65980200D01*
X141932172Y-65980200D02*
X141979791Y-65884962D01*
X141979791Y-65884962D02*
X141979791Y-65789724D01*
X142313124Y-64837342D02*
X142313124Y-64265914D01*
X141313124Y-64551628D02*
X142313124Y-64551628D01*
X141313124Y-63504009D02*
X141836934Y-63504009D01*
X141836934Y-63504009D02*
X141932172Y-63551628D01*
X141932172Y-63551628D02*
X141979791Y-63646866D01*
X141979791Y-63646866D02*
X141979791Y-63837342D01*
X141979791Y-63837342D02*
X141932172Y-63932580D01*
X141360744Y-63504009D02*
X141313124Y-63599247D01*
X141313124Y-63599247D02*
X141313124Y-63837342D01*
X141313124Y-63837342D02*
X141360744Y-63932580D01*
X141360744Y-63932580D02*
X141455982Y-63980199D01*
X141455982Y-63980199D02*
X141551220Y-63980199D01*
X141551220Y-63980199D02*
X141646458Y-63932580D01*
X141646458Y-63932580D02*
X141694077Y-63837342D01*
X141694077Y-63837342D02*
X141694077Y-63599247D01*
X141694077Y-63599247D02*
X141741696Y-63504009D01*
X141979791Y-63027818D02*
X140979791Y-63027818D01*
X141932172Y-63027818D02*
X141979791Y-62932580D01*
X141979791Y-62932580D02*
X141979791Y-62742104D01*
X141979791Y-62742104D02*
X141932172Y-62646866D01*
X141932172Y-62646866D02*
X141884553Y-62599247D01*
X141884553Y-62599247D02*
X141789315Y-62551628D01*
X141789315Y-62551628D02*
X141503601Y-62551628D01*
X141503601Y-62551628D02*
X141408363Y-62599247D01*
X141408363Y-62599247D02*
X141360744Y-62646866D01*
X141360744Y-62646866D02*
X141313124Y-62742104D01*
X141313124Y-62742104D02*
X141313124Y-62932580D01*
X141313124Y-62932580D02*
X141360744Y-63027818D01*
X141360744Y-61742104D02*
X141313124Y-61837342D01*
X141313124Y-61837342D02*
X141313124Y-62027818D01*
X141313124Y-62027818D02*
X141360744Y-62123056D01*
X141360744Y-62123056D02*
X141455982Y-62170675D01*
X141455982Y-62170675D02*
X141836934Y-62170675D01*
X141836934Y-62170675D02*
X141932172Y-62123056D01*
X141932172Y-62123056D02*
X141979791Y-62027818D01*
X141979791Y-62027818D02*
X141979791Y-61837342D01*
X141979791Y-61837342D02*
X141932172Y-61742104D01*
X141932172Y-61742104D02*
X141836934Y-61694485D01*
X141836934Y-61694485D02*
X141741696Y-61694485D01*
X141741696Y-61694485D02*
X141646458Y-62170675D01*
X141313124Y-59932580D02*
X141789315Y-60265913D01*
X141313124Y-60504008D02*
X142313124Y-60504008D01*
X142313124Y-60504008D02*
X142313124Y-60123056D01*
X142313124Y-60123056D02*
X142265505Y-60027818D01*
X142265505Y-60027818D02*
X142217886Y-59980199D01*
X142217886Y-59980199D02*
X142122648Y-59932580D01*
X142122648Y-59932580D02*
X141979791Y-59932580D01*
X141979791Y-59932580D02*
X141884553Y-59980199D01*
X141884553Y-59980199D02*
X141836934Y-60027818D01*
X141836934Y-60027818D02*
X141789315Y-60123056D01*
X141789315Y-60123056D02*
X141789315Y-60504008D01*
X141360744Y-59123056D02*
X141313124Y-59218294D01*
X141313124Y-59218294D02*
X141313124Y-59408770D01*
X141313124Y-59408770D02*
X141360744Y-59504008D01*
X141360744Y-59504008D02*
X141455982Y-59551627D01*
X141455982Y-59551627D02*
X141836934Y-59551627D01*
X141836934Y-59551627D02*
X141932172Y-59504008D01*
X141932172Y-59504008D02*
X141979791Y-59408770D01*
X141979791Y-59408770D02*
X141979791Y-59218294D01*
X141979791Y-59218294D02*
X141932172Y-59123056D01*
X141932172Y-59123056D02*
X141836934Y-59075437D01*
X141836934Y-59075437D02*
X141741696Y-59075437D01*
X141741696Y-59075437D02*
X141646458Y-59551627D01*
X141313124Y-58218294D02*
X141836934Y-58218294D01*
X141836934Y-58218294D02*
X141932172Y-58265913D01*
X141932172Y-58265913D02*
X141979791Y-58361151D01*
X141979791Y-58361151D02*
X141979791Y-58551627D01*
X141979791Y-58551627D02*
X141932172Y-58646865D01*
X141360744Y-58218294D02*
X141313124Y-58313532D01*
X141313124Y-58313532D02*
X141313124Y-58551627D01*
X141313124Y-58551627D02*
X141360744Y-58646865D01*
X141360744Y-58646865D02*
X141455982Y-58694484D01*
X141455982Y-58694484D02*
X141551220Y-58694484D01*
X141551220Y-58694484D02*
X141646458Y-58646865D01*
X141646458Y-58646865D02*
X141694077Y-58551627D01*
X141694077Y-58551627D02*
X141694077Y-58313532D01*
X141694077Y-58313532D02*
X141741696Y-58218294D01*
X141313124Y-57313532D02*
X142313124Y-57313532D01*
X141360744Y-57313532D02*
X141313124Y-57408770D01*
X141313124Y-57408770D02*
X141313124Y-57599246D01*
X141313124Y-57599246D02*
X141360744Y-57694484D01*
X141360744Y-57694484D02*
X141408363Y-57742103D01*
X141408363Y-57742103D02*
X141503601Y-57789722D01*
X141503601Y-57789722D02*
X141789315Y-57789722D01*
X141789315Y-57789722D02*
X141884553Y-57742103D01*
X141884553Y-57742103D02*
X141932172Y-57694484D01*
X141932172Y-57694484D02*
X141979791Y-57599246D01*
X141979791Y-57599246D02*
X141979791Y-57408770D01*
X141979791Y-57408770D02*
X141932172Y-57313532D01*
X141360744Y-56456389D02*
X141313124Y-56551627D01*
X141313124Y-56551627D02*
X141313124Y-56742103D01*
X141313124Y-56742103D02*
X141360744Y-56837341D01*
X141360744Y-56837341D02*
X141455982Y-56884960D01*
X141455982Y-56884960D02*
X141836934Y-56884960D01*
X141836934Y-56884960D02*
X141932172Y-56837341D01*
X141932172Y-56837341D02*
X141979791Y-56742103D01*
X141979791Y-56742103D02*
X141979791Y-56551627D01*
X141979791Y-56551627D02*
X141932172Y-56456389D01*
X141932172Y-56456389D02*
X141836934Y-56408770D01*
X141836934Y-56408770D02*
X141741696Y-56408770D01*
X141741696Y-56408770D02*
X141646458Y-56884960D01*
X141313124Y-55980198D02*
X141979791Y-55980198D01*
X141789315Y-55980198D02*
X141884553Y-55932579D01*
X141884553Y-55932579D02*
X141932172Y-55884960D01*
X141932172Y-55884960D02*
X141979791Y-55789722D01*
X141979791Y-55789722D02*
X141979791Y-55694484D01*
X139703180Y-72027820D02*
X140703180Y-72027820D01*
X139703180Y-71599249D02*
X140226990Y-71599249D01*
X140226990Y-71599249D02*
X140322228Y-71646868D01*
X140322228Y-71646868D02*
X140369847Y-71742106D01*
X140369847Y-71742106D02*
X140369847Y-71884963D01*
X140369847Y-71884963D02*
X140322228Y-71980201D01*
X140322228Y-71980201D02*
X140274609Y-72027820D01*
X140369847Y-71265915D02*
X140369847Y-70884963D01*
X140703180Y-71123058D02*
X139846038Y-71123058D01*
X139846038Y-71123058D02*
X139750800Y-71075439D01*
X139750800Y-71075439D02*
X139703180Y-70980201D01*
X139703180Y-70980201D02*
X139703180Y-70884963D01*
X140369847Y-70694486D02*
X140369847Y-70313534D01*
X140703180Y-70551629D02*
X139846038Y-70551629D01*
X139846038Y-70551629D02*
X139750800Y-70504010D01*
X139750800Y-70504010D02*
X139703180Y-70408772D01*
X139703180Y-70408772D02*
X139703180Y-70313534D01*
X140369847Y-69980200D02*
X139369847Y-69980200D01*
X140322228Y-69980200D02*
X140369847Y-69884962D01*
X140369847Y-69884962D02*
X140369847Y-69694486D01*
X140369847Y-69694486D02*
X140322228Y-69599248D01*
X140322228Y-69599248D02*
X140274609Y-69551629D01*
X140274609Y-69551629D02*
X140179371Y-69504010D01*
X140179371Y-69504010D02*
X139893657Y-69504010D01*
X139893657Y-69504010D02*
X139798419Y-69551629D01*
X139798419Y-69551629D02*
X139750800Y-69599248D01*
X139750800Y-69599248D02*
X139703180Y-69694486D01*
X139703180Y-69694486D02*
X139703180Y-69884962D01*
X139703180Y-69884962D02*
X139750800Y-69980200D01*
X139750800Y-69123057D02*
X139703180Y-69027819D01*
X139703180Y-69027819D02*
X139703180Y-68837343D01*
X139703180Y-68837343D02*
X139750800Y-68742105D01*
X139750800Y-68742105D02*
X139846038Y-68694486D01*
X139846038Y-68694486D02*
X139893657Y-68694486D01*
X139893657Y-68694486D02*
X139988895Y-68742105D01*
X139988895Y-68742105D02*
X140036514Y-68837343D01*
X140036514Y-68837343D02*
X140036514Y-68980200D01*
X140036514Y-68980200D02*
X140084133Y-69075438D01*
X140084133Y-69075438D02*
X140179371Y-69123057D01*
X140179371Y-69123057D02*
X140226990Y-69123057D01*
X140226990Y-69123057D02*
X140322228Y-69075438D01*
X140322228Y-69075438D02*
X140369847Y-68980200D01*
X140369847Y-68980200D02*
X140369847Y-68837343D01*
X140369847Y-68837343D02*
X140322228Y-68742105D01*
X139798419Y-68265914D02*
X139750800Y-68218295D01*
X139750800Y-68218295D02*
X139703180Y-68265914D01*
X139703180Y-68265914D02*
X139750800Y-68313533D01*
X139750800Y-68313533D02*
X139798419Y-68265914D01*
X139798419Y-68265914D02*
X139703180Y-68265914D01*
X140322228Y-68265914D02*
X140274609Y-68218295D01*
X140274609Y-68218295D02*
X140226990Y-68265914D01*
X140226990Y-68265914D02*
X140274609Y-68313533D01*
X140274609Y-68313533D02*
X140322228Y-68265914D01*
X140322228Y-68265914D02*
X140226990Y-68265914D01*
X140750800Y-67075439D02*
X139465085Y-67932581D01*
X140750800Y-66027820D02*
X139465085Y-66884962D01*
X139750800Y-65313534D02*
X139703180Y-65408772D01*
X139703180Y-65408772D02*
X139703180Y-65599248D01*
X139703180Y-65599248D02*
X139750800Y-65694486D01*
X139750800Y-65694486D02*
X139846038Y-65742105D01*
X139846038Y-65742105D02*
X140226990Y-65742105D01*
X140226990Y-65742105D02*
X140322228Y-65694486D01*
X140322228Y-65694486D02*
X140369847Y-65599248D01*
X140369847Y-65599248D02*
X140369847Y-65408772D01*
X140369847Y-65408772D02*
X140322228Y-65313534D01*
X140322228Y-65313534D02*
X140226990Y-65265915D01*
X140226990Y-65265915D02*
X140131752Y-65265915D01*
X140131752Y-65265915D02*
X140036514Y-65742105D01*
X140084133Y-64837343D02*
X140084133Y-64075439D01*
X139703180Y-63599248D02*
X140703180Y-63599248D01*
X140322228Y-63599248D02*
X140369847Y-63504010D01*
X140369847Y-63504010D02*
X140369847Y-63313534D01*
X140369847Y-63313534D02*
X140322228Y-63218296D01*
X140322228Y-63218296D02*
X140274609Y-63170677D01*
X140274609Y-63170677D02*
X140179371Y-63123058D01*
X140179371Y-63123058D02*
X139893657Y-63123058D01*
X139893657Y-63123058D02*
X139798419Y-63170677D01*
X139798419Y-63170677D02*
X139750800Y-63218296D01*
X139750800Y-63218296D02*
X139703180Y-63313534D01*
X139703180Y-63313534D02*
X139703180Y-63504010D01*
X139703180Y-63504010D02*
X139750800Y-63599248D01*
X139703180Y-62265915D02*
X140226990Y-62265915D01*
X140226990Y-62265915D02*
X140322228Y-62313534D01*
X140322228Y-62313534D02*
X140369847Y-62408772D01*
X140369847Y-62408772D02*
X140369847Y-62599248D01*
X140369847Y-62599248D02*
X140322228Y-62694486D01*
X139750800Y-62265915D02*
X139703180Y-62361153D01*
X139703180Y-62361153D02*
X139703180Y-62599248D01*
X139703180Y-62599248D02*
X139750800Y-62694486D01*
X139750800Y-62694486D02*
X139846038Y-62742105D01*
X139846038Y-62742105D02*
X139941276Y-62742105D01*
X139941276Y-62742105D02*
X140036514Y-62694486D01*
X140036514Y-62694486D02*
X140084133Y-62599248D01*
X140084133Y-62599248D02*
X140084133Y-62361153D01*
X140084133Y-62361153D02*
X140131752Y-62265915D01*
X139750800Y-61837343D02*
X139703180Y-61742105D01*
X139703180Y-61742105D02*
X139703180Y-61551629D01*
X139703180Y-61551629D02*
X139750800Y-61456391D01*
X139750800Y-61456391D02*
X139846038Y-61408772D01*
X139846038Y-61408772D02*
X139893657Y-61408772D01*
X139893657Y-61408772D02*
X139988895Y-61456391D01*
X139988895Y-61456391D02*
X140036514Y-61551629D01*
X140036514Y-61551629D02*
X140036514Y-61694486D01*
X140036514Y-61694486D02*
X140084133Y-61789724D01*
X140084133Y-61789724D02*
X140179371Y-61837343D01*
X140179371Y-61837343D02*
X140226990Y-61837343D01*
X140226990Y-61837343D02*
X140322228Y-61789724D01*
X140322228Y-61789724D02*
X140369847Y-61694486D01*
X140369847Y-61694486D02*
X140369847Y-61551629D01*
X140369847Y-61551629D02*
X140322228Y-61456391D01*
X140369847Y-61123057D02*
X140369847Y-60742105D01*
X140703180Y-60980200D02*
X139846038Y-60980200D01*
X139846038Y-60980200D02*
X139750800Y-60932581D01*
X139750800Y-60932581D02*
X139703180Y-60837343D01*
X139703180Y-60837343D02*
X139703180Y-60742105D01*
X139750800Y-60027819D02*
X139703180Y-60123057D01*
X139703180Y-60123057D02*
X139703180Y-60313533D01*
X139703180Y-60313533D02*
X139750800Y-60408771D01*
X139750800Y-60408771D02*
X139846038Y-60456390D01*
X139846038Y-60456390D02*
X140226990Y-60456390D01*
X140226990Y-60456390D02*
X140322228Y-60408771D01*
X140322228Y-60408771D02*
X140369847Y-60313533D01*
X140369847Y-60313533D02*
X140369847Y-60123057D01*
X140369847Y-60123057D02*
X140322228Y-60027819D01*
X140322228Y-60027819D02*
X140226990Y-59980200D01*
X140226990Y-59980200D02*
X140131752Y-59980200D01*
X140131752Y-59980200D02*
X140036514Y-60456390D01*
X139703180Y-59408771D02*
X139750800Y-59504009D01*
X139750800Y-59504009D02*
X139846038Y-59551628D01*
X139846038Y-59551628D02*
X140703180Y-59551628D01*
X140369847Y-59027818D02*
X139703180Y-59027818D01*
X140274609Y-59027818D02*
X140322228Y-58980199D01*
X140322228Y-58980199D02*
X140369847Y-58884961D01*
X140369847Y-58884961D02*
X140369847Y-58742104D01*
X140369847Y-58742104D02*
X140322228Y-58646866D01*
X140322228Y-58646866D02*
X140226990Y-58599247D01*
X140226990Y-58599247D02*
X139703180Y-58599247D01*
X139798419Y-58123056D02*
X139750800Y-58075437D01*
X139750800Y-58075437D02*
X139703180Y-58123056D01*
X139703180Y-58123056D02*
X139750800Y-58170675D01*
X139750800Y-58170675D02*
X139798419Y-58123056D01*
X139798419Y-58123056D02*
X139703180Y-58123056D01*
X139703180Y-57218295D02*
X140703180Y-57218295D01*
X139750800Y-57218295D02*
X139703180Y-57313533D01*
X139703180Y-57313533D02*
X139703180Y-57504009D01*
X139703180Y-57504009D02*
X139750800Y-57599247D01*
X139750800Y-57599247D02*
X139798419Y-57646866D01*
X139798419Y-57646866D02*
X139893657Y-57694485D01*
X139893657Y-57694485D02*
X140179371Y-57694485D01*
X140179371Y-57694485D02*
X140274609Y-57646866D01*
X140274609Y-57646866D02*
X140322228Y-57599247D01*
X140322228Y-57599247D02*
X140369847Y-57504009D01*
X140369847Y-57504009D02*
X140369847Y-57313533D01*
X140369847Y-57313533D02*
X140322228Y-57218295D01*
X139750800Y-56361152D02*
X139703180Y-56456390D01*
X139703180Y-56456390D02*
X139703180Y-56646866D01*
X139703180Y-56646866D02*
X139750800Y-56742104D01*
X139750800Y-56742104D02*
X139846038Y-56789723D01*
X139846038Y-56789723D02*
X140226990Y-56789723D01*
X140226990Y-56789723D02*
X140322228Y-56742104D01*
X140322228Y-56742104D02*
X140369847Y-56646866D01*
X140369847Y-56646866D02*
X140369847Y-56456390D01*
X140369847Y-56456390D02*
X140322228Y-56361152D01*
X140322228Y-56361152D02*
X140226990Y-56313533D01*
X140226990Y-56313533D02*
X140131752Y-56313533D01*
X140131752Y-56313533D02*
X140036514Y-56789723D01*
D10*
%TO.C,REF\u002A\u002A*%
X112522000Y-56210200D02*
X112522000Y-72720200D01*
X112522000Y-72720200D02*
X125222000Y-75260200D01*
X125222000Y-58750200D02*
X112522000Y-56210200D01*
X137922000Y-56210200D02*
X125222000Y-58750200D01*
X137922000Y-58750200D02*
X137922000Y-56210200D01*
X137922000Y-58750200D02*
X137922000Y-72466200D01*
X137922000Y-72466200D02*
X125222000Y-75260200D01*
D15*
X115544500Y-61290200D02*
G75*
G02*
X114579500Y-61290200I-482500J0D01*
G01*
X114579500Y-61290200D02*
G75*
G02*
X115544500Y-61290200I482500J0D01*
G01*
X118235025Y-61212907D02*
G75*
G02*
X117270025Y-61212907I-482500J0D01*
G01*
X117270025Y-61212907D02*
G75*
G02*
X118235025Y-61212907I482500J0D01*
G01*
X120624500Y-61290200D02*
G75*
G02*
X119659500Y-61290200I-482500J0D01*
G01*
X119659500Y-61290200D02*
G75*
G02*
X120624500Y-61290200I482500J0D01*
G01*
X123164500Y-61290200D02*
G75*
G02*
X122199500Y-61290200I-482500J0D01*
G01*
X122199500Y-61290200D02*
G75*
G02*
X123164500Y-61290200I482500J0D01*
G01*
X125704500Y-61290200D02*
G75*
G02*
X124739500Y-61290200I-482500J0D01*
G01*
X124739500Y-61290200D02*
G75*
G02*
X125704500Y-61290200I482500J0D01*
G01*
D16*
X128079500Y-61290200D02*
G75*
G02*
X127444500Y-61290200I-317500J0D01*
G01*
X127444500Y-61290200D02*
G75*
G02*
X128079500Y-61290200I317500J0D01*
G01*
D15*
X130784500Y-61290200D02*
G75*
G02*
X129819500Y-61290200I-482500J0D01*
G01*
X129819500Y-61290200D02*
G75*
G02*
X130784500Y-61290200I482500J0D01*
G01*
X133324500Y-61290200D02*
G75*
G02*
X132359500Y-61290200I-482500J0D01*
G01*
X132359500Y-61290200D02*
G75*
G02*
X133324500Y-61290200I482500J0D01*
G01*
X135864500Y-61290200D02*
G75*
G02*
X134899500Y-61290200I-482500J0D01*
G01*
X134899500Y-61290200D02*
G75*
G02*
X135864500Y-61290200I482500J0D01*
G01*
%TD*%
M02*
